<svg width="576" height="576" viewBox="0 0 576 576" fill="none" xmlns="http://www.w3.org/2000/svg">
<path d="M72 144H144V216H72V144Z" fill="black"/>
<path d="M216 144H288V216H216V144Z" fill="black"/>
<path d="M360 144H432V216H360V144Z" fill="black"/>
<path d="M504 144H576V216H504V144Z" fill="black"/>
<path d="M144 144H216V216H144V144Z" fill="white"/>
<path d="M0 144H72V216H0V144Z" fill="white"/>
<path d="M288 144H360V216H288V144Z" fill="white"/>
<path d="M432 144H504V216H432V144Z" fill="white"/>
<path d="M72 288H144V360H72V288Z" fill="black"/>
<path d="M216 288H288V360H216V288Z" fill="black"/>
<path d="M360 288H432V360H360V288Z" fill="black"/>
<path d="M504 288H576V360H504V288Z" fill="black"/>
<path d="M144 288H216V360H144V288Z" fill="white"/>
<path d="M0 288H72V360H0V288Z" fill="white"/>
<path d="M288 288H360V360H288V288Z" fill="white"/>
<path d="M432 288H504V360H432V288Z" fill="white"/>
<path d="M72 432H144V504H72V432Z" fill="black"/>
<path d="M216 432H288V504H216V432Z" fill="black"/>
<path d="M360 432H432V504H360V432Z" fill="black"/>
<path d="M504 432H576V504H504V432Z" fill="black"/>
<path d="M144 432H216V504H144V432Z" fill="white"/>
<path d="M0 432H72V504H0V432Z" fill="white"/>
<path d="M288 432H360V504H288V432Z" fill="white"/>
<path d="M432 432H504V504H432V432Z" fill="white"/>
<path d="M0 48C0 31.1984 0 22.7976 3.2698 16.3803C6.14601 10.7354 10.7354 6.14601 16.3803 3.2698C22.7976 0 31.1984 0 48 0H72V72H0V48Z" fill="white"/>
<path d="M72 0H144V72H72V0Z" fill="black"/>
<path d="M216 0H288V72H216V0Z" fill="black"/>
<path d="M504 0H528C544.802 0 553.202 0 559.62 3.2698C565.265 6.14601 569.854 10.7354 572.73 16.3803C576 22.7976 576 31.1984 576 48V72H504V0Z" fill="black"/>
<path d="M360 0H432V72H360V0Z" fill="black"/>
<path d="M144 0H216V72H144V0Z" fill="white"/>
<path d="M288 0H360V72H288V0Z" fill="white"/>
<path d="M432 0H504V72H432V0Z" fill="white"/>
<path d="M0 72H72V144H0V72Z" fill="black"/>
<path d="M144 72H216V144H144V72Z" fill="black"/>
<path d="M288 72H360V144H288V72Z" fill="black"/>
<path d="M432 72H504V144H432V72Z" fill="black"/>
<path d="M72 72H144V144H72V72Z" fill="white"/>
<path d="M216 72H288V144H216V72Z" fill="white"/>
<path d="M360 72H432V144H360V72Z" fill="white"/>
<path d="M504 72H576V144H504V72Z" fill="white"/>
<path d="M0 216H72V288H0V216Z" fill="black"/>
<path d="M144 216H216V288H144V216Z" fill="black"/>
<path d="M288 216H360V288H288V216Z" fill="black"/>
<path d="M432 216H504V288H432V216Z" fill="black"/>
<path d="M72 216H144V288H72V216Z" fill="white"/>
<path d="M216 216H288V288H216V216Z" fill="white"/>
<path d="M360 216H432V288H360V216Z" fill="white"/>
<path d="M504 216H576V288H504V216Z" fill="white"/>
<path d="M0 360H72V432H0V360Z" fill="black"/>
<path d="M144 360H216V432H144V360Z" fill="black"/>
<path d="M288 360H360V432H288V360Z" fill="black"/>
<circle cx="468" cy="396" r="15" fill="white"/>
<path d="M432 360H504V432H432V360Z" fill="black"/>
<path d="M72 360H144V432H72V360Z" fill="white"/>
<path d="M216 360H288V432H216V360Z" fill="white"/>
<path d="M360 360H432V432H360V360Z" fill="white"/>
<path d="M504 360H576V432H504V360Z" fill="white"/>
<path d="M0 504H72V576H48C31.1984 576 22.7976 576 16.3803 572.73C10.7354 569.854 6.14601 565.265 3.2698 559.62C0 553.202 0 544.802 0 528V504Z" fill="black"/>
<path d="M144 504H216V576H144V504Z" fill="black"/>
<path d="M288 504H360V576H288V504Z" fill="black"/>
<path d="M432 504H504V576H432V504Z" fill="black"/>
<path d="M72 504H144V576H72V504Z" fill="white"/>
<path d="M216 504H288V576H216V504Z" fill="white"/>
<path d="M360 504H432V576H360V504Z" fill="white"/>
<path d="M504 504H576V528C576 544.802 576 553.202 572.73 559.62C569.854 565.265 565.265 569.854 559.62 572.73C553.202 576 544.802 576 528 576H504V504Z" fill="white"/>
</svg>
