<svg width="25" height="24" viewBox="0 0 25 24" fill="none" xmlns="http://www.w3.org/2000/svg">
<path d="M12.5 10H4.5C3.39543 10 2.5 10.8954 2.5 12V20C2.5 21.1046 3.39543 22 4.5 22H12.5C13.6046 22 14.5 21.1046 14.5 20V12C14.5 10.8954 13.6046 10 12.5 10Z" stroke="#8777DA" stroke-width="2" stroke-linecap="round" stroke-linejoin="round"/>
<path d="M18.42 14.0003L21.92 10.5003C22.291 10.0888 22.4964 9.55437 22.4964 9.0003C22.4964 8.44622 22.291 7.9118 21.92 7.5003L16.92 2.5803C16.5085 2.20926 15.9741 2.00391 15.42 2.00391C14.8659 2.00391 14.3315 2.20926 13.92 2.5803L10.5 6.0003" stroke="#8777DA" stroke-width="2" stroke-linecap="round" stroke-linejoin="round"/>
<path d="M6.5 18H6.51" stroke="#8777DA" stroke-width="2" stroke-linecap="round" stroke-linejoin="round"/>
<path d="M10.5 14H10.51" stroke="#8777DA" stroke-width="2" stroke-linecap="round" stroke-linejoin="round"/>
<path d="M15.5 6H15.51" stroke="#8777DA" stroke-width="2" stroke-linecap="round" stroke-linejoin="round"/>
<path d="M18.5 9H18.51" stroke="#8777DA" stroke-width="2" stroke-linecap="round" stroke-linejoin="round"/>
</svg>
