<svg width="50" height="36" viewBox="0 0 50 36" fill="none" xmlns="http://www.w3.org/2000/svg">
<mask id="path-1-outside-1_768_24409" maskUnits="userSpaceOnUse" x="-0.582031" y="-0.5" width="51" height="37" fill="black">
<rect fill="white" x="-0.582031" y="-0.5" width="51" height="37"/>
<path d="M49.4056 15.6315L43.7238 1.59366C43.5496 1.16184 43.2238 0.828509 42.792 0.64669C42.3602 0.472448 41.8829 0.480024 41.4587 0.669418L37.0344 2.63911C36.2844 2.9573 35.8829 3.77548 36.042 4.55578L34.8678 5.21487C34.4738 5.44215 33.9965 5.52548 33.5344 5.46487L25.3753 4.26033C24.6699 4.16019 23.9509 4.22133 23.2725 4.43915C22.5941 4.65698 21.9739 5.02581 21.4587 5.5179L20.8602 6.09366H16.3299C16.1253 6.09366 15.9208 6.0179 15.7693 5.88154L15.3677 5.54063C15.6481 4.85124 15.4587 4.04821 14.8526 3.57093L11.4284 0.866388C11.0647 0.578509 10.6102 0.449721 10.1481 0.517902C9.69351 0.578509 9.27684 0.828508 9.00411 1.19214L0.754112 12.374C0.208657 13.1088 0.337445 14.1391 1.06472 14.7225L4.48138 17.4194C4.66124 17.5617 4.86814 17.666 5.08954 17.7259C5.31093 17.7858 5.54218 17.8001 5.76926 17.7679C5.99523 17.738 6.21267 17.6621 6.40813 17.5448C6.60358 17.4275 6.7729 17.2714 6.90563 17.0861L6.93593 17.0482L7.42835 17.4194C7.71623 17.624 7.8829 17.9724 7.8829 18.3361V20.374L6.61017 22.0103C5.47381 23.4876 5.73138 25.6164 7.20108 26.7528C7.79957 27.2224 8.52684 27.4724 9.27684 27.4724C9.4132 27.4724 9.55714 27.4649 9.69351 27.4497C9.84502 27.427 9.98896 27.3891 10.1329 27.3512C10.1329 27.3967 10.1253 27.4346 10.1253 27.48C10.1253 28.4497 10.5647 29.3588 11.3223 29.98C11.9132 30.4497 12.6253 30.6846 13.3299 30.6846C13.7693 30.6846 14.2087 30.5861 14.6177 30.4118V30.4497C14.7238 31.2452 15.1405 31.9497 15.7465 32.3967L15.8829 32.5028C16.5132 32.9705 17.3032 33.1694 18.0799 33.0558C18.4056 33.0103 18.7011 32.8967 18.989 32.7528C19.1481 33.5634 19.6102 34.2603 20.2996 34.6997L20.3981 34.7679C20.7281 34.9865 21.0986 35.1366 21.4877 35.2095C21.8767 35.2823 22.2765 35.2764 22.6632 35.1921C23.4587 35.0255 24.1329 34.5558 24.5799 33.874L24.7087 33.677C25.2465 34.0861 25.8905 34.2982 26.5799 34.2982C27.3905 34.2982 28.1859 33.9649 28.7617 33.3967C29.0936 33.0648 29.3458 32.6619 29.4993 32.2183C29.6528 31.7748 29.7037 31.3021 29.6481 30.8361C30.1106 30.9034 30.5826 30.8591 31.0245 30.7066C31.4664 30.5542 31.8653 30.2981 32.188 29.9599C32.5106 29.6217 32.7476 29.2111 32.879 28.7625C33.0105 28.314 33.0326 27.8404 32.9435 27.3815C33.9511 27.4421 34.9435 27.0406 35.6253 26.23C35.9363 25.8628 36.1615 25.4308 36.2847 24.9656C36.4079 24.5005 36.4259 24.0137 36.3374 23.5406C37.2541 23.6391 38.1859 23.3209 38.8677 22.6543C39.6178 21.9043 39.8981 20.8437 39.6935 19.8437C39.7314 19.8361 39.7693 19.8437 39.8071 19.8361L42.2465 19.4952C42.5571 19.7755 42.9738 19.9346 43.3905 19.9346C43.6253 19.9346 43.8602 19.8891 44.0799 19.7831L48.5193 17.8209C49.3526 17.4573 49.7465 16.4876 49.4056 15.6315ZM5.58745 16.48C5.53392 16.488 5.47931 16.4847 5.42713 16.4704C5.37495 16.456 5.32634 16.4309 5.28442 16.3967L1.8829 13.7073C1.80165 13.6425 1.74846 13.5489 1.73436 13.4459C1.72025 13.343 1.74632 13.2385 1.80714 13.1543L10.0496 1.94972C10.1329 1.83608 10.2465 1.80578 10.3147 1.79821H10.3677C10.4359 1.79821 10.5268 1.81336 10.6102 1.88154L14.042 4.58609C14.2087 4.71487 14.239 4.9573 14.1177 5.11639L14.0117 5.26033L13.989 5.28305L9.24654 11.7073L9.23139 11.7224L8.32987 12.9497L6.26169 15.7528C6.25411 15.7603 6.25411 15.7679 6.25411 15.7679L5.84502 16.3285C5.76926 16.4346 5.6632 16.4725 5.58745 16.48ZM9.54199 26.1543C9.27154 26.1879 8.99712 26.1677 8.7345 26.0949C8.47188 26.0221 8.22623 25.8981 8.01169 25.73C7.11775 25.0331 6.95108 23.7224 7.65563 22.8134L10.095 19.6694C10.5041 19.1391 11.1177 18.8664 11.739 18.8664C12.1784 18.8664 12.6253 19.0103 13.0041 19.2982C13.5117 19.6997 13.8071 20.2982 13.8071 20.9421C13.8071 21.4043 13.6556 21.8437 13.3677 22.2225L10.9284 25.3664C10.5799 25.8058 10.0874 26.0861 9.54199 26.1543ZM12.1481 28.9649C11.6935 28.5937 11.4359 28.0558 11.4359 27.48C11.4359 27.0634 11.5799 26.6543 11.8602 26.2982L14.292 23.1618C14.6026 22.7528 15.0571 22.5028 15.5647 22.4421C15.6405 22.427 15.7162 22.427 15.7844 22.427C16.2162 22.427 16.6405 22.5785 17.0344 22.8967C17.8526 23.5558 17.9814 24.7603 17.3223 25.5785L14.8299 28.6846C14.5077 29.0719 14.047 29.3179 13.546 29.3703C13.045 29.4227 12.5433 29.2772 12.1481 28.9649ZM17.8829 31.7603C17.4435 31.8209 17.0117 31.7149 16.7011 31.4876L16.5723 31.3815C16.3941 31.2512 16.2444 31.0859 16.1324 30.8957C16.0204 30.7055 15.9484 30.4945 15.9208 30.2755C15.8913 30.0532 15.9069 29.8273 15.9668 29.6112C16.0267 29.3951 16.1296 29.1933 16.2693 29.0179L18.1177 26.73C18.2725 26.5376 18.4687 26.3825 18.6917 26.2762C18.9146 26.17 19.1587 26.1154 19.4056 26.1164C19.7465 26.1164 20.095 26.2224 20.3829 26.4421C20.7996 26.7528 21.042 27.2376 21.042 27.7603C21.042 28.1012 20.9435 28.4194 20.7541 28.6921C20.739 28.7073 20.7314 28.73 20.7162 28.7528C20.7087 28.7603 20.7087 28.7679 20.7011 28.7679L20.6708 28.8134L18.9511 31.1164C18.7087 31.4725 18.3223 31.6997 17.8829 31.7603ZM24.345 31.8134L23.4738 33.1694C23.2238 33.5558 22.8374 33.8209 22.3829 33.9194C21.9359 34.0103 21.4814 33.927 21.1102 33.6846L21.0117 33.6164C20.6102 33.3588 20.345 32.9573 20.2617 32.4952C20.1784 32.0331 20.2768 31.5709 20.5571 31.1846C21.0117 30.5861 21.5268 29.9194 21.7314 29.6694C21.7693 29.6315 21.8071 29.5861 21.845 29.5558C21.8526 29.5558 21.8526 29.5482 21.8526 29.5482C21.8602 29.5406 21.8753 29.5331 21.8829 29.5255C21.9208 29.4952 21.9511 29.4649 22.0117 29.427C22.5799 29.0861 23.292 29.0861 23.845 29.4421C24.3299 29.7528 24.6253 30.2982 24.6253 30.8891C24.6178 31.2224 24.5268 31.5406 24.345 31.8134ZM37.9435 21.73C37.3223 22.3437 36.3147 22.4194 35.6177 21.9118L31.2617 18.6921L29.5647 17.4346C29.4245 17.3328 29.2499 17.2902 29.0786 17.3156C28.9072 17.3411 28.7526 17.4328 28.6481 17.5709C28.4359 17.8588 28.4965 18.2679 28.7844 18.4876L31.7541 20.6846L34.2693 22.5482C34.7087 22.874 34.989 23.3512 35.0571 23.8967C35.1253 24.4421 34.9662 24.9724 34.6102 25.3967C34.2921 25.7696 33.8465 26.0104 33.3603 26.072C32.8741 26.1337 32.3824 26.0117 31.9814 25.73L26.7617 21.9952C26.6923 21.9446 26.6136 21.9084 26.5301 21.8886C26.4466 21.8689 26.36 21.866 26.2753 21.8801C26.1907 21.8942 26.1097 21.925 26.0371 21.9708C25.9645 22.0166 25.9018 22.0764 25.8526 22.1467C25.6405 22.4421 25.7087 22.8512 26.0041 23.0558L30.9965 26.624C31.3829 26.9043 31.6253 27.3361 31.6708 27.8058C31.7087 28.2831 31.542 28.7452 31.2011 29.0861C30.6329 29.6618 29.7162 29.7149 29.0723 29.23L24.1481 25.3967C24.0805 25.3438 24.0031 25.3047 23.9204 25.2818C23.8377 25.2588 23.7513 25.2524 23.6661 25.263C23.5809 25.2736 23.4987 25.3008 23.4241 25.3433C23.3495 25.3857 23.284 25.4425 23.2314 25.5103C23.0117 25.7906 23.0571 26.2073 23.3374 26.427L27.6405 29.7906C28.0496 30.1088 28.3071 30.5861 28.3374 31.1012C28.3753 31.624 28.1859 32.1164 27.8147 32.4876C27.2087 33.0937 26.1859 33.1618 25.5041 32.6694C25.5041 32.6694 25.4662 32.624 25.4132 32.5709L25.4284 32.5482C25.7465 32.0634 25.9132 31.4952 25.9132 30.8967C25.9132 29.8588 25.3981 28.9118 24.5344 28.3512C23.8753 27.927 23.0874 27.7982 22.3374 27.9346C22.3374 27.8815 22.345 27.8285 22.345 27.7755C22.345 26.8285 21.9132 25.9649 21.1632 25.4043C20.5117 24.9194 19.7314 24.7376 18.989 24.8437C19.1405 23.7528 18.739 22.6088 17.792 21.8437C17.4604 21.5723 17.0775 21.3707 16.6661 21.2509C16.2548 21.1312 15.8235 21.0957 15.3981 21.1467C15.2844 21.1618 15.1784 21.1921 15.0723 21.2149C15.0799 21.124 15.095 21.0406 15.095 20.9497C15.095 19.8967 14.6253 18.927 13.792 18.2755C12.542 17.3058 10.8223 17.3588 9.62532 18.2982C9.62532 18.2906 9.62532 18.2906 9.6329 18.2831C9.61775 18.2982 9.6026 18.3134 9.58745 18.3209C9.51169 18.3815 9.43593 18.4573 9.36775 18.5255C9.30714 18.5861 9.23896 18.6391 9.17835 18.7073V18.3437C9.17835 17.5558 8.80714 16.8209 8.19351 16.374L7.69351 16.0028L8.64805 14.7073L9.8526 13.0709L10.2314 12.5634C10.2541 12.5406 10.2693 12.5179 10.292 12.4952L14.6177 6.62396L14.8981 6.85881C15.2844 7.19972 15.792 7.38911 16.3147 7.38911H19.4814L17.6632 9.13154C17.239 9.54063 17.0041 10.0937 17.0041 10.6846C17.0041 11.5331 17.4738 12.2831 18.239 12.6391C19.1627 13.0792 20.1763 13.2981 21.1994 13.2783C22.2224 13.2586 23.2268 13.0008 24.1329 12.5255L24.9208 12.1164C25.6632 11.7224 26.5723 11.8134 27.2314 12.3437L34.9208 18.5028C35.3678 18.8512 35.8374 19.1391 36.3223 19.3512C36.4814 19.4194 36.6556 19.4876 36.8071 19.5406C36.9435 19.5937 37.0874 19.6391 37.2087 19.6694C37.3753 19.7225 37.542 19.7603 37.6859 19.7831C37.8829 19.8209 38.0723 19.8512 38.2314 19.8588C38.3071 19.8664 38.3753 19.8664 38.4511 19.874L38.3678 19.8967C38.5799 20.5255 38.4284 21.2452 37.9435 21.73ZM39.6253 18.5482C39.3753 18.5785 39.1026 18.5937 38.792 18.5861C38.6632 18.5861 38.542 18.5785 38.3678 18.5558C38.2162 18.5482 38.0799 18.5179 37.9132 18.4876C37.7947 18.4709 37.678 18.443 37.5647 18.4043C37.4587 18.3815 37.3602 18.3437 37.2617 18.3058C37.1253 18.2603 36.9814 18.1997 36.8526 18.1467C36.4738 17.98 36.095 17.7528 35.739 17.4724L28.4435 11.624L28.0496 11.3134C27.4284 10.8134 26.6708 10.5558 25.9056 10.5558C25.3602 10.5558 24.8147 10.6846 24.3223 10.9497L23.5344 11.3588C22.8093 11.7409 22.0048 11.9481 21.1853 11.9639C20.3659 11.9797 19.554 11.8036 18.8147 11.4497C18.4587 11.2831 18.3299 10.9421 18.3299 10.677C18.3299 10.5179 18.3753 10.2755 18.5874 10.0709L22.3677 6.44972C23.1102 5.7376 24.1632 5.39669 25.1859 5.54821L33.3526 6.75275C34.1026 6.85881 34.8753 6.71487 35.5117 6.35124L36.5117 5.79063L38.1177 9.76033L41.5723 18.2755L39.6253 18.5482ZM47.989 16.6391L43.542 18.6012C43.3677 18.677 43.1556 18.6164 43.0268 18.3967L38.2996 6.72245L37.6859 5.22245L37.3374 4.35881C37.2541 4.16184 37.345 3.93457 37.5496 3.84366L41.989 1.87396C42.0874 1.82851 42.2011 1.82851 42.2996 1.86639C42.3981 1.90427 42.4738 1.98002 42.5117 2.08608L48.1935 16.1315C48.2693 16.3209 48.1784 16.5482 47.989 16.6391Z"/>
</mask>
<path d="M49.4056 15.6315L43.7238 1.59366C43.5496 1.16184 43.2238 0.828509 42.792 0.64669C42.3602 0.472448 41.8829 0.480024 41.4587 0.669418L37.0344 2.63911C36.2844 2.9573 35.8829 3.77548 36.042 4.55578L34.8678 5.21487C34.4738 5.44215 33.9965 5.52548 33.5344 5.46487L25.3753 4.26033C24.6699 4.16019 23.9509 4.22133 23.2725 4.43915C22.5941 4.65698 21.9739 5.02581 21.4587 5.5179L20.8602 6.09366H16.3299C16.1253 6.09366 15.9208 6.0179 15.7693 5.88154L15.3677 5.54063C15.6481 4.85124 15.4587 4.04821 14.8526 3.57093L11.4284 0.866388C11.0647 0.578509 10.6102 0.449721 10.1481 0.517902C9.69351 0.578509 9.27684 0.828508 9.00411 1.19214L0.754112 12.374C0.208657 13.1088 0.337445 14.1391 1.06472 14.7225L4.48138 17.4194C4.66124 17.5617 4.86814 17.666 5.08954 17.7259C5.31093 17.7858 5.54218 17.8001 5.76926 17.7679C5.99523 17.738 6.21267 17.6621 6.40813 17.5448C6.60358 17.4275 6.7729 17.2714 6.90563 17.0861L6.93593 17.0482L7.42835 17.4194C7.71623 17.624 7.8829 17.9724 7.8829 18.3361V20.374L6.61017 22.0103C5.47381 23.4876 5.73138 25.6164 7.20108 26.7528C7.79957 27.2224 8.52684 27.4724 9.27684 27.4724C9.4132 27.4724 9.55714 27.4649 9.69351 27.4497C9.84502 27.427 9.98896 27.3891 10.1329 27.3512C10.1329 27.3967 10.1253 27.4346 10.1253 27.48C10.1253 28.4497 10.5647 29.3588 11.3223 29.98C11.9132 30.4497 12.6253 30.6846 13.3299 30.6846C13.7693 30.6846 14.2087 30.5861 14.6177 30.4118V30.4497C14.7238 31.2452 15.1405 31.9497 15.7465 32.3967L15.8829 32.5028C16.5132 32.9705 17.3032 33.1694 18.0799 33.0558C18.4056 33.0103 18.7011 32.8967 18.989 32.7528C19.1481 33.5634 19.6102 34.2603 20.2996 34.6997L20.3981 34.7679C20.7281 34.9865 21.0986 35.1366 21.4877 35.2095C21.8767 35.2823 22.2765 35.2764 22.6632 35.1921C23.4587 35.0255 24.1329 34.5558 24.5799 33.874L24.7087 33.677C25.2465 34.0861 25.8905 34.2982 26.5799 34.2982C27.3905 34.2982 28.1859 33.9649 28.7617 33.3967C29.0936 33.0648 29.3458 32.6619 29.4993 32.2183C29.6528 31.7748 29.7037 31.3021 29.6481 30.8361C30.1106 30.9034 30.5826 30.8591 31.0245 30.7066C31.4664 30.5542 31.8653 30.2981 32.188 29.9599C32.5106 29.6217 32.7476 29.2111 32.879 28.7625C33.0105 28.314 33.0326 27.8404 32.9435 27.3815C33.9511 27.4421 34.9435 27.0406 35.6253 26.23C35.9363 25.8628 36.1615 25.4308 36.2847 24.9656C36.4079 24.5005 36.4259 24.0137 36.3374 23.5406C37.2541 23.6391 38.1859 23.3209 38.8677 22.6543C39.6178 21.9043 39.8981 20.8437 39.6935 19.8437C39.7314 19.8361 39.7693 19.8437 39.8071 19.8361L42.2465 19.4952C42.5571 19.7755 42.9738 19.9346 43.3905 19.9346C43.6253 19.9346 43.8602 19.8891 44.0799 19.7831L48.5193 17.8209C49.3526 17.4573 49.7465 16.4876 49.4056 15.6315ZM5.58745 16.48C5.53392 16.488 5.47931 16.4847 5.42713 16.4704C5.37495 16.456 5.32634 16.4309 5.28442 16.3967L1.8829 13.7073C1.80165 13.6425 1.74846 13.5489 1.73436 13.4459C1.72025 13.343 1.74632 13.2385 1.80714 13.1543L10.0496 1.94972C10.1329 1.83608 10.2465 1.80578 10.3147 1.79821H10.3677C10.4359 1.79821 10.5268 1.81336 10.6102 1.88154L14.042 4.58609C14.2087 4.71487 14.239 4.9573 14.1177 5.11639L14.0117 5.26033L13.989 5.28305L9.24654 11.7073L9.23139 11.7224L8.32987 12.9497L6.26169 15.7528C6.25411 15.7603 6.25411 15.7679 6.25411 15.7679L5.84502 16.3285C5.76926 16.4346 5.6632 16.4725 5.58745 16.48ZM9.54199 26.1543C9.27154 26.1879 8.99712 26.1677 8.7345 26.0949C8.47188 26.0221 8.22623 25.8981 8.01169 25.73C7.11775 25.0331 6.95108 23.7224 7.65563 22.8134L10.095 19.6694C10.5041 19.1391 11.1177 18.8664 11.739 18.8664C12.1784 18.8664 12.6253 19.0103 13.0041 19.2982C13.5117 19.6997 13.8071 20.2982 13.8071 20.9421C13.8071 21.4043 13.6556 21.8437 13.3677 22.2225L10.9284 25.3664C10.5799 25.8058 10.0874 26.0861 9.54199 26.1543ZM12.1481 28.9649C11.6935 28.5937 11.4359 28.0558 11.4359 27.48C11.4359 27.0634 11.5799 26.6543 11.8602 26.2982L14.292 23.1618C14.6026 22.7528 15.0571 22.5028 15.5647 22.4421C15.6405 22.427 15.7162 22.427 15.7844 22.427C16.2162 22.427 16.6405 22.5785 17.0344 22.8967C17.8526 23.5558 17.9814 24.7603 17.3223 25.5785L14.8299 28.6846C14.5077 29.0719 14.047 29.3179 13.546 29.3703C13.045 29.4227 12.5433 29.2772 12.1481 28.9649ZM17.8829 31.7603C17.4435 31.8209 17.0117 31.7149 16.7011 31.4876L16.5723 31.3815C16.3941 31.2512 16.2444 31.0859 16.1324 30.8957C16.0204 30.7055 15.9484 30.4945 15.9208 30.2755C15.8913 30.0532 15.9069 29.8273 15.9668 29.6112C16.0267 29.3951 16.1296 29.1933 16.2693 29.0179L18.1177 26.73C18.2725 26.5376 18.4687 26.3825 18.6917 26.2762C18.9146 26.17 19.1587 26.1154 19.4056 26.1164C19.7465 26.1164 20.095 26.2224 20.3829 26.4421C20.7996 26.7528 21.042 27.2376 21.042 27.7603C21.042 28.1012 20.9435 28.4194 20.7541 28.6921C20.739 28.7073 20.7314 28.73 20.7162 28.7528C20.7087 28.7603 20.7087 28.7679 20.7011 28.7679L20.6708 28.8134L18.9511 31.1164C18.7087 31.4725 18.3223 31.6997 17.8829 31.7603ZM24.345 31.8134L23.4738 33.1694C23.2238 33.5558 22.8374 33.8209 22.3829 33.9194C21.9359 34.0103 21.4814 33.927 21.1102 33.6846L21.0117 33.6164C20.6102 33.3588 20.345 32.9573 20.2617 32.4952C20.1784 32.0331 20.2768 31.5709 20.5571 31.1846C21.0117 30.5861 21.5268 29.9194 21.7314 29.6694C21.7693 29.6315 21.8071 29.5861 21.845 29.5558C21.8526 29.5558 21.8526 29.5482 21.8526 29.5482C21.8602 29.5406 21.8753 29.5331 21.8829 29.5255C21.9208 29.4952 21.9511 29.4649 22.0117 29.427C22.5799 29.0861 23.292 29.0861 23.845 29.4421C24.3299 29.7528 24.6253 30.2982 24.6253 30.8891C24.6178 31.2224 24.5268 31.5406 24.345 31.8134ZM37.9435 21.73C37.3223 22.3437 36.3147 22.4194 35.6177 21.9118L31.2617 18.6921L29.5647 17.4346C29.4245 17.3328 29.2499 17.2902 29.0786 17.3156C28.9072 17.3411 28.7526 17.4328 28.6481 17.5709C28.4359 17.8588 28.4965 18.2679 28.7844 18.4876L31.7541 20.6846L34.2693 22.5482C34.7087 22.874 34.989 23.3512 35.0571 23.8967C35.1253 24.4421 34.9662 24.9724 34.6102 25.3967C34.2921 25.7696 33.8465 26.0104 33.3603 26.072C32.8741 26.1337 32.3824 26.0117 31.9814 25.73L26.7617 21.9952C26.6923 21.9446 26.6136 21.9084 26.5301 21.8886C26.4466 21.8689 26.36 21.866 26.2753 21.8801C26.1907 21.8942 26.1097 21.925 26.0371 21.9708C25.9645 22.0166 25.9018 22.0764 25.8526 22.1467C25.6405 22.4421 25.7087 22.8512 26.0041 23.0558L30.9965 26.624C31.3829 26.9043 31.6253 27.3361 31.6708 27.8058C31.7087 28.2831 31.542 28.7452 31.2011 29.0861C30.6329 29.6618 29.7162 29.7149 29.0723 29.23L24.1481 25.3967C24.0805 25.3438 24.0031 25.3047 23.9204 25.2818C23.8377 25.2588 23.7513 25.2524 23.6661 25.263C23.5809 25.2736 23.4987 25.3008 23.4241 25.3433C23.3495 25.3857 23.284 25.4425 23.2314 25.5103C23.0117 25.7906 23.0571 26.2073 23.3374 26.427L27.6405 29.7906C28.0496 30.1088 28.3071 30.5861 28.3374 31.1012C28.3753 31.624 28.1859 32.1164 27.8147 32.4876C27.2087 33.0937 26.1859 33.1618 25.5041 32.6694C25.5041 32.6694 25.4662 32.624 25.4132 32.5709L25.4284 32.5482C25.7465 32.0634 25.9132 31.4952 25.9132 30.8967C25.9132 29.8588 25.3981 28.9118 24.5344 28.3512C23.8753 27.927 23.0874 27.7982 22.3374 27.9346C22.3374 27.8815 22.345 27.8285 22.345 27.7755C22.345 26.8285 21.9132 25.9649 21.1632 25.4043C20.5117 24.9194 19.7314 24.7376 18.989 24.8437C19.1405 23.7528 18.739 22.6088 17.792 21.8437C17.4604 21.5723 17.0775 21.3707 16.6661 21.2509C16.2548 21.1312 15.8235 21.0957 15.3981 21.1467C15.2844 21.1618 15.1784 21.1921 15.0723 21.2149C15.0799 21.124 15.095 21.0406 15.095 20.9497C15.095 19.8967 14.6253 18.927 13.792 18.2755C12.542 17.3058 10.8223 17.3588 9.62532 18.2982C9.62532 18.2906 9.62532 18.2906 9.6329 18.2831C9.61775 18.2982 9.6026 18.3134 9.58745 18.3209C9.51169 18.3815 9.43593 18.4573 9.36775 18.5255C9.30714 18.5861 9.23896 18.6391 9.17835 18.7073V18.3437C9.17835 17.5558 8.80714 16.8209 8.19351 16.374L7.69351 16.0028L8.64805 14.7073L9.8526 13.0709L10.2314 12.5634C10.2541 12.5406 10.2693 12.5179 10.292 12.4952L14.6177 6.62396L14.8981 6.85881C15.2844 7.19972 15.792 7.38911 16.3147 7.38911H19.4814L17.6632 9.13154C17.239 9.54063 17.0041 10.0937 17.0041 10.6846C17.0041 11.5331 17.4738 12.2831 18.239 12.6391C19.1627 13.0792 20.1763 13.2981 21.1994 13.2783C22.2224 13.2586 23.2268 13.0008 24.1329 12.5255L24.9208 12.1164C25.6632 11.7224 26.5723 11.8134 27.2314 12.3437L34.9208 18.5028C35.3678 18.8512 35.8374 19.1391 36.3223 19.3512C36.4814 19.4194 36.6556 19.4876 36.8071 19.5406C36.9435 19.5937 37.0874 19.6391 37.2087 19.6694C37.3753 19.7225 37.542 19.7603 37.6859 19.7831C37.8829 19.8209 38.0723 19.8512 38.2314 19.8588C38.3071 19.8664 38.3753 19.8664 38.4511 19.874L38.3678 19.8967C38.5799 20.5255 38.4284 21.2452 37.9435 21.73ZM39.6253 18.5482C39.3753 18.5785 39.1026 18.5937 38.792 18.5861C38.6632 18.5861 38.542 18.5785 38.3678 18.5558C38.2162 18.5482 38.0799 18.5179 37.9132 18.4876C37.7947 18.4709 37.678 18.443 37.5647 18.4043C37.4587 18.3815 37.3602 18.3437 37.2617 18.3058C37.1253 18.2603 36.9814 18.1997 36.8526 18.1467C36.4738 17.98 36.095 17.7528 35.739 17.4724L28.4435 11.624L28.0496 11.3134C27.4284 10.8134 26.6708 10.5558 25.9056 10.5558C25.3602 10.5558 24.8147 10.6846 24.3223 10.9497L23.5344 11.3588C22.8093 11.7409 22.0048 11.9481 21.1853 11.9639C20.3659 11.9797 19.554 11.8036 18.8147 11.4497C18.4587 11.2831 18.3299 10.9421 18.3299 10.677C18.3299 10.5179 18.3753 10.2755 18.5874 10.0709L22.3677 6.44972C23.1102 5.7376 24.1632 5.39669 25.1859 5.54821L33.3526 6.75275C34.1026 6.85881 34.8753 6.71487 35.5117 6.35124L36.5117 5.79063L38.1177 9.76033L41.5723 18.2755L39.6253 18.5482ZM47.989 16.6391L43.542 18.6012C43.3677 18.677 43.1556 18.6164 43.0268 18.3967L38.2996 6.72245L37.6859 5.22245L37.3374 4.35881C37.2541 4.16184 37.345 3.93457 37.5496 3.84366L41.989 1.87396C42.0874 1.82851 42.2011 1.82851 42.2996 1.86639C42.3981 1.90427 42.4738 1.98002 42.5117 2.08608L48.1935 16.1315C48.2693 16.3209 48.1784 16.5482 47.989 16.6391Z" fill="black"/>
<path d="M49.4056 15.6315L43.7238 1.59366C43.5496 1.16184 43.2238 0.828509 42.792 0.64669C42.3602 0.472448 41.8829 0.480024 41.4587 0.669418L37.0344 2.63911C36.2844 2.9573 35.8829 3.77548 36.042 4.55578L34.8678 5.21487C34.4738 5.44215 33.9965 5.52548 33.5344 5.46487L25.3753 4.26033C24.6699 4.16019 23.9509 4.22133 23.2725 4.43915C22.5941 4.65698 21.9739 5.02581 21.4587 5.5179L20.8602 6.09366H16.3299C16.1253 6.09366 15.9208 6.0179 15.7693 5.88154L15.3677 5.54063C15.6481 4.85124 15.4587 4.04821 14.8526 3.57093L11.4284 0.866388C11.0647 0.578509 10.6102 0.449721 10.1481 0.517902C9.69351 0.578509 9.27684 0.828508 9.00411 1.19214L0.754112 12.374C0.208657 13.1088 0.337445 14.1391 1.06472 14.7225L4.48138 17.4194C4.66124 17.5617 4.86814 17.666 5.08954 17.7259C5.31093 17.7858 5.54218 17.8001 5.76926 17.7679C5.99523 17.738 6.21267 17.6621 6.40813 17.5448C6.60358 17.4275 6.7729 17.2714 6.90563 17.0861L6.93593 17.0482L7.42835 17.4194C7.71623 17.624 7.8829 17.9724 7.8829 18.3361V20.374L6.61017 22.0103C5.47381 23.4876 5.73138 25.6164 7.20108 26.7528C7.79957 27.2224 8.52684 27.4724 9.27684 27.4724C9.4132 27.4724 9.55714 27.4649 9.69351 27.4497C9.84502 27.427 9.98896 27.3891 10.1329 27.3512C10.1329 27.3967 10.1253 27.4346 10.1253 27.48C10.1253 28.4497 10.5647 29.3588 11.3223 29.98C11.9132 30.4497 12.6253 30.6846 13.3299 30.6846C13.7693 30.6846 14.2087 30.5861 14.6177 30.4118V30.4497C14.7238 31.2452 15.1405 31.9497 15.7465 32.3967L15.8829 32.5028C16.5132 32.9705 17.3032 33.1694 18.0799 33.0558C18.4056 33.0103 18.7011 32.8967 18.989 32.7528C19.1481 33.5634 19.6102 34.2603 20.2996 34.6997L20.3981 34.7679C20.7281 34.9865 21.0986 35.1366 21.4877 35.2095C21.8767 35.2823 22.2765 35.2764 22.6632 35.1921C23.4587 35.0255 24.1329 34.5558 24.5799 33.874L24.7087 33.677C25.2465 34.0861 25.8905 34.2982 26.5799 34.2982C27.3905 34.2982 28.1859 33.9649 28.7617 33.3967C29.0936 33.0648 29.3458 32.6619 29.4993 32.2183C29.6528 31.7748 29.7037 31.3021 29.6481 30.8361C30.1106 30.9034 30.5826 30.8591 31.0245 30.7066C31.4664 30.5542 31.8653 30.2981 32.188 29.9599C32.5106 29.6217 32.7476 29.2111 32.879 28.7625C33.0105 28.314 33.0326 27.8404 32.9435 27.3815C33.9511 27.4421 34.9435 27.0406 35.6253 26.23C35.9363 25.8628 36.1615 25.4308 36.2847 24.9656C36.4079 24.5005 36.4259 24.0137 36.3374 23.5406C37.2541 23.6391 38.1859 23.3209 38.8677 22.6543C39.6178 21.9043 39.8981 20.8437 39.6935 19.8437C39.7314 19.8361 39.7693 19.8437 39.8071 19.8361L42.2465 19.4952C42.5571 19.7755 42.9738 19.9346 43.3905 19.9346C43.6253 19.9346 43.8602 19.8891 44.0799 19.7831L48.5193 17.8209C49.3526 17.4573 49.7465 16.4876 49.4056 15.6315ZM5.58745 16.48C5.53392 16.488 5.47931 16.4847 5.42713 16.4704C5.37495 16.456 5.32634 16.4309 5.28442 16.3967L1.8829 13.7073C1.80165 13.6425 1.74846 13.5489 1.73436 13.4459C1.72025 13.343 1.74632 13.2385 1.80714 13.1543L10.0496 1.94972C10.1329 1.83608 10.2465 1.80578 10.3147 1.79821H10.3677C10.4359 1.79821 10.5268 1.81336 10.6102 1.88154L14.042 4.58609C14.2087 4.71487 14.239 4.9573 14.1177 5.11639L14.0117 5.26033L13.989 5.28305L9.24654 11.7073L9.23139 11.7224L8.32987 12.9497L6.26169 15.7528C6.25411 15.7603 6.25411 15.7679 6.25411 15.7679L5.84502 16.3285C5.76926 16.4346 5.6632 16.4725 5.58745 16.48ZM9.54199 26.1543C9.27154 26.1879 8.99712 26.1677 8.7345 26.0949C8.47188 26.0221 8.22623 25.8981 8.01169 25.73C7.11775 25.0331 6.95108 23.7224 7.65563 22.8134L10.095 19.6694C10.5041 19.1391 11.1177 18.8664 11.739 18.8664C12.1784 18.8664 12.6253 19.0103 13.0041 19.2982C13.5117 19.6997 13.8071 20.2982 13.8071 20.9421C13.8071 21.4043 13.6556 21.8437 13.3677 22.2225L10.9284 25.3664C10.5799 25.8058 10.0874 26.0861 9.54199 26.1543ZM12.1481 28.9649C11.6935 28.5937 11.4359 28.0558 11.4359 27.48C11.4359 27.0634 11.5799 26.6543 11.8602 26.2982L14.292 23.1618C14.6026 22.7528 15.0571 22.5028 15.5647 22.4421C15.6405 22.427 15.7162 22.427 15.7844 22.427C16.2162 22.427 16.6405 22.5785 17.0344 22.8967C17.8526 23.5558 17.9814 24.7603 17.3223 25.5785L14.8299 28.6846C14.5077 29.0719 14.047 29.3179 13.546 29.3703C13.045 29.4227 12.5433 29.2772 12.1481 28.9649ZM17.8829 31.7603C17.4435 31.8209 17.0117 31.7149 16.7011 31.4876L16.5723 31.3815C16.3941 31.2512 16.2444 31.0859 16.1324 30.8957C16.0204 30.7055 15.9484 30.4945 15.9208 30.2755C15.8913 30.0532 15.9069 29.8273 15.9668 29.6112C16.0267 29.3951 16.1296 29.1933 16.2693 29.0179L18.1177 26.73C18.2725 26.5376 18.4687 26.3825 18.6917 26.2762C18.9146 26.17 19.1587 26.1154 19.4056 26.1164C19.7465 26.1164 20.095 26.2224 20.3829 26.4421C20.7996 26.7528 21.042 27.2376 21.042 27.7603C21.042 28.1012 20.9435 28.4194 20.7541 28.6921C20.739 28.7073 20.7314 28.73 20.7162 28.7528C20.7087 28.7603 20.7087 28.7679 20.7011 28.7679L20.6708 28.8134L18.9511 31.1164C18.7087 31.4725 18.3223 31.6997 17.8829 31.7603ZM24.345 31.8134L23.4738 33.1694C23.2238 33.5558 22.8374 33.8209 22.3829 33.9194C21.9359 34.0103 21.4814 33.927 21.1102 33.6846L21.0117 33.6164C20.6102 33.3588 20.345 32.9573 20.2617 32.4952C20.1784 32.0331 20.2768 31.5709 20.5571 31.1846C21.0117 30.5861 21.5268 29.9194 21.7314 29.6694C21.7693 29.6315 21.8071 29.5861 21.845 29.5558C21.8526 29.5558 21.8526 29.5482 21.8526 29.5482C21.8602 29.5406 21.8753 29.5331 21.8829 29.5255C21.9208 29.4952 21.9511 29.4649 22.0117 29.427C22.5799 29.0861 23.292 29.0861 23.845 29.4421C24.3299 29.7528 24.6253 30.2982 24.6253 30.8891C24.6178 31.2224 24.5268 31.5406 24.345 31.8134ZM37.9435 21.73C37.3223 22.3437 36.3147 22.4194 35.6177 21.9118L31.2617 18.6921L29.5647 17.4346C29.4245 17.3328 29.2499 17.2902 29.0786 17.3156C28.9072 17.3411 28.7526 17.4328 28.6481 17.5709C28.4359 17.8588 28.4965 18.2679 28.7844 18.4876L31.7541 20.6846L34.2693 22.5482C34.7087 22.874 34.989 23.3512 35.0571 23.8967C35.1253 24.4421 34.9662 24.9724 34.6102 25.3967C34.2921 25.7696 33.8465 26.0104 33.3603 26.072C32.8741 26.1337 32.3824 26.0117 31.9814 25.73L26.7617 21.9952C26.6923 21.9446 26.6136 21.9084 26.5301 21.8886C26.4466 21.8689 26.36 21.866 26.2753 21.8801C26.1907 21.8942 26.1097 21.925 26.0371 21.9708C25.9645 22.0166 25.9018 22.0764 25.8526 22.1467C25.6405 22.4421 25.7087 22.8512 26.0041 23.0558L30.9965 26.624C31.3829 26.9043 31.6253 27.3361 31.6708 27.8058C31.7087 28.2831 31.542 28.7452 31.2011 29.0861C30.6329 29.6618 29.7162 29.7149 29.0723 29.23L24.1481 25.3967C24.0805 25.3438 24.0031 25.3047 23.9204 25.2818C23.8377 25.2588 23.7513 25.2524 23.6661 25.263C23.5809 25.2736 23.4987 25.3008 23.4241 25.3433C23.3495 25.3857 23.284 25.4425 23.2314 25.5103C23.0117 25.7906 23.0571 26.2073 23.3374 26.427L27.6405 29.7906C28.0496 30.1088 28.3071 30.5861 28.3374 31.1012C28.3753 31.624 28.1859 32.1164 27.8147 32.4876C27.2087 33.0937 26.1859 33.1618 25.5041 32.6694C25.5041 32.6694 25.4662 32.624 25.4132 32.5709L25.4284 32.5482C25.7465 32.0634 25.9132 31.4952 25.9132 30.8967C25.9132 29.8588 25.3981 28.9118 24.5344 28.3512C23.8753 27.927 23.0874 27.7982 22.3374 27.9346C22.3374 27.8815 22.345 27.8285 22.345 27.7755C22.345 26.8285 21.9132 25.9649 21.1632 25.4043C20.5117 24.9194 19.7314 24.7376 18.989 24.8437C19.1405 23.7528 18.739 22.6088 17.792 21.8437C17.4604 21.5723 17.0775 21.3707 16.6661 21.2509C16.2548 21.1312 15.8235 21.0957 15.3981 21.1467C15.2844 21.1618 15.1784 21.1921 15.0723 21.2149C15.0799 21.124 15.095 21.0406 15.095 20.9497C15.095 19.8967 14.6253 18.927 13.792 18.2755C12.542 17.3058 10.8223 17.3588 9.62532 18.2982C9.62532 18.2906 9.62532 18.2906 9.6329 18.2831C9.61775 18.2982 9.6026 18.3134 9.58745 18.3209C9.51169 18.3815 9.43593 18.4573 9.36775 18.5255C9.30714 18.5861 9.23896 18.6391 9.17835 18.7073V18.3437C9.17835 17.5558 8.80714 16.8209 8.19351 16.374L7.69351 16.0028L8.64805 14.7073L9.8526 13.0709L10.2314 12.5634C10.2541 12.5406 10.2693 12.5179 10.292 12.4952L14.6177 6.62396L14.8981 6.85881C15.2844 7.19972 15.792 7.38911 16.3147 7.38911H19.4814L17.6632 9.13154C17.239 9.54063 17.0041 10.0937 17.0041 10.6846C17.0041 11.5331 17.4738 12.2831 18.239 12.6391C19.1627 13.0792 20.1763 13.2981 21.1994 13.2783C22.2224 13.2586 23.2268 13.0008 24.1329 12.5255L24.9208 12.1164C25.6632 11.7224 26.5723 11.8134 27.2314 12.3437L34.9208 18.5028C35.3678 18.8512 35.8374 19.1391 36.3223 19.3512C36.4814 19.4194 36.6556 19.4876 36.8071 19.5406C36.9435 19.5937 37.0874 19.6391 37.2087 19.6694C37.3753 19.7225 37.542 19.7603 37.6859 19.7831C37.8829 19.8209 38.0723 19.8512 38.2314 19.8588C38.3071 19.8664 38.3753 19.8664 38.4511 19.874L38.3678 19.8967C38.5799 20.5255 38.4284 21.2452 37.9435 21.73ZM39.6253 18.5482C39.3753 18.5785 39.1026 18.5937 38.792 18.5861C38.6632 18.5861 38.542 18.5785 38.3678 18.5558C38.2162 18.5482 38.0799 18.5179 37.9132 18.4876C37.7947 18.4709 37.678 18.443 37.5647 18.4043C37.4587 18.3815 37.3602 18.3437 37.2617 18.3058C37.1253 18.2603 36.9814 18.1997 36.8526 18.1467C36.4738 17.98 36.095 17.7528 35.739 17.4724L28.4435 11.624L28.0496 11.3134C27.4284 10.8134 26.6708 10.5558 25.9056 10.5558C25.3602 10.5558 24.8147 10.6846 24.3223 10.9497L23.5344 11.3588C22.8093 11.7409 22.0048 11.9481 21.1853 11.9639C20.3659 11.9797 19.554 11.8036 18.8147 11.4497C18.4587 11.2831 18.3299 10.9421 18.3299 10.677C18.3299 10.5179 18.3753 10.2755 18.5874 10.0709L22.3677 6.44972C23.1102 5.7376 24.1632 5.39669 25.1859 5.54821L33.3526 6.75275C34.1026 6.85881 34.8753 6.71487 35.5117 6.35124L36.5117 5.79063L38.1177 9.76033L41.5723 18.2755L39.6253 18.5482ZM47.989 16.6391L43.542 18.6012C43.3677 18.677 43.1556 18.6164 43.0268 18.3967L38.2996 6.72245L37.6859 5.22245L37.3374 4.35881C37.2541 4.16184 37.345 3.93457 37.5496 3.84366L41.989 1.87396C42.0874 1.82851 42.2011 1.82851 42.2996 1.86639C42.3981 1.90427 42.4738 1.98002 42.5117 2.08608L48.1935 16.1315C48.2693 16.3209 48.1784 16.5482 47.989 16.6391Z" fill="url(#paint0_linear_768_24409)"/>
<path d="M49.4056 15.6315L43.7238 1.59366C43.5496 1.16184 43.2238 0.828509 42.792 0.64669C42.3602 0.472448 41.8829 0.480024 41.4587 0.669418L37.0344 2.63911C36.2844 2.9573 35.8829 3.77548 36.042 4.55578L34.8678 5.21487C34.4738 5.44215 33.9965 5.52548 33.5344 5.46487L25.3753 4.26033C24.6699 4.16019 23.9509 4.22133 23.2725 4.43915C22.5941 4.65698 21.9739 5.02581 21.4587 5.5179L20.8602 6.09366H16.3299C16.1253 6.09366 15.9208 6.0179 15.7693 5.88154L15.3677 5.54063C15.6481 4.85124 15.4587 4.04821 14.8526 3.57093L11.4284 0.866388C11.0647 0.578509 10.6102 0.449721 10.1481 0.517902C9.69351 0.578509 9.27684 0.828508 9.00411 1.19214L0.754112 12.374C0.208657 13.1088 0.337445 14.1391 1.06472 14.7225L4.48138 17.4194C4.66124 17.5617 4.86814 17.666 5.08954 17.7259C5.31093 17.7858 5.54218 17.8001 5.76926 17.7679C5.99523 17.738 6.21267 17.6621 6.40813 17.5448C6.60358 17.4275 6.7729 17.2714 6.90563 17.0861L6.93593 17.0482L7.42835 17.4194C7.71623 17.624 7.8829 17.9724 7.8829 18.3361V20.374L6.61017 22.0103C5.47381 23.4876 5.73138 25.6164 7.20108 26.7528C7.79957 27.2224 8.52684 27.4724 9.27684 27.4724C9.4132 27.4724 9.55714 27.4649 9.69351 27.4497C9.84502 27.427 9.98896 27.3891 10.1329 27.3512C10.1329 27.3967 10.1253 27.4346 10.1253 27.48C10.1253 28.4497 10.5647 29.3588 11.3223 29.98C11.9132 30.4497 12.6253 30.6846 13.3299 30.6846C13.7693 30.6846 14.2087 30.5861 14.6177 30.4118V30.4497C14.7238 31.2452 15.1405 31.9497 15.7465 32.3967L15.8829 32.5028C16.5132 32.9705 17.3032 33.1694 18.0799 33.0558C18.4056 33.0103 18.7011 32.8967 18.989 32.7528C19.1481 33.5634 19.6102 34.2603 20.2996 34.6997L20.3981 34.7679C20.7281 34.9865 21.0986 35.1366 21.4877 35.2095C21.8767 35.2823 22.2765 35.2764 22.6632 35.1921C23.4587 35.0255 24.1329 34.5558 24.5799 33.874L24.7087 33.677C25.2465 34.0861 25.8905 34.2982 26.5799 34.2982C27.3905 34.2982 28.1859 33.9649 28.7617 33.3967C29.0936 33.0648 29.3458 32.6619 29.4993 32.2183C29.6528 31.7748 29.7037 31.3021 29.6481 30.8361C30.1106 30.9034 30.5826 30.8591 31.0245 30.7066C31.4664 30.5542 31.8653 30.2981 32.188 29.9599C32.5106 29.6217 32.7476 29.2111 32.879 28.7625C33.0105 28.314 33.0326 27.8404 32.9435 27.3815C33.9511 27.4421 34.9435 27.0406 35.6253 26.23C35.9363 25.8628 36.1615 25.4308 36.2847 24.9656C36.4079 24.5005 36.4259 24.0137 36.3374 23.5406C37.2541 23.6391 38.1859 23.3209 38.8677 22.6543C39.6178 21.9043 39.8981 20.8437 39.6935 19.8437C39.7314 19.8361 39.7693 19.8437 39.8071 19.8361L42.2465 19.4952C42.5571 19.7755 42.9738 19.9346 43.3905 19.9346C43.6253 19.9346 43.8602 19.8891 44.0799 19.7831L48.5193 17.8209C49.3526 17.4573 49.7465 16.4876 49.4056 15.6315ZM5.58745 16.48C5.53392 16.488 5.47931 16.4847 5.42713 16.4704C5.37495 16.456 5.32634 16.4309 5.28442 16.3967L1.8829 13.7073C1.80165 13.6425 1.74846 13.5489 1.73436 13.4459C1.72025 13.343 1.74632 13.2385 1.80714 13.1543L10.0496 1.94972C10.1329 1.83608 10.2465 1.80578 10.3147 1.79821H10.3677C10.4359 1.79821 10.5268 1.81336 10.6102 1.88154L14.042 4.58609C14.2087 4.71487 14.239 4.9573 14.1177 5.11639L14.0117 5.26033L13.989 5.28305L9.24654 11.7073L9.23139 11.7224L8.32987 12.9497L6.26169 15.7528C6.25411 15.7603 6.25411 15.7679 6.25411 15.7679L5.84502 16.3285C5.76926 16.4346 5.6632 16.4725 5.58745 16.48ZM9.54199 26.1543C9.27154 26.1879 8.99712 26.1677 8.7345 26.0949C8.47188 26.0221 8.22623 25.8981 8.01169 25.73C7.11775 25.0331 6.95108 23.7224 7.65563 22.8134L10.095 19.6694C10.5041 19.1391 11.1177 18.8664 11.739 18.8664C12.1784 18.8664 12.6253 19.0103 13.0041 19.2982C13.5117 19.6997 13.8071 20.2982 13.8071 20.9421C13.8071 21.4043 13.6556 21.8437 13.3677 22.2225L10.9284 25.3664C10.5799 25.8058 10.0874 26.0861 9.54199 26.1543ZM12.1481 28.9649C11.6935 28.5937 11.4359 28.0558 11.4359 27.48C11.4359 27.0634 11.5799 26.6543 11.8602 26.2982L14.292 23.1618C14.6026 22.7528 15.0571 22.5028 15.5647 22.4421C15.6405 22.427 15.7162 22.427 15.7844 22.427C16.2162 22.427 16.6405 22.5785 17.0344 22.8967C17.8526 23.5558 17.9814 24.7603 17.3223 25.5785L14.8299 28.6846C14.5077 29.0719 14.047 29.3179 13.546 29.3703C13.045 29.4227 12.5433 29.2772 12.1481 28.9649ZM17.8829 31.7603C17.4435 31.8209 17.0117 31.7149 16.7011 31.4876L16.5723 31.3815C16.3941 31.2512 16.2444 31.0859 16.1324 30.8957C16.0204 30.7055 15.9484 30.4945 15.9208 30.2755C15.8913 30.0532 15.9069 29.8273 15.9668 29.6112C16.0267 29.3951 16.1296 29.1933 16.2693 29.0179L18.1177 26.73C18.2725 26.5376 18.4687 26.3825 18.6917 26.2762C18.9146 26.17 19.1587 26.1154 19.4056 26.1164C19.7465 26.1164 20.095 26.2224 20.3829 26.4421C20.7996 26.7528 21.042 27.2376 21.042 27.7603C21.042 28.1012 20.9435 28.4194 20.7541 28.6921C20.739 28.7073 20.7314 28.73 20.7162 28.7528C20.7087 28.7603 20.7087 28.7679 20.7011 28.7679L20.6708 28.8134L18.9511 31.1164C18.7087 31.4725 18.3223 31.6997 17.8829 31.7603ZM24.345 31.8134L23.4738 33.1694C23.2238 33.5558 22.8374 33.8209 22.3829 33.9194C21.9359 34.0103 21.4814 33.927 21.1102 33.6846L21.0117 33.6164C20.6102 33.3588 20.345 32.9573 20.2617 32.4952C20.1784 32.0331 20.2768 31.5709 20.5571 31.1846C21.0117 30.5861 21.5268 29.9194 21.7314 29.6694C21.7693 29.6315 21.8071 29.5861 21.845 29.5558C21.8526 29.5558 21.8526 29.5482 21.8526 29.5482C21.8602 29.5406 21.8753 29.5331 21.8829 29.5255C21.9208 29.4952 21.9511 29.4649 22.0117 29.427C22.5799 29.0861 23.292 29.0861 23.845 29.4421C24.3299 29.7528 24.6253 30.2982 24.6253 30.8891C24.6178 31.2224 24.5268 31.5406 24.345 31.8134ZM37.9435 21.73C37.3223 22.3437 36.3147 22.4194 35.6177 21.9118L31.2617 18.6921L29.5647 17.4346C29.4245 17.3328 29.2499 17.2902 29.0786 17.3156C28.9072 17.3411 28.7526 17.4328 28.6481 17.5709C28.4359 17.8588 28.4965 18.2679 28.7844 18.4876L31.7541 20.6846L34.2693 22.5482C34.7087 22.874 34.989 23.3512 35.0571 23.8967C35.1253 24.4421 34.9662 24.9724 34.6102 25.3967C34.2921 25.7696 33.8465 26.0104 33.3603 26.072C32.8741 26.1337 32.3824 26.0117 31.9814 25.73L26.7617 21.9952C26.6923 21.9446 26.6136 21.9084 26.5301 21.8886C26.4466 21.8689 26.36 21.866 26.2753 21.8801C26.1907 21.8942 26.1097 21.925 26.0371 21.9708C25.9645 22.0166 25.9018 22.0764 25.8526 22.1467C25.6405 22.4421 25.7087 22.8512 26.0041 23.0558L30.9965 26.624C31.3829 26.9043 31.6253 27.3361 31.6708 27.8058C31.7087 28.2831 31.542 28.7452 31.2011 29.0861C30.6329 29.6618 29.7162 29.7149 29.0723 29.23L24.1481 25.3967C24.0805 25.3438 24.0031 25.3047 23.9204 25.2818C23.8377 25.2588 23.7513 25.2524 23.6661 25.263C23.5809 25.2736 23.4987 25.3008 23.4241 25.3433C23.3495 25.3857 23.284 25.4425 23.2314 25.5103C23.0117 25.7906 23.0571 26.2073 23.3374 26.427L27.6405 29.7906C28.0496 30.1088 28.3071 30.5861 28.3374 31.1012C28.3753 31.624 28.1859 32.1164 27.8147 32.4876C27.2087 33.0937 26.1859 33.1618 25.5041 32.6694C25.5041 32.6694 25.4662 32.624 25.4132 32.5709L25.4284 32.5482C25.7465 32.0634 25.9132 31.4952 25.9132 30.8967C25.9132 29.8588 25.3981 28.9118 24.5344 28.3512C23.8753 27.927 23.0874 27.7982 22.3374 27.9346C22.3374 27.8815 22.345 27.8285 22.345 27.7755C22.345 26.8285 21.9132 25.9649 21.1632 25.4043C20.5117 24.9194 19.7314 24.7376 18.989 24.8437C19.1405 23.7528 18.739 22.6088 17.792 21.8437C17.4604 21.5723 17.0775 21.3707 16.6661 21.2509C16.2548 21.1312 15.8235 21.0957 15.3981 21.1467C15.2844 21.1618 15.1784 21.1921 15.0723 21.2149C15.0799 21.124 15.095 21.0406 15.095 20.9497C15.095 19.8967 14.6253 18.927 13.792 18.2755C12.542 17.3058 10.8223 17.3588 9.62532 18.2982C9.62532 18.2906 9.62532 18.2906 9.6329 18.2831C9.61775 18.2982 9.6026 18.3134 9.58745 18.3209C9.51169 18.3815 9.43593 18.4573 9.36775 18.5255C9.30714 18.5861 9.23896 18.6391 9.17835 18.7073V18.3437C9.17835 17.5558 8.80714 16.8209 8.19351 16.374L7.69351 16.0028L8.64805 14.7073L9.8526 13.0709L10.2314 12.5634C10.2541 12.5406 10.2693 12.5179 10.292 12.4952L14.6177 6.62396L14.8981 6.85881C15.2844 7.19972 15.792 7.38911 16.3147 7.38911H19.4814L17.6632 9.13154C17.239 9.54063 17.0041 10.0937 17.0041 10.6846C17.0041 11.5331 17.4738 12.2831 18.239 12.6391C19.1627 13.0792 20.1763 13.2981 21.1994 13.2783C22.2224 13.2586 23.2268 13.0008 24.1329 12.5255L24.9208 12.1164C25.6632 11.7224 26.5723 11.8134 27.2314 12.3437L34.9208 18.5028C35.3678 18.8512 35.8374 19.1391 36.3223 19.3512C36.4814 19.4194 36.6556 19.4876 36.8071 19.5406C36.9435 19.5937 37.0874 19.6391 37.2087 19.6694C37.3753 19.7225 37.542 19.7603 37.6859 19.7831C37.8829 19.8209 38.0723 19.8512 38.2314 19.8588C38.3071 19.8664 38.3753 19.8664 38.4511 19.874L38.3678 19.8967C38.5799 20.5255 38.4284 21.2452 37.9435 21.73ZM39.6253 18.5482C39.3753 18.5785 39.1026 18.5937 38.792 18.5861C38.6632 18.5861 38.542 18.5785 38.3678 18.5558C38.2162 18.5482 38.0799 18.5179 37.9132 18.4876C37.7947 18.4709 37.678 18.443 37.5647 18.4043C37.4587 18.3815 37.3602 18.3437 37.2617 18.3058C37.1253 18.2603 36.9814 18.1997 36.8526 18.1467C36.4738 17.98 36.095 17.7528 35.739 17.4724L28.4435 11.624L28.0496 11.3134C27.4284 10.8134 26.6708 10.5558 25.9056 10.5558C25.3602 10.5558 24.8147 10.6846 24.3223 10.9497L23.5344 11.3588C22.8093 11.7409 22.0048 11.9481 21.1853 11.9639C20.3659 11.9797 19.554 11.8036 18.8147 11.4497C18.4587 11.2831 18.3299 10.9421 18.3299 10.677C18.3299 10.5179 18.3753 10.2755 18.5874 10.0709L22.3677 6.44972C23.1102 5.7376 24.1632 5.39669 25.1859 5.54821L33.3526 6.75275C34.1026 6.85881 34.8753 6.71487 35.5117 6.35124L36.5117 5.79063L38.1177 9.76033L41.5723 18.2755L39.6253 18.5482ZM47.989 16.6391L43.542 18.6012C43.3677 18.677 43.1556 18.6164 43.0268 18.3967L38.2996 6.72245L37.6859 5.22245L37.3374 4.35881C37.2541 4.16184 37.345 3.93457 37.5496 3.84366L41.989 1.87396C42.0874 1.82851 42.2011 1.82851 42.2996 1.86639C42.3981 1.90427 42.4738 1.98002 42.5117 2.08608L48.1935 16.1315C48.2693 16.3209 48.1784 16.5482 47.989 16.6391Z" stroke="black" mask="url(#path-1-outside-1_768_24409)"/>
<path d="M49.4056 15.6315L43.7238 1.59366C43.5496 1.16184 43.2238 0.828509 42.792 0.64669C42.3602 0.472448 41.8829 0.480024 41.4587 0.669418L37.0344 2.63911C36.2844 2.9573 35.8829 3.77548 36.042 4.55578L34.8678 5.21487C34.4738 5.44215 33.9965 5.52548 33.5344 5.46487L25.3753 4.26033C24.6699 4.16019 23.9509 4.22133 23.2725 4.43915C22.5941 4.65698 21.9739 5.02581 21.4587 5.5179L20.8602 6.09366H16.3299C16.1253 6.09366 15.9208 6.0179 15.7693 5.88154L15.3677 5.54063C15.6481 4.85124 15.4587 4.04821 14.8526 3.57093L11.4284 0.866388C11.0647 0.578509 10.6102 0.449721 10.1481 0.517902C9.69351 0.578509 9.27684 0.828508 9.00411 1.19214L0.754112 12.374C0.208657 13.1088 0.337445 14.1391 1.06472 14.7225L4.48138 17.4194C4.66124 17.5617 4.86814 17.666 5.08954 17.7259C5.31093 17.7858 5.54218 17.8001 5.76926 17.7679C5.99523 17.738 6.21267 17.6621 6.40813 17.5448C6.60358 17.4275 6.7729 17.2714 6.90563 17.0861L6.93593 17.0482L7.42835 17.4194C7.71623 17.624 7.8829 17.9724 7.8829 18.3361V20.374L6.61017 22.0103C5.47381 23.4876 5.73138 25.6164 7.20108 26.7528C7.79957 27.2224 8.52684 27.4724 9.27684 27.4724C9.4132 27.4724 9.55714 27.4649 9.69351 27.4497C9.84502 27.427 9.98896 27.3891 10.1329 27.3512C10.1329 27.3967 10.1253 27.4346 10.1253 27.48C10.1253 28.4497 10.5647 29.3588 11.3223 29.98C11.9132 30.4497 12.6253 30.6846 13.3299 30.6846C13.7693 30.6846 14.2087 30.5861 14.6177 30.4118V30.4497C14.7238 31.2452 15.1405 31.9497 15.7465 32.3967L15.8829 32.5028C16.5132 32.9705 17.3032 33.1694 18.0799 33.0558C18.4056 33.0103 18.7011 32.8967 18.989 32.7528C19.1481 33.5634 19.6102 34.2603 20.2996 34.6997L20.3981 34.7679C20.7281 34.9865 21.0986 35.1366 21.4877 35.2095C21.8767 35.2823 22.2765 35.2764 22.6632 35.1921C23.4587 35.0255 24.1329 34.5558 24.5799 33.874L24.7087 33.677C25.2465 34.0861 25.8905 34.2982 26.5799 34.2982C27.3905 34.2982 28.1859 33.9649 28.7617 33.3967C29.0936 33.0648 29.3458 32.6619 29.4993 32.2183C29.6528 31.7748 29.7037 31.3021 29.6481 30.8361C30.1106 30.9034 30.5826 30.8591 31.0245 30.7066C31.4664 30.5542 31.8653 30.2981 32.188 29.9599C32.5106 29.6217 32.7476 29.2111 32.879 28.7625C33.0105 28.314 33.0326 27.8404 32.9435 27.3815C33.9511 27.4421 34.9435 27.0406 35.6253 26.23C35.9363 25.8628 36.1615 25.4308 36.2847 24.9656C36.4079 24.5005 36.4259 24.0137 36.3374 23.5406C37.2541 23.6391 38.1859 23.3209 38.8677 22.6543C39.6178 21.9043 39.8981 20.8437 39.6935 19.8437C39.7314 19.8361 39.7693 19.8437 39.8071 19.8361L42.2465 19.4952C42.5571 19.7755 42.9738 19.9346 43.3905 19.9346C43.6253 19.9346 43.8602 19.8891 44.0799 19.7831L48.5193 17.8209C49.3526 17.4573 49.7465 16.4876 49.4056 15.6315ZM5.58745 16.48C5.53392 16.488 5.47931 16.4847 5.42713 16.4704C5.37495 16.456 5.32634 16.4309 5.28442 16.3967L1.8829 13.7073C1.80165 13.6425 1.74846 13.5489 1.73436 13.4459C1.72025 13.343 1.74632 13.2385 1.80714 13.1543L10.0496 1.94972C10.1329 1.83608 10.2465 1.80578 10.3147 1.79821H10.3677C10.4359 1.79821 10.5268 1.81336 10.6102 1.88154L14.042 4.58609C14.2087 4.71487 14.239 4.9573 14.1177 5.11639L14.0117 5.26033L13.989 5.28305L9.24654 11.7073L9.23139 11.7224L8.32987 12.9497L6.26169 15.7528C6.25411 15.7603 6.25411 15.7679 6.25411 15.7679L5.84502 16.3285C5.76926 16.4346 5.6632 16.4725 5.58745 16.48ZM9.54199 26.1543C9.27154 26.1879 8.99712 26.1677 8.7345 26.0949C8.47188 26.0221 8.22623 25.8981 8.01169 25.73C7.11775 25.0331 6.95108 23.7224 7.65563 22.8134L10.095 19.6694C10.5041 19.1391 11.1177 18.8664 11.739 18.8664C12.1784 18.8664 12.6253 19.0103 13.0041 19.2982C13.5117 19.6997 13.8071 20.2982 13.8071 20.9421C13.8071 21.4043 13.6556 21.8437 13.3677 22.2225L10.9284 25.3664C10.5799 25.8058 10.0874 26.0861 9.54199 26.1543ZM12.1481 28.9649C11.6935 28.5937 11.4359 28.0558 11.4359 27.48C11.4359 27.0634 11.5799 26.6543 11.8602 26.2982L14.292 23.1618C14.6026 22.7528 15.0571 22.5028 15.5647 22.4421C15.6405 22.427 15.7162 22.427 15.7844 22.427C16.2162 22.427 16.6405 22.5785 17.0344 22.8967C17.8526 23.5558 17.9814 24.7603 17.3223 25.5785L14.8299 28.6846C14.5077 29.0719 14.047 29.3179 13.546 29.3703C13.045 29.4227 12.5433 29.2772 12.1481 28.9649ZM17.8829 31.7603C17.4435 31.8209 17.0117 31.7149 16.7011 31.4876L16.5723 31.3815C16.3941 31.2512 16.2444 31.0859 16.1324 30.8957C16.0204 30.7055 15.9484 30.4945 15.9208 30.2755C15.8913 30.0532 15.9069 29.8273 15.9668 29.6112C16.0267 29.3951 16.1296 29.1933 16.2693 29.0179L18.1177 26.73C18.2725 26.5376 18.4687 26.3825 18.6917 26.2762C18.9146 26.17 19.1587 26.1154 19.4056 26.1164C19.7465 26.1164 20.095 26.2224 20.3829 26.4421C20.7996 26.7528 21.042 27.2376 21.042 27.7603C21.042 28.1012 20.9435 28.4194 20.7541 28.6921C20.739 28.7073 20.7314 28.73 20.7162 28.7528C20.7087 28.7603 20.7087 28.7679 20.7011 28.7679L20.6708 28.8134L18.9511 31.1164C18.7087 31.4725 18.3223 31.6997 17.8829 31.7603ZM24.345 31.8134L23.4738 33.1694C23.2238 33.5558 22.8374 33.8209 22.3829 33.9194C21.9359 34.0103 21.4814 33.927 21.1102 33.6846L21.0117 33.6164C20.6102 33.3588 20.345 32.9573 20.2617 32.4952C20.1784 32.0331 20.2768 31.5709 20.5571 31.1846C21.0117 30.5861 21.5268 29.9194 21.7314 29.6694C21.7693 29.6315 21.8071 29.5861 21.845 29.5558C21.8526 29.5558 21.8526 29.5482 21.8526 29.5482C21.8602 29.5406 21.8753 29.5331 21.8829 29.5255C21.9208 29.4952 21.9511 29.4649 22.0117 29.427C22.5799 29.0861 23.292 29.0861 23.845 29.4421C24.3299 29.7528 24.6253 30.2982 24.6253 30.8891C24.6178 31.2224 24.5268 31.5406 24.345 31.8134ZM37.9435 21.73C37.3223 22.3437 36.3147 22.4194 35.6177 21.9118L31.2617 18.6921L29.5647 17.4346C29.4245 17.3328 29.2499 17.2902 29.0786 17.3156C28.9072 17.3411 28.7526 17.4328 28.6481 17.5709C28.4359 17.8588 28.4965 18.2679 28.7844 18.4876L31.7541 20.6846L34.2693 22.5482C34.7087 22.874 34.989 23.3512 35.0571 23.8967C35.1253 24.4421 34.9662 24.9724 34.6102 25.3967C34.2921 25.7696 33.8465 26.0104 33.3603 26.072C32.8741 26.1337 32.3824 26.0117 31.9814 25.73L26.7617 21.9952C26.6923 21.9446 26.6136 21.9084 26.5301 21.8886C26.4466 21.8689 26.36 21.866 26.2753 21.8801C26.1907 21.8942 26.1097 21.925 26.0371 21.9708C25.9645 22.0166 25.9018 22.0764 25.8526 22.1467C25.6405 22.4421 25.7087 22.8512 26.0041 23.0558L30.9965 26.624C31.3829 26.9043 31.6253 27.3361 31.6708 27.8058C31.7087 28.2831 31.542 28.7452 31.2011 29.0861C30.6329 29.6618 29.7162 29.7149 29.0723 29.23L24.1481 25.3967C24.0805 25.3438 24.0031 25.3047 23.9204 25.2818C23.8377 25.2588 23.7513 25.2524 23.6661 25.263C23.5809 25.2736 23.4987 25.3008 23.4241 25.3433C23.3495 25.3857 23.284 25.4425 23.2314 25.5103C23.0117 25.7906 23.0571 26.2073 23.3374 26.427L27.6405 29.7906C28.0496 30.1088 28.3071 30.5861 28.3374 31.1012C28.3753 31.624 28.1859 32.1164 27.8147 32.4876C27.2087 33.0937 26.1859 33.1618 25.5041 32.6694C25.5041 32.6694 25.4662 32.624 25.4132 32.5709L25.4284 32.5482C25.7465 32.0634 25.9132 31.4952 25.9132 30.8967C25.9132 29.8588 25.3981 28.9118 24.5344 28.3512C23.8753 27.927 23.0874 27.7982 22.3374 27.9346C22.3374 27.8815 22.345 27.8285 22.345 27.7755C22.345 26.8285 21.9132 25.9649 21.1632 25.4043C20.5117 24.9194 19.7314 24.7376 18.989 24.8437C19.1405 23.7528 18.739 22.6088 17.792 21.8437C17.4604 21.5723 17.0775 21.3707 16.6661 21.2509C16.2548 21.1312 15.8235 21.0957 15.3981 21.1467C15.2844 21.1618 15.1784 21.1921 15.0723 21.2149C15.0799 21.124 15.095 21.0406 15.095 20.9497C15.095 19.8967 14.6253 18.927 13.792 18.2755C12.542 17.3058 10.8223 17.3588 9.62532 18.2982C9.62532 18.2906 9.62532 18.2906 9.6329 18.2831C9.61775 18.2982 9.6026 18.3134 9.58745 18.3209C9.51169 18.3815 9.43593 18.4573 9.36775 18.5255C9.30714 18.5861 9.23896 18.6391 9.17835 18.7073V18.3437C9.17835 17.5558 8.80714 16.8209 8.19351 16.374L7.69351 16.0028L8.64805 14.7073L9.8526 13.0709L10.2314 12.5634C10.2541 12.5406 10.2693 12.5179 10.292 12.4952L14.6177 6.62396L14.8981 6.85881C15.2844 7.19972 15.792 7.38911 16.3147 7.38911H19.4814L17.6632 9.13154C17.239 9.54063 17.0041 10.0937 17.0041 10.6846C17.0041 11.5331 17.4738 12.2831 18.239 12.6391C19.1627 13.0792 20.1763 13.2981 21.1994 13.2783C22.2224 13.2586 23.2268 13.0008 24.1329 12.5255L24.9208 12.1164C25.6632 11.7224 26.5723 11.8134 27.2314 12.3437L34.9208 18.5028C35.3678 18.8512 35.8374 19.1391 36.3223 19.3512C36.4814 19.4194 36.6556 19.4876 36.8071 19.5406C36.9435 19.5937 37.0874 19.6391 37.2087 19.6694C37.3753 19.7225 37.542 19.7603 37.6859 19.7831C37.8829 19.8209 38.0723 19.8512 38.2314 19.8588C38.3071 19.8664 38.3753 19.8664 38.4511 19.874L38.3678 19.8967C38.5799 20.5255 38.4284 21.2452 37.9435 21.73ZM39.6253 18.5482C39.3753 18.5785 39.1026 18.5937 38.792 18.5861C38.6632 18.5861 38.542 18.5785 38.3678 18.5558C38.2162 18.5482 38.0799 18.5179 37.9132 18.4876C37.7947 18.4709 37.678 18.443 37.5647 18.4043C37.4587 18.3815 37.3602 18.3437 37.2617 18.3058C37.1253 18.2603 36.9814 18.1997 36.8526 18.1467C36.4738 17.98 36.095 17.7528 35.739 17.4724L28.4435 11.624L28.0496 11.3134C27.4284 10.8134 26.6708 10.5558 25.9056 10.5558C25.3602 10.5558 24.8147 10.6846 24.3223 10.9497L23.5344 11.3588C22.8093 11.7409 22.0048 11.9481 21.1853 11.9639C20.3659 11.9797 19.554 11.8036 18.8147 11.4497C18.4587 11.2831 18.3299 10.9421 18.3299 10.677C18.3299 10.5179 18.3753 10.2755 18.5874 10.0709L22.3677 6.44972C23.1102 5.7376 24.1632 5.39669 25.1859 5.54821L33.3526 6.75275C34.1026 6.85881 34.8753 6.71487 35.5117 6.35124L36.5117 5.79063L38.1177 9.76033L41.5723 18.2755L39.6253 18.5482ZM47.989 16.6391L43.542 18.6012C43.3677 18.677 43.1556 18.6164 43.0268 18.3967L38.2996 6.72245L37.6859 5.22245L37.3374 4.35881C37.2541 4.16184 37.345 3.93457 37.5496 3.84366L41.989 1.87396C42.0874 1.82851 42.2011 1.82851 42.2996 1.86639C42.3981 1.90427 42.4738 1.98002 42.5117 2.08608L48.1935 16.1315C48.2693 16.3209 48.1784 16.5482 47.989 16.6391Z" stroke="url(#paint1_linear_768_24409)" mask="url(#path-1-outside-1_768_24409)"/>
<defs>
<linearGradient id="paint0_linear_768_24409" x1="51.3076" y1="4.30189" x2="13.7451" y2="56.1466" gradientUnits="userSpaceOnUse">
<stop stop-color="#8DC8E9"/>
<stop offset="1" stop-color="#8C5AE3"/>
</linearGradient>
<linearGradient id="paint1_linear_768_24409" x1="51.3076" y1="4.30189" x2="13.7451" y2="56.1466" gradientUnits="userSpaceOnUse">
<stop stop-color="#8DC8E9"/>
<stop offset="1" stop-color="#8C5AE3"/>
</linearGradient>
</defs>
</svg>
