<svg width="151" height="108" viewBox="0 0 151 108" fill="none" xmlns="http://www.w3.org/2000/svg">
<mask id="path-1-outside-1_768_25033" maskUnits="userSpaceOnUse" x="-0.291016" y="-0.5" width="151" height="108" fill="black">
<rect fill="white" x="-0.291016" y="-0.5" width="151" height="108"/>
<path d="M148.672 46.8946L131.627 4.78098C131.104 3.48553 130.127 2.48553 128.831 1.94007C127.536 1.41734 126.104 1.44007 124.831 2.00825L111.558 7.91734C109.308 8.87189 108.104 11.3264 108.581 13.6673L105.058 15.6446C103.877 16.3264 102.445 16.5764 101.058 16.3946L76.5811 12.781C74.4647 12.4806 72.3078 12.664 70.2726 13.3175C68.2374 13.9709 66.3769 15.0774 64.8311 16.5537L63.0356 18.281H49.4447C48.8311 18.281 48.2174 18.0537 47.7629 17.6446L46.5583 16.6219C47.3992 14.5537 46.8311 12.1446 45.0129 10.7128L34.7401 2.59916C33.6492 1.73553 32.2856 1.34916 30.8992 1.55371C29.5356 1.73553 28.2856 2.48552 27.4674 3.57643L2.71741 37.1219C1.08105 39.3264 1.46741 42.4174 3.64923 44.1674L13.8992 52.2583C14.4388 52.6852 15.0595 52.9981 15.7237 53.1778C16.3879 53.3575 17.0816 53.4003 17.7629 53.3037C18.4408 53.214 19.0931 52.9862 19.6795 52.6344C20.2658 52.2826 20.7738 51.8142 21.172 51.2583L21.2629 51.1446L22.7401 52.2583C23.6038 52.8719 24.1038 53.9173 24.1038 55.0083V61.1219L20.2856 66.031C16.8765 70.4628 17.6492 76.8492 22.0583 80.2583C23.8538 81.6674 26.0356 82.4174 28.2856 82.4174C28.6947 82.4174 29.1265 82.3946 29.5356 82.3492C29.9901 82.281 30.422 82.1674 30.8538 82.0537C30.8538 82.1901 30.8311 82.3037 30.8311 82.4401C30.8311 85.3492 32.1492 88.0764 34.422 89.9401C36.1947 91.3492 38.3311 92.0537 40.4447 92.0537C41.7629 92.0537 43.0811 91.7583 44.3083 91.2355V91.3492C44.6265 93.7355 45.8765 95.8492 47.6947 97.1901L48.1038 97.5083C49.9947 98.9116 52.3647 99.5082 54.6947 99.1674C55.672 99.031 56.5583 98.6901 57.422 98.2583C57.8992 100.69 59.2856 102.781 61.3538 104.099L61.6492 104.304C62.6393 104.959 63.7508 105.41 64.918 105.628C66.0852 105.847 67.2844 105.829 68.4447 105.576C70.8311 105.076 72.8538 103.667 74.1947 101.622L74.5811 101.031C76.1947 102.258 78.1265 102.895 80.1947 102.895C82.6265 102.895 85.0129 101.895 86.7401 100.19C87.7357 99.1943 88.4924 97.9856 88.953 96.6549C89.4136 95.3243 89.5662 93.9064 89.3992 92.5083C90.7869 92.7103 92.2028 92.5772 93.5285 92.1199C94.8542 91.6625 96.051 90.8944 97.019 89.8797C97.9869 88.8651 98.6978 87.6333 99.0922 86.2876C99.4865 84.9419 99.5528 83.5212 99.2856 82.1446C102.308 82.3264 105.286 81.1219 107.331 78.6901C108.264 77.5883 108.94 76.2925 109.309 74.8969C109.679 73.5014 109.733 72.041 109.467 70.6219C112.217 70.9174 115.013 69.9628 117.058 67.9628C119.308 65.7128 120.149 62.531 119.536 59.531C119.649 59.5083 119.763 59.531 119.877 59.5083L127.195 58.4855C128.127 59.3264 129.377 59.8037 130.627 59.8037C131.331 59.8037 132.036 59.6673 132.695 59.3492L146.013 53.4628C148.513 52.3719 149.695 49.4628 148.672 46.8946ZM17.2174 49.4401C17.0568 49.464 16.893 49.4541 16.7365 49.4111C16.5799 49.368 16.4341 49.2928 16.3083 49.1901L6.10378 41.1219C5.86004 40.9275 5.70047 40.6467 5.65816 40.3378C5.61584 40.0289 5.69403 39.7156 5.8765 39.4628L30.6038 5.84916C30.8538 5.50825 31.1947 5.41735 31.3992 5.39462H31.5583C31.7629 5.39462 32.0356 5.44007 32.2856 5.64462L42.5811 13.7583C43.0811 14.1446 43.172 14.8719 42.8083 15.3492L42.4901 15.781L42.422 15.8492L28.1947 35.1219L28.1492 35.1673L25.4447 38.8492L19.2401 47.2583C19.2174 47.281 19.2174 47.3037 19.2174 47.3037L17.9901 48.9855C17.7629 49.3037 17.4447 49.4174 17.2174 49.4401ZM29.0811 78.4628C28.2697 78.5636 27.4464 78.503 26.6586 78.2846C25.8707 78.0662 25.1338 77.6942 24.4901 77.1901C21.8083 75.0992 21.3083 71.1674 23.422 68.4401L30.7401 59.0083C31.9674 57.4174 33.8083 56.5992 35.672 56.5992C36.9901 56.5992 38.3311 57.031 39.4674 57.8946C40.9901 59.0992 41.8765 60.8946 41.8765 62.8264C41.8765 64.2128 41.422 65.531 40.5583 66.6674L33.2401 76.0992C32.1947 77.4174 30.7174 78.2583 29.0811 78.4628ZM36.8992 86.8946C35.5356 85.781 34.7629 84.1673 34.7629 82.4401C34.7629 81.1901 35.1947 79.9628 36.0356 78.8946L43.3311 69.4855C44.2629 68.2583 45.6265 67.5083 47.1492 67.3264C47.3765 67.281 47.6038 67.281 47.8083 67.281C49.1038 67.281 50.3765 67.7355 51.5583 68.6901C54.0129 70.6674 54.3992 74.281 52.422 76.7355L44.9447 86.0537C43.9783 87.2156 42.5961 87.9538 41.093 88.1109C39.59 88.268 38.085 87.8316 36.8992 86.8946ZM54.1038 95.281C52.7856 95.4628 51.4901 95.1446 50.5583 94.4628L50.172 94.1446C49.6374 93.7537 49.1884 93.2578 48.8523 92.6872C48.5162 92.1167 48.3002 91.4835 48.2174 90.8264C48.1289 90.1596 48.1759 89.4818 48.3555 88.8335C48.5352 88.1852 48.8438 87.5799 49.2629 87.0537L54.8083 80.1901C55.2727 79.6127 55.8612 79.1474 56.53 78.8287C57.1989 78.51 57.931 78.3461 58.672 78.3492C59.6947 78.3492 60.7401 78.6674 61.6038 79.3264C62.8538 80.2583 63.5811 81.7128 63.5811 83.281C63.5811 84.3037 63.2856 85.2583 62.7174 86.0764C62.672 86.1219 62.6492 86.1901 62.6038 86.2583C62.5811 86.281 62.5811 86.3037 62.5583 86.3037L62.4674 86.4401L57.3083 93.3492C56.5811 94.4174 55.422 95.0992 54.1038 95.281ZM73.4901 95.4401L70.8765 99.5083C70.1265 100.667 68.9674 101.463 67.6038 101.758C66.2629 102.031 64.8992 101.781 63.7856 101.054L63.4901 100.849C62.2856 100.076 61.4901 98.8719 61.2401 97.4855C60.9901 96.0992 61.2856 94.7128 62.1265 93.5537C63.4901 91.7583 65.0356 89.7583 65.6492 89.0083C65.7629 88.8946 65.8765 88.7583 65.9901 88.6674C66.0129 88.6674 66.0129 88.6446 66.0129 88.6446C66.0356 88.6219 66.0811 88.5992 66.1038 88.5764C66.2174 88.4855 66.3083 88.3946 66.4901 88.281C68.1947 87.2583 70.3311 87.2583 71.9901 88.3264C73.4447 89.2583 74.3311 90.8946 74.3311 92.6673C74.3083 93.6673 74.0356 94.6219 73.4901 95.4401ZM114.286 65.1901C112.422 67.031 109.399 67.2583 107.308 65.7355L94.2401 56.0764L89.1492 52.3037C88.7285 51.9985 88.2049 51.8705 87.6907 51.9469C87.1766 52.0234 86.713 52.2984 86.3992 52.7128C85.7629 53.5764 85.9447 54.8037 86.8083 55.4628L95.7174 62.0537L103.263 67.6446C104.581 68.6219 105.422 70.0537 105.627 71.6901C105.831 73.3264 105.354 74.9173 104.286 76.1901C103.332 77.3087 101.994 78.0311 100.536 78.2161C99.0774 78.401 97.6023 78.0352 96.3992 77.1901L80.7402 65.9855C80.5321 65.8339 80.2959 65.7252 80.0454 65.6659C79.7949 65.6066 79.535 65.5979 79.2811 65.6402C79.0271 65.6825 78.7842 65.7751 78.5664 65.9124C78.3487 66.0498 78.1605 66.2291 78.0129 66.4401C77.3765 67.3264 77.5811 68.5537 78.4674 69.1674L93.4447 79.8719C94.6038 80.7128 95.3311 82.0083 95.4674 83.4173C95.5811 84.8492 95.0811 86.2355 94.0583 87.2583C92.3538 88.9855 89.6038 89.1446 87.672 87.6901L72.8992 76.1901C72.6965 76.0313 72.4645 75.9141 72.2163 75.8453C71.9682 75.7764 71.7089 75.7573 71.4534 75.789C71.1978 75.8207 70.9511 75.9025 70.7273 76.0298C70.5035 76.1572 70.307 76.3275 70.1492 76.531C69.4901 77.3719 69.6265 78.6219 70.4674 79.281L83.3765 89.3719C84.6038 90.3264 85.3765 91.7583 85.4674 93.3037C85.5811 94.8719 85.0129 96.3492 83.8992 97.4628C82.0811 99.281 79.0129 99.4855 76.9674 98.0083C76.9674 98.0083 76.8538 97.8719 76.6947 97.7128L76.7401 97.6446C77.6947 96.1901 78.1947 94.4855 78.1947 92.6901C78.1947 89.5764 76.6492 86.7355 74.0583 85.0537C72.081 83.781 69.7174 83.3946 67.4674 83.8037C67.4674 83.6446 67.4901 83.4855 67.4901 83.3264C67.4901 80.4855 66.1947 77.8946 63.9447 76.2128C61.9901 74.7583 59.6492 74.2128 57.422 74.531C57.8765 71.2583 56.672 67.8264 53.8311 65.531C52.8364 64.7169 51.6876 64.1121 50.4535 63.7528C49.2194 63.3935 47.9254 63.2871 46.6492 63.4401C46.3083 63.4855 45.9901 63.5764 45.672 63.6446C45.6947 63.3719 45.7401 63.1219 45.7401 62.8492C45.7401 59.6901 44.3311 56.781 41.8311 54.8264C38.0811 51.9174 32.922 52.0764 29.3311 54.8946C29.3311 54.8719 29.3311 54.8719 29.3538 54.8492C29.3083 54.8946 29.2629 54.9401 29.2174 54.9628C28.9901 55.1446 28.7629 55.3719 28.5583 55.5764C28.3765 55.7583 28.172 55.9174 27.9901 56.1219V55.031C27.9901 52.6674 26.8765 50.4628 25.0356 49.1219L23.5356 48.0083L26.3992 44.1219L30.0129 39.2128L31.1492 37.6901C31.2174 37.6219 31.2629 37.5537 31.3311 37.4855L44.3083 19.8719L45.1492 20.5764C46.3083 21.5992 47.8311 22.1673 49.3992 22.1673H58.8992L53.4447 27.3946C52.172 28.6219 51.4674 30.281 51.4674 32.0537C51.4674 34.5992 52.8765 36.8492 55.172 37.9174C57.9433 39.2376 60.984 39.8942 64.0531 39.835C67.1223 39.7758 70.1354 39.0025 72.8538 37.5764L75.2174 36.3492C77.4447 35.1673 80.172 35.4401 82.1492 37.031L105.217 55.5083C106.558 56.5537 107.967 57.4173 109.422 58.0537C109.899 58.2583 110.422 58.4628 110.877 58.6219C111.286 58.781 111.717 58.9174 112.081 59.0083C112.581 59.1674 113.081 59.281 113.513 59.3492C114.104 59.4628 114.672 59.5537 115.149 59.5764C115.377 59.5992 115.581 59.5992 115.808 59.6219L115.558 59.6901C116.195 61.5764 115.74 63.7355 114.286 65.1901ZM119.331 55.6446C118.581 55.7355 117.763 55.781 116.831 55.7583C116.445 55.7583 116.081 55.7355 115.558 55.6674C115.104 55.6446 114.695 55.5537 114.195 55.4628C113.839 55.4126 113.489 55.3289 113.149 55.2128C112.831 55.1446 112.536 55.031 112.24 54.9174C111.831 54.781 111.399 54.5992 111.013 54.4401C109.877 53.9401 108.74 53.2583 107.672 52.4173L85.7856 34.8719L84.6038 33.9401C82.7402 32.4401 80.4674 31.6674 78.172 31.6674C76.5356 31.6674 74.8992 32.0537 73.422 32.8492L71.0583 34.0764C68.8829 35.2228 66.4696 35.8444 64.0111 35.8918C61.5526 35.9391 59.1172 35.4109 56.8992 34.3492C55.8311 33.8492 55.4447 32.8264 55.4447 32.031C55.4447 31.5537 55.5811 30.8264 56.2174 30.2128L67.5583 19.3492C69.7856 17.2128 72.9447 16.1901 76.0129 16.6446L100.513 20.2583C102.763 20.5764 105.081 20.1446 106.99 19.0537L109.99 17.3719L114.808 29.281L125.172 54.8264L119.331 55.6446ZM144.422 49.9174L131.081 55.8037C130.558 56.031 129.922 55.8492 129.536 55.1901L115.354 20.1673L113.513 15.6673L112.467 13.0764C112.217 12.4855 112.49 11.8037 113.104 11.531L126.422 5.62189C126.717 5.48553 127.058 5.48553 127.354 5.59916C127.649 5.7128 127.877 5.94007 127.99 6.25825L145.036 48.3946C145.263 48.9628 144.99 49.6446 144.422 49.9174Z"/>
</mask>
<path d="M148.672 46.8946L131.627 4.78098C131.104 3.48553 130.127 2.48553 128.831 1.94007C127.536 1.41734 126.104 1.44007 124.831 2.00825L111.558 7.91734C109.308 8.87189 108.104 11.3264 108.581 13.6673L105.058 15.6446C103.877 16.3264 102.445 16.5764 101.058 16.3946L76.5811 12.781C74.4647 12.4806 72.3078 12.664 70.2726 13.3175C68.2374 13.9709 66.3769 15.0774 64.8311 16.5537L63.0356 18.281H49.4447C48.8311 18.281 48.2174 18.0537 47.7629 17.6446L46.5583 16.6219C47.3992 14.5537 46.8311 12.1446 45.0129 10.7128L34.7401 2.59916C33.6492 1.73553 32.2856 1.34916 30.8992 1.55371C29.5356 1.73553 28.2856 2.48552 27.4674 3.57643L2.71741 37.1219C1.08105 39.3264 1.46741 42.4174 3.64923 44.1674L13.8992 52.2583C14.4388 52.6852 15.0595 52.9981 15.7237 53.1778C16.3879 53.3575 17.0816 53.4003 17.7629 53.3037C18.4408 53.214 19.0931 52.9862 19.6795 52.6344C20.2658 52.2826 20.7738 51.8142 21.172 51.2583L21.2629 51.1446L22.7401 52.2583C23.6038 52.8719 24.1038 53.9173 24.1038 55.0083V61.1219L20.2856 66.031C16.8765 70.4628 17.6492 76.8492 22.0583 80.2583C23.8538 81.6674 26.0356 82.4174 28.2856 82.4174C28.6947 82.4174 29.1265 82.3946 29.5356 82.3492C29.9901 82.281 30.422 82.1674 30.8538 82.0537C30.8538 82.1901 30.8311 82.3037 30.8311 82.4401C30.8311 85.3492 32.1492 88.0764 34.422 89.9401C36.1947 91.3492 38.3311 92.0537 40.4447 92.0537C41.7629 92.0537 43.0811 91.7583 44.3083 91.2355V91.3492C44.6265 93.7355 45.8765 95.8492 47.6947 97.1901L48.1038 97.5083C49.9947 98.9116 52.3647 99.5082 54.6947 99.1674C55.672 99.031 56.5583 98.6901 57.422 98.2583C57.8992 100.69 59.2856 102.781 61.3538 104.099L61.6492 104.304C62.6393 104.959 63.7508 105.41 64.918 105.628C66.0852 105.847 67.2844 105.829 68.4447 105.576C70.8311 105.076 72.8538 103.667 74.1947 101.622L74.5811 101.031C76.1947 102.258 78.1265 102.895 80.1947 102.895C82.6265 102.895 85.0129 101.895 86.7401 100.19C87.7357 99.1943 88.4924 97.9856 88.953 96.6549C89.4136 95.3243 89.5662 93.9064 89.3992 92.5083C90.7869 92.7103 92.2028 92.5772 93.5285 92.1199C94.8542 91.6625 96.051 90.8944 97.019 89.8797C97.9869 88.8651 98.6978 87.6333 99.0922 86.2876C99.4865 84.9419 99.5528 83.5212 99.2856 82.1446C102.308 82.3264 105.286 81.1219 107.331 78.6901C108.264 77.5883 108.94 76.2925 109.309 74.8969C109.679 73.5014 109.733 72.041 109.467 70.6219C112.217 70.9174 115.013 69.9628 117.058 67.9628C119.308 65.7128 120.149 62.531 119.536 59.531C119.649 59.5083 119.763 59.531 119.877 59.5083L127.195 58.4855C128.127 59.3264 129.377 59.8037 130.627 59.8037C131.331 59.8037 132.036 59.6673 132.695 59.3492L146.013 53.4628C148.513 52.3719 149.695 49.4628 148.672 46.8946ZM17.2174 49.4401C17.0568 49.464 16.893 49.4541 16.7365 49.4111C16.5799 49.368 16.4341 49.2928 16.3083 49.1901L6.10378 41.1219C5.86004 40.9275 5.70047 40.6467 5.65816 40.3378C5.61584 40.0289 5.69403 39.7156 5.8765 39.4628L30.6038 5.84916C30.8538 5.50825 31.1947 5.41735 31.3992 5.39462H31.5583C31.7629 5.39462 32.0356 5.44007 32.2856 5.64462L42.5811 13.7583C43.0811 14.1446 43.172 14.8719 42.8083 15.3492L42.4901 15.781L42.422 15.8492L28.1947 35.1219L28.1492 35.1673L25.4447 38.8492L19.2401 47.2583C19.2174 47.281 19.2174 47.3037 19.2174 47.3037L17.9901 48.9855C17.7629 49.3037 17.4447 49.4174 17.2174 49.4401ZM29.0811 78.4628C28.2697 78.5636 27.4464 78.503 26.6586 78.2846C25.8707 78.0662 25.1338 77.6942 24.4901 77.1901C21.8083 75.0992 21.3083 71.1674 23.422 68.4401L30.7401 59.0083C31.9674 57.4174 33.8083 56.5992 35.672 56.5992C36.9901 56.5992 38.3311 57.031 39.4674 57.8946C40.9901 59.0992 41.8765 60.8946 41.8765 62.8264C41.8765 64.2128 41.422 65.531 40.5583 66.6674L33.2401 76.0992C32.1947 77.4174 30.7174 78.2583 29.0811 78.4628ZM36.8992 86.8946C35.5356 85.781 34.7629 84.1673 34.7629 82.4401C34.7629 81.1901 35.1947 79.9628 36.0356 78.8946L43.3311 69.4855C44.2629 68.2583 45.6265 67.5083 47.1492 67.3264C47.3765 67.281 47.6038 67.281 47.8083 67.281C49.1038 67.281 50.3765 67.7355 51.5583 68.6901C54.0129 70.6674 54.3992 74.281 52.422 76.7355L44.9447 86.0537C43.9783 87.2156 42.5961 87.9538 41.093 88.1109C39.59 88.268 38.085 87.8316 36.8992 86.8946ZM54.1038 95.281C52.7856 95.4628 51.4901 95.1446 50.5583 94.4628L50.172 94.1446C49.6374 93.7537 49.1884 93.2578 48.8523 92.6872C48.5162 92.1167 48.3002 91.4835 48.2174 90.8264C48.1289 90.1596 48.1759 89.4818 48.3555 88.8335C48.5352 88.1852 48.8438 87.5799 49.2629 87.0537L54.8083 80.1901C55.2727 79.6127 55.8612 79.1474 56.53 78.8287C57.1989 78.51 57.931 78.3461 58.672 78.3492C59.6947 78.3492 60.7401 78.6674 61.6038 79.3264C62.8538 80.2583 63.5811 81.7128 63.5811 83.281C63.5811 84.3037 63.2856 85.2583 62.7174 86.0764C62.672 86.1219 62.6492 86.1901 62.6038 86.2583C62.5811 86.281 62.5811 86.3037 62.5583 86.3037L62.4674 86.4401L57.3083 93.3492C56.5811 94.4174 55.422 95.0992 54.1038 95.281ZM73.4901 95.4401L70.8765 99.5083C70.1265 100.667 68.9674 101.463 67.6038 101.758C66.2629 102.031 64.8992 101.781 63.7856 101.054L63.4901 100.849C62.2856 100.076 61.4901 98.8719 61.2401 97.4855C60.9901 96.0992 61.2856 94.7128 62.1265 93.5537C63.4901 91.7583 65.0356 89.7583 65.6492 89.0083C65.7629 88.8946 65.8765 88.7583 65.9901 88.6674C66.0129 88.6674 66.0129 88.6446 66.0129 88.6446C66.0356 88.6219 66.0811 88.5992 66.1038 88.5764C66.2174 88.4855 66.3083 88.3946 66.4901 88.281C68.1947 87.2583 70.3311 87.2583 71.9901 88.3264C73.4447 89.2583 74.3311 90.8946 74.3311 92.6673C74.3083 93.6673 74.0356 94.6219 73.4901 95.4401ZM114.286 65.1901C112.422 67.031 109.399 67.2583 107.308 65.7355L94.2401 56.0764L89.1492 52.3037C88.7285 51.9985 88.2049 51.8705 87.6907 51.9469C87.1766 52.0234 86.713 52.2984 86.3992 52.7128C85.7629 53.5764 85.9447 54.8037 86.8083 55.4628L95.7174 62.0537L103.263 67.6446C104.581 68.6219 105.422 70.0537 105.627 71.6901C105.831 73.3264 105.354 74.9173 104.286 76.1901C103.332 77.3087 101.994 78.0311 100.536 78.2161C99.0774 78.401 97.6023 78.0352 96.3992 77.1901L80.7402 65.9855C80.5321 65.8339 80.2959 65.7252 80.0454 65.6659C79.7949 65.6066 79.535 65.5979 79.2811 65.6402C79.0271 65.6825 78.7842 65.7751 78.5664 65.9124C78.3487 66.0498 78.1605 66.2291 78.0129 66.4401C77.3765 67.3264 77.5811 68.5537 78.4674 69.1674L93.4447 79.8719C94.6038 80.7128 95.3311 82.0083 95.4674 83.4173C95.5811 84.8492 95.0811 86.2355 94.0583 87.2583C92.3538 88.9855 89.6038 89.1446 87.672 87.6901L72.8992 76.1901C72.6965 76.0313 72.4645 75.9141 72.2163 75.8453C71.9682 75.7764 71.7089 75.7573 71.4534 75.789C71.1978 75.8207 70.9511 75.9025 70.7273 76.0298C70.5035 76.1572 70.307 76.3275 70.1492 76.531C69.4901 77.3719 69.6265 78.6219 70.4674 79.281L83.3765 89.3719C84.6038 90.3264 85.3765 91.7583 85.4674 93.3037C85.5811 94.8719 85.0129 96.3492 83.8992 97.4628C82.0811 99.281 79.0129 99.4855 76.9674 98.0083C76.9674 98.0083 76.8538 97.8719 76.6947 97.7128L76.7401 97.6446C77.6947 96.1901 78.1947 94.4855 78.1947 92.6901C78.1947 89.5764 76.6492 86.7355 74.0583 85.0537C72.081 83.781 69.7174 83.3946 67.4674 83.8037C67.4674 83.6446 67.4901 83.4855 67.4901 83.3264C67.4901 80.4855 66.1947 77.8946 63.9447 76.2128C61.9901 74.7583 59.6492 74.2128 57.422 74.531C57.8765 71.2583 56.672 67.8264 53.8311 65.531C52.8364 64.7169 51.6876 64.1121 50.4535 63.7528C49.2194 63.3935 47.9254 63.2871 46.6492 63.4401C46.3083 63.4855 45.9901 63.5764 45.672 63.6446C45.6947 63.3719 45.7401 63.1219 45.7401 62.8492C45.7401 59.6901 44.3311 56.781 41.8311 54.8264C38.0811 51.9174 32.922 52.0764 29.3311 54.8946C29.3311 54.8719 29.3311 54.8719 29.3538 54.8492C29.3083 54.8946 29.2629 54.9401 29.2174 54.9628C28.9901 55.1446 28.7629 55.3719 28.5583 55.5764C28.3765 55.7583 28.172 55.9174 27.9901 56.1219V55.031C27.9901 52.6674 26.8765 50.4628 25.0356 49.1219L23.5356 48.0083L26.3992 44.1219L30.0129 39.2128L31.1492 37.6901C31.2174 37.6219 31.2629 37.5537 31.3311 37.4855L44.3083 19.8719L45.1492 20.5764C46.3083 21.5992 47.8311 22.1673 49.3992 22.1673H58.8992L53.4447 27.3946C52.172 28.6219 51.4674 30.281 51.4674 32.0537C51.4674 34.5992 52.8765 36.8492 55.172 37.9174C57.9433 39.2376 60.984 39.8942 64.0531 39.835C67.1223 39.7758 70.1354 39.0025 72.8538 37.5764L75.2174 36.3492C77.4447 35.1673 80.172 35.4401 82.1492 37.031L105.217 55.5083C106.558 56.5537 107.967 57.4173 109.422 58.0537C109.899 58.2583 110.422 58.4628 110.877 58.6219C111.286 58.781 111.717 58.9174 112.081 59.0083C112.581 59.1674 113.081 59.281 113.513 59.3492C114.104 59.4628 114.672 59.5537 115.149 59.5764C115.377 59.5992 115.581 59.5992 115.808 59.6219L115.558 59.6901C116.195 61.5764 115.74 63.7355 114.286 65.1901ZM119.331 55.6446C118.581 55.7355 117.763 55.781 116.831 55.7583C116.445 55.7583 116.081 55.7355 115.558 55.6674C115.104 55.6446 114.695 55.5537 114.195 55.4628C113.839 55.4126 113.489 55.3289 113.149 55.2128C112.831 55.1446 112.536 55.031 112.24 54.9174C111.831 54.781 111.399 54.5992 111.013 54.4401C109.877 53.9401 108.74 53.2583 107.672 52.4173L85.7856 34.8719L84.6038 33.9401C82.7402 32.4401 80.4674 31.6674 78.172 31.6674C76.5356 31.6674 74.8992 32.0537 73.422 32.8492L71.0583 34.0764C68.8829 35.2228 66.4696 35.8444 64.0111 35.8918C61.5526 35.9391 59.1172 35.4109 56.8992 34.3492C55.8311 33.8492 55.4447 32.8264 55.4447 32.031C55.4447 31.5537 55.5811 30.8264 56.2174 30.2128L67.5583 19.3492C69.7856 17.2128 72.9447 16.1901 76.0129 16.6446L100.513 20.2583C102.763 20.5764 105.081 20.1446 106.99 19.0537L109.99 17.3719L114.808 29.281L125.172 54.8264L119.331 55.6446ZM144.422 49.9174L131.081 55.8037C130.558 56.031 129.922 55.8492 129.536 55.1901L115.354 20.1673L113.513 15.6673L112.467 13.0764C112.217 12.4855 112.49 11.8037 113.104 11.531L126.422 5.62189C126.717 5.48553 127.058 5.48553 127.354 5.59916C127.649 5.7128 127.877 5.94007 127.99 6.25825L145.036 48.3946C145.263 48.9628 144.99 49.6446 144.422 49.9174Z" fill="black"/>
<path d="M148.672 46.8946L131.627 4.78098C131.104 3.48553 130.127 2.48553 128.831 1.94007C127.536 1.41734 126.104 1.44007 124.831 2.00825L111.558 7.91734C109.308 8.87189 108.104 11.3264 108.581 13.6673L105.058 15.6446C103.877 16.3264 102.445 16.5764 101.058 16.3946L76.5811 12.781C74.4647 12.4806 72.3078 12.664 70.2726 13.3175C68.2374 13.9709 66.3769 15.0774 64.8311 16.5537L63.0356 18.281H49.4447C48.8311 18.281 48.2174 18.0537 47.7629 17.6446L46.5583 16.6219C47.3992 14.5537 46.8311 12.1446 45.0129 10.7128L34.7401 2.59916C33.6492 1.73553 32.2856 1.34916 30.8992 1.55371C29.5356 1.73553 28.2856 2.48552 27.4674 3.57643L2.71741 37.1219C1.08105 39.3264 1.46741 42.4174 3.64923 44.1674L13.8992 52.2583C14.4388 52.6852 15.0595 52.9981 15.7237 53.1778C16.3879 53.3575 17.0816 53.4003 17.7629 53.3037C18.4408 53.214 19.0931 52.9862 19.6795 52.6344C20.2658 52.2826 20.7738 51.8142 21.172 51.2583L21.2629 51.1446L22.7401 52.2583C23.6038 52.8719 24.1038 53.9173 24.1038 55.0083V61.1219L20.2856 66.031C16.8765 70.4628 17.6492 76.8492 22.0583 80.2583C23.8538 81.6674 26.0356 82.4174 28.2856 82.4174C28.6947 82.4174 29.1265 82.3946 29.5356 82.3492C29.9901 82.281 30.422 82.1674 30.8538 82.0537C30.8538 82.1901 30.8311 82.3037 30.8311 82.4401C30.8311 85.3492 32.1492 88.0764 34.422 89.9401C36.1947 91.3492 38.3311 92.0537 40.4447 92.0537C41.7629 92.0537 43.0811 91.7583 44.3083 91.2355V91.3492C44.6265 93.7355 45.8765 95.8492 47.6947 97.1901L48.1038 97.5083C49.9947 98.9116 52.3647 99.5082 54.6947 99.1674C55.672 99.031 56.5583 98.6901 57.422 98.2583C57.8992 100.69 59.2856 102.781 61.3538 104.099L61.6492 104.304C62.6393 104.959 63.7508 105.41 64.918 105.628C66.0852 105.847 67.2844 105.829 68.4447 105.576C70.8311 105.076 72.8538 103.667 74.1947 101.622L74.5811 101.031C76.1947 102.258 78.1265 102.895 80.1947 102.895C82.6265 102.895 85.0129 101.895 86.7401 100.19C87.7357 99.1943 88.4924 97.9856 88.953 96.6549C89.4136 95.3243 89.5662 93.9064 89.3992 92.5083C90.7869 92.7103 92.2028 92.5772 93.5285 92.1199C94.8542 91.6625 96.051 90.8944 97.019 89.8797C97.9869 88.8651 98.6978 87.6333 99.0922 86.2876C99.4865 84.9419 99.5528 83.5212 99.2856 82.1446C102.308 82.3264 105.286 81.1219 107.331 78.6901C108.264 77.5883 108.94 76.2925 109.309 74.8969C109.679 73.5014 109.733 72.041 109.467 70.6219C112.217 70.9174 115.013 69.9628 117.058 67.9628C119.308 65.7128 120.149 62.531 119.536 59.531C119.649 59.5083 119.763 59.531 119.877 59.5083L127.195 58.4855C128.127 59.3264 129.377 59.8037 130.627 59.8037C131.331 59.8037 132.036 59.6673 132.695 59.3492L146.013 53.4628C148.513 52.3719 149.695 49.4628 148.672 46.8946ZM17.2174 49.4401C17.0568 49.464 16.893 49.4541 16.7365 49.4111C16.5799 49.368 16.4341 49.2928 16.3083 49.1901L6.10378 41.1219C5.86004 40.9275 5.70047 40.6467 5.65816 40.3378C5.61584 40.0289 5.69403 39.7156 5.8765 39.4628L30.6038 5.84916C30.8538 5.50825 31.1947 5.41735 31.3992 5.39462H31.5583C31.7629 5.39462 32.0356 5.44007 32.2856 5.64462L42.5811 13.7583C43.0811 14.1446 43.172 14.8719 42.8083 15.3492L42.4901 15.781L42.422 15.8492L28.1947 35.1219L28.1492 35.1673L25.4447 38.8492L19.2401 47.2583C19.2174 47.281 19.2174 47.3037 19.2174 47.3037L17.9901 48.9855C17.7629 49.3037 17.4447 49.4174 17.2174 49.4401ZM29.0811 78.4628C28.2697 78.5636 27.4464 78.503 26.6586 78.2846C25.8707 78.0662 25.1338 77.6942 24.4901 77.1901C21.8083 75.0992 21.3083 71.1674 23.422 68.4401L30.7401 59.0083C31.9674 57.4174 33.8083 56.5992 35.672 56.5992C36.9901 56.5992 38.3311 57.031 39.4674 57.8946C40.9901 59.0992 41.8765 60.8946 41.8765 62.8264C41.8765 64.2128 41.422 65.531 40.5583 66.6674L33.2401 76.0992C32.1947 77.4174 30.7174 78.2583 29.0811 78.4628ZM36.8992 86.8946C35.5356 85.781 34.7629 84.1673 34.7629 82.4401C34.7629 81.1901 35.1947 79.9628 36.0356 78.8946L43.3311 69.4855C44.2629 68.2583 45.6265 67.5083 47.1492 67.3264C47.3765 67.281 47.6038 67.281 47.8083 67.281C49.1038 67.281 50.3765 67.7355 51.5583 68.6901C54.0129 70.6674 54.3992 74.281 52.422 76.7355L44.9447 86.0537C43.9783 87.2156 42.5961 87.9538 41.093 88.1109C39.59 88.268 38.085 87.8316 36.8992 86.8946ZM54.1038 95.281C52.7856 95.4628 51.4901 95.1446 50.5583 94.4628L50.172 94.1446C49.6374 93.7537 49.1884 93.2578 48.8523 92.6872C48.5162 92.1167 48.3002 91.4835 48.2174 90.8264C48.1289 90.1596 48.1759 89.4818 48.3555 88.8335C48.5352 88.1852 48.8438 87.5799 49.2629 87.0537L54.8083 80.1901C55.2727 79.6127 55.8612 79.1474 56.53 78.8287C57.1989 78.51 57.931 78.3461 58.672 78.3492C59.6947 78.3492 60.7401 78.6674 61.6038 79.3264C62.8538 80.2583 63.5811 81.7128 63.5811 83.281C63.5811 84.3037 63.2856 85.2583 62.7174 86.0764C62.672 86.1219 62.6492 86.1901 62.6038 86.2583C62.5811 86.281 62.5811 86.3037 62.5583 86.3037L62.4674 86.4401L57.3083 93.3492C56.5811 94.4174 55.422 95.0992 54.1038 95.281ZM73.4901 95.4401L70.8765 99.5083C70.1265 100.667 68.9674 101.463 67.6038 101.758C66.2629 102.031 64.8992 101.781 63.7856 101.054L63.4901 100.849C62.2856 100.076 61.4901 98.8719 61.2401 97.4855C60.9901 96.0992 61.2856 94.7128 62.1265 93.5537C63.4901 91.7583 65.0356 89.7583 65.6492 89.0083C65.7629 88.8946 65.8765 88.7583 65.9901 88.6674C66.0129 88.6674 66.0129 88.6446 66.0129 88.6446C66.0356 88.6219 66.0811 88.5992 66.1038 88.5764C66.2174 88.4855 66.3083 88.3946 66.4901 88.281C68.1947 87.2583 70.3311 87.2583 71.9901 88.3264C73.4447 89.2583 74.3311 90.8946 74.3311 92.6673C74.3083 93.6673 74.0356 94.6219 73.4901 95.4401ZM114.286 65.1901C112.422 67.031 109.399 67.2583 107.308 65.7355L94.2401 56.0764L89.1492 52.3037C88.7285 51.9985 88.2049 51.8705 87.6907 51.9469C87.1766 52.0234 86.713 52.2984 86.3992 52.7128C85.7629 53.5764 85.9447 54.8037 86.8083 55.4628L95.7174 62.0537L103.263 67.6446C104.581 68.6219 105.422 70.0537 105.627 71.6901C105.831 73.3264 105.354 74.9173 104.286 76.1901C103.332 77.3087 101.994 78.0311 100.536 78.2161C99.0774 78.401 97.6023 78.0352 96.3992 77.1901L80.7402 65.9855C80.5321 65.8339 80.2959 65.7252 80.0454 65.6659C79.7949 65.6066 79.535 65.5979 79.2811 65.6402C79.0271 65.6825 78.7842 65.7751 78.5664 65.9124C78.3487 66.0498 78.1605 66.2291 78.0129 66.4401C77.3765 67.3264 77.5811 68.5537 78.4674 69.1674L93.4447 79.8719C94.6038 80.7128 95.3311 82.0083 95.4674 83.4173C95.5811 84.8492 95.0811 86.2355 94.0583 87.2583C92.3538 88.9855 89.6038 89.1446 87.672 87.6901L72.8992 76.1901C72.6965 76.0313 72.4645 75.9141 72.2163 75.8453C71.9682 75.7764 71.7089 75.7573 71.4534 75.789C71.1978 75.8207 70.9511 75.9025 70.7273 76.0298C70.5035 76.1572 70.307 76.3275 70.1492 76.531C69.4901 77.3719 69.6265 78.6219 70.4674 79.281L83.3765 89.3719C84.6038 90.3264 85.3765 91.7583 85.4674 93.3037C85.5811 94.8719 85.0129 96.3492 83.8992 97.4628C82.0811 99.281 79.0129 99.4855 76.9674 98.0083C76.9674 98.0083 76.8538 97.8719 76.6947 97.7128L76.7401 97.6446C77.6947 96.1901 78.1947 94.4855 78.1947 92.6901C78.1947 89.5764 76.6492 86.7355 74.0583 85.0537C72.081 83.781 69.7174 83.3946 67.4674 83.8037C67.4674 83.6446 67.4901 83.4855 67.4901 83.3264C67.4901 80.4855 66.1947 77.8946 63.9447 76.2128C61.9901 74.7583 59.6492 74.2128 57.422 74.531C57.8765 71.2583 56.672 67.8264 53.8311 65.531C52.8364 64.7169 51.6876 64.1121 50.4535 63.7528C49.2194 63.3935 47.9254 63.2871 46.6492 63.4401C46.3083 63.4855 45.9901 63.5764 45.672 63.6446C45.6947 63.3719 45.7401 63.1219 45.7401 62.8492C45.7401 59.6901 44.3311 56.781 41.8311 54.8264C38.0811 51.9174 32.922 52.0764 29.3311 54.8946C29.3311 54.8719 29.3311 54.8719 29.3538 54.8492C29.3083 54.8946 29.2629 54.9401 29.2174 54.9628C28.9901 55.1446 28.7629 55.3719 28.5583 55.5764C28.3765 55.7583 28.172 55.9174 27.9901 56.1219V55.031C27.9901 52.6674 26.8765 50.4628 25.0356 49.1219L23.5356 48.0083L26.3992 44.1219L30.0129 39.2128L31.1492 37.6901C31.2174 37.6219 31.2629 37.5537 31.3311 37.4855L44.3083 19.8719L45.1492 20.5764C46.3083 21.5992 47.8311 22.1673 49.3992 22.1673H58.8992L53.4447 27.3946C52.172 28.6219 51.4674 30.281 51.4674 32.0537C51.4674 34.5992 52.8765 36.8492 55.172 37.9174C57.9433 39.2376 60.984 39.8942 64.0531 39.835C67.1223 39.7758 70.1354 39.0025 72.8538 37.5764L75.2174 36.3492C77.4447 35.1673 80.172 35.4401 82.1492 37.031L105.217 55.5083C106.558 56.5537 107.967 57.4173 109.422 58.0537C109.899 58.2583 110.422 58.4628 110.877 58.6219C111.286 58.781 111.717 58.9174 112.081 59.0083C112.581 59.1674 113.081 59.281 113.513 59.3492C114.104 59.4628 114.672 59.5537 115.149 59.5764C115.377 59.5992 115.581 59.5992 115.808 59.6219L115.558 59.6901C116.195 61.5764 115.74 63.7355 114.286 65.1901ZM119.331 55.6446C118.581 55.7355 117.763 55.781 116.831 55.7583C116.445 55.7583 116.081 55.7355 115.558 55.6674C115.104 55.6446 114.695 55.5537 114.195 55.4628C113.839 55.4126 113.489 55.3289 113.149 55.2128C112.831 55.1446 112.536 55.031 112.24 54.9174C111.831 54.781 111.399 54.5992 111.013 54.4401C109.877 53.9401 108.74 53.2583 107.672 52.4173L85.7856 34.8719L84.6038 33.9401C82.7402 32.4401 80.4674 31.6674 78.172 31.6674C76.5356 31.6674 74.8992 32.0537 73.422 32.8492L71.0583 34.0764C68.8829 35.2228 66.4696 35.8444 64.0111 35.8918C61.5526 35.9391 59.1172 35.4109 56.8992 34.3492C55.8311 33.8492 55.4447 32.8264 55.4447 32.031C55.4447 31.5537 55.5811 30.8264 56.2174 30.2128L67.5583 19.3492C69.7856 17.2128 72.9447 16.1901 76.0129 16.6446L100.513 20.2583C102.763 20.5764 105.081 20.1446 106.99 19.0537L109.99 17.3719L114.808 29.281L125.172 54.8264L119.331 55.6446ZM144.422 49.9174L131.081 55.8037C130.558 56.031 129.922 55.8492 129.536 55.1901L115.354 20.1673L113.513 15.6673L112.467 13.0764C112.217 12.4855 112.49 11.8037 113.104 11.531L126.422 5.62189C126.717 5.48553 127.058 5.48553 127.354 5.59916C127.649 5.7128 127.877 5.94007 127.99 6.25825L145.036 48.3946C145.263 48.9628 144.99 49.6446 144.422 49.9174Z" fill="url(#paint0_linear_768_25033)"/>
<path d="M148.672 46.8946L131.627 4.78098C131.104 3.48553 130.127 2.48553 128.831 1.94007C127.536 1.41734 126.104 1.44007 124.831 2.00825L111.558 7.91734C109.308 8.87189 108.104 11.3264 108.581 13.6673L105.058 15.6446C103.877 16.3264 102.445 16.5764 101.058 16.3946L76.5811 12.781C74.4647 12.4806 72.3078 12.664 70.2726 13.3175C68.2374 13.9709 66.3769 15.0774 64.8311 16.5537L63.0356 18.281H49.4447C48.8311 18.281 48.2174 18.0537 47.7629 17.6446L46.5583 16.6219C47.3992 14.5537 46.8311 12.1446 45.0129 10.7128L34.7401 2.59916C33.6492 1.73553 32.2856 1.34916 30.8992 1.55371C29.5356 1.73553 28.2856 2.48552 27.4674 3.57643L2.71741 37.1219C1.08105 39.3264 1.46741 42.4174 3.64923 44.1674L13.8992 52.2583C14.4388 52.6852 15.0595 52.9981 15.7237 53.1778C16.3879 53.3575 17.0816 53.4003 17.7629 53.3037C18.4408 53.214 19.0931 52.9862 19.6795 52.6344C20.2658 52.2826 20.7738 51.8142 21.172 51.2583L21.2629 51.1446L22.7401 52.2583C23.6038 52.8719 24.1038 53.9173 24.1038 55.0083V61.1219L20.2856 66.031C16.8765 70.4628 17.6492 76.8492 22.0583 80.2583C23.8538 81.6674 26.0356 82.4174 28.2856 82.4174C28.6947 82.4174 29.1265 82.3946 29.5356 82.3492C29.9901 82.281 30.422 82.1674 30.8538 82.0537C30.8538 82.1901 30.8311 82.3037 30.8311 82.4401C30.8311 85.3492 32.1492 88.0764 34.422 89.9401C36.1947 91.3492 38.3311 92.0537 40.4447 92.0537C41.7629 92.0537 43.0811 91.7583 44.3083 91.2355V91.3492C44.6265 93.7355 45.8765 95.8492 47.6947 97.1901L48.1038 97.5083C49.9947 98.9116 52.3647 99.5082 54.6947 99.1674C55.672 99.031 56.5583 98.6901 57.422 98.2583C57.8992 100.69 59.2856 102.781 61.3538 104.099L61.6492 104.304C62.6393 104.959 63.7508 105.41 64.918 105.628C66.0852 105.847 67.2844 105.829 68.4447 105.576C70.8311 105.076 72.8538 103.667 74.1947 101.622L74.5811 101.031C76.1947 102.258 78.1265 102.895 80.1947 102.895C82.6265 102.895 85.0129 101.895 86.7401 100.19C87.7357 99.1943 88.4924 97.9856 88.953 96.6549C89.4136 95.3243 89.5662 93.9064 89.3992 92.5083C90.7869 92.7103 92.2028 92.5772 93.5285 92.1199C94.8542 91.6625 96.051 90.8944 97.019 89.8797C97.9869 88.8651 98.6978 87.6333 99.0922 86.2876C99.4865 84.9419 99.5528 83.5212 99.2856 82.1446C102.308 82.3264 105.286 81.1219 107.331 78.6901C108.264 77.5883 108.94 76.2925 109.309 74.8969C109.679 73.5014 109.733 72.041 109.467 70.6219C112.217 70.9174 115.013 69.9628 117.058 67.9628C119.308 65.7128 120.149 62.531 119.536 59.531C119.649 59.5083 119.763 59.531 119.877 59.5083L127.195 58.4855C128.127 59.3264 129.377 59.8037 130.627 59.8037C131.331 59.8037 132.036 59.6673 132.695 59.3492L146.013 53.4628C148.513 52.3719 149.695 49.4628 148.672 46.8946ZM17.2174 49.4401C17.0568 49.464 16.893 49.4541 16.7365 49.4111C16.5799 49.368 16.4341 49.2928 16.3083 49.1901L6.10378 41.1219C5.86004 40.9275 5.70047 40.6467 5.65816 40.3378C5.61584 40.0289 5.69403 39.7156 5.8765 39.4628L30.6038 5.84916C30.8538 5.50825 31.1947 5.41735 31.3992 5.39462H31.5583C31.7629 5.39462 32.0356 5.44007 32.2856 5.64462L42.5811 13.7583C43.0811 14.1446 43.172 14.8719 42.8083 15.3492L42.4901 15.781L42.422 15.8492L28.1947 35.1219L28.1492 35.1673L25.4447 38.8492L19.2401 47.2583C19.2174 47.281 19.2174 47.3037 19.2174 47.3037L17.9901 48.9855C17.7629 49.3037 17.4447 49.4174 17.2174 49.4401ZM29.0811 78.4628C28.2697 78.5636 27.4464 78.503 26.6586 78.2846C25.8707 78.0662 25.1338 77.6942 24.4901 77.1901C21.8083 75.0992 21.3083 71.1674 23.422 68.4401L30.7401 59.0083C31.9674 57.4174 33.8083 56.5992 35.672 56.5992C36.9901 56.5992 38.3311 57.031 39.4674 57.8946C40.9901 59.0992 41.8765 60.8946 41.8765 62.8264C41.8765 64.2128 41.422 65.531 40.5583 66.6674L33.2401 76.0992C32.1947 77.4174 30.7174 78.2583 29.0811 78.4628ZM36.8992 86.8946C35.5356 85.781 34.7629 84.1673 34.7629 82.4401C34.7629 81.1901 35.1947 79.9628 36.0356 78.8946L43.3311 69.4855C44.2629 68.2583 45.6265 67.5083 47.1492 67.3264C47.3765 67.281 47.6038 67.281 47.8083 67.281C49.1038 67.281 50.3765 67.7355 51.5583 68.6901C54.0129 70.6674 54.3992 74.281 52.422 76.7355L44.9447 86.0537C43.9783 87.2156 42.5961 87.9538 41.093 88.1109C39.59 88.268 38.085 87.8316 36.8992 86.8946ZM54.1038 95.281C52.7856 95.4628 51.4901 95.1446 50.5583 94.4628L50.172 94.1446C49.6374 93.7537 49.1884 93.2578 48.8523 92.6872C48.5162 92.1167 48.3002 91.4835 48.2174 90.8264C48.1289 90.1596 48.1759 89.4818 48.3555 88.8335C48.5352 88.1852 48.8438 87.5799 49.2629 87.0537L54.8083 80.1901C55.2727 79.6127 55.8612 79.1474 56.53 78.8287C57.1989 78.51 57.931 78.3461 58.672 78.3492C59.6947 78.3492 60.7401 78.6674 61.6038 79.3264C62.8538 80.2583 63.5811 81.7128 63.5811 83.281C63.5811 84.3037 63.2856 85.2583 62.7174 86.0764C62.672 86.1219 62.6492 86.1901 62.6038 86.2583C62.5811 86.281 62.5811 86.3037 62.5583 86.3037L62.4674 86.4401L57.3083 93.3492C56.5811 94.4174 55.422 95.0992 54.1038 95.281ZM73.4901 95.4401L70.8765 99.5083C70.1265 100.667 68.9674 101.463 67.6038 101.758C66.2629 102.031 64.8992 101.781 63.7856 101.054L63.4901 100.849C62.2856 100.076 61.4901 98.8719 61.2401 97.4855C60.9901 96.0992 61.2856 94.7128 62.1265 93.5537C63.4901 91.7583 65.0356 89.7583 65.6492 89.0083C65.7629 88.8946 65.8765 88.7583 65.9901 88.6674C66.0129 88.6674 66.0129 88.6446 66.0129 88.6446C66.0356 88.6219 66.0811 88.5992 66.1038 88.5764C66.2174 88.4855 66.3083 88.3946 66.4901 88.281C68.1947 87.2583 70.3311 87.2583 71.9901 88.3264C73.4447 89.2583 74.3311 90.8946 74.3311 92.6673C74.3083 93.6673 74.0356 94.6219 73.4901 95.4401ZM114.286 65.1901C112.422 67.031 109.399 67.2583 107.308 65.7355L94.2401 56.0764L89.1492 52.3037C88.7285 51.9985 88.2049 51.8705 87.6907 51.9469C87.1766 52.0234 86.713 52.2984 86.3992 52.7128C85.7629 53.5764 85.9447 54.8037 86.8083 55.4628L95.7174 62.0537L103.263 67.6446C104.581 68.6219 105.422 70.0537 105.627 71.6901C105.831 73.3264 105.354 74.9173 104.286 76.1901C103.332 77.3087 101.994 78.0311 100.536 78.2161C99.0774 78.401 97.6023 78.0352 96.3992 77.1901L80.7402 65.9855C80.5321 65.8339 80.2959 65.7252 80.0454 65.6659C79.7949 65.6066 79.535 65.5979 79.2811 65.6402C79.0271 65.6825 78.7842 65.7751 78.5664 65.9124C78.3487 66.0498 78.1605 66.2291 78.0129 66.4401C77.3765 67.3264 77.5811 68.5537 78.4674 69.1674L93.4447 79.8719C94.6038 80.7128 95.3311 82.0083 95.4674 83.4173C95.5811 84.8492 95.0811 86.2355 94.0583 87.2583C92.3538 88.9855 89.6038 89.1446 87.672 87.6901L72.8992 76.1901C72.6965 76.0313 72.4645 75.9141 72.2163 75.8453C71.9682 75.7764 71.7089 75.7573 71.4534 75.789C71.1978 75.8207 70.9511 75.9025 70.7273 76.0298C70.5035 76.1572 70.307 76.3275 70.1492 76.531C69.4901 77.3719 69.6265 78.6219 70.4674 79.281L83.3765 89.3719C84.6038 90.3264 85.3765 91.7583 85.4674 93.3037C85.5811 94.8719 85.0129 96.3492 83.8992 97.4628C82.0811 99.281 79.0129 99.4855 76.9674 98.0083C76.9674 98.0083 76.8538 97.8719 76.6947 97.7128L76.7401 97.6446C77.6947 96.1901 78.1947 94.4855 78.1947 92.6901C78.1947 89.5764 76.6492 86.7355 74.0583 85.0537C72.081 83.781 69.7174 83.3946 67.4674 83.8037C67.4674 83.6446 67.4901 83.4855 67.4901 83.3264C67.4901 80.4855 66.1947 77.8946 63.9447 76.2128C61.9901 74.7583 59.6492 74.2128 57.422 74.531C57.8765 71.2583 56.672 67.8264 53.8311 65.531C52.8364 64.7169 51.6876 64.1121 50.4535 63.7528C49.2194 63.3935 47.9254 63.2871 46.6492 63.4401C46.3083 63.4855 45.9901 63.5764 45.672 63.6446C45.6947 63.3719 45.7401 63.1219 45.7401 62.8492C45.7401 59.6901 44.3311 56.781 41.8311 54.8264C38.0811 51.9174 32.922 52.0764 29.3311 54.8946C29.3311 54.8719 29.3311 54.8719 29.3538 54.8492C29.3083 54.8946 29.2629 54.9401 29.2174 54.9628C28.9901 55.1446 28.7629 55.3719 28.5583 55.5764C28.3765 55.7583 28.172 55.9174 27.9901 56.1219V55.031C27.9901 52.6674 26.8765 50.4628 25.0356 49.1219L23.5356 48.0083L26.3992 44.1219L30.0129 39.2128L31.1492 37.6901C31.2174 37.6219 31.2629 37.5537 31.3311 37.4855L44.3083 19.8719L45.1492 20.5764C46.3083 21.5992 47.8311 22.1673 49.3992 22.1673H58.8992L53.4447 27.3946C52.172 28.6219 51.4674 30.281 51.4674 32.0537C51.4674 34.5992 52.8765 36.8492 55.172 37.9174C57.9433 39.2376 60.984 39.8942 64.0531 39.835C67.1223 39.7758 70.1354 39.0025 72.8538 37.5764L75.2174 36.3492C77.4447 35.1673 80.172 35.4401 82.1492 37.031L105.217 55.5083C106.558 56.5537 107.967 57.4173 109.422 58.0537C109.899 58.2583 110.422 58.4628 110.877 58.6219C111.286 58.781 111.717 58.9174 112.081 59.0083C112.581 59.1674 113.081 59.281 113.513 59.3492C114.104 59.4628 114.672 59.5537 115.149 59.5764C115.377 59.5992 115.581 59.5992 115.808 59.6219L115.558 59.6901C116.195 61.5764 115.74 63.7355 114.286 65.1901ZM119.331 55.6446C118.581 55.7355 117.763 55.781 116.831 55.7583C116.445 55.7583 116.081 55.7355 115.558 55.6674C115.104 55.6446 114.695 55.5537 114.195 55.4628C113.839 55.4126 113.489 55.3289 113.149 55.2128C112.831 55.1446 112.536 55.031 112.24 54.9174C111.831 54.781 111.399 54.5992 111.013 54.4401C109.877 53.9401 108.74 53.2583 107.672 52.4173L85.7856 34.8719L84.6038 33.9401C82.7402 32.4401 80.4674 31.6674 78.172 31.6674C76.5356 31.6674 74.8992 32.0537 73.422 32.8492L71.0583 34.0764C68.8829 35.2228 66.4696 35.8444 64.0111 35.8918C61.5526 35.9391 59.1172 35.4109 56.8992 34.3492C55.8311 33.8492 55.4447 32.8264 55.4447 32.031C55.4447 31.5537 55.5811 30.8264 56.2174 30.2128L67.5583 19.3492C69.7856 17.2128 72.9447 16.1901 76.0129 16.6446L100.513 20.2583C102.763 20.5764 105.081 20.1446 106.99 19.0537L109.99 17.3719L114.808 29.281L125.172 54.8264L119.331 55.6446ZM144.422 49.9174L131.081 55.8037C130.558 56.031 129.922 55.8492 129.536 55.1901L115.354 20.1673L113.513 15.6673L112.467 13.0764C112.217 12.4855 112.49 11.8037 113.104 11.531L126.422 5.62189C126.717 5.48553 127.058 5.48553 127.354 5.59916C127.649 5.7128 127.877 5.94007 127.99 6.25825L145.036 48.3946C145.263 48.9628 144.99 49.6446 144.422 49.9174Z" stroke="black" stroke-width="2.5" mask="url(#path-1-outside-1_768_25033)"/>
<path d="M148.672 46.8946L131.627 4.78098C131.104 3.48553 130.127 2.48553 128.831 1.94007C127.536 1.41734 126.104 1.44007 124.831 2.00825L111.558 7.91734C109.308 8.87189 108.104 11.3264 108.581 13.6673L105.058 15.6446C103.877 16.3264 102.445 16.5764 101.058 16.3946L76.5811 12.781C74.4647 12.4806 72.3078 12.664 70.2726 13.3175C68.2374 13.9709 66.3769 15.0774 64.8311 16.5537L63.0356 18.281H49.4447C48.8311 18.281 48.2174 18.0537 47.7629 17.6446L46.5583 16.6219C47.3992 14.5537 46.8311 12.1446 45.0129 10.7128L34.7401 2.59916C33.6492 1.73553 32.2856 1.34916 30.8992 1.55371C29.5356 1.73553 28.2856 2.48552 27.4674 3.57643L2.71741 37.1219C1.08105 39.3264 1.46741 42.4174 3.64923 44.1674L13.8992 52.2583C14.4388 52.6852 15.0595 52.9981 15.7237 53.1778C16.3879 53.3575 17.0816 53.4003 17.7629 53.3037C18.4408 53.214 19.0931 52.9862 19.6795 52.6344C20.2658 52.2826 20.7738 51.8142 21.172 51.2583L21.2629 51.1446L22.7401 52.2583C23.6038 52.8719 24.1038 53.9173 24.1038 55.0083V61.1219L20.2856 66.031C16.8765 70.4628 17.6492 76.8492 22.0583 80.2583C23.8538 81.6674 26.0356 82.4174 28.2856 82.4174C28.6947 82.4174 29.1265 82.3946 29.5356 82.3492C29.9901 82.281 30.422 82.1674 30.8538 82.0537C30.8538 82.1901 30.8311 82.3037 30.8311 82.4401C30.8311 85.3492 32.1492 88.0764 34.422 89.9401C36.1947 91.3492 38.3311 92.0537 40.4447 92.0537C41.7629 92.0537 43.0811 91.7583 44.3083 91.2355V91.3492C44.6265 93.7355 45.8765 95.8492 47.6947 97.1901L48.1038 97.5083C49.9947 98.9116 52.3647 99.5082 54.6947 99.1674C55.672 99.031 56.5583 98.6901 57.422 98.2583C57.8992 100.69 59.2856 102.781 61.3538 104.099L61.6492 104.304C62.6393 104.959 63.7508 105.41 64.918 105.628C66.0852 105.847 67.2844 105.829 68.4447 105.576C70.8311 105.076 72.8538 103.667 74.1947 101.622L74.5811 101.031C76.1947 102.258 78.1265 102.895 80.1947 102.895C82.6265 102.895 85.0129 101.895 86.7401 100.19C87.7357 99.1943 88.4924 97.9856 88.953 96.6549C89.4136 95.3243 89.5662 93.9064 89.3992 92.5083C90.7869 92.7103 92.2028 92.5772 93.5285 92.1199C94.8542 91.6625 96.051 90.8944 97.019 89.8797C97.9869 88.8651 98.6978 87.6333 99.0922 86.2876C99.4865 84.9419 99.5528 83.5212 99.2856 82.1446C102.308 82.3264 105.286 81.1219 107.331 78.6901C108.264 77.5883 108.94 76.2925 109.309 74.8969C109.679 73.5014 109.733 72.041 109.467 70.6219C112.217 70.9174 115.013 69.9628 117.058 67.9628C119.308 65.7128 120.149 62.531 119.536 59.531C119.649 59.5083 119.763 59.531 119.877 59.5083L127.195 58.4855C128.127 59.3264 129.377 59.8037 130.627 59.8037C131.331 59.8037 132.036 59.6673 132.695 59.3492L146.013 53.4628C148.513 52.3719 149.695 49.4628 148.672 46.8946ZM17.2174 49.4401C17.0568 49.464 16.893 49.4541 16.7365 49.4111C16.5799 49.368 16.4341 49.2928 16.3083 49.1901L6.10378 41.1219C5.86004 40.9275 5.70047 40.6467 5.65816 40.3378C5.61584 40.0289 5.69403 39.7156 5.8765 39.4628L30.6038 5.84916C30.8538 5.50825 31.1947 5.41735 31.3992 5.39462H31.5583C31.7629 5.39462 32.0356 5.44007 32.2856 5.64462L42.5811 13.7583C43.0811 14.1446 43.172 14.8719 42.8083 15.3492L42.4901 15.781L42.422 15.8492L28.1947 35.1219L28.1492 35.1673L25.4447 38.8492L19.2401 47.2583C19.2174 47.281 19.2174 47.3037 19.2174 47.3037L17.9901 48.9855C17.7629 49.3037 17.4447 49.4174 17.2174 49.4401ZM29.0811 78.4628C28.2697 78.5636 27.4464 78.503 26.6586 78.2846C25.8707 78.0662 25.1338 77.6942 24.4901 77.1901C21.8083 75.0992 21.3083 71.1674 23.422 68.4401L30.7401 59.0083C31.9674 57.4174 33.8083 56.5992 35.672 56.5992C36.9901 56.5992 38.3311 57.031 39.4674 57.8946C40.9901 59.0992 41.8765 60.8946 41.8765 62.8264C41.8765 64.2128 41.422 65.531 40.5583 66.6674L33.2401 76.0992C32.1947 77.4174 30.7174 78.2583 29.0811 78.4628ZM36.8992 86.8946C35.5356 85.781 34.7629 84.1673 34.7629 82.4401C34.7629 81.1901 35.1947 79.9628 36.0356 78.8946L43.3311 69.4855C44.2629 68.2583 45.6265 67.5083 47.1492 67.3264C47.3765 67.281 47.6038 67.281 47.8083 67.281C49.1038 67.281 50.3765 67.7355 51.5583 68.6901C54.0129 70.6674 54.3992 74.281 52.422 76.7355L44.9447 86.0537C43.9783 87.2156 42.5961 87.9538 41.093 88.1109C39.59 88.268 38.085 87.8316 36.8992 86.8946ZM54.1038 95.281C52.7856 95.4628 51.4901 95.1446 50.5583 94.4628L50.172 94.1446C49.6374 93.7537 49.1884 93.2578 48.8523 92.6872C48.5162 92.1167 48.3002 91.4835 48.2174 90.8264C48.1289 90.1596 48.1759 89.4818 48.3555 88.8335C48.5352 88.1852 48.8438 87.5799 49.2629 87.0537L54.8083 80.1901C55.2727 79.6127 55.8612 79.1474 56.53 78.8287C57.1989 78.51 57.931 78.3461 58.672 78.3492C59.6947 78.3492 60.7401 78.6674 61.6038 79.3264C62.8538 80.2583 63.5811 81.7128 63.5811 83.281C63.5811 84.3037 63.2856 85.2583 62.7174 86.0764C62.672 86.1219 62.6492 86.1901 62.6038 86.2583C62.5811 86.281 62.5811 86.3037 62.5583 86.3037L62.4674 86.4401L57.3083 93.3492C56.5811 94.4174 55.422 95.0992 54.1038 95.281ZM73.4901 95.4401L70.8765 99.5083C70.1265 100.667 68.9674 101.463 67.6038 101.758C66.2629 102.031 64.8992 101.781 63.7856 101.054L63.4901 100.849C62.2856 100.076 61.4901 98.8719 61.2401 97.4855C60.9901 96.0992 61.2856 94.7128 62.1265 93.5537C63.4901 91.7583 65.0356 89.7583 65.6492 89.0083C65.7629 88.8946 65.8765 88.7583 65.9901 88.6674C66.0129 88.6674 66.0129 88.6446 66.0129 88.6446C66.0356 88.6219 66.0811 88.5992 66.1038 88.5764C66.2174 88.4855 66.3083 88.3946 66.4901 88.281C68.1947 87.2583 70.3311 87.2583 71.9901 88.3264C73.4447 89.2583 74.3311 90.8946 74.3311 92.6673C74.3083 93.6673 74.0356 94.6219 73.4901 95.4401ZM114.286 65.1901C112.422 67.031 109.399 67.2583 107.308 65.7355L94.2401 56.0764L89.1492 52.3037C88.7285 51.9985 88.2049 51.8705 87.6907 51.9469C87.1766 52.0234 86.713 52.2984 86.3992 52.7128C85.7629 53.5764 85.9447 54.8037 86.8083 55.4628L95.7174 62.0537L103.263 67.6446C104.581 68.6219 105.422 70.0537 105.627 71.6901C105.831 73.3264 105.354 74.9173 104.286 76.1901C103.332 77.3087 101.994 78.0311 100.536 78.2161C99.0774 78.401 97.6023 78.0352 96.3992 77.1901L80.7402 65.9855C80.5321 65.8339 80.2959 65.7252 80.0454 65.6659C79.7949 65.6066 79.535 65.5979 79.2811 65.6402C79.0271 65.6825 78.7842 65.7751 78.5664 65.9124C78.3487 66.0498 78.1605 66.2291 78.0129 66.4401C77.3765 67.3264 77.5811 68.5537 78.4674 69.1674L93.4447 79.8719C94.6038 80.7128 95.3311 82.0083 95.4674 83.4173C95.5811 84.8492 95.0811 86.2355 94.0583 87.2583C92.3538 88.9855 89.6038 89.1446 87.672 87.6901L72.8992 76.1901C72.6965 76.0313 72.4645 75.9141 72.2163 75.8453C71.9682 75.7764 71.7089 75.7573 71.4534 75.789C71.1978 75.8207 70.9511 75.9025 70.7273 76.0298C70.5035 76.1572 70.307 76.3275 70.1492 76.531C69.4901 77.3719 69.6265 78.6219 70.4674 79.281L83.3765 89.3719C84.6038 90.3264 85.3765 91.7583 85.4674 93.3037C85.5811 94.8719 85.0129 96.3492 83.8992 97.4628C82.0811 99.281 79.0129 99.4855 76.9674 98.0083C76.9674 98.0083 76.8538 97.8719 76.6947 97.7128L76.7401 97.6446C77.6947 96.1901 78.1947 94.4855 78.1947 92.6901C78.1947 89.5764 76.6492 86.7355 74.0583 85.0537C72.081 83.781 69.7174 83.3946 67.4674 83.8037C67.4674 83.6446 67.4901 83.4855 67.4901 83.3264C67.4901 80.4855 66.1947 77.8946 63.9447 76.2128C61.9901 74.7583 59.6492 74.2128 57.422 74.531C57.8765 71.2583 56.672 67.8264 53.8311 65.531C52.8364 64.7169 51.6876 64.1121 50.4535 63.7528C49.2194 63.3935 47.9254 63.2871 46.6492 63.4401C46.3083 63.4855 45.9901 63.5764 45.672 63.6446C45.6947 63.3719 45.7401 63.1219 45.7401 62.8492C45.7401 59.6901 44.3311 56.781 41.8311 54.8264C38.0811 51.9174 32.922 52.0764 29.3311 54.8946C29.3311 54.8719 29.3311 54.8719 29.3538 54.8492C29.3083 54.8946 29.2629 54.9401 29.2174 54.9628C28.9901 55.1446 28.7629 55.3719 28.5583 55.5764C28.3765 55.7583 28.172 55.9174 27.9901 56.1219V55.031C27.9901 52.6674 26.8765 50.4628 25.0356 49.1219L23.5356 48.0083L26.3992 44.1219L30.0129 39.2128L31.1492 37.6901C31.2174 37.6219 31.2629 37.5537 31.3311 37.4855L44.3083 19.8719L45.1492 20.5764C46.3083 21.5992 47.8311 22.1673 49.3992 22.1673H58.8992L53.4447 27.3946C52.172 28.6219 51.4674 30.281 51.4674 32.0537C51.4674 34.5992 52.8765 36.8492 55.172 37.9174C57.9433 39.2376 60.984 39.8942 64.0531 39.835C67.1223 39.7758 70.1354 39.0025 72.8538 37.5764L75.2174 36.3492C77.4447 35.1673 80.172 35.4401 82.1492 37.031L105.217 55.5083C106.558 56.5537 107.967 57.4173 109.422 58.0537C109.899 58.2583 110.422 58.4628 110.877 58.6219C111.286 58.781 111.717 58.9174 112.081 59.0083C112.581 59.1674 113.081 59.281 113.513 59.3492C114.104 59.4628 114.672 59.5537 115.149 59.5764C115.377 59.5992 115.581 59.5992 115.808 59.6219L115.558 59.6901C116.195 61.5764 115.74 63.7355 114.286 65.1901ZM119.331 55.6446C118.581 55.7355 117.763 55.781 116.831 55.7583C116.445 55.7583 116.081 55.7355 115.558 55.6674C115.104 55.6446 114.695 55.5537 114.195 55.4628C113.839 55.4126 113.489 55.3289 113.149 55.2128C112.831 55.1446 112.536 55.031 112.24 54.9174C111.831 54.781 111.399 54.5992 111.013 54.4401C109.877 53.9401 108.74 53.2583 107.672 52.4173L85.7856 34.8719L84.6038 33.9401C82.7402 32.4401 80.4674 31.6674 78.172 31.6674C76.5356 31.6674 74.8992 32.0537 73.422 32.8492L71.0583 34.0764C68.8829 35.2228 66.4696 35.8444 64.0111 35.8918C61.5526 35.9391 59.1172 35.4109 56.8992 34.3492C55.8311 33.8492 55.4447 32.8264 55.4447 32.031C55.4447 31.5537 55.5811 30.8264 56.2174 30.2128L67.5583 19.3492C69.7856 17.2128 72.9447 16.1901 76.0129 16.6446L100.513 20.2583C102.763 20.5764 105.081 20.1446 106.99 19.0537L109.99 17.3719L114.808 29.281L125.172 54.8264L119.331 55.6446ZM144.422 49.9174L131.081 55.8037C130.558 56.031 129.922 55.8492 129.536 55.1901L115.354 20.1673L113.513 15.6673L112.467 13.0764C112.217 12.4855 112.49 11.8037 113.104 11.531L126.422 5.62189C126.717 5.48553 127.058 5.48553 127.354 5.59916C127.649 5.7128 127.877 5.94007 127.99 6.25825L145.036 48.3946C145.263 48.9628 144.99 49.6446 144.422 49.9174Z" stroke="url(#paint1_linear_768_25033)" stroke-width="2.5" mask="url(#path-1-outside-1_768_25033)"/>
<defs>
<linearGradient id="paint0_linear_768_25033" x1="154.378" y1="12.9057" x2="41.6903" y2="168.44" gradientUnits="userSpaceOnUse">
<stop stop-color="#8DC8E9"/>
<stop offset="1" stop-color="#8C5AE3"/>
</linearGradient>
<linearGradient id="paint1_linear_768_25033" x1="154.378" y1="12.9057" x2="41.6903" y2="168.44" gradientUnits="userSpaceOnUse">
<stop stop-color="#8DC8E9"/>
<stop offset="1" stop-color="#8C5AE3"/>
</linearGradient>
</defs>
</svg>
