<svg width="148" height="50" viewBox="0 0 148 50" fill="none" xmlns="http://www.w3.org/2000/svg">
<path d="M11.5568 38.5H2.27557V12.3182H11.6335C14.267 12.3182 16.5341 12.8423 18.4347 13.8906C20.3352 14.9304 21.7969 16.4261 22.8196 18.3778C23.8509 20.3295 24.3665 22.6648 24.3665 25.3835C24.3665 28.1108 23.8509 30.4545 22.8196 32.4148C21.7969 34.375 20.3267 35.8793 18.4091 36.9276C16.5 37.9759 14.2159 38.5 11.5568 38.5ZM7.81108 33.7571H11.3267C12.9631 33.7571 14.3395 33.4673 15.456 32.8878C16.581 32.2997 17.4247 31.392 17.9872 30.1648C18.5582 28.929 18.8438 27.3352 18.8438 25.3835C18.8438 23.4489 18.5582 21.8679 17.9872 20.6406C17.4247 19.4134 16.5852 18.5099 15.4688 17.9304C14.3523 17.3509 12.9759 17.0611 11.3395 17.0611H7.81108V33.7571ZM28.3647 38.5V18.8636H33.6445V22.2898H33.8491C34.207 21.071 34.8079 20.1506 35.6516 19.5284C36.4954 18.8977 37.467 18.5824 38.5664 18.5824C38.8391 18.5824 39.1332 18.5994 39.4485 18.6335C39.7638 18.6676 40.0408 18.7145 40.2795 18.7741V23.6065C40.0238 23.5298 39.6701 23.4616 39.2184 23.402C38.7667 23.3423 38.3533 23.3125 37.9783 23.3125C37.1772 23.3125 36.4613 23.4872 35.8306 23.8366C35.2085 24.1776 34.7141 24.6548 34.3477 25.2685C33.9897 25.8821 33.8107 26.5895 33.8107 27.3906V38.5H28.3647ZM48.1321 38.8707C46.8793 38.8707 45.7628 38.6534 44.7827 38.2188C43.8026 37.7756 43.027 37.1236 42.456 36.2628C41.8935 35.3935 41.6122 34.3111 41.6122 33.0156C41.6122 31.9247 41.8125 31.0085 42.2131 30.267C42.6136 29.5256 43.1591 28.929 43.8494 28.4773C44.5398 28.0256 45.3239 27.6847 46.2017 27.4545C47.0881 27.2244 48.017 27.0625 48.9886 26.9688C50.1307 26.8494 51.0511 26.7386 51.75 26.6364C52.4489 26.5256 52.956 26.3636 53.2713 26.1506C53.5866 25.9375 53.7443 25.6222 53.7443 25.2045V25.1278C53.7443 24.3182 53.4886 23.6918 52.9773 23.2486C52.4744 22.8054 51.7585 22.5838 50.8295 22.5838C49.8494 22.5838 49.0696 22.8011 48.4901 23.2358C47.9105 23.6619 47.527 24.1989 47.3395 24.8466L42.3026 24.4375C42.5582 23.2443 43.0611 22.2131 43.8111 21.3438C44.5611 20.4659 45.5284 19.7926 46.7131 19.3239C47.9063 18.8466 49.2869 18.608 50.8551 18.608C51.946 18.608 52.9901 18.7358 53.9872 18.9915C54.9929 19.2472 55.8835 19.6435 56.6591 20.1804C57.4432 20.7173 58.0611 21.4077 58.5128 22.2514C58.9645 23.0866 59.1903 24.0881 59.1903 25.2557V38.5H54.0256V35.777H53.8722C53.5568 36.3906 53.1349 36.9318 52.6065 37.4006C52.0781 37.8608 51.4432 38.223 50.7017 38.4872C49.9602 38.7429 49.1037 38.8707 48.1321 38.8707ZM49.6918 35.1122C50.4929 35.1122 51.2003 34.9545 51.8139 34.6392C52.4276 34.3153 52.9091 33.8807 53.2585 33.3352C53.608 32.7898 53.7827 32.1719 53.7827 31.4815V29.3977C53.6122 29.5085 53.3778 29.6108 53.0795 29.7045C52.7898 29.7898 52.4616 29.8707 52.0952 29.9474C51.7287 30.0156 51.3622 30.0795 50.9957 30.1392C50.6293 30.1903 50.2969 30.2372 49.9986 30.2798C49.3594 30.3736 48.8011 30.5227 48.3239 30.7273C47.8466 30.9318 47.4759 31.2088 47.2116 31.5582C46.9474 31.8991 46.8153 32.3253 46.8153 32.8366C46.8153 33.5781 47.0838 34.1449 47.6207 34.5369C48.1662 34.9205 48.8565 35.1122 49.6918 35.1122ZM67.2891 38.5L61.9453 18.8636H67.4553L70.4979 32.0568H70.6768L73.8473 18.8636H79.255L82.4766 31.9801H82.6428L85.6342 18.8636H91.1314L85.8004 38.5H80.0348L76.6598 26.1506H76.4169L73.0419 38.5H67.2891Z" fill="#8777DA"/>
<path d="M11.5568 38.5H2.27557V12.3182H11.6335C14.267 12.3182 16.5341 12.8423 18.4347 13.8906C20.3352 14.9304 21.7969 16.4261 22.8196 18.3778C23.8509 20.3295 24.3665 22.6648 24.3665 25.3835C24.3665 28.1108 23.8509 30.4545 22.8196 32.4148C21.7969 34.375 20.3267 35.8793 18.4091 36.9276C16.5 37.9759 14.2159 38.5 11.5568 38.5ZM7.81108 33.7571H11.3267C12.9631 33.7571 14.3395 33.4673 15.456 32.8878C16.581 32.2997 17.4247 31.392 17.9872 30.1648C18.5582 28.929 18.8438 27.3352 18.8438 25.3835C18.8438 23.4489 18.5582 21.8679 17.9872 20.6406C17.4247 19.4134 16.5852 18.5099 15.4688 17.9304C14.3523 17.3509 12.9759 17.0611 11.3395 17.0611H7.81108V33.7571ZM28.3647 38.5V18.8636H33.6445V22.2898H33.8491C34.207 21.071 34.8079 20.1506 35.6516 19.5284C36.4954 18.8977 37.467 18.5824 38.5664 18.5824C38.8391 18.5824 39.1332 18.5994 39.4485 18.6335C39.7638 18.6676 40.0408 18.7145 40.2795 18.7741V23.6065C40.0238 23.5298 39.6701 23.4616 39.2184 23.402C38.7667 23.3423 38.3533 23.3125 37.9783 23.3125C37.1772 23.3125 36.4613 23.4872 35.8306 23.8366C35.2085 24.1776 34.7141 24.6548 34.3477 25.2685C33.9897 25.8821 33.8107 26.5895 33.8107 27.3906V38.5H28.3647ZM48.1321 38.8707C46.8793 38.8707 45.7628 38.6534 44.7827 38.2188C43.8026 37.7756 43.027 37.1236 42.456 36.2628C41.8935 35.3935 41.6122 34.3111 41.6122 33.0156C41.6122 31.9247 41.8125 31.0085 42.2131 30.267C42.6136 29.5256 43.1591 28.929 43.8494 28.4773C44.5398 28.0256 45.3239 27.6847 46.2017 27.4545C47.0881 27.2244 48.017 27.0625 48.9886 26.9688C50.1307 26.8494 51.0511 26.7386 51.75 26.6364C52.4489 26.5256 52.956 26.3636 53.2713 26.1506C53.5866 25.9375 53.7443 25.6222 53.7443 25.2045V25.1278C53.7443 24.3182 53.4886 23.6918 52.9773 23.2486C52.4744 22.8054 51.7585 22.5838 50.8295 22.5838C49.8494 22.5838 49.0696 22.8011 48.4901 23.2358C47.9105 23.6619 47.527 24.1989 47.3395 24.8466L42.3026 24.4375C42.5582 23.2443 43.0611 22.2131 43.8111 21.3438C44.5611 20.4659 45.5284 19.7926 46.7131 19.3239C47.9063 18.8466 49.2869 18.608 50.8551 18.608C51.946 18.608 52.9901 18.7358 53.9872 18.9915C54.9929 19.2472 55.8835 19.6435 56.6591 20.1804C57.4432 20.7173 58.0611 21.4077 58.5128 22.2514C58.9645 23.0866 59.1903 24.0881 59.1903 25.2557V38.5H54.0256V35.777H53.8722C53.5568 36.3906 53.1349 36.9318 52.6065 37.4006C52.0781 37.8608 51.4432 38.223 50.7017 38.4872C49.9602 38.7429 49.1037 38.8707 48.1321 38.8707ZM49.6918 35.1122C50.4929 35.1122 51.2003 34.9545 51.8139 34.6392C52.4276 34.3153 52.9091 33.8807 53.2585 33.3352C53.608 32.7898 53.7827 32.1719 53.7827 31.4815V29.3977C53.6122 29.5085 53.3778 29.6108 53.0795 29.7045C52.7898 29.7898 52.4616 29.8707 52.0952 29.9474C51.7287 30.0156 51.3622 30.0795 50.9957 30.1392C50.6293 30.1903 50.2969 30.2372 49.9986 30.2798C49.3594 30.3736 48.8011 30.5227 48.3239 30.7273C47.8466 30.9318 47.4759 31.2088 47.2116 31.5582C46.9474 31.8991 46.8153 32.3253 46.8153 32.8366C46.8153 33.5781 47.0838 34.1449 47.6207 34.5369C48.1662 34.9205 48.8565 35.1122 49.6918 35.1122ZM67.2891 38.5L61.9453 18.8636H67.4553L70.4979 32.0568H70.6768L73.8473 18.8636H79.255L82.4766 31.9801H82.6428L85.6342 18.8636H91.1314L85.8004 38.5H80.0348L76.6598 26.1506H76.4169L73.0419 38.5H67.2891Z" fill="url(#paint0_linear_768_40098)"/>
<g clip-path="url(#clip0_768_40098)">
<mask id="path-2-outside-1_768_40098" maskUnits="userSpaceOnUse" x="97.418" y="6.5" width="51" height="37" fill="black">
<rect fill="white" x="97.418" y="6.5" width="51" height="37"/>
<path d="M147.406 22.6315L141.724 8.59366C141.55 8.16184 141.224 7.82851 140.792 7.64669C140.36 7.47245 139.883 7.48002 139.459 7.66942L135.034 9.63911C134.284 9.9573 133.883 10.7755 134.042 11.5558L132.868 12.2149C132.474 12.4421 131.997 12.5255 131.534 12.4649L123.375 11.2603C122.67 11.1602 121.951 11.2213 121.273 11.4392C120.594 11.657 119.974 12.0258 119.459 12.5179L118.86 13.0937H114.33C114.125 13.0937 113.921 13.0179 113.769 12.8815L113.368 12.5406C113.648 11.8512 113.459 11.0482 112.853 10.5709L109.428 7.86639C109.065 7.57851 108.61 7.44972 108.148 7.5179C107.694 7.57851 107.277 7.82851 107.004 8.19214L98.7541 19.374C98.2087 20.1088 98.3374 21.1391 99.0647 21.7225L102.481 24.4194C102.661 24.5617 102.868 24.666 103.09 24.7259C103.311 24.7858 103.542 24.8001 103.769 24.7679C103.995 24.738 104.213 24.6621 104.408 24.5448C104.604 24.4275 104.773 24.2714 104.906 24.0861L104.936 24.0482L105.428 24.4194C105.716 24.624 105.883 24.9724 105.883 25.3361V27.374L104.61 29.0103C103.474 30.4876 103.731 32.6164 105.201 33.7528C105.8 34.2224 106.527 34.4724 107.277 34.4724C107.413 34.4724 107.557 34.4649 107.694 34.4497C107.845 34.427 107.989 34.3891 108.133 34.3512C108.133 34.3967 108.125 34.4346 108.125 34.48C108.125 35.4497 108.565 36.3588 109.322 36.98C109.913 37.4497 110.625 37.6846 111.33 37.6846C111.769 37.6846 112.209 37.5861 112.618 37.4118V37.4497C112.724 38.2452 113.14 38.9497 113.747 39.3967L113.883 39.5028C114.513 39.9705 115.303 40.1694 116.08 40.0558C116.406 40.0103 116.701 39.8967 116.989 39.7528C117.148 40.5634 117.61 41.2603 118.3 41.6997L118.398 41.7679C118.728 41.9865 119.099 42.1366 119.488 42.2095C119.877 42.2823 120.276 42.2764 120.663 42.1921C121.459 42.0255 122.133 41.5558 122.58 40.874L122.709 40.677C123.247 41.0861 123.89 41.2982 124.58 41.2982C125.39 41.2982 126.186 40.9649 126.762 40.3967C127.094 40.0648 127.346 39.6619 127.499 39.2183C127.653 38.7748 127.704 38.3021 127.648 37.8361C128.111 37.9034 128.583 37.8591 129.024 37.7066C129.466 37.5542 129.865 37.2981 130.188 36.9599C130.511 36.6217 130.748 36.2111 130.879 35.7625C131.01 35.314 131.033 34.8404 130.944 34.3815C131.951 34.4421 132.944 34.0406 133.625 33.23C133.936 32.8628 134.162 32.4308 134.285 31.9656C134.408 31.5005 134.426 31.0137 134.337 30.5406C135.254 30.6391 136.186 30.3209 136.868 29.6543C137.618 28.9043 137.898 27.8437 137.694 26.8437C137.731 26.8361 137.769 26.8437 137.807 26.8361L140.247 26.4952C140.557 26.7755 140.974 26.9346 141.39 26.9346C141.625 26.9346 141.86 26.8891 142.08 26.7831L146.519 24.8209C147.353 24.4573 147.747 23.4876 147.406 22.6315ZM103.587 23.48C103.534 23.488 103.479 23.4847 103.427 23.4704C103.375 23.456 103.326 23.4309 103.284 23.3967L99.8829 20.7073C99.8017 20.6425 99.7485 20.5489 99.7344 20.4459C99.7203 20.343 99.7463 20.2385 99.8071 20.1543L108.05 8.94972C108.133 8.83608 108.247 8.80578 108.315 8.79821H108.368C108.436 8.79821 108.527 8.81336 108.61 8.88154L112.042 11.5861C112.209 11.7149 112.239 11.9573 112.118 12.1164L112.012 12.2603L111.989 12.2831L107.247 18.7073L107.231 18.7224L106.33 19.9497L104.262 22.7528C104.254 22.7603 104.254 22.7679 104.254 22.7679L103.845 23.3285C103.769 23.4346 103.663 23.4725 103.587 23.48ZM107.542 33.1543C107.272 33.1879 106.997 33.1677 106.734 33.0949C106.472 33.0221 106.226 32.8981 106.012 32.73C105.118 32.0331 104.951 30.7224 105.656 29.8134L108.095 26.6694C108.504 26.1391 109.118 25.8664 109.739 25.8664C110.178 25.8664 110.625 26.0103 111.004 26.2982C111.512 26.6997 111.807 27.2982 111.807 27.9421C111.807 28.4043 111.656 28.8437 111.368 29.2225L108.928 32.3664C108.58 32.8058 108.087 33.0861 107.542 33.1543ZM110.148 35.9649C109.694 35.5937 109.436 35.0558 109.436 34.48C109.436 34.0634 109.58 33.6543 109.86 33.2982L112.292 30.1618C112.603 29.7528 113.057 29.5028 113.565 29.4421C113.64 29.427 113.716 29.427 113.784 29.427C114.216 29.427 114.64 29.5785 115.034 29.8967C115.853 30.5558 115.981 31.7603 115.322 32.5785L112.83 35.6846C112.508 36.0719 112.047 36.3179 111.546 36.3703C111.045 36.4227 110.543 36.2772 110.148 35.9649ZM115.883 38.7603C115.444 38.8209 115.012 38.7149 114.701 38.4876L114.572 38.3815C114.394 38.2512 114.244 38.0859 114.132 37.8957C114.02 37.7055 113.948 37.4945 113.921 37.2755C113.891 37.0532 113.907 36.8273 113.967 36.6112C114.027 36.3951 114.13 36.1933 114.269 36.0179L116.118 33.73C116.273 33.5376 116.469 33.3825 116.692 33.2762C116.915 33.17 117.159 33.1154 117.406 33.1164C117.747 33.1164 118.095 33.2224 118.383 33.4421C118.8 33.7528 119.042 34.2376 119.042 34.7603C119.042 35.1012 118.944 35.4194 118.754 35.6921C118.739 35.7073 118.731 35.73 118.716 35.7528C118.709 35.7603 118.709 35.7679 118.701 35.7679L118.671 35.8134L116.951 38.1164C116.709 38.4725 116.322 38.6997 115.883 38.7603ZM122.345 38.8134L121.474 40.1694C121.224 40.5558 120.837 40.8209 120.383 40.9194C119.936 41.0103 119.481 40.927 119.11 40.6846L119.012 40.6164C118.61 40.3588 118.345 39.9573 118.262 39.4952C118.178 39.0331 118.277 38.5709 118.557 38.1846C119.012 37.5861 119.527 36.9194 119.731 36.6694C119.769 36.6315 119.807 36.5861 119.845 36.5558C119.853 36.5558 119.853 36.5482 119.853 36.5482C119.86 36.5406 119.875 36.5331 119.883 36.5255C119.921 36.4952 119.951 36.4649 120.012 36.427C120.58 36.0861 121.292 36.0861 121.845 36.4421C122.33 36.7528 122.625 37.2982 122.625 37.8891C122.618 38.2224 122.527 38.5406 122.345 38.8134ZM135.944 28.73C135.322 29.3437 134.315 29.4194 133.618 28.9118L129.262 25.6921L127.565 24.4346C127.424 24.3328 127.25 24.2902 127.079 24.3156C126.907 24.3411 126.753 24.4328 126.648 24.5709C126.436 24.8588 126.497 25.2679 126.784 25.4876L129.754 27.6846L132.269 29.5482C132.709 29.874 132.989 30.3512 133.057 30.8967C133.125 31.4421 132.966 31.9724 132.61 32.3967C132.292 32.7696 131.846 33.0104 131.36 33.072C130.874 33.1337 130.382 33.0117 129.981 32.73L124.762 28.9952C124.692 28.9446 124.614 28.9084 124.53 28.8886C124.447 28.8689 124.36 28.866 124.275 28.8801C124.191 28.8942 124.11 28.925 124.037 28.9708C123.965 29.0166 123.902 29.0764 123.853 29.1467C123.64 29.4421 123.709 29.8512 124.004 30.0558L128.997 33.624C129.383 33.9043 129.625 34.3361 129.671 34.8058C129.709 35.2831 129.542 35.7452 129.201 36.0861C128.633 36.6618 127.716 36.7149 127.072 36.23L122.148 32.3967C122.08 32.3438 122.003 32.3047 121.92 32.2818C121.838 32.2588 121.751 32.2524 121.666 32.263C121.581 32.2736 121.499 32.3008 121.424 32.3433C121.349 32.3857 121.284 32.4425 121.231 32.5103C121.012 32.7906 121.057 33.2073 121.337 33.427L125.64 36.7906C126.05 37.1088 126.307 37.5861 126.337 38.1012C126.375 38.624 126.186 39.1164 125.815 39.4876C125.209 40.0937 124.186 40.1618 123.504 39.6694C123.504 39.6694 123.466 39.624 123.413 39.5709L123.428 39.5482C123.747 39.0634 123.913 38.4952 123.913 37.8967C123.913 36.8588 123.398 35.9118 122.534 35.3512C121.875 34.927 121.087 34.7982 120.337 34.9346C120.337 34.8815 120.345 34.8285 120.345 34.7755C120.345 33.8285 119.913 32.9649 119.163 32.4043C118.512 31.9194 117.731 31.7376 116.989 31.8437C117.14 30.7528 116.739 29.6088 115.792 28.8437C115.46 28.5723 115.077 28.3707 114.666 28.2509C114.255 28.1312 113.823 28.0957 113.398 28.1467C113.284 28.1618 113.178 28.1921 113.072 28.2149C113.08 28.124 113.095 28.0406 113.095 27.9497C113.095 26.8967 112.625 25.927 111.792 25.2755C110.542 24.3058 108.822 24.3588 107.625 25.2982C107.625 25.2906 107.625 25.2906 107.633 25.2831C107.618 25.2982 107.603 25.3134 107.587 25.3209C107.512 25.3815 107.436 25.4573 107.368 25.5255C107.307 25.5861 107.239 25.6391 107.178 25.7073V25.3437C107.178 24.5558 106.807 23.8209 106.194 23.374L105.694 23.0028L106.648 21.7073L107.853 20.0709L108.231 19.5634C108.254 19.5406 108.269 19.5179 108.292 19.4952L112.618 13.624L112.898 13.8588C113.284 14.1997 113.792 14.3891 114.315 14.3891H117.481L115.663 16.1315C115.239 16.5406 115.004 17.0937 115.004 17.6846C115.004 18.5331 115.474 19.2831 116.239 19.6391C117.163 20.0792 118.176 20.2981 119.199 20.2783C120.222 20.2586 121.227 20.0008 122.133 19.5255L122.921 19.1164C123.663 18.7224 124.572 18.8134 125.231 19.3437L132.921 25.5028C133.368 25.8512 133.837 26.1391 134.322 26.3512C134.481 26.4194 134.656 26.4876 134.807 26.5406C134.944 26.5937 135.087 26.6391 135.209 26.6694C135.375 26.7225 135.542 26.7603 135.686 26.7831C135.883 26.8209 136.072 26.8512 136.231 26.8588C136.307 26.8664 136.375 26.8664 136.451 26.874L136.368 26.8967C136.58 27.5255 136.428 28.2452 135.944 28.73ZM137.625 25.5482C137.375 25.5785 137.103 25.5937 136.792 25.5861C136.663 25.5861 136.542 25.5785 136.368 25.5558C136.216 25.5482 136.08 25.5179 135.913 25.4876C135.795 25.4709 135.678 25.443 135.565 25.4043C135.459 25.3815 135.36 25.3437 135.262 25.3058C135.125 25.2603 134.981 25.1997 134.853 25.1467C134.474 24.98 134.095 24.7528 133.739 24.4724L126.444 18.624L126.05 18.3134C125.428 17.8134 124.671 17.5558 123.906 17.5558C123.36 17.5558 122.815 17.6846 122.322 17.9497L121.534 18.3588C120.809 18.7409 120.005 18.9481 119.185 18.9639C118.366 18.9797 117.554 18.8036 116.815 18.4497C116.459 18.2831 116.33 17.9421 116.33 17.677C116.33 17.5179 116.375 17.2755 116.587 17.0709L120.368 13.4497C121.11 12.7376 122.163 12.3967 123.186 12.5482L131.353 13.7528C132.103 13.8588 132.875 13.7149 133.512 13.3512L134.512 12.7906L136.118 16.7603L139.572 25.2755L137.625 25.5482ZM145.989 23.6391L141.542 25.6012C141.368 25.677 141.156 25.6164 141.027 25.3967L136.3 13.7224L135.686 12.2224L135.337 11.3588C135.254 11.1618 135.345 10.9346 135.55 10.8437L139.989 8.87396C140.087 8.82851 140.201 8.82851 140.3 8.86639C140.398 8.90427 140.474 8.98002 140.512 9.08608L146.194 23.1315C146.269 23.3209 146.178 23.5482 145.989 23.6391Z"/>
</mask>
<path d="M147.406 22.6315L141.724 8.59366C141.55 8.16184 141.224 7.82851 140.792 7.64669C140.36 7.47245 139.883 7.48002 139.459 7.66942L135.034 9.63911C134.284 9.9573 133.883 10.7755 134.042 11.5558L132.868 12.2149C132.474 12.4421 131.997 12.5255 131.534 12.4649L123.375 11.2603C122.67 11.1602 121.951 11.2213 121.273 11.4392C120.594 11.657 119.974 12.0258 119.459 12.5179L118.86 13.0937H114.33C114.125 13.0937 113.921 13.0179 113.769 12.8815L113.368 12.5406C113.648 11.8512 113.459 11.0482 112.853 10.5709L109.428 7.86639C109.065 7.57851 108.61 7.44972 108.148 7.5179C107.694 7.57851 107.277 7.82851 107.004 8.19214L98.7541 19.374C98.2087 20.1088 98.3374 21.1391 99.0647 21.7225L102.481 24.4194C102.661 24.5617 102.868 24.666 103.09 24.7259C103.311 24.7858 103.542 24.8001 103.769 24.7679C103.995 24.738 104.213 24.6621 104.408 24.5448C104.604 24.4275 104.773 24.2714 104.906 24.0861L104.936 24.0482L105.428 24.4194C105.716 24.624 105.883 24.9724 105.883 25.3361V27.374L104.61 29.0103C103.474 30.4876 103.731 32.6164 105.201 33.7528C105.8 34.2224 106.527 34.4724 107.277 34.4724C107.413 34.4724 107.557 34.4649 107.694 34.4497C107.845 34.427 107.989 34.3891 108.133 34.3512C108.133 34.3967 108.125 34.4346 108.125 34.48C108.125 35.4497 108.565 36.3588 109.322 36.98C109.913 37.4497 110.625 37.6846 111.33 37.6846C111.769 37.6846 112.209 37.5861 112.618 37.4118V37.4497C112.724 38.2452 113.14 38.9497 113.747 39.3967L113.883 39.5028C114.513 39.9705 115.303 40.1694 116.08 40.0558C116.406 40.0103 116.701 39.8967 116.989 39.7528C117.148 40.5634 117.61 41.2603 118.3 41.6997L118.398 41.7679C118.728 41.9865 119.099 42.1366 119.488 42.2095C119.877 42.2823 120.276 42.2764 120.663 42.1921C121.459 42.0255 122.133 41.5558 122.58 40.874L122.709 40.677C123.247 41.0861 123.89 41.2982 124.58 41.2982C125.39 41.2982 126.186 40.9649 126.762 40.3967C127.094 40.0648 127.346 39.6619 127.499 39.2183C127.653 38.7748 127.704 38.3021 127.648 37.8361C128.111 37.9034 128.583 37.8591 129.024 37.7066C129.466 37.5542 129.865 37.2981 130.188 36.9599C130.511 36.6217 130.748 36.2111 130.879 35.7625C131.01 35.314 131.033 34.8404 130.944 34.3815C131.951 34.4421 132.944 34.0406 133.625 33.23C133.936 32.8628 134.162 32.4308 134.285 31.9656C134.408 31.5005 134.426 31.0137 134.337 30.5406C135.254 30.6391 136.186 30.3209 136.868 29.6543C137.618 28.9043 137.898 27.8437 137.694 26.8437C137.731 26.8361 137.769 26.8437 137.807 26.8361L140.247 26.4952C140.557 26.7755 140.974 26.9346 141.39 26.9346C141.625 26.9346 141.86 26.8891 142.08 26.7831L146.519 24.8209C147.353 24.4573 147.747 23.4876 147.406 22.6315ZM103.587 23.48C103.534 23.488 103.479 23.4847 103.427 23.4704C103.375 23.456 103.326 23.4309 103.284 23.3967L99.8829 20.7073C99.8017 20.6425 99.7485 20.5489 99.7344 20.4459C99.7203 20.343 99.7463 20.2385 99.8071 20.1543L108.05 8.94972C108.133 8.83608 108.247 8.80578 108.315 8.79821H108.368C108.436 8.79821 108.527 8.81336 108.61 8.88154L112.042 11.5861C112.209 11.7149 112.239 11.9573 112.118 12.1164L112.012 12.2603L111.989 12.2831L107.247 18.7073L107.231 18.7224L106.33 19.9497L104.262 22.7528C104.254 22.7603 104.254 22.7679 104.254 22.7679L103.845 23.3285C103.769 23.4346 103.663 23.4725 103.587 23.48ZM107.542 33.1543C107.272 33.1879 106.997 33.1677 106.734 33.0949C106.472 33.0221 106.226 32.8981 106.012 32.73C105.118 32.0331 104.951 30.7224 105.656 29.8134L108.095 26.6694C108.504 26.1391 109.118 25.8664 109.739 25.8664C110.178 25.8664 110.625 26.0103 111.004 26.2982C111.512 26.6997 111.807 27.2982 111.807 27.9421C111.807 28.4043 111.656 28.8437 111.368 29.2225L108.928 32.3664C108.58 32.8058 108.087 33.0861 107.542 33.1543ZM110.148 35.9649C109.694 35.5937 109.436 35.0558 109.436 34.48C109.436 34.0634 109.58 33.6543 109.86 33.2982L112.292 30.1618C112.603 29.7528 113.057 29.5028 113.565 29.4421C113.64 29.427 113.716 29.427 113.784 29.427C114.216 29.427 114.64 29.5785 115.034 29.8967C115.853 30.5558 115.981 31.7603 115.322 32.5785L112.83 35.6846C112.508 36.0719 112.047 36.3179 111.546 36.3703C111.045 36.4227 110.543 36.2772 110.148 35.9649ZM115.883 38.7603C115.444 38.8209 115.012 38.7149 114.701 38.4876L114.572 38.3815C114.394 38.2512 114.244 38.0859 114.132 37.8957C114.02 37.7055 113.948 37.4945 113.921 37.2755C113.891 37.0532 113.907 36.8273 113.967 36.6112C114.027 36.3951 114.13 36.1933 114.269 36.0179L116.118 33.73C116.273 33.5376 116.469 33.3825 116.692 33.2762C116.915 33.17 117.159 33.1154 117.406 33.1164C117.747 33.1164 118.095 33.2224 118.383 33.4421C118.8 33.7528 119.042 34.2376 119.042 34.7603C119.042 35.1012 118.944 35.4194 118.754 35.6921C118.739 35.7073 118.731 35.73 118.716 35.7528C118.709 35.7603 118.709 35.7679 118.701 35.7679L118.671 35.8134L116.951 38.1164C116.709 38.4725 116.322 38.6997 115.883 38.7603ZM122.345 38.8134L121.474 40.1694C121.224 40.5558 120.837 40.8209 120.383 40.9194C119.936 41.0103 119.481 40.927 119.11 40.6846L119.012 40.6164C118.61 40.3588 118.345 39.9573 118.262 39.4952C118.178 39.0331 118.277 38.5709 118.557 38.1846C119.012 37.5861 119.527 36.9194 119.731 36.6694C119.769 36.6315 119.807 36.5861 119.845 36.5558C119.853 36.5558 119.853 36.5482 119.853 36.5482C119.86 36.5406 119.875 36.5331 119.883 36.5255C119.921 36.4952 119.951 36.4649 120.012 36.427C120.58 36.0861 121.292 36.0861 121.845 36.4421C122.33 36.7528 122.625 37.2982 122.625 37.8891C122.618 38.2224 122.527 38.5406 122.345 38.8134ZM135.944 28.73C135.322 29.3437 134.315 29.4194 133.618 28.9118L129.262 25.6921L127.565 24.4346C127.424 24.3328 127.25 24.2902 127.079 24.3156C126.907 24.3411 126.753 24.4328 126.648 24.5709C126.436 24.8588 126.497 25.2679 126.784 25.4876L129.754 27.6846L132.269 29.5482C132.709 29.874 132.989 30.3512 133.057 30.8967C133.125 31.4421 132.966 31.9724 132.61 32.3967C132.292 32.7696 131.846 33.0104 131.36 33.072C130.874 33.1337 130.382 33.0117 129.981 32.73L124.762 28.9952C124.692 28.9446 124.614 28.9084 124.53 28.8886C124.447 28.8689 124.36 28.866 124.275 28.8801C124.191 28.8942 124.11 28.925 124.037 28.9708C123.965 29.0166 123.902 29.0764 123.853 29.1467C123.64 29.4421 123.709 29.8512 124.004 30.0558L128.997 33.624C129.383 33.9043 129.625 34.3361 129.671 34.8058C129.709 35.2831 129.542 35.7452 129.201 36.0861C128.633 36.6618 127.716 36.7149 127.072 36.23L122.148 32.3967C122.08 32.3438 122.003 32.3047 121.92 32.2818C121.838 32.2588 121.751 32.2524 121.666 32.263C121.581 32.2736 121.499 32.3008 121.424 32.3433C121.349 32.3857 121.284 32.4425 121.231 32.5103C121.012 32.7906 121.057 33.2073 121.337 33.427L125.64 36.7906C126.05 37.1088 126.307 37.5861 126.337 38.1012C126.375 38.624 126.186 39.1164 125.815 39.4876C125.209 40.0937 124.186 40.1618 123.504 39.6694C123.504 39.6694 123.466 39.624 123.413 39.5709L123.428 39.5482C123.747 39.0634 123.913 38.4952 123.913 37.8967C123.913 36.8588 123.398 35.9118 122.534 35.3512C121.875 34.927 121.087 34.7982 120.337 34.9346C120.337 34.8815 120.345 34.8285 120.345 34.7755C120.345 33.8285 119.913 32.9649 119.163 32.4043C118.512 31.9194 117.731 31.7376 116.989 31.8437C117.14 30.7528 116.739 29.6088 115.792 28.8437C115.46 28.5723 115.077 28.3707 114.666 28.2509C114.255 28.1312 113.823 28.0957 113.398 28.1467C113.284 28.1618 113.178 28.1921 113.072 28.2149C113.08 28.124 113.095 28.0406 113.095 27.9497C113.095 26.8967 112.625 25.927 111.792 25.2755C110.542 24.3058 108.822 24.3588 107.625 25.2982C107.625 25.2906 107.625 25.2906 107.633 25.2831C107.618 25.2982 107.603 25.3134 107.587 25.3209C107.512 25.3815 107.436 25.4573 107.368 25.5255C107.307 25.5861 107.239 25.6391 107.178 25.7073V25.3437C107.178 24.5558 106.807 23.8209 106.194 23.374L105.694 23.0028L106.648 21.7073L107.853 20.0709L108.231 19.5634C108.254 19.5406 108.269 19.5179 108.292 19.4952L112.618 13.624L112.898 13.8588C113.284 14.1997 113.792 14.3891 114.315 14.3891H117.481L115.663 16.1315C115.239 16.5406 115.004 17.0937 115.004 17.6846C115.004 18.5331 115.474 19.2831 116.239 19.6391C117.163 20.0792 118.176 20.2981 119.199 20.2783C120.222 20.2586 121.227 20.0008 122.133 19.5255L122.921 19.1164C123.663 18.7224 124.572 18.8134 125.231 19.3437L132.921 25.5028C133.368 25.8512 133.837 26.1391 134.322 26.3512C134.481 26.4194 134.656 26.4876 134.807 26.5406C134.944 26.5937 135.087 26.6391 135.209 26.6694C135.375 26.7225 135.542 26.7603 135.686 26.7831C135.883 26.8209 136.072 26.8512 136.231 26.8588C136.307 26.8664 136.375 26.8664 136.451 26.874L136.368 26.8967C136.58 27.5255 136.428 28.2452 135.944 28.73ZM137.625 25.5482C137.375 25.5785 137.103 25.5937 136.792 25.5861C136.663 25.5861 136.542 25.5785 136.368 25.5558C136.216 25.5482 136.08 25.5179 135.913 25.4876C135.795 25.4709 135.678 25.443 135.565 25.4043C135.459 25.3815 135.36 25.3437 135.262 25.3058C135.125 25.2603 134.981 25.1997 134.853 25.1467C134.474 24.98 134.095 24.7528 133.739 24.4724L126.444 18.624L126.05 18.3134C125.428 17.8134 124.671 17.5558 123.906 17.5558C123.36 17.5558 122.815 17.6846 122.322 17.9497L121.534 18.3588C120.809 18.7409 120.005 18.9481 119.185 18.9639C118.366 18.9797 117.554 18.8036 116.815 18.4497C116.459 18.2831 116.33 17.9421 116.33 17.677C116.33 17.5179 116.375 17.2755 116.587 17.0709L120.368 13.4497C121.11 12.7376 122.163 12.3967 123.186 12.5482L131.353 13.7528C132.103 13.8588 132.875 13.7149 133.512 13.3512L134.512 12.7906L136.118 16.7603L139.572 25.2755L137.625 25.5482ZM145.989 23.6391L141.542 25.6012C141.368 25.677 141.156 25.6164 141.027 25.3967L136.3 13.7224L135.686 12.2224L135.337 11.3588C135.254 11.1618 135.345 10.9346 135.55 10.8437L139.989 8.87396C140.087 8.82851 140.201 8.82851 140.3 8.86639C140.398 8.90427 140.474 8.98002 140.512 9.08608L146.194 23.1315C146.269 23.3209 146.178 23.5482 145.989 23.6391Z" fill="black"/>
<path d="M147.406 22.6315L141.724 8.59366C141.55 8.16184 141.224 7.82851 140.792 7.64669C140.36 7.47245 139.883 7.48002 139.459 7.66942L135.034 9.63911C134.284 9.9573 133.883 10.7755 134.042 11.5558L132.868 12.2149C132.474 12.4421 131.997 12.5255 131.534 12.4649L123.375 11.2603C122.67 11.1602 121.951 11.2213 121.273 11.4392C120.594 11.657 119.974 12.0258 119.459 12.5179L118.86 13.0937H114.33C114.125 13.0937 113.921 13.0179 113.769 12.8815L113.368 12.5406C113.648 11.8512 113.459 11.0482 112.853 10.5709L109.428 7.86639C109.065 7.57851 108.61 7.44972 108.148 7.5179C107.694 7.57851 107.277 7.82851 107.004 8.19214L98.7541 19.374C98.2087 20.1088 98.3374 21.1391 99.0647 21.7225L102.481 24.4194C102.661 24.5617 102.868 24.666 103.09 24.7259C103.311 24.7858 103.542 24.8001 103.769 24.7679C103.995 24.738 104.213 24.6621 104.408 24.5448C104.604 24.4275 104.773 24.2714 104.906 24.0861L104.936 24.0482L105.428 24.4194C105.716 24.624 105.883 24.9724 105.883 25.3361V27.374L104.61 29.0103C103.474 30.4876 103.731 32.6164 105.201 33.7528C105.8 34.2224 106.527 34.4724 107.277 34.4724C107.413 34.4724 107.557 34.4649 107.694 34.4497C107.845 34.427 107.989 34.3891 108.133 34.3512C108.133 34.3967 108.125 34.4346 108.125 34.48C108.125 35.4497 108.565 36.3588 109.322 36.98C109.913 37.4497 110.625 37.6846 111.33 37.6846C111.769 37.6846 112.209 37.5861 112.618 37.4118V37.4497C112.724 38.2452 113.14 38.9497 113.747 39.3967L113.883 39.5028C114.513 39.9705 115.303 40.1694 116.08 40.0558C116.406 40.0103 116.701 39.8967 116.989 39.7528C117.148 40.5634 117.61 41.2603 118.3 41.6997L118.398 41.7679C118.728 41.9865 119.099 42.1366 119.488 42.2095C119.877 42.2823 120.276 42.2764 120.663 42.1921C121.459 42.0255 122.133 41.5558 122.58 40.874L122.709 40.677C123.247 41.0861 123.89 41.2982 124.58 41.2982C125.39 41.2982 126.186 40.9649 126.762 40.3967C127.094 40.0648 127.346 39.6619 127.499 39.2183C127.653 38.7748 127.704 38.3021 127.648 37.8361C128.111 37.9034 128.583 37.8591 129.024 37.7066C129.466 37.5542 129.865 37.2981 130.188 36.9599C130.511 36.6217 130.748 36.2111 130.879 35.7625C131.01 35.314 131.033 34.8404 130.944 34.3815C131.951 34.4421 132.944 34.0406 133.625 33.23C133.936 32.8628 134.162 32.4308 134.285 31.9656C134.408 31.5005 134.426 31.0137 134.337 30.5406C135.254 30.6391 136.186 30.3209 136.868 29.6543C137.618 28.9043 137.898 27.8437 137.694 26.8437C137.731 26.8361 137.769 26.8437 137.807 26.8361L140.247 26.4952C140.557 26.7755 140.974 26.9346 141.39 26.9346C141.625 26.9346 141.86 26.8891 142.08 26.7831L146.519 24.8209C147.353 24.4573 147.747 23.4876 147.406 22.6315ZM103.587 23.48C103.534 23.488 103.479 23.4847 103.427 23.4704C103.375 23.456 103.326 23.4309 103.284 23.3967L99.8829 20.7073C99.8017 20.6425 99.7485 20.5489 99.7344 20.4459C99.7203 20.343 99.7463 20.2385 99.8071 20.1543L108.05 8.94972C108.133 8.83608 108.247 8.80578 108.315 8.79821H108.368C108.436 8.79821 108.527 8.81336 108.61 8.88154L112.042 11.5861C112.209 11.7149 112.239 11.9573 112.118 12.1164L112.012 12.2603L111.989 12.2831L107.247 18.7073L107.231 18.7224L106.33 19.9497L104.262 22.7528C104.254 22.7603 104.254 22.7679 104.254 22.7679L103.845 23.3285C103.769 23.4346 103.663 23.4725 103.587 23.48ZM107.542 33.1543C107.272 33.1879 106.997 33.1677 106.734 33.0949C106.472 33.0221 106.226 32.8981 106.012 32.73C105.118 32.0331 104.951 30.7224 105.656 29.8134L108.095 26.6694C108.504 26.1391 109.118 25.8664 109.739 25.8664C110.178 25.8664 110.625 26.0103 111.004 26.2982C111.512 26.6997 111.807 27.2982 111.807 27.9421C111.807 28.4043 111.656 28.8437 111.368 29.2225L108.928 32.3664C108.58 32.8058 108.087 33.0861 107.542 33.1543ZM110.148 35.9649C109.694 35.5937 109.436 35.0558 109.436 34.48C109.436 34.0634 109.58 33.6543 109.86 33.2982L112.292 30.1618C112.603 29.7528 113.057 29.5028 113.565 29.4421C113.64 29.427 113.716 29.427 113.784 29.427C114.216 29.427 114.64 29.5785 115.034 29.8967C115.853 30.5558 115.981 31.7603 115.322 32.5785L112.83 35.6846C112.508 36.0719 112.047 36.3179 111.546 36.3703C111.045 36.4227 110.543 36.2772 110.148 35.9649ZM115.883 38.7603C115.444 38.8209 115.012 38.7149 114.701 38.4876L114.572 38.3815C114.394 38.2512 114.244 38.0859 114.132 37.8957C114.02 37.7055 113.948 37.4945 113.921 37.2755C113.891 37.0532 113.907 36.8273 113.967 36.6112C114.027 36.3951 114.13 36.1933 114.269 36.0179L116.118 33.73C116.273 33.5376 116.469 33.3825 116.692 33.2762C116.915 33.17 117.159 33.1154 117.406 33.1164C117.747 33.1164 118.095 33.2224 118.383 33.4421C118.8 33.7528 119.042 34.2376 119.042 34.7603C119.042 35.1012 118.944 35.4194 118.754 35.6921C118.739 35.7073 118.731 35.73 118.716 35.7528C118.709 35.7603 118.709 35.7679 118.701 35.7679L118.671 35.8134L116.951 38.1164C116.709 38.4725 116.322 38.6997 115.883 38.7603ZM122.345 38.8134L121.474 40.1694C121.224 40.5558 120.837 40.8209 120.383 40.9194C119.936 41.0103 119.481 40.927 119.11 40.6846L119.012 40.6164C118.61 40.3588 118.345 39.9573 118.262 39.4952C118.178 39.0331 118.277 38.5709 118.557 38.1846C119.012 37.5861 119.527 36.9194 119.731 36.6694C119.769 36.6315 119.807 36.5861 119.845 36.5558C119.853 36.5558 119.853 36.5482 119.853 36.5482C119.86 36.5406 119.875 36.5331 119.883 36.5255C119.921 36.4952 119.951 36.4649 120.012 36.427C120.58 36.0861 121.292 36.0861 121.845 36.4421C122.33 36.7528 122.625 37.2982 122.625 37.8891C122.618 38.2224 122.527 38.5406 122.345 38.8134ZM135.944 28.73C135.322 29.3437 134.315 29.4194 133.618 28.9118L129.262 25.6921L127.565 24.4346C127.424 24.3328 127.25 24.2902 127.079 24.3156C126.907 24.3411 126.753 24.4328 126.648 24.5709C126.436 24.8588 126.497 25.2679 126.784 25.4876L129.754 27.6846L132.269 29.5482C132.709 29.874 132.989 30.3512 133.057 30.8967C133.125 31.4421 132.966 31.9724 132.61 32.3967C132.292 32.7696 131.846 33.0104 131.36 33.072C130.874 33.1337 130.382 33.0117 129.981 32.73L124.762 28.9952C124.692 28.9446 124.614 28.9084 124.53 28.8886C124.447 28.8689 124.36 28.866 124.275 28.8801C124.191 28.8942 124.11 28.925 124.037 28.9708C123.965 29.0166 123.902 29.0764 123.853 29.1467C123.64 29.4421 123.709 29.8512 124.004 30.0558L128.997 33.624C129.383 33.9043 129.625 34.3361 129.671 34.8058C129.709 35.2831 129.542 35.7452 129.201 36.0861C128.633 36.6618 127.716 36.7149 127.072 36.23L122.148 32.3967C122.08 32.3438 122.003 32.3047 121.92 32.2818C121.838 32.2588 121.751 32.2524 121.666 32.263C121.581 32.2736 121.499 32.3008 121.424 32.3433C121.349 32.3857 121.284 32.4425 121.231 32.5103C121.012 32.7906 121.057 33.2073 121.337 33.427L125.64 36.7906C126.05 37.1088 126.307 37.5861 126.337 38.1012C126.375 38.624 126.186 39.1164 125.815 39.4876C125.209 40.0937 124.186 40.1618 123.504 39.6694C123.504 39.6694 123.466 39.624 123.413 39.5709L123.428 39.5482C123.747 39.0634 123.913 38.4952 123.913 37.8967C123.913 36.8588 123.398 35.9118 122.534 35.3512C121.875 34.927 121.087 34.7982 120.337 34.9346C120.337 34.8815 120.345 34.8285 120.345 34.7755C120.345 33.8285 119.913 32.9649 119.163 32.4043C118.512 31.9194 117.731 31.7376 116.989 31.8437C117.14 30.7528 116.739 29.6088 115.792 28.8437C115.46 28.5723 115.077 28.3707 114.666 28.2509C114.255 28.1312 113.823 28.0957 113.398 28.1467C113.284 28.1618 113.178 28.1921 113.072 28.2149C113.08 28.124 113.095 28.0406 113.095 27.9497C113.095 26.8967 112.625 25.927 111.792 25.2755C110.542 24.3058 108.822 24.3588 107.625 25.2982C107.625 25.2906 107.625 25.2906 107.633 25.2831C107.618 25.2982 107.603 25.3134 107.587 25.3209C107.512 25.3815 107.436 25.4573 107.368 25.5255C107.307 25.5861 107.239 25.6391 107.178 25.7073V25.3437C107.178 24.5558 106.807 23.8209 106.194 23.374L105.694 23.0028L106.648 21.7073L107.853 20.0709L108.231 19.5634C108.254 19.5406 108.269 19.5179 108.292 19.4952L112.618 13.624L112.898 13.8588C113.284 14.1997 113.792 14.3891 114.315 14.3891H117.481L115.663 16.1315C115.239 16.5406 115.004 17.0937 115.004 17.6846C115.004 18.5331 115.474 19.2831 116.239 19.6391C117.163 20.0792 118.176 20.2981 119.199 20.2783C120.222 20.2586 121.227 20.0008 122.133 19.5255L122.921 19.1164C123.663 18.7224 124.572 18.8134 125.231 19.3437L132.921 25.5028C133.368 25.8512 133.837 26.1391 134.322 26.3512C134.481 26.4194 134.656 26.4876 134.807 26.5406C134.944 26.5937 135.087 26.6391 135.209 26.6694C135.375 26.7225 135.542 26.7603 135.686 26.7831C135.883 26.8209 136.072 26.8512 136.231 26.8588C136.307 26.8664 136.375 26.8664 136.451 26.874L136.368 26.8967C136.58 27.5255 136.428 28.2452 135.944 28.73ZM137.625 25.5482C137.375 25.5785 137.103 25.5937 136.792 25.5861C136.663 25.5861 136.542 25.5785 136.368 25.5558C136.216 25.5482 136.08 25.5179 135.913 25.4876C135.795 25.4709 135.678 25.443 135.565 25.4043C135.459 25.3815 135.36 25.3437 135.262 25.3058C135.125 25.2603 134.981 25.1997 134.853 25.1467C134.474 24.98 134.095 24.7528 133.739 24.4724L126.444 18.624L126.05 18.3134C125.428 17.8134 124.671 17.5558 123.906 17.5558C123.36 17.5558 122.815 17.6846 122.322 17.9497L121.534 18.3588C120.809 18.7409 120.005 18.9481 119.185 18.9639C118.366 18.9797 117.554 18.8036 116.815 18.4497C116.459 18.2831 116.33 17.9421 116.33 17.677C116.33 17.5179 116.375 17.2755 116.587 17.0709L120.368 13.4497C121.11 12.7376 122.163 12.3967 123.186 12.5482L131.353 13.7528C132.103 13.8588 132.875 13.7149 133.512 13.3512L134.512 12.7906L136.118 16.7603L139.572 25.2755L137.625 25.5482ZM145.989 23.6391L141.542 25.6012C141.368 25.677 141.156 25.6164 141.027 25.3967L136.3 13.7224L135.686 12.2224L135.337 11.3588C135.254 11.1618 135.345 10.9346 135.55 10.8437L139.989 8.87396C140.087 8.82851 140.201 8.82851 140.3 8.86639C140.398 8.90427 140.474 8.98002 140.512 9.08608L146.194 23.1315C146.269 23.3209 146.178 23.5482 145.989 23.6391Z" fill="url(#paint1_linear_768_40098)"/>
<path d="M147.406 22.6315L141.724 8.59366C141.55 8.16184 141.224 7.82851 140.792 7.64669C140.36 7.47245 139.883 7.48002 139.459 7.66942L135.034 9.63911C134.284 9.9573 133.883 10.7755 134.042 11.5558L132.868 12.2149C132.474 12.4421 131.997 12.5255 131.534 12.4649L123.375 11.2603C122.67 11.1602 121.951 11.2213 121.273 11.4392C120.594 11.657 119.974 12.0258 119.459 12.5179L118.86 13.0937H114.33C114.125 13.0937 113.921 13.0179 113.769 12.8815L113.368 12.5406C113.648 11.8512 113.459 11.0482 112.853 10.5709L109.428 7.86639C109.065 7.57851 108.61 7.44972 108.148 7.5179C107.694 7.57851 107.277 7.82851 107.004 8.19214L98.7541 19.374C98.2087 20.1088 98.3374 21.1391 99.0647 21.7225L102.481 24.4194C102.661 24.5617 102.868 24.666 103.09 24.7259C103.311 24.7858 103.542 24.8001 103.769 24.7679C103.995 24.738 104.213 24.6621 104.408 24.5448C104.604 24.4275 104.773 24.2714 104.906 24.0861L104.936 24.0482L105.428 24.4194C105.716 24.624 105.883 24.9724 105.883 25.3361V27.374L104.61 29.0103C103.474 30.4876 103.731 32.6164 105.201 33.7528C105.8 34.2224 106.527 34.4724 107.277 34.4724C107.413 34.4724 107.557 34.4649 107.694 34.4497C107.845 34.427 107.989 34.3891 108.133 34.3512C108.133 34.3967 108.125 34.4346 108.125 34.48C108.125 35.4497 108.565 36.3588 109.322 36.98C109.913 37.4497 110.625 37.6846 111.33 37.6846C111.769 37.6846 112.209 37.5861 112.618 37.4118V37.4497C112.724 38.2452 113.14 38.9497 113.747 39.3967L113.883 39.5028C114.513 39.9705 115.303 40.1694 116.08 40.0558C116.406 40.0103 116.701 39.8967 116.989 39.7528C117.148 40.5634 117.61 41.2603 118.3 41.6997L118.398 41.7679C118.728 41.9865 119.099 42.1366 119.488 42.2095C119.877 42.2823 120.276 42.2764 120.663 42.1921C121.459 42.0255 122.133 41.5558 122.58 40.874L122.709 40.677C123.247 41.0861 123.89 41.2982 124.58 41.2982C125.39 41.2982 126.186 40.9649 126.762 40.3967C127.094 40.0648 127.346 39.6619 127.499 39.2183C127.653 38.7748 127.704 38.3021 127.648 37.8361C128.111 37.9034 128.583 37.8591 129.024 37.7066C129.466 37.5542 129.865 37.2981 130.188 36.9599C130.511 36.6217 130.748 36.2111 130.879 35.7625C131.01 35.314 131.033 34.8404 130.944 34.3815C131.951 34.4421 132.944 34.0406 133.625 33.23C133.936 32.8628 134.162 32.4308 134.285 31.9656C134.408 31.5005 134.426 31.0137 134.337 30.5406C135.254 30.6391 136.186 30.3209 136.868 29.6543C137.618 28.9043 137.898 27.8437 137.694 26.8437C137.731 26.8361 137.769 26.8437 137.807 26.8361L140.247 26.4952C140.557 26.7755 140.974 26.9346 141.39 26.9346C141.625 26.9346 141.86 26.8891 142.08 26.7831L146.519 24.8209C147.353 24.4573 147.747 23.4876 147.406 22.6315ZM103.587 23.48C103.534 23.488 103.479 23.4847 103.427 23.4704C103.375 23.456 103.326 23.4309 103.284 23.3967L99.8829 20.7073C99.8017 20.6425 99.7485 20.5489 99.7344 20.4459C99.7203 20.343 99.7463 20.2385 99.8071 20.1543L108.05 8.94972C108.133 8.83608 108.247 8.80578 108.315 8.79821H108.368C108.436 8.79821 108.527 8.81336 108.61 8.88154L112.042 11.5861C112.209 11.7149 112.239 11.9573 112.118 12.1164L112.012 12.2603L111.989 12.2831L107.247 18.7073L107.231 18.7224L106.33 19.9497L104.262 22.7528C104.254 22.7603 104.254 22.7679 104.254 22.7679L103.845 23.3285C103.769 23.4346 103.663 23.4725 103.587 23.48ZM107.542 33.1543C107.272 33.1879 106.997 33.1677 106.734 33.0949C106.472 33.0221 106.226 32.8981 106.012 32.73C105.118 32.0331 104.951 30.7224 105.656 29.8134L108.095 26.6694C108.504 26.1391 109.118 25.8664 109.739 25.8664C110.178 25.8664 110.625 26.0103 111.004 26.2982C111.512 26.6997 111.807 27.2982 111.807 27.9421C111.807 28.4043 111.656 28.8437 111.368 29.2225L108.928 32.3664C108.58 32.8058 108.087 33.0861 107.542 33.1543ZM110.148 35.9649C109.694 35.5937 109.436 35.0558 109.436 34.48C109.436 34.0634 109.58 33.6543 109.86 33.2982L112.292 30.1618C112.603 29.7528 113.057 29.5028 113.565 29.4421C113.64 29.427 113.716 29.427 113.784 29.427C114.216 29.427 114.64 29.5785 115.034 29.8967C115.853 30.5558 115.981 31.7603 115.322 32.5785L112.83 35.6846C112.508 36.0719 112.047 36.3179 111.546 36.3703C111.045 36.4227 110.543 36.2772 110.148 35.9649ZM115.883 38.7603C115.444 38.8209 115.012 38.7149 114.701 38.4876L114.572 38.3815C114.394 38.2512 114.244 38.0859 114.132 37.8957C114.02 37.7055 113.948 37.4945 113.921 37.2755C113.891 37.0532 113.907 36.8273 113.967 36.6112C114.027 36.3951 114.13 36.1933 114.269 36.0179L116.118 33.73C116.273 33.5376 116.469 33.3825 116.692 33.2762C116.915 33.17 117.159 33.1154 117.406 33.1164C117.747 33.1164 118.095 33.2224 118.383 33.4421C118.8 33.7528 119.042 34.2376 119.042 34.7603C119.042 35.1012 118.944 35.4194 118.754 35.6921C118.739 35.7073 118.731 35.73 118.716 35.7528C118.709 35.7603 118.709 35.7679 118.701 35.7679L118.671 35.8134L116.951 38.1164C116.709 38.4725 116.322 38.6997 115.883 38.7603ZM122.345 38.8134L121.474 40.1694C121.224 40.5558 120.837 40.8209 120.383 40.9194C119.936 41.0103 119.481 40.927 119.11 40.6846L119.012 40.6164C118.61 40.3588 118.345 39.9573 118.262 39.4952C118.178 39.0331 118.277 38.5709 118.557 38.1846C119.012 37.5861 119.527 36.9194 119.731 36.6694C119.769 36.6315 119.807 36.5861 119.845 36.5558C119.853 36.5558 119.853 36.5482 119.853 36.5482C119.86 36.5406 119.875 36.5331 119.883 36.5255C119.921 36.4952 119.951 36.4649 120.012 36.427C120.58 36.0861 121.292 36.0861 121.845 36.4421C122.33 36.7528 122.625 37.2982 122.625 37.8891C122.618 38.2224 122.527 38.5406 122.345 38.8134ZM135.944 28.73C135.322 29.3437 134.315 29.4194 133.618 28.9118L129.262 25.6921L127.565 24.4346C127.424 24.3328 127.25 24.2902 127.079 24.3156C126.907 24.3411 126.753 24.4328 126.648 24.5709C126.436 24.8588 126.497 25.2679 126.784 25.4876L129.754 27.6846L132.269 29.5482C132.709 29.874 132.989 30.3512 133.057 30.8967C133.125 31.4421 132.966 31.9724 132.61 32.3967C132.292 32.7696 131.846 33.0104 131.36 33.072C130.874 33.1337 130.382 33.0117 129.981 32.73L124.762 28.9952C124.692 28.9446 124.614 28.9084 124.53 28.8886C124.447 28.8689 124.36 28.866 124.275 28.8801C124.191 28.8942 124.11 28.925 124.037 28.9708C123.965 29.0166 123.902 29.0764 123.853 29.1467C123.64 29.4421 123.709 29.8512 124.004 30.0558L128.997 33.624C129.383 33.9043 129.625 34.3361 129.671 34.8058C129.709 35.2831 129.542 35.7452 129.201 36.0861C128.633 36.6618 127.716 36.7149 127.072 36.23L122.148 32.3967C122.08 32.3438 122.003 32.3047 121.92 32.2818C121.838 32.2588 121.751 32.2524 121.666 32.263C121.581 32.2736 121.499 32.3008 121.424 32.3433C121.349 32.3857 121.284 32.4425 121.231 32.5103C121.012 32.7906 121.057 33.2073 121.337 33.427L125.64 36.7906C126.05 37.1088 126.307 37.5861 126.337 38.1012C126.375 38.624 126.186 39.1164 125.815 39.4876C125.209 40.0937 124.186 40.1618 123.504 39.6694C123.504 39.6694 123.466 39.624 123.413 39.5709L123.428 39.5482C123.747 39.0634 123.913 38.4952 123.913 37.8967C123.913 36.8588 123.398 35.9118 122.534 35.3512C121.875 34.927 121.087 34.7982 120.337 34.9346C120.337 34.8815 120.345 34.8285 120.345 34.7755C120.345 33.8285 119.913 32.9649 119.163 32.4043C118.512 31.9194 117.731 31.7376 116.989 31.8437C117.14 30.7528 116.739 29.6088 115.792 28.8437C115.46 28.5723 115.077 28.3707 114.666 28.2509C114.255 28.1312 113.823 28.0957 113.398 28.1467C113.284 28.1618 113.178 28.1921 113.072 28.2149C113.08 28.124 113.095 28.0406 113.095 27.9497C113.095 26.8967 112.625 25.927 111.792 25.2755C110.542 24.3058 108.822 24.3588 107.625 25.2982C107.625 25.2906 107.625 25.2906 107.633 25.2831C107.618 25.2982 107.603 25.3134 107.587 25.3209C107.512 25.3815 107.436 25.4573 107.368 25.5255C107.307 25.5861 107.239 25.6391 107.178 25.7073V25.3437C107.178 24.5558 106.807 23.8209 106.194 23.374L105.694 23.0028L106.648 21.7073L107.853 20.0709L108.231 19.5634C108.254 19.5406 108.269 19.5179 108.292 19.4952L112.618 13.624L112.898 13.8588C113.284 14.1997 113.792 14.3891 114.315 14.3891H117.481L115.663 16.1315C115.239 16.5406 115.004 17.0937 115.004 17.6846C115.004 18.5331 115.474 19.2831 116.239 19.6391C117.163 20.0792 118.176 20.2981 119.199 20.2783C120.222 20.2586 121.227 20.0008 122.133 19.5255L122.921 19.1164C123.663 18.7224 124.572 18.8134 125.231 19.3437L132.921 25.5028C133.368 25.8512 133.837 26.1391 134.322 26.3512C134.481 26.4194 134.656 26.4876 134.807 26.5406C134.944 26.5937 135.087 26.6391 135.209 26.6694C135.375 26.7225 135.542 26.7603 135.686 26.7831C135.883 26.8209 136.072 26.8512 136.231 26.8588C136.307 26.8664 136.375 26.8664 136.451 26.874L136.368 26.8967C136.58 27.5255 136.428 28.2452 135.944 28.73ZM137.625 25.5482C137.375 25.5785 137.103 25.5937 136.792 25.5861C136.663 25.5861 136.542 25.5785 136.368 25.5558C136.216 25.5482 136.08 25.5179 135.913 25.4876C135.795 25.4709 135.678 25.443 135.565 25.4043C135.459 25.3815 135.36 25.3437 135.262 25.3058C135.125 25.2603 134.981 25.1997 134.853 25.1467C134.474 24.98 134.095 24.7528 133.739 24.4724L126.444 18.624L126.05 18.3134C125.428 17.8134 124.671 17.5558 123.906 17.5558C123.36 17.5558 122.815 17.6846 122.322 17.9497L121.534 18.3588C120.809 18.7409 120.005 18.9481 119.185 18.9639C118.366 18.9797 117.554 18.8036 116.815 18.4497C116.459 18.2831 116.33 17.9421 116.33 17.677C116.33 17.5179 116.375 17.2755 116.587 17.0709L120.368 13.4497C121.11 12.7376 122.163 12.3967 123.186 12.5482L131.353 13.7528C132.103 13.8588 132.875 13.7149 133.512 13.3512L134.512 12.7906L136.118 16.7603L139.572 25.2755L137.625 25.5482ZM145.989 23.6391L141.542 25.6012C141.368 25.677 141.156 25.6164 141.027 25.3967L136.3 13.7224L135.686 12.2224L135.337 11.3588C135.254 11.1618 135.345 10.9346 135.55 10.8437L139.989 8.87396C140.087 8.82851 140.201 8.82851 140.3 8.86639C140.398 8.90427 140.474 8.98002 140.512 9.08608L146.194 23.1315C146.269 23.3209 146.178 23.5482 145.989 23.6391Z" stroke="black" mask="url(#path-2-outside-1_768_40098)"/>
<path d="M147.406 22.6315L141.724 8.59366C141.55 8.16184 141.224 7.82851 140.792 7.64669C140.36 7.47245 139.883 7.48002 139.459 7.66942L135.034 9.63911C134.284 9.9573 133.883 10.7755 134.042 11.5558L132.868 12.2149C132.474 12.4421 131.997 12.5255 131.534 12.4649L123.375 11.2603C122.67 11.1602 121.951 11.2213 121.273 11.4392C120.594 11.657 119.974 12.0258 119.459 12.5179L118.86 13.0937H114.33C114.125 13.0937 113.921 13.0179 113.769 12.8815L113.368 12.5406C113.648 11.8512 113.459 11.0482 112.853 10.5709L109.428 7.86639C109.065 7.57851 108.61 7.44972 108.148 7.5179C107.694 7.57851 107.277 7.82851 107.004 8.19214L98.7541 19.374C98.2087 20.1088 98.3374 21.1391 99.0647 21.7225L102.481 24.4194C102.661 24.5617 102.868 24.666 103.09 24.7259C103.311 24.7858 103.542 24.8001 103.769 24.7679C103.995 24.738 104.213 24.6621 104.408 24.5448C104.604 24.4275 104.773 24.2714 104.906 24.0861L104.936 24.0482L105.428 24.4194C105.716 24.624 105.883 24.9724 105.883 25.3361V27.374L104.61 29.0103C103.474 30.4876 103.731 32.6164 105.201 33.7528C105.8 34.2224 106.527 34.4724 107.277 34.4724C107.413 34.4724 107.557 34.4649 107.694 34.4497C107.845 34.427 107.989 34.3891 108.133 34.3512C108.133 34.3967 108.125 34.4346 108.125 34.48C108.125 35.4497 108.565 36.3588 109.322 36.98C109.913 37.4497 110.625 37.6846 111.33 37.6846C111.769 37.6846 112.209 37.5861 112.618 37.4118V37.4497C112.724 38.2452 113.14 38.9497 113.747 39.3967L113.883 39.5028C114.513 39.9705 115.303 40.1694 116.08 40.0558C116.406 40.0103 116.701 39.8967 116.989 39.7528C117.148 40.5634 117.61 41.2603 118.3 41.6997L118.398 41.7679C118.728 41.9865 119.099 42.1366 119.488 42.2095C119.877 42.2823 120.276 42.2764 120.663 42.1921C121.459 42.0255 122.133 41.5558 122.58 40.874L122.709 40.677C123.247 41.0861 123.89 41.2982 124.58 41.2982C125.39 41.2982 126.186 40.9649 126.762 40.3967C127.094 40.0648 127.346 39.6619 127.499 39.2183C127.653 38.7748 127.704 38.3021 127.648 37.8361C128.111 37.9034 128.583 37.8591 129.024 37.7066C129.466 37.5542 129.865 37.2981 130.188 36.9599C130.511 36.6217 130.748 36.2111 130.879 35.7625C131.01 35.314 131.033 34.8404 130.944 34.3815C131.951 34.4421 132.944 34.0406 133.625 33.23C133.936 32.8628 134.162 32.4308 134.285 31.9656C134.408 31.5005 134.426 31.0137 134.337 30.5406C135.254 30.6391 136.186 30.3209 136.868 29.6543C137.618 28.9043 137.898 27.8437 137.694 26.8437C137.731 26.8361 137.769 26.8437 137.807 26.8361L140.247 26.4952C140.557 26.7755 140.974 26.9346 141.39 26.9346C141.625 26.9346 141.86 26.8891 142.08 26.7831L146.519 24.8209C147.353 24.4573 147.747 23.4876 147.406 22.6315ZM103.587 23.48C103.534 23.488 103.479 23.4847 103.427 23.4704C103.375 23.456 103.326 23.4309 103.284 23.3967L99.8829 20.7073C99.8017 20.6425 99.7485 20.5489 99.7344 20.4459C99.7203 20.343 99.7463 20.2385 99.8071 20.1543L108.05 8.94972C108.133 8.83608 108.247 8.80578 108.315 8.79821H108.368C108.436 8.79821 108.527 8.81336 108.61 8.88154L112.042 11.5861C112.209 11.7149 112.239 11.9573 112.118 12.1164L112.012 12.2603L111.989 12.2831L107.247 18.7073L107.231 18.7224L106.33 19.9497L104.262 22.7528C104.254 22.7603 104.254 22.7679 104.254 22.7679L103.845 23.3285C103.769 23.4346 103.663 23.4725 103.587 23.48ZM107.542 33.1543C107.272 33.1879 106.997 33.1677 106.734 33.0949C106.472 33.0221 106.226 32.8981 106.012 32.73C105.118 32.0331 104.951 30.7224 105.656 29.8134L108.095 26.6694C108.504 26.1391 109.118 25.8664 109.739 25.8664C110.178 25.8664 110.625 26.0103 111.004 26.2982C111.512 26.6997 111.807 27.2982 111.807 27.9421C111.807 28.4043 111.656 28.8437 111.368 29.2225L108.928 32.3664C108.58 32.8058 108.087 33.0861 107.542 33.1543ZM110.148 35.9649C109.694 35.5937 109.436 35.0558 109.436 34.48C109.436 34.0634 109.58 33.6543 109.86 33.2982L112.292 30.1618C112.603 29.7528 113.057 29.5028 113.565 29.4421C113.64 29.427 113.716 29.427 113.784 29.427C114.216 29.427 114.64 29.5785 115.034 29.8967C115.853 30.5558 115.981 31.7603 115.322 32.5785L112.83 35.6846C112.508 36.0719 112.047 36.3179 111.546 36.3703C111.045 36.4227 110.543 36.2772 110.148 35.9649ZM115.883 38.7603C115.444 38.8209 115.012 38.7149 114.701 38.4876L114.572 38.3815C114.394 38.2512 114.244 38.0859 114.132 37.8957C114.02 37.7055 113.948 37.4945 113.921 37.2755C113.891 37.0532 113.907 36.8273 113.967 36.6112C114.027 36.3951 114.13 36.1933 114.269 36.0179L116.118 33.73C116.273 33.5376 116.469 33.3825 116.692 33.2762C116.915 33.17 117.159 33.1154 117.406 33.1164C117.747 33.1164 118.095 33.2224 118.383 33.4421C118.8 33.7528 119.042 34.2376 119.042 34.7603C119.042 35.1012 118.944 35.4194 118.754 35.6921C118.739 35.7073 118.731 35.73 118.716 35.7528C118.709 35.7603 118.709 35.7679 118.701 35.7679L118.671 35.8134L116.951 38.1164C116.709 38.4725 116.322 38.6997 115.883 38.7603ZM122.345 38.8134L121.474 40.1694C121.224 40.5558 120.837 40.8209 120.383 40.9194C119.936 41.0103 119.481 40.927 119.11 40.6846L119.012 40.6164C118.61 40.3588 118.345 39.9573 118.262 39.4952C118.178 39.0331 118.277 38.5709 118.557 38.1846C119.012 37.5861 119.527 36.9194 119.731 36.6694C119.769 36.6315 119.807 36.5861 119.845 36.5558C119.853 36.5558 119.853 36.5482 119.853 36.5482C119.86 36.5406 119.875 36.5331 119.883 36.5255C119.921 36.4952 119.951 36.4649 120.012 36.427C120.58 36.0861 121.292 36.0861 121.845 36.4421C122.33 36.7528 122.625 37.2982 122.625 37.8891C122.618 38.2224 122.527 38.5406 122.345 38.8134ZM135.944 28.73C135.322 29.3437 134.315 29.4194 133.618 28.9118L129.262 25.6921L127.565 24.4346C127.424 24.3328 127.25 24.2902 127.079 24.3156C126.907 24.3411 126.753 24.4328 126.648 24.5709C126.436 24.8588 126.497 25.2679 126.784 25.4876L129.754 27.6846L132.269 29.5482C132.709 29.874 132.989 30.3512 133.057 30.8967C133.125 31.4421 132.966 31.9724 132.61 32.3967C132.292 32.7696 131.846 33.0104 131.36 33.072C130.874 33.1337 130.382 33.0117 129.981 32.73L124.762 28.9952C124.692 28.9446 124.614 28.9084 124.53 28.8886C124.447 28.8689 124.36 28.866 124.275 28.8801C124.191 28.8942 124.11 28.925 124.037 28.9708C123.965 29.0166 123.902 29.0764 123.853 29.1467C123.64 29.4421 123.709 29.8512 124.004 30.0558L128.997 33.624C129.383 33.9043 129.625 34.3361 129.671 34.8058C129.709 35.2831 129.542 35.7452 129.201 36.0861C128.633 36.6618 127.716 36.7149 127.072 36.23L122.148 32.3967C122.08 32.3438 122.003 32.3047 121.92 32.2818C121.838 32.2588 121.751 32.2524 121.666 32.263C121.581 32.2736 121.499 32.3008 121.424 32.3433C121.349 32.3857 121.284 32.4425 121.231 32.5103C121.012 32.7906 121.057 33.2073 121.337 33.427L125.64 36.7906C126.05 37.1088 126.307 37.5861 126.337 38.1012C126.375 38.624 126.186 39.1164 125.815 39.4876C125.209 40.0937 124.186 40.1618 123.504 39.6694C123.504 39.6694 123.466 39.624 123.413 39.5709L123.428 39.5482C123.747 39.0634 123.913 38.4952 123.913 37.8967C123.913 36.8588 123.398 35.9118 122.534 35.3512C121.875 34.927 121.087 34.7982 120.337 34.9346C120.337 34.8815 120.345 34.8285 120.345 34.7755C120.345 33.8285 119.913 32.9649 119.163 32.4043C118.512 31.9194 117.731 31.7376 116.989 31.8437C117.14 30.7528 116.739 29.6088 115.792 28.8437C115.46 28.5723 115.077 28.3707 114.666 28.2509C114.255 28.1312 113.823 28.0957 113.398 28.1467C113.284 28.1618 113.178 28.1921 113.072 28.2149C113.08 28.124 113.095 28.0406 113.095 27.9497C113.095 26.8967 112.625 25.927 111.792 25.2755C110.542 24.3058 108.822 24.3588 107.625 25.2982C107.625 25.2906 107.625 25.2906 107.633 25.2831C107.618 25.2982 107.603 25.3134 107.587 25.3209C107.512 25.3815 107.436 25.4573 107.368 25.5255C107.307 25.5861 107.239 25.6391 107.178 25.7073V25.3437C107.178 24.5558 106.807 23.8209 106.194 23.374L105.694 23.0028L106.648 21.7073L107.853 20.0709L108.231 19.5634C108.254 19.5406 108.269 19.5179 108.292 19.4952L112.618 13.624L112.898 13.8588C113.284 14.1997 113.792 14.3891 114.315 14.3891H117.481L115.663 16.1315C115.239 16.5406 115.004 17.0937 115.004 17.6846C115.004 18.5331 115.474 19.2831 116.239 19.6391C117.163 20.0792 118.176 20.2981 119.199 20.2783C120.222 20.2586 121.227 20.0008 122.133 19.5255L122.921 19.1164C123.663 18.7224 124.572 18.8134 125.231 19.3437L132.921 25.5028C133.368 25.8512 133.837 26.1391 134.322 26.3512C134.481 26.4194 134.656 26.4876 134.807 26.5406C134.944 26.5937 135.087 26.6391 135.209 26.6694C135.375 26.7225 135.542 26.7603 135.686 26.7831C135.883 26.8209 136.072 26.8512 136.231 26.8588C136.307 26.8664 136.375 26.8664 136.451 26.874L136.368 26.8967C136.58 27.5255 136.428 28.2452 135.944 28.73ZM137.625 25.5482C137.375 25.5785 137.103 25.5937 136.792 25.5861C136.663 25.5861 136.542 25.5785 136.368 25.5558C136.216 25.5482 136.08 25.5179 135.913 25.4876C135.795 25.4709 135.678 25.443 135.565 25.4043C135.459 25.3815 135.36 25.3437 135.262 25.3058C135.125 25.2603 134.981 25.1997 134.853 25.1467C134.474 24.98 134.095 24.7528 133.739 24.4724L126.444 18.624L126.05 18.3134C125.428 17.8134 124.671 17.5558 123.906 17.5558C123.36 17.5558 122.815 17.6846 122.322 17.9497L121.534 18.3588C120.809 18.7409 120.005 18.9481 119.185 18.9639C118.366 18.9797 117.554 18.8036 116.815 18.4497C116.459 18.2831 116.33 17.9421 116.33 17.677C116.33 17.5179 116.375 17.2755 116.587 17.0709L120.368 13.4497C121.11 12.7376 122.163 12.3967 123.186 12.5482L131.353 13.7528C132.103 13.8588 132.875 13.7149 133.512 13.3512L134.512 12.7906L136.118 16.7603L139.572 25.2755L137.625 25.5482ZM145.989 23.6391L141.542 25.6012C141.368 25.677 141.156 25.6164 141.027 25.3967L136.3 13.7224L135.686 12.2224L135.337 11.3588C135.254 11.1618 135.345 10.9346 135.55 10.8437L139.989 8.87396C140.087 8.82851 140.201 8.82851 140.3 8.86639C140.398 8.90427 140.474 8.98002 140.512 9.08608L146.194 23.1315C146.269 23.3209 146.178 23.5482 145.989 23.6391Z" stroke="url(#paint2_linear_768_40098)" mask="url(#path-2-outside-1_768_40098)"/>
</g>
<defs>
<linearGradient id="paint0_linear_768_40098" x1="95.3333" y1="6.64063" x2="51.4363" y2="90.5835" gradientUnits="userSpaceOnUse">
<stop stop-color="#8DC8E9"/>
<stop offset="1" stop-color="#8C5AE3"/>
</linearGradient>
<linearGradient id="paint1_linear_768_40098" x1="149.308" y1="11.3019" x2="111.745" y2="63.1466" gradientUnits="userSpaceOnUse">
<stop stop-color="#8DC8E9"/>
<stop offset="1" stop-color="#8C5AE3"/>
</linearGradient>
<linearGradient id="paint2_linear_768_40098" x1="149.308" y1="11.3019" x2="111.745" y2="63.1466" gradientUnits="userSpaceOnUse">
<stop stop-color="#8DC8E9"/>
<stop offset="1" stop-color="#8C5AE3"/>
</linearGradient>
<clipPath id="clip0_768_40098">
<rect width="50" height="50" fill="white" transform="translate(98)"/>
</clipPath>
</defs>
</svg>
