<svg width="36" height="36" viewBox="0 0 36 36" fill="none" xmlns="http://www.w3.org/2000/svg">
<circle cx="18" cy="18" r="18" fill="white"/>
<ellipse cx="18.0015" cy="16.9919" rx="11.9508" ry="12.2243" fill="#D9D9D9"/>
<ellipse cx="18.0015" cy="16.9919" rx="11.9508" ry="12.2243" fill="url(#paint0_linear_1387_7255)"/>
<path fill-rule="evenodd" clip-rule="evenodd" d="M17.9599 4.01562C11.0241 4.01562 5.39844 9.79818 5.39844 16.9274C5.39844 22.6307 9.02046 27.4627 13.9526 29.2054C14.5691 29.2846 14.8003 28.8885 14.8003 28.5717C14.8003 28.2548 14.8003 27.4627 14.8003 26.3537C11.3324 27.1458 10.5617 24.611 10.5617 24.611C10.0223 23.106 9.17458 22.7099 9.17458 22.7099C8.01862 21.9178 9.25165 21.9178 9.25165 21.9178C10.4847 21.997 11.1783 23.2644 11.1783 23.2644C12.3342 25.2447 14.1067 24.6902 14.8003 24.3734C14.8773 23.502 15.2627 22.9475 15.5709 22.6307C12.7966 22.3138 9.86816 21.2049 9.86816 16.2144C9.86816 14.7886 10.3305 13.6796 11.1783 12.7291C11.1012 12.4914 10.6388 11.1448 11.3324 9.40211C11.3324 9.40211 12.4113 9.08526 14.8003 10.7487C15.8021 10.4319 16.881 10.3527 17.9599 10.3527C19.0388 10.3527 20.1177 10.5111 21.1195 10.7487C23.5085 9.08526 24.5874 9.40211 24.5874 9.40211C25.281 11.1448 24.8186 12.4914 24.7416 12.8083C25.5122 13.6796 26.0516 14.8678 26.0516 16.2936C26.0516 21.2841 23.1232 22.3138 20.3489 22.6307C20.8113 23.0268 21.1966 23.8189 21.1966 25.0071C21.1966 26.7498 21.1966 28.0964 21.1966 28.5717C21.1966 28.8885 21.4278 29.2846 22.0443 29.2054C27.0535 27.4627 30.5984 22.6307 30.5984 16.9274C30.5214 9.79818 24.8957 4.01562 17.9599 4.01562Z" fill="white"/>
<defs>
<linearGradient id="paint0_linear_1387_7255" x1="30.8183" y1="7.44165" x2="3.04427" y2="33.9674" gradientUnits="userSpaceOnUse">
<stop stop-color="#8DC8E9"/>
<stop offset="1" stop-color="#8C5AE3"/>
</linearGradient>
</defs>
</svg>
