<svg width="40" height="40" viewBox="0 0 40 40" fill="none" xmlns="http://www.w3.org/2000/svg">
<path d="M40 20C40 8.95431 31.0457 0 20 0C8.95431 0 0 8.95431 0 20C0 31.0457 8.95431 40 20 40C31.0457 40 40 31.0457 40 20Z" fill="#2E303D"/>
<path fill-rule="evenodd" clip-rule="evenodd" d="M19.9694 10.2402C14.4648 10.2402 10 14.7051 10 20.2097C10 24.6133 12.8746 28.3442 16.789 29.6898C17.2783 29.7509 17.4618 29.4451 17.4618 29.2005C17.4618 28.9558 17.4618 28.3442 17.4618 27.4879C14.7095 28.0996 14.0979 26.1424 14.0979 26.1424C13.6697 24.9803 12.9969 24.6745 12.9969 24.6745C12.0795 24.0629 13.0581 24.0629 13.0581 24.0629C14.0367 24.124 14.5872 25.1026 14.5872 25.1026C15.5046 26.6317 16.9113 26.2035 17.4618 25.9589C17.5229 25.2861 17.8287 24.858 18.0734 24.6133C15.8716 24.3687 13.5474 23.5124 13.5474 19.6592C13.5474 18.5583 13.9144 17.702 14.5872 16.9681C14.526 16.7846 14.159 15.7448 14.7095 14.3993C14.7095 14.3993 15.5657 14.1546 17.4618 15.439C18.2569 15.1944 19.1131 15.1332 19.9694 15.1332C20.8257 15.1332 21.682 15.2555 22.4771 15.439C24.3731 14.1546 25.2294 14.3993 25.2294 14.3993C25.7798 15.7448 25.4128 16.7846 25.3517 17.0292C25.9633 17.702 26.3914 18.6194 26.3914 19.7204C26.3914 23.5736 24.0673 24.3687 21.8654 24.6133C22.2324 24.9191 22.5382 25.5308 22.5382 26.4482C22.5382 27.7938 22.5382 28.8335 22.5382 29.2005C22.5382 29.4451 22.7217 29.7509 23.211 29.6898C27.1865 28.3442 30 24.6133 30 20.2097C29.9388 14.7051 25.474 10.2402 19.9694 10.2402Z" fill="white"/>
</svg>
