<svg width="24" height="24" viewBox="0 0 24 24" fill="none" xmlns="http://www.w3.org/2000/svg">
<circle cx="12" cy="12" r="12" fill="white"/>
<ellipse cx="11.9999" cy="11.3273" rx="7.96717" ry="8.14955" fill="#D9D9D9"/>
<ellipse cx="11.9999" cy="11.3273" rx="7.96717" ry="8.14955" fill="url(#paint0_linear_938_4907)"/>
<path fill-rule="evenodd" clip-rule="evenodd" d="M11.9742 2.67676C7.35031 2.67676 3.59985 6.53179 3.59985 11.2846C3.59985 15.0868 6.01453 18.3081 9.30261 19.4699C9.71362 19.5227 9.86774 19.2587 9.86774 19.0475C9.86774 18.8362 9.86774 18.3081 9.86774 17.5688C7.55582 18.0969 7.04206 16.407 7.04206 16.407C6.68242 15.4037 6.11729 15.1396 6.11729 15.1396C5.34664 14.6115 6.16866 14.6115 6.16866 14.6115C6.99068 14.6643 7.45306 15.5093 7.45306 15.5093C8.22371 16.8295 9.40536 16.4598 9.86774 16.2486C9.91912 15.6677 10.176 15.298 10.3815 15.0868C8.53196 14.8756 6.57967 14.1362 6.57967 10.8093C6.57967 9.85874 6.88793 9.11942 7.45306 8.48572C7.40169 8.32729 7.09343 7.42954 7.55582 6.26775C7.55582 6.26775 8.27508 6.05652 9.86774 7.1655C10.5356 6.95426 11.2549 6.90145 11.9742 6.90145C12.6934 6.90145 13.4127 7.00707 14.0806 7.1655C15.6732 6.05652 16.3925 6.26775 16.3925 6.26775C16.8549 7.42954 16.5466 8.32729 16.4953 8.53852C17.009 9.11942 17.3687 9.91155 17.3687 10.8621C17.3687 14.1891 15.4164 14.8756 13.5668 15.0868C13.8751 15.3508 14.132 15.8789 14.132 16.6711C14.132 17.8329 14.132 18.7306 14.132 19.0475C14.132 19.2587 14.2861 19.5227 14.6971 19.4699C18.0366 18.3081 20.3999 15.0868 20.3999 11.2846C20.3485 6.53179 16.598 2.67676 11.9742 2.67676Z" fill="white"/>
<defs>
<linearGradient id="paint0_linear_938_4907" x1="20.5444" y1="4.96045" x2="2.02837" y2="22.6443" gradientUnits="userSpaceOnUse">
<stop stop-color="#8DC8E9"/>
<stop offset="1" stop-color="#8C5AE3"/>
</linearGradient>
</defs>
</svg>
