<svg width="560" height="560" viewBox="0 0 560 560" fill="none" xmlns="http://www.w3.org/2000/svg">
<g clip-path="url(#clip0_401_2)">
<path d="M280 560C434.64 560 560 434.64 560 280C560 125.36 434.64 0 280 0C125.36 0 0 125.36 0 280C0 434.64 125.36 560 280 560Z" fill="#6747ED"/>
<path fill-rule="evenodd" clip-rule="evenodd" d="M275.917 316.167C234.5 316.167 201.25 282.917 201.25 241.5C201.25 200.083 234.5 166.833 275.917 166.833C317.333 166.833 350.583 200.083 350.583 241.5C350.583 282.917 317.333 316.167 275.917 316.167ZM275.917 129.5C337.75 129.5 387.917 179.667 387.917 241.5C387.917 303.333 337.75 353.5 275.917 353.5C214.083 353.5 163.917 303.333 163.917 241.5C163.917 179.667 214.083 129.5 275.917 129.5ZM382.667 359.333C390.25 366.917 390.25 378.583 382.667 385.583L308 460.25C300.417 467.833 288.75 467.833 281.75 460.25C274.167 452.667 274.167 441 281.75 434L356.417 359.333C363.417 351.75 375.667 351.75 382.667 359.333ZM425.833 148.167C425.833 158.667 417.667 166.833 407.167 166.833C396.667 166.833 388.5 158.667 388.5 148.167C388.5 137.667 396.667 129.5 407.167 129.5C417.083 129.5 425.833 137.667 425.833 148.167Z" fill="white"/>
</g>
<defs>
<clipPath id="clip0_401_2">
<rect width="560" height="560" fill="white"/>
</clipPath>
</defs>
</svg>
