<svg width="31" height="30" viewBox="0 0 31 30" fill="none" xmlns="http://www.w3.org/2000/svg">
<g clip-path="url(#clip0_867_2967)">
<path d="M12.9401 13.2811L9.34409 11.8066L5.67578 18.0281L8.15722 20.7971C8.0254 21.1328 7.79772 22.0055 7.94157 22.811C8.08542 23.6166 9.10426 23.4583 9.5957 23.2785C9.4039 23.4703 9.13538 24.0193 9.5957 24.681C10.056 25.3427 11.0102 24.8129 11.4298 24.4653C11.3219 24.6691 11.2356 25.2492 11.7534 25.9397C12.2713 26.6302 13.1919 26.0356 13.5875 25.652C13.4676 25.8318 13.4221 26.3713 14.1988 27.0905C14.9756 27.8097 16.0808 26.7908 16.5364 26.1914C17.3755 26.4911 19.1544 27.0186 19.5572 26.7309C19.96 26.4432 19.725 25.652 19.5572 25.2924C19.8689 25.3403 20.6073 25.3643 21.0676 25.0766C21.643 24.717 21.4272 24.2855 21.4272 23.8539C21.4272 23.4224 22.7578 23.6741 23.1893 23.2785C23.6209 22.8829 22.7578 21.1927 23.6209 20.7971C24.3114 20.4807 23.9086 19.5385 23.6209 19.1069L25.7067 18.0281L22.0026 11.8066C21.2354 11.9145 19.6147 12.1591 19.2695 12.2741C18.8379 12.418 16.6443 11.8066 15.3856 11.8066C14.3786 11.8066 13.3357 12.7896 12.9401 13.2811Z" fill="#F8E2DB"/>
<path d="M9.59468 10.9077L5.89072 8.75L1 16.9134L4.52418 19.2149L9.59468 10.9077Z" fill="#9ABAFB"/>
<path d="M21.7862 10.9077L25.4901 8.75L30.3809 16.9134L26.8567 19.2149L21.7862 10.9077Z" fill="#9ABAFB"/>
<path d="M30.4603 15.9653L26.4633 9.04232C26.0394 8.30805 25.097 8.05557 24.3629 8.47948L22.0855 9.79436C21.4961 10.1347 21.2175 10.8089 21.3496 11.4415C19.9158 11.8189 18.4747 11.8154 16.7567 11.4372C14.9242 11.0338 14.0358 11.4162 12.8313 12.4927L9.97572 11.4726C10.1238 10.8311 9.84561 10.1402 9.24653 9.7943L6.96911 8.47942C6.23477 8.05544 5.29256 8.30799 4.86865 9.04226L0.87168 15.9652C0.447829 16.6995 0.700247 17.6418 1.43452 18.0657L3.71194 19.3806C3.94477 19.5154 4.20909 19.5864 4.47815 19.5863C4.96663 19.5863 5.44288 19.353 5.73779 18.9332L7.44517 21.0654L7.40139 21.1276C6.76323 22.0349 7.12831 23.0012 7.81874 23.487C8.0689 23.663 8.36394 23.7774 8.66902 23.8087C8.63895 24.0905 8.68511 24.3752 8.80942 24.6433C9.07272 25.2111 9.64566 25.6142 10.269 25.67C10.4809 25.6892 10.6868 25.667 10.8808 25.6072C11.0052 25.9438 11.239 26.2351 11.531 26.4405C11.9983 26.7692 12.6224 26.8833 13.175 26.6415C13.3067 26.9299 13.5197 27.1793 13.7784 27.3612C14.0745 27.5695 14.4335 27.6916 14.7974 27.6916C15.2822 27.6915 15.7755 27.4748 16.14 26.9566L16.3803 26.615L17.7405 27.407C18.0405 27.5817 18.3378 27.6579 18.6178 27.6579C19.2324 27.6579 19.7634 27.2904 20.0553 26.7894C20.2077 26.5278 20.2963 26.2277 20.303 25.9243C20.9349 25.9414 21.4859 25.5694 21.7847 25.0563C21.9255 24.8147 22.0118 24.5402 22.0294 24.2606C22.7208 24.3424 23.3302 23.9532 23.6508 23.4027C23.9508 22.8873 24.0033 22.2219 23.6705 21.6788C23.9294 21.5232 24.1457 21.2987 24.2972 21.0382C24.5999 20.5178 24.6497 19.8443 24.3053 19.2981L25.4574 18.7098L25.5197 18.8177C25.7245 19.1724 26.0562 19.4265 26.4537 19.533C26.5868 19.5686 26.7219 19.5863 26.856 19.5863C27.1244 19.5862 27.388 19.5152 27.6202 19.3806L29.8976 18.0657C30.6318 17.6418 30.8842 16.6996 30.4603 15.9653ZM4.22689 18.4886L1.9494 17.1738C1.70702 17.0338 1.62365 16.7228 1.76361 16.4803L5.76058 9.55733C5.82795 9.44079 5.93883 9.35576 6.06886 9.32093C6.19888 9.28609 6.33742 9.3043 6.45403 9.37154L8.73146 10.6864C8.9739 10.8264 9.05727 11.1374 8.91725 11.3798L4.92034 18.3029C4.78033 18.5452 4.4692 18.6287 4.22689 18.4886ZM8.41132 22.6447C8.31997 22.5804 7.8826 22.2338 8.24375 21.7203L9.42653 20.0388C9.78761 19.5255 10.2615 19.8197 10.3528 19.8839C10.4442 19.9481 10.8817 20.2944 10.5214 20.8075L10.1248 21.3713L9.33794 22.4899C8.9768 23.0033 8.50267 22.709 8.41132 22.6447ZM11.1135 24.0812L11.1114 24.0841L10.9237 24.3511C10.7728 24.5656 10.583 24.6645 10.3609 24.6441C10.1055 24.6213 9.85167 24.4428 9.74384 24.2101C9.64985 24.0074 9.67862 23.7959 9.82952 23.5814L10.1796 23.0837L10.9673 21.9639L11.8347 20.7307C12.1959 20.2171 12.67 20.5117 12.7613 20.576C12.8527 20.6402 13.2901 20.9868 12.929 21.5003L12.7674 21.7299L12.7666 21.7311L11.1985 23.9603L11.1135 24.0812ZM13.0502 25.4435C12.689 25.957 12.2149 25.6624 12.1235 25.5981C12.0323 25.5339 11.596 25.1882 11.9544 24.6759L12.041 24.5529L13.609 22.3238C13.9701 21.8115 14.4441 22.1052 14.5355 22.1695C14.6267 22.2338 15.0641 22.5803 14.703 23.0938L13.9547 24.1575L13.4526 24.8714L13.0502 25.4435ZM15.8905 25.5211L15.2975 26.3641C14.9363 26.8777 14.4623 26.5831 14.3709 26.5188C14.2795 26.4546 13.8421 26.108 14.2033 25.5945L14.295 25.4641L14.7964 24.7513C15.1576 24.238 15.6315 24.5325 15.7229 24.5968C15.8142 24.6609 16.2517 25.0075 15.8905 25.5211ZM23.4068 20.5204C23.3506 20.6168 23.0434 21.0818 22.5013 20.7676L20.4192 19.5552C20.3013 19.4889 20.1621 19.4717 20.0316 19.5072C19.9011 19.5427 19.7898 19.6281 19.7217 19.745C19.6537 19.8619 19.6343 20.0008 19.6679 20.1319C19.7014 20.2629 19.7851 20.3755 19.9009 20.4453L21.9827 21.6575L22.5271 21.9744C23.0697 22.2904 22.8168 22.7879 22.7606 22.8844C22.7044 22.981 22.3966 23.4464 21.854 23.1305L21.1818 22.7391L21.18 22.738L19.0776 21.5139C18.9595 21.4451 18.819 21.4261 18.687 21.461C18.5549 21.4958 18.4421 21.5817 18.3734 21.6998C18.3046 21.8178 18.2856 21.9583 18.3205 22.0904C18.3553 22.2225 18.4412 22.3353 18.5593 22.404L20.6616 23.6281C21.2026 23.9442 20.9508 24.4415 20.8946 24.538C20.8384 24.6345 20.5306 25.0999 19.9881 24.784L19.4506 24.471L17.7358 23.4726C17.6178 23.4038 17.4773 23.3848 17.3452 23.4197C17.2132 23.4545 17.1004 23.5404 17.0316 23.6585C16.9629 23.7765 16.9439 23.917 16.9787 24.0491C17.0136 24.1812 17.0995 24.294 17.2176 24.3627L18.9323 25.3611C19.4743 25.6772 19.2214 26.1745 19.1652 26.271C19.109 26.3675 18.8011 26.8329 18.2587 26.517L16.9365 25.7471C17.2668 24.9561 16.9134 24.175 16.3155 23.7543C16.1237 23.6191 15.9077 23.522 15.6793 23.4684C16.123 22.6281 15.7633 21.7741 15.128 21.3272C14.829 21.1167 14.4655 20.9931 14.098 20.9967C14.0601 20.4814 13.7645 20.0225 13.3538 19.7336C12.8241 19.3609 12.0927 19.2642 11.4926 19.6492C11.3601 19.4081 11.1698 19.1992 10.9451 19.0413C10.2547 18.5561 9.222 18.5394 8.58404 19.4464L8.06214 20.1883L6.29515 17.9817L9.51627 12.4025L11.9931 13.2873C11.8933 13.3851 11.7911 13.4858 11.6848 13.5905C11.4389 13.8333 11.192 14.0751 10.9441 14.3157C10.8499 14.4069 10.7941 14.5304 10.7879 14.6613L10.6515 17.5318C10.6163 18.2746 10.9766 18.6155 11.1946 18.7527C11.6682 19.0507 12.3494 18.9879 13.1127 18.5757C13.7611 18.2257 14.136 17.4248 14.4668 16.7181C14.5339 16.5746 14.5985 16.4368 14.6624 16.3084L14.7901 16.2479C15.666 15.832 16.2319 15.5939 16.8045 15.9245L23.173 19.6108C23.7155 19.9265 23.4629 20.4239 23.4068 20.5204ZM23.4477 18.5795L17.3202 15.0326C16.2499 14.4146 15.2398 14.8942 14.3486 15.3172C14.2556 15.3614 14.1625 15.4056 14.0693 15.4486C13.967 15.4958 13.883 15.5752 13.8301 15.6747C13.7283 15.8663 13.6296 16.0773 13.5341 16.2813C13.2709 16.8435 12.9726 17.4808 12.6235 17.6693C12.1465 17.9268 11.8305 17.9356 11.7433 17.8807C11.706 17.8573 11.6722 17.7554 11.6805 17.5806L11.8071 14.9133C12.023 14.7031 12.2253 14.5038 12.4077 14.3241C14.2778 12.4817 14.722 12.044 16.5352 12.4431C17.7765 12.7163 19.6425 12.9953 21.8054 12.3847L24.9416 17.8166L23.4477 18.5795ZM29.3825 17.1738L27.105 18.4886C26.9886 18.5559 26.8519 18.5734 26.7201 18.5382C26.5884 18.5029 26.4788 18.4193 26.4116 18.3029L22.4146 11.3799C22.2747 11.1375 22.358 10.8264 22.6004 10.6865L24.8778 9.3716C25.1203 9.23172 25.4313 9.31502 25.5713 9.55739L29.5683 16.4804C29.7083 16.7228 29.6249 17.0338 29.3825 17.1738ZM15.151 6.42091V2.82262C15.151 2.68604 15.2052 2.55504 15.3018 2.45846C15.3984 2.36188 15.5294 2.30762 15.666 2.30762C15.8026 2.30762 15.9335 2.36188 16.0301 2.45846C16.1267 2.55504 16.181 2.68604 16.181 2.82262V6.42091C16.181 6.5575 16.1267 6.6885 16.0301 6.78508C15.9335 6.88166 15.8026 6.93592 15.666 6.93592C15.5294 6.93592 15.3984 6.88166 15.3018 6.78508C15.2052 6.6885 15.151 6.5575 15.151 6.42091ZM18.5509 7.05592L20.35 3.93974C20.4188 3.82242 20.5312 3.73706 20.6627 3.7023C20.7941 3.66754 20.934 3.6862 21.0518 3.7542C21.1696 3.8222 21.2557 3.93402 21.2913 4.06526C21.327 4.19651 21.3092 4.33652 21.242 4.45475L19.4429 7.57093C19.4091 7.62951 19.3641 7.68087 19.3104 7.72205C19.2568 7.76324 19.1955 7.79344 19.1302 7.81095C19.0648 7.82845 18.9967 7.83291 18.9296 7.82407C18.8626 7.81523 18.7979 7.79326 18.7393 7.75942C18.6211 7.6911 18.5348 7.57861 18.4995 7.44668C18.4641 7.31476 18.4826 7.1742 18.5509 7.05592ZM10.0899 4.45475C10.0227 4.33652 10.005 4.19651 10.0406 4.06526C10.0762 3.93402 10.1623 3.8222 10.2801 3.7542C10.3979 3.6862 10.5378 3.66754 10.6693 3.7023C10.8007 3.73706 10.9131 3.82242 10.9819 3.93974L12.7811 7.05592C12.8494 7.17421 12.8679 7.31479 12.8325 7.44673C12.7972 7.57867 12.7109 7.69116 12.5926 7.75945C12.4743 7.82774 12.3337 7.84625 12.2018 7.81089C12.0698 7.77554 11.9573 7.68922 11.889 7.57093L10.0899 4.45475Z" fill="#8777DA"/>
</g>
<defs>
<clipPath id="clip0_867_2967">
<rect width="30" height="30" fill="white" transform="translate(0.666016)"/>
</clipPath>
</defs>
</svg>
