<svg width="50" height="51" viewBox="0 0 50 51" fill="none" xmlns="http://www.w3.org/2000/svg">
<g clip-path="url(#clip0_768_40046)">
<path d="M30.3322 45.582V46.83C30.3322 46.9396 30.3264 47.0492 30.3146 47.1559C30.1521 48.6241 28.9071 49.7664 27.3959 49.7664H22.8934C21.3822 49.7664 20.1371 48.6241 19.9746 47.1559C19.9629 47.0492 19.957 46.9396 19.957 46.83V45.582C20.3456 45.7553 20.7763 45.8512 21.2295 45.8512H29.0598C29.513 45.8512 29.9437 45.7553 30.3322 45.582Z" fill="#9C9EAB"/>
<path d="M24.9982 6.91726C24.9018 6.91728 24.8063 6.8983 24.7173 6.86141C24.6282 6.82452 24.5473 6.77045 24.4791 6.70228C24.4109 6.63411 24.3568 6.55318 24.32 6.46411C24.2831 6.37504 24.2641 6.27957 24.2641 6.18317V1.2341C24.2641 0.828581 24.5927 0.5 24.9982 0.5C25.4037 0.5 25.7323 0.828581 25.7323 1.2341V6.18317C25.7323 6.27957 25.7133 6.37503 25.6764 6.46409C25.6395 6.55316 25.5855 6.63409 25.5173 6.70225C25.4491 6.77042 25.3682 6.82449 25.2791 6.86138C25.1901 6.89828 25.0946 6.91726 24.9982 6.91726ZM11.8211 12.3755C11.7247 12.3756 11.6292 12.3567 11.5401 12.3198C11.451 12.2829 11.3701 12.2288 11.3019 12.1606L7.80237 8.66089C7.66469 8.52321 7.58735 8.33648 7.58735 8.14178C7.58735 7.94708 7.66469 7.76035 7.80237 7.62268C7.94004 7.48501 8.12677 7.40766 8.32147 7.40766C8.51617 7.40766 8.7029 7.48501 8.84057 7.62268L12.3402 11.1224C12.4428 11.225 12.5127 11.3558 12.541 11.4982C12.5694 11.6406 12.5548 11.7882 12.4993 11.9223C12.4437 12.0565 12.3496 12.1711 12.2289 12.2518C12.1082 12.3324 11.9663 12.3755 11.8211 12.3755ZM6.36295 25.5525H1.41378C1.00827 25.5525 0.679688 25.2239 0.679688 24.8184C0.679688 24.4129 1.00827 24.0843 1.41378 24.0843H6.36286C6.76837 24.0843 7.09695 24.4129 7.09695 24.8184C7.09695 25.2239 6.76837 25.5525 6.36295 25.5525ZM8.32152 42.2292C8.17633 42.2292 8.0344 42.1862 7.91367 42.1055C7.79295 42.0248 7.69885 41.9102 7.64328 41.7761C7.58771 41.6419 7.57317 41.4943 7.60148 41.3519C7.6298 41.2095 7.69971 41.0787 7.80237 40.976L11.3019 37.4765C11.3701 37.4083 11.451 37.3542 11.5401 37.3173C11.6292 37.2804 11.7246 37.2615 11.821 37.2615C11.9175 37.2615 12.0129 37.2804 12.102 37.3173C12.1911 37.3542 12.272 37.4083 12.3402 37.4765C12.4083 37.5446 12.4624 37.6256 12.4993 37.7146C12.5362 37.8037 12.5552 37.8992 12.5552 37.9956C12.5552 38.092 12.5362 38.1874 12.4993 38.2765C12.4624 38.3656 12.4083 38.4465 12.3402 38.5147L8.84057 42.0143C8.77247 42.0825 8.69156 42.1366 8.60249 42.1735C8.51341 42.2104 8.41793 42.2293 8.32152 42.2292ZM41.6748 42.2292C41.5784 42.2293 41.4829 42.2104 41.3938 42.1735C41.3047 42.1366 41.2238 42.0825 41.1556 42.0143L37.6561 38.5147C37.5879 38.4465 37.5338 38.3656 37.4969 38.2765C37.46 38.1874 37.441 38.092 37.441 37.9956C37.441 37.8992 37.46 37.8037 37.4969 37.7146C37.5338 37.6256 37.5879 37.5446 37.6561 37.4765C37.7242 37.4083 37.8052 37.3542 37.8942 37.3173C37.9833 37.2804 38.0788 37.2615 38.1752 37.2615C38.2716 37.2615 38.367 37.2804 38.4561 37.3173C38.5452 37.3542 38.6261 37.4083 38.6943 37.4765L42.1938 40.976C42.2965 41.0787 42.3664 41.2095 42.3947 41.3519C42.423 41.4943 42.4085 41.6419 42.3529 41.776C42.2974 41.9101 42.2033 42.0248 42.0826 42.1055C41.9619 42.1861 41.82 42.2292 41.6748 42.2292ZM48.5825 25.5525H43.6335C43.2279 25.5525 42.8994 25.2239 42.8994 24.8184C42.8994 24.4129 43.2279 24.0843 43.6335 24.0843H48.5825C48.988 24.0843 49.3166 24.4129 49.3166 24.8184C49.3166 25.2239 48.9879 25.5525 48.5825 25.5525ZM38.1752 12.3755C38.03 12.3755 37.8881 12.3325 37.7674 12.2518C37.6466 12.1712 37.5525 12.0565 37.497 11.9224C37.4414 11.7882 37.4269 11.6406 37.4552 11.4982C37.4835 11.3558 37.5534 11.225 37.6561 11.1224L41.1556 7.62268C41.2238 7.55451 41.3047 7.50044 41.3938 7.46354C41.4829 7.42665 41.5783 7.40766 41.6747 7.40766C41.7711 7.40766 41.8666 7.42665 41.9557 7.46354C42.0447 7.50044 42.1257 7.55451 42.1938 7.62268C42.262 7.69085 42.3161 7.77178 42.353 7.86085C42.3899 7.94991 42.4089 8.04538 42.4089 8.14178C42.4089 8.23819 42.3899 8.33365 42.353 8.42272C42.3161 8.51179 42.262 8.59272 42.1938 8.66089L38.6943 12.1606C38.6262 12.2288 38.5453 12.2829 38.4562 12.3198C38.3671 12.3567 38.2716 12.3756 38.1752 12.3755Z" fill="#F8E2DB"/>
<path d="M25.1446 44.8711C25.1446 44.8711 20.3456 45.754 19.957 45.5807V46.8287C19.957 46.9383 19.9629 47.0479 19.9746 47.1546C20.1371 48.6228 21.3822 49.7651 22.8934 49.7651H24.1658C22.889 49.7651 21.8024 48.9496 21.398 47.8113C21.3296 47.6188 21.4698 47.416 21.674 47.416H29.0598C29.5061 47.416 29.9309 47.323 30.3146 47.1546C30.3264 47.0479 30.3322 46.9383 30.3322 46.8287V45.5807C29.9437 45.754 25.1446 44.8711 25.1446 44.8711Z" fill="#8777DA"/>
<path d="M32.1924 42.718C32.1924 43.9944 31.428 45.0935 30.3327 45.581C29.9322 45.7592 29.4986 45.8509 29.0603 45.8502H21.2299C20.7767 45.8502 20.3461 45.7542 19.9575 45.581C18.8622 45.0935 18.0978 43.9944 18.0978 42.718C18.0978 42.718 18.0518 38.1431 18.043 38.0237V38.0198L25.1451 37.041L32.166 38.0198L32.1924 42.718Z" fill="#9C9EAB"/>
<path d="M23.6769 45.8499H21.2299C20.7767 45.8499 20.3461 45.754 19.9575 45.5807C18.8622 45.0933 18.0978 43.9941 18.0978 42.7177C18.0978 42.7177 18.0518 38.1429 18.043 38.0234V38.0195H20.49V38.0234C20.4988 38.1429 20.5448 42.7177 20.5448 42.7177C20.5448 43.9941 21.3092 45.0933 22.4045 45.5807C22.805 45.7589 23.2386 45.8506 23.6769 45.8499ZM32.1924 42.6688H29.6965C29.2913 42.6688 28.9624 42.3399 28.9624 41.9347C28.9624 41.5295 29.2913 41.2006 29.6965 41.2006H32.1846L32.1885 41.9347L32.1924 42.6688Z" fill="#9ABAFB"/>
<path d="M27.0067 41.9353C27.0067 42.3405 26.6778 42.6694 26.2726 42.6694H18.0987L18.082 41.2012H26.2726C26.6778 41.2012 27.0067 41.53 27.0067 41.9353Z" fill="#8777DA"/>
<path d="M25.0091 9.35923H25.0088L25.0091 9.35894C17.4498 9.24266 11.0927 15.8311 11.2287 23.3354C11.2287 27.1635 12.7449 30.6333 15.2016 33.1576C16.6493 34.6464 17.9021 36.0225 18.0411 38.0212L32.1641 38.0447C32.2434 35.9873 33.4131 34.5974 34.8705 33.0754C37.2803 30.5589 38.7641 27.1234 38.7641 23.3354C38.764 15.6206 32.6075 9.36608 25.0091 9.35923Z" fill="#E3CEFC"/>
<path d="M32.1641 38.0405V38.0444L18.0411 38.021C17.9021 36.0223 16.6493 34.6461 15.2016 33.1573C12.7449 30.633 11.2287 27.1632 11.2287 23.3351C11.0927 15.8307 17.4499 9.24247 25.0091 9.35894C25.3909 9.35894 25.7687 9.37558 26.1426 9.40593C19.1755 10.0167 13.5475 16.2702 13.6757 23.3351C13.6757 27.1632 15.1918 30.633 17.6486 33.1573C19.0962 34.6461 20.3491 36.0223 20.4881 38.021L32.1641 38.0405Z" fill="#9ABAFB"/>
<path d="M25.3424 30.3296C25.1915 30.5241 24.9981 30.6815 24.777 30.7897C24.5559 30.898 24.313 30.9542 24.0668 30.9542C23.841 30.9541 23.6177 30.9068 23.4113 30.8151C23.205 30.7234 23.0201 30.5895 22.8687 30.422L18.2684 25.3324C17.6704 24.6706 17.7219 23.6494 18.3837 23.0513C19.0454 22.4532 20.0665 22.5047 20.6648 23.1665L23.9731 26.8267L29.2515 20.0289C29.7984 19.3244 30.813 19.1967 31.5175 19.7438C32.222 20.2908 32.3496 21.3054 31.8026 22.0099L25.3424 30.3296Z" fill="#9ABAFB"/>
<path d="M24.9982 6.91726C25.4037 6.91726 25.7323 6.58868 25.7323 6.18317V1.2341C25.7323 0.828581 25.4037 0.5 24.9982 0.5C24.5927 0.5 24.2641 0.828581 24.2641 1.2341V6.18317C24.2641 6.58868 24.5927 6.91726 24.9982 6.91726ZM11.3019 12.1606C11.4396 12.2982 11.6263 12.3756 11.821 12.3756C12.0158 12.3756 12.2025 12.2982 12.3402 12.1606C12.4778 12.0229 12.5552 11.8362 12.5552 11.6415C12.5552 11.4468 12.4778 11.26 12.3402 11.1224L8.84057 7.62268C8.7029 7.485 8.51617 7.40766 8.32147 7.40766C8.12677 7.40766 7.94004 7.485 7.80237 7.62268C7.66469 7.76035 7.58735 7.94708 7.58735 8.14178C7.58735 8.33648 7.66469 8.52321 7.80237 8.66089L11.3019 12.1606ZM6.36295 24.0843H1.41378C1.00827 24.0843 0.679688 24.4129 0.679688 24.8184C0.679688 25.2239 1.00827 25.5525 1.41378 25.5525H6.36286C6.76837 25.5525 7.09695 25.2239 7.09695 24.8184C7.09695 24.4129 6.76837 24.0843 6.36295 24.0843ZM11.3019 37.4764L7.80237 40.9759C7.66469 41.1136 7.58735 41.3003 7.58735 41.495C7.58735 41.6898 7.66469 41.8765 7.80237 42.0142C7.94004 42.1518 8.12677 42.2292 8.32147 42.2292C8.51617 42.2292 8.7029 42.1518 8.84057 42.0142L12.3402 38.5146C12.4778 38.3769 12.5552 38.1902 12.5552 37.9955C12.5552 37.8008 12.4778 37.614 12.3402 37.4764C12.2025 37.3387 12.0158 37.2613 11.821 37.2613C11.6263 37.2613 11.4396 37.3387 11.3019 37.4764ZM38.6944 37.4764C38.6262 37.4082 38.5453 37.3541 38.4562 37.3172C38.3671 37.2803 38.2717 37.2613 38.1753 37.2613C38.0789 37.2613 37.9834 37.2803 37.8943 37.3172C37.8053 37.3541 37.7243 37.4082 37.6562 37.4764C37.588 37.5445 37.5339 37.6255 37.497 37.7145C37.4601 37.8036 37.4411 37.8991 37.4411 37.9955C37.4411 38.0919 37.4601 38.1873 37.497 38.2764C37.5339 38.3655 37.588 38.4464 37.6562 38.5146L41.1557 42.0142C41.2934 42.1518 41.4801 42.2292 41.6748 42.2292C41.8695 42.2292 42.0563 42.1518 42.1939 42.0142C42.3316 41.8765 42.409 41.6898 42.409 41.495C42.409 41.3003 42.3316 41.1136 42.1939 40.9759L38.6944 37.4764ZM48.5825 24.0843H43.6335C43.2279 24.0843 42.8994 24.4129 42.8994 24.8184C42.8994 25.2239 43.2279 25.5525 43.6335 25.5525H48.5825C48.988 25.5525 49.3166 25.2239 49.3166 24.8184C49.3166 24.4129 48.9879 24.0843 48.5825 24.0843ZM41.1557 7.62268L37.6562 11.1224C37.5185 11.26 37.4411 11.4468 37.4411 11.6415C37.4411 11.8362 37.5185 12.0229 37.6562 12.1606C37.7938 12.2982 37.9806 12.3756 38.1753 12.3756C38.37 12.3756 38.5567 12.2982 38.6944 12.1606L42.1939 8.66089C42.3316 8.52321 42.409 8.33648 42.409 8.14178C42.409 7.94708 42.3316 7.76035 42.1939 7.62268C42.0563 7.485 41.8695 7.40766 41.6748 7.40766C41.4801 7.40766 41.2934 7.485 41.1557 7.62268ZM39.5002 23.3346C39.5002 15.2231 32.9947 8.62399 24.9982 8.62399C22.1971 8.62399 19.4784 9.4357 17.1361 10.9713C14.8573 12.4655 13.0407 14.5674 11.8827 17.0499C11.8035 17.2259 11.7968 17.426 11.864 17.6069C11.9312 17.7878 12.0669 17.935 12.2418 18.0165C12.4167 18.0981 12.6167 18.1076 12.7985 18.0429C12.9803 17.9781 13.1293 17.8444 13.2132 17.6707C15.3606 13.0669 19.9865 10.0922 24.9982 10.0922C32.1851 10.0922 38.032 16.0327 38.032 23.3346C38.032 26.8028 36.7214 30.0818 34.3418 32.5672C32.9702 33.9997 31.8027 35.3684 31.5023 37.2863H18.6861C18.3076 35.2953 16.9495 33.8985 15.7291 32.6444C13.3014 30.1494 11.9644 26.8431 11.9644 23.3346C11.9644 22.4682 12.0473 21.6018 12.2107 20.7592C12.229 20.6645 12.2285 20.5672 12.2093 20.4727C12.19 20.3783 12.1523 20.2885 12.0984 20.2086C12.0444 20.1287 11.9753 20.0603 11.8949 20.0071C11.8144 19.9539 11.7243 19.9171 11.6297 19.8988C11.5351 19.8804 11.4377 19.8809 11.3433 19.9001C11.2488 19.9194 11.1591 19.9571 11.0792 20.011C10.9993 20.065 10.9308 20.1341 10.8776 20.2146C10.8244 20.295 10.7876 20.3851 10.7693 20.4797C10.5874 21.4205 10.496 22.3764 10.4962 23.3346C10.4962 27.2277 11.9809 30.8977 14.6769 33.6683C16.2253 35.2594 17.3213 36.5295 17.3213 38.3911C17.3213 38.3975 17.3214 38.4042 17.3216 38.4106L17.3637 42.7186C17.3637 44.1162 18.1093 45.3429 19.2234 46.0222V46.8295C19.2234 48.8535 20.8699 50.5 22.8939 50.5H27.3963C29.4203 50.5 31.0668 48.8535 31.0668 46.8295V46.0222C32.181 45.3429 32.9265 44.1162 32.9265 42.7186C32.9265 42.7186 32.9213 37.92 32.9116 37.8721C33.0508 36.1708 34.0821 34.9615 35.4023 33.5825C38.0447 30.8224 39.5002 27.1829 39.5002 23.3346ZM29.5985 46.8295C29.5985 48.0438 28.6105 49.0318 27.3962 49.0318H22.8938C21.6795 49.0318 20.6915 48.0438 20.6915 46.8295V46.5466C20.8676 46.5712 21.0471 46.5848 21.2298 46.5848H29.0602C29.2429 46.5848 29.4224 46.5711 29.5985 46.5466V46.8295ZM29.0602 45.1166H21.2298C19.9075 45.1166 18.8318 44.0409 18.8318 42.7186V42.6697H26.2706C26.6761 42.6697 27.0047 42.3411 27.0047 41.9356C27.0047 41.53 26.6761 41.2015 26.2706 41.2015H18.8318V38.7545H31.4355L31.4582 41.2015H29.6964C29.2909 41.2015 28.9623 41.53 28.9623 41.9356C28.9623 42.3411 29.2909 42.6697 29.6964 42.6697H31.4582V42.7186C31.4582 44.0409 30.3824 45.1166 29.0602 45.1166Z" fill="#9ABAFB"/>
<path d="M39.5001 23.3336C39.5001 15.2222 32.9945 8.62305 24.9981 8.62305C22.197 8.62305 19.4783 9.43476 17.136 10.9704C14.8572 12.4645 13.0406 14.5665 11.8826 17.049C11.8034 17.225 11.7967 17.4251 11.8639 17.606C11.9311 17.7869 12.0668 17.934 12.2417 18.0156C12.4166 18.0972 12.6165 18.1066 12.7983 18.0419C12.9801 17.9772 13.1292 17.8435 13.2131 17.6697C15.3605 13.066 19.9864 10.0912 24.9981 10.0912C32.185 10.0912 38.0319 16.0317 38.0319 23.3336C38.0319 26.8019 36.7213 30.0808 34.3417 32.5663C32.9701 33.9988 31.8026 35.3675 31.5022 37.2853H18.686C18.3075 35.2944 16.9494 33.8975 15.729 32.6434C13.3013 30.1485 11.9643 26.8421 11.9643 23.3336C11.9643 22.4673 12.0472 21.6009 12.2105 20.7582C12.2289 20.6636 12.2284 20.5663 12.2092 20.4718C12.1899 20.3773 12.1522 20.2876 12.0983 20.2077C12.0443 20.1278 11.9752 20.0593 11.8947 20.0061C11.8143 19.953 11.7242 19.9162 11.6296 19.8978C11.5349 19.8795 11.4376 19.8799 11.3432 19.8992C11.2487 19.9185 11.159 19.9562 11.0791 20.0101C10.9992 20.064 10.9307 20.1332 10.8775 20.2136C10.8243 20.294 10.7875 20.3841 10.7692 20.4788C10.5873 21.4195 10.4959 22.3755 10.4961 23.3336C10.4961 27.2268 11.9808 30.8968 14.6768 33.6673C16.2252 35.2585 17.3212 36.5285 17.3212 38.3901C17.3212 38.3966 17.3213 38.4032 17.3215 38.4097L17.3636 42.7177C17.3636 44.1153 18.1092 45.342 19.2233 46.0213V46.8286C19.2233 48.8525 20.8698 50.4991 22.8938 50.4991H27.3962C29.4202 50.4991 31.0667 48.8525 31.0667 46.8286V46.0213C32.1809 45.342 32.9264 44.1153 32.9264 42.7177C32.9264 42.7177 32.9212 37.919 32.9114 37.8712C33.0507 36.1698 34.082 34.9605 35.4022 33.5816C38.0446 30.8215 39.5001 27.1819 39.5001 23.3336ZM29.5984 46.8286C29.5984 48.0429 28.6104 49.0309 27.3961 49.0309H22.8937C21.6794 49.0309 20.6914 48.0429 20.6914 46.8286V46.5456C20.8675 46.5703 21.047 46.5839 21.2297 46.5839H29.0601C29.2428 46.5839 29.4223 46.5702 29.5984 46.5456V46.8286ZM29.0601 45.1157H21.2297C19.9074 45.1157 18.8317 44.04 18.8317 42.7177V42.6687H26.2705C26.676 42.6687 27.0046 42.3401 27.0046 41.9346C27.0046 41.5291 26.676 41.2005 26.2705 41.2005H18.8317V38.7535H31.4354L31.4581 41.2005H29.6963C29.2908 41.2005 28.9622 41.5291 28.9622 41.9346C28.9622 42.3401 29.2908 42.6687 29.6963 42.6687H31.4581V42.7177C31.4581 44.04 30.3823 45.1157 29.0601 45.1157Z" fill="#8777DA"/>
<path d="M29.7695 23.4316C29.6527 23.5855 29.6012 23.7794 29.6264 23.9711C29.6516 24.1627 29.7513 24.3367 29.904 24.4552C30.0567 24.5738 30.25 24.6273 30.4419 24.6043C30.6338 24.5812 30.8089 24.4833 30.9291 24.332L32.3824 22.4604C32.7673 21.9649 32.936 21.3491 32.8577 20.7265C32.82 20.4202 32.7219 20.1244 32.5691 19.8562C32.4163 19.5881 32.2119 19.3529 31.9676 19.1642C31.472 18.7794 30.8559 18.6097 30.2337 18.689C29.9274 18.7267 29.6316 18.8247 29.3634 18.9775C29.0953 19.1303 28.8601 19.3348 28.6715 19.5791L23.9303 25.6852L21.2093 22.6745C20.3406 21.7137 18.8522 21.6387 17.8915 22.507C17.662 22.7133 17.4756 22.9631 17.3433 23.242C17.211 23.5208 17.1352 23.823 17.1205 24.1313C17.1041 24.4395 17.149 24.7479 17.2525 25.0386C17.3561 25.3293 17.5163 25.5966 17.7238 25.825L22.3242 30.9148C23.2503 31.9889 25.0801 31.923 25.9224 30.7803L28.8279 27.0383C28.9448 26.8844 28.9962 26.6905 28.971 26.4989C28.9459 26.3072 28.8461 26.1332 28.6934 26.0147C28.5408 25.8961 28.3475 25.8426 28.1556 25.8656C27.9636 25.8887 27.7886 25.9866 27.6683 26.1379L24.7628 29.8799C24.4474 30.3084 23.7592 30.3333 23.4135 29.9303L18.8132 24.8406C18.4875 24.4802 18.5157 23.9221 18.8761 23.5963C19.2363 23.271 19.7945 23.2988 20.1203 23.6592L23.4286 27.3195C23.717 27.6539 24.2901 27.6347 24.553 27.2775L29.8314 20.4796C30.114 20.0997 30.6999 20.026 31.0674 20.3241C31.4475 20.6068 31.5211 21.1922 31.2229 21.5602L29.7695 23.4316Z" fill="#8777DA"/>
</g>
<defs>
<clipPath id="clip0_768_40046">
<rect width="50" height="50" fill="white" transform="translate(0 0.5)"/>
</clipPath>
</defs>
</svg>
