<svg width="24" height="24" viewBox="0 0 24 24" fill="none" xmlns="http://www.w3.org/2000/svg">
<circle cx="12" cy="12" r="12" fill="white"/>
<path d="M17.5543 12.7817V16.4286H15.3403V13.004C15.3403 12.159 15.0174 11.5809 14.2333 11.5809C13.6337 11.5809 13.2647 11.9811 13.1263 12.3369C13.0802 12.4704 13.0341 12.6482 13.0341 12.8706V16.4286H10.8201C10.8201 16.4286 10.8662 10.6469 10.8201 10.0687H13.0341V10.9582C13.3108 10.5135 13.8643 9.89084 15.0174 9.89084C16.4473 9.89084 17.5543 10.8248 17.5543 12.7817ZM8.51391 7C7.77592 7 7.26855 7.48922 7.26855 8.11186C7.26855 8.7345 7.7298 9.22372 8.46779 9.22372C9.2519 9.22372 9.71314 8.7345 9.71314 8.11186C9.75927 7.44474 9.29802 7 8.51391 7ZM7.40693 16.4286H9.62089V10.0687H7.40693V16.4286Z" fill="url(#paint0_linear_938_1872)"/>
<defs>
<linearGradient id="paint0_linear_938_1872" x1="17.9269" y1="8.03125" x2="7.2263" y2="19.4352" gradientUnits="userSpaceOnUse">
<stop stop-color="#8DC8E9"/>
<stop offset="1" stop-color="#8C5AE3"/>
</linearGradient>
</defs>
</svg>
