<svg width="205" height="50" viewBox="0 0 205 50" fill="none" xmlns="http://www.w3.org/2000/svg">
<path d="M0.741477 12.3182H6.94176L12.9119 23.5938H13.1676L19.1378 12.3182H25.3381L15.7884 29.2443V38.5H10.2912V29.2443L0.741477 12.3182ZM33.0181 38.8835C31.0323 38.8835 29.315 38.4616 27.8661 37.6179C26.4258 36.7656 25.3136 35.581 24.5295 34.0639C23.7454 32.5384 23.3533 30.7699 23.3533 28.7585C23.3533 26.7301 23.7454 24.9574 24.5295 23.4403C25.3136 21.9148 26.4258 20.7301 27.8661 19.8864C29.315 19.0341 31.0323 18.608 33.0181 18.608C35.0039 18.608 36.717 19.0341 38.1573 19.8864C39.6062 20.7301 40.7227 21.9148 41.5067 23.4403C42.2908 24.9574 42.6829 26.7301 42.6829 28.7585C42.6829 30.7699 42.2908 32.5384 41.5067 34.0639C40.7227 35.581 39.6062 36.7656 38.1573 37.6179C36.717 38.4616 35.0039 38.8835 33.0181 38.8835ZM33.0437 34.6648C33.9471 34.6648 34.7013 34.4091 35.3065 33.8977C35.9116 33.3778 36.3675 32.6705 36.6744 31.7756C36.9897 30.8807 37.1474 29.8622 37.1474 28.7202C37.1474 27.5781 36.9897 26.5597 36.6744 25.6648C36.3675 24.7699 35.9116 24.0625 35.3065 23.5426C34.7013 23.0227 33.9471 22.7628 33.0437 22.7628C32.1317 22.7628 31.3647 23.0227 30.7425 23.5426C30.1289 24.0625 29.6644 24.7699 29.3491 25.6648C29.0423 26.5597 28.8888 27.5781 28.8888 28.7202C28.8888 29.8622 29.0423 30.8807 29.3491 31.7756C29.6644 32.6705 30.1289 33.3778 30.7425 33.8977C31.3647 34.4091 32.1317 34.6648 33.0437 34.6648ZM58.8164 30.1392V18.8636H64.2624V38.5H59.0337V34.9332H58.8292C58.386 36.0838 57.6488 37.0085 56.6175 37.7074C55.5948 38.4062 54.3462 38.7557 52.8718 38.7557C51.5593 38.7557 50.4045 38.4574 49.4073 37.8608C48.4102 37.2642 47.6303 36.4162 47.0678 35.3168C46.5138 34.2173 46.2326 32.9006 46.2241 31.3665V18.8636H51.6701V30.3949C51.6786 31.554 51.9897 32.4702 52.6033 33.1435C53.217 33.8168 54.0394 34.1534 55.0707 34.1534C55.7269 34.1534 56.3406 34.0043 56.9116 33.706C57.4826 33.3991 57.9428 32.9474 58.2923 32.3509C58.6502 31.7543 58.8249 31.017 58.8164 30.1392ZM82.3967 12.3182V38.5H76.9506V12.3182H82.3967ZM95.6314 38.8835C93.6456 38.8835 91.9283 38.4616 90.4794 37.6179C89.0391 36.7656 87.9268 35.581 87.1428 34.0639C86.3587 32.5384 85.9666 30.7699 85.9666 28.7585C85.9666 26.7301 86.3587 24.9574 87.1428 23.4403C87.9268 21.9148 89.0391 20.7301 90.4794 19.8864C91.9283 19.0341 93.6456 18.608 95.6314 18.608C97.6172 18.608 99.3303 19.0341 100.771 19.8864C102.219 20.7301 103.336 21.9148 104.12 23.4403C104.904 24.9574 105.296 26.7301 105.296 28.7585C105.296 30.7699 104.904 32.5384 104.12 34.0639C103.336 35.581 102.219 36.7656 100.771 37.6179C99.3303 38.4616 97.6172 38.8835 95.6314 38.8835ZM95.657 34.6648C96.5604 34.6648 97.3146 34.4091 97.9197 33.8977C98.5249 33.3778 98.9808 32.6705 99.2876 31.7756C99.603 30.8807 99.7607 29.8622 99.7607 28.7202C99.7607 27.5781 99.603 26.5597 99.2876 25.6648C98.9808 24.7699 98.5249 24.0625 97.9197 23.5426C97.3146 23.0227 96.5604 22.7628 95.657 22.7628C94.745 22.7628 93.978 23.0227 93.3558 23.5426C92.7422 24.0625 92.2777 24.7699 91.9624 25.6648C91.6555 26.5597 91.5021 27.5781 91.5021 28.7202C91.5021 29.8622 91.6555 30.8807 91.9624 31.7756C92.2777 32.6705 92.7422 33.3778 93.3558 33.8977C93.978 34.4091 94.745 34.6648 95.657 34.6648ZM125.175 24.4631L120.19 24.7699C120.104 24.3437 119.921 23.9602 119.64 23.6193C119.359 23.2699 118.988 22.9929 118.528 22.7884C118.076 22.5753 117.535 22.4688 116.904 22.4688C116.06 22.4688 115.349 22.6477 114.769 23.0057C114.19 23.3551 113.9 23.8239 113.9 24.4119C113.9 24.8807 114.087 25.277 114.462 25.6009C114.837 25.9247 115.481 26.1847 116.393 26.3807L119.947 27.0966C121.856 27.4886 123.279 28.1193 124.217 28.9886C125.154 29.858 125.623 31 125.623 32.4148C125.623 33.7017 125.244 34.831 124.485 35.8026C123.735 36.7741 122.704 37.5327 121.391 38.0781C120.087 38.6151 118.583 38.8835 116.879 38.8835C114.279 38.8835 112.208 38.3423 110.665 37.2599C109.131 36.169 108.232 34.6861 107.968 32.8111L113.325 32.5298C113.487 33.3224 113.879 33.9276 114.501 34.3452C115.123 34.7543 115.92 34.9588 116.891 34.9588C117.846 34.9588 118.613 34.7756 119.192 34.4091C119.781 34.0341 120.079 33.5526 120.087 32.9645C120.079 32.4702 119.87 32.0653 119.461 31.75C119.052 31.4261 118.421 31.179 117.569 31.0085L114.168 30.331C112.251 29.9474 110.823 29.2827 109.886 28.3366C108.957 27.3906 108.492 26.1847 108.492 24.7188C108.492 23.4574 108.833 22.3707 109.515 21.4588C110.205 20.5469 111.173 19.8438 112.417 19.3494C113.67 18.8551 115.136 18.608 116.815 18.608C119.295 18.608 121.246 19.1321 122.67 20.1804C124.102 21.2287 124.937 22.6562 125.175 24.4631ZM138.001 38.8835C135.981 38.8835 134.243 38.4744 132.785 37.6562C131.336 36.8295 130.22 35.6619 129.436 34.1534C128.652 32.6364 128.26 30.8423 128.26 28.7713C128.26 26.7514 128.652 24.9787 129.436 23.4531C130.22 21.9276 131.324 20.7386 132.747 19.8864C134.179 19.0341 135.858 18.608 137.784 18.608C139.079 18.608 140.285 18.8168 141.402 19.2344C142.527 19.6435 143.507 20.2614 144.342 21.0881C145.186 21.9148 145.842 22.9545 146.311 24.2074C146.779 25.4517 147.014 26.9091 147.014 28.5795V30.0753H130.433V26.7003H141.887C141.887 25.9162 141.717 25.2216 141.376 24.6165C141.035 24.0114 140.562 23.5384 139.957 23.1974C139.36 22.848 138.666 22.6733 137.873 22.6733C137.047 22.6733 136.314 22.8651 135.674 23.2486C135.044 23.6236 134.549 24.1307 134.191 24.7699C133.833 25.4006 133.65 26.1037 133.642 26.8793V30.0881C133.642 31.0597 133.821 31.8991 134.179 32.6065C134.545 33.3139 135.061 33.8594 135.725 34.2429C136.39 34.6264 137.179 34.8182 138.091 34.8182C138.696 34.8182 139.25 34.733 139.752 34.5625C140.255 34.392 140.686 34.1364 141.044 33.7955C141.402 33.4545 141.674 33.0369 141.862 32.5426L146.899 32.875C146.643 34.0852 146.119 35.142 145.326 36.0455C144.542 36.9403 143.528 37.6392 142.284 38.142C141.048 38.6364 139.62 38.8835 138.001 38.8835Z" fill="#8777DA"/>
<path d="M0.741477 12.3182H6.94176L12.9119 23.5938H13.1676L19.1378 12.3182H25.3381L15.7884 29.2443V38.5H10.2912V29.2443L0.741477 12.3182ZM33.0181 38.8835C31.0323 38.8835 29.315 38.4616 27.8661 37.6179C26.4258 36.7656 25.3136 35.581 24.5295 34.0639C23.7454 32.5384 23.3533 30.7699 23.3533 28.7585C23.3533 26.7301 23.7454 24.9574 24.5295 23.4403C25.3136 21.9148 26.4258 20.7301 27.8661 19.8864C29.315 19.0341 31.0323 18.608 33.0181 18.608C35.0039 18.608 36.717 19.0341 38.1573 19.8864C39.6062 20.7301 40.7227 21.9148 41.5067 23.4403C42.2908 24.9574 42.6829 26.7301 42.6829 28.7585C42.6829 30.7699 42.2908 32.5384 41.5067 34.0639C40.7227 35.581 39.6062 36.7656 38.1573 37.6179C36.717 38.4616 35.0039 38.8835 33.0181 38.8835ZM33.0437 34.6648C33.9471 34.6648 34.7013 34.4091 35.3065 33.8977C35.9116 33.3778 36.3675 32.6705 36.6744 31.7756C36.9897 30.8807 37.1474 29.8622 37.1474 28.7202C37.1474 27.5781 36.9897 26.5597 36.6744 25.6648C36.3675 24.7699 35.9116 24.0625 35.3065 23.5426C34.7013 23.0227 33.9471 22.7628 33.0437 22.7628C32.1317 22.7628 31.3647 23.0227 30.7425 23.5426C30.1289 24.0625 29.6644 24.7699 29.3491 25.6648C29.0423 26.5597 28.8888 27.5781 28.8888 28.7202C28.8888 29.8622 29.0423 30.8807 29.3491 31.7756C29.6644 32.6705 30.1289 33.3778 30.7425 33.8977C31.3647 34.4091 32.1317 34.6648 33.0437 34.6648ZM58.8164 30.1392V18.8636H64.2624V38.5H59.0337V34.9332H58.8292C58.386 36.0838 57.6488 37.0085 56.6175 37.7074C55.5948 38.4062 54.3462 38.7557 52.8718 38.7557C51.5593 38.7557 50.4045 38.4574 49.4073 37.8608C48.4102 37.2642 47.6303 36.4162 47.0678 35.3168C46.5138 34.2173 46.2326 32.9006 46.2241 31.3665V18.8636H51.6701V30.3949C51.6786 31.554 51.9897 32.4702 52.6033 33.1435C53.217 33.8168 54.0394 34.1534 55.0707 34.1534C55.7269 34.1534 56.3406 34.0043 56.9116 33.706C57.4826 33.3991 57.9428 32.9474 58.2923 32.3509C58.6502 31.7543 58.8249 31.017 58.8164 30.1392ZM82.3967 12.3182V38.5H76.9506V12.3182H82.3967ZM95.6314 38.8835C93.6456 38.8835 91.9283 38.4616 90.4794 37.6179C89.0391 36.7656 87.9268 35.581 87.1428 34.0639C86.3587 32.5384 85.9666 30.7699 85.9666 28.7585C85.9666 26.7301 86.3587 24.9574 87.1428 23.4403C87.9268 21.9148 89.0391 20.7301 90.4794 19.8864C91.9283 19.0341 93.6456 18.608 95.6314 18.608C97.6172 18.608 99.3303 19.0341 100.771 19.8864C102.219 20.7301 103.336 21.9148 104.12 23.4403C104.904 24.9574 105.296 26.7301 105.296 28.7585C105.296 30.7699 104.904 32.5384 104.12 34.0639C103.336 35.581 102.219 36.7656 100.771 37.6179C99.3303 38.4616 97.6172 38.8835 95.6314 38.8835ZM95.657 34.6648C96.5604 34.6648 97.3146 34.4091 97.9197 33.8977C98.5249 33.3778 98.9808 32.6705 99.2876 31.7756C99.603 30.8807 99.7607 29.8622 99.7607 28.7202C99.7607 27.5781 99.603 26.5597 99.2876 25.6648C98.9808 24.7699 98.5249 24.0625 97.9197 23.5426C97.3146 23.0227 96.5604 22.7628 95.657 22.7628C94.745 22.7628 93.978 23.0227 93.3558 23.5426C92.7422 24.0625 92.2777 24.7699 91.9624 25.6648C91.6555 26.5597 91.5021 27.5781 91.5021 28.7202C91.5021 29.8622 91.6555 30.8807 91.9624 31.7756C92.2777 32.6705 92.7422 33.3778 93.3558 33.8977C93.978 34.4091 94.745 34.6648 95.657 34.6648ZM125.175 24.4631L120.19 24.7699C120.104 24.3437 119.921 23.9602 119.64 23.6193C119.359 23.2699 118.988 22.9929 118.528 22.7884C118.076 22.5753 117.535 22.4688 116.904 22.4688C116.06 22.4688 115.349 22.6477 114.769 23.0057C114.19 23.3551 113.9 23.8239 113.9 24.4119C113.9 24.8807 114.087 25.277 114.462 25.6009C114.837 25.9247 115.481 26.1847 116.393 26.3807L119.947 27.0966C121.856 27.4886 123.279 28.1193 124.217 28.9886C125.154 29.858 125.623 31 125.623 32.4148C125.623 33.7017 125.244 34.831 124.485 35.8026C123.735 36.7741 122.704 37.5327 121.391 38.0781C120.087 38.6151 118.583 38.8835 116.879 38.8835C114.279 38.8835 112.208 38.3423 110.665 37.2599C109.131 36.169 108.232 34.6861 107.968 32.8111L113.325 32.5298C113.487 33.3224 113.879 33.9276 114.501 34.3452C115.123 34.7543 115.92 34.9588 116.891 34.9588C117.846 34.9588 118.613 34.7756 119.192 34.4091C119.781 34.0341 120.079 33.5526 120.087 32.9645C120.079 32.4702 119.87 32.0653 119.461 31.75C119.052 31.4261 118.421 31.179 117.569 31.0085L114.168 30.331C112.251 29.9474 110.823 29.2827 109.886 28.3366C108.957 27.3906 108.492 26.1847 108.492 24.7188C108.492 23.4574 108.833 22.3707 109.515 21.4588C110.205 20.5469 111.173 19.8438 112.417 19.3494C113.67 18.8551 115.136 18.608 116.815 18.608C119.295 18.608 121.246 19.1321 122.67 20.1804C124.102 21.2287 124.937 22.6562 125.175 24.4631ZM138.001 38.8835C135.981 38.8835 134.243 38.4744 132.785 37.6562C131.336 36.8295 130.22 35.6619 129.436 34.1534C128.652 32.6364 128.26 30.8423 128.26 28.7713C128.26 26.7514 128.652 24.9787 129.436 23.4531C130.22 21.9276 131.324 20.7386 132.747 19.8864C134.179 19.0341 135.858 18.608 137.784 18.608C139.079 18.608 140.285 18.8168 141.402 19.2344C142.527 19.6435 143.507 20.2614 144.342 21.0881C145.186 21.9148 145.842 22.9545 146.311 24.2074C146.779 25.4517 147.014 26.9091 147.014 28.5795V30.0753H130.433V26.7003H141.887C141.887 25.9162 141.717 25.2216 141.376 24.6165C141.035 24.0114 140.562 23.5384 139.957 23.1974C139.36 22.848 138.666 22.6733 137.873 22.6733C137.047 22.6733 136.314 22.8651 135.674 23.2486C135.044 23.6236 134.549 24.1307 134.191 24.7699C133.833 25.4006 133.65 26.1037 133.642 26.8793V30.0881C133.642 31.0597 133.821 31.8991 134.179 32.6065C134.545 33.3139 135.061 33.8594 135.725 34.2429C136.39 34.6264 137.179 34.8182 138.091 34.8182C138.696 34.8182 139.25 34.733 139.752 34.5625C140.255 34.392 140.686 34.1364 141.044 33.7955C141.402 33.4545 141.674 33.0369 141.862 32.5426L146.899 32.875C146.643 34.0852 146.119 35.142 145.326 36.0455C144.542 36.9403 143.528 37.6392 142.284 38.142C141.048 38.6364 139.62 38.8835 138.001 38.8835Z" fill="url(#paint0_linear_768_40059)"/>
<path d="M180 49C166.767 49 156 38.2335 156 25C156 11.7665 166.767 1 180 1C193.233 1 204 11.7665 204 25C204 38.2335 193.233 49 180 49ZM180 4C168.42 4 159 13.4205 159 25C159 36.5795 168.42 46 180 46C191.579 46 201 36.5795 201 25C201 13.4205 191.579 4 180 4ZM191.171 35.342C191.347 35.2539 191.504 35.132 191.633 34.9832C191.763 34.8344 191.861 34.6616 191.923 34.4747C191.986 34.2878 192.011 34.0905 191.997 33.894C191.983 33.6975 191.93 33.5057 191.842 33.3295C191.702 33.05 188.332 26.5 180 26.5C171.668 26.5 168.298 33.05 168.158 33.329C167.981 33.6834 167.952 34.0936 168.076 34.4696C168.201 34.8456 168.47 35.1568 168.824 35.335C169.179 35.5133 169.589 35.5442 169.966 35.421C170.344 35.2979 170.657 35.0306 170.838 34.6775C170.946 34.466 173.565 29.5 180 29.5C186.435 29.5 189.054 34.466 189.158 34.671C189.283 34.9206 189.474 35.1304 189.712 35.2769C189.949 35.4234 190.223 35.5007 190.501 35.5C190.726 35.5 190.956 35.4495 191.171 35.342ZM187.5 22C185.846 22 184.5 20.6545 184.5 19C184.5 17.3455 185.846 16 187.5 16C189.154 16 190.5 17.3455 190.5 19C190.5 20.6545 189.154 22 187.5 22ZM172.5 22C170.845 22 169.5 20.6545 169.5 19C169.5 17.3455 170.845 16 172.5 16C174.154 16 175.5 17.3455 175.5 19C175.5 20.6545 174.154 22 172.5 22Z" fill="#8777DA"/>
<path d="M180 49C166.767 49 156 38.2335 156 25C156 11.7665 166.767 1 180 1C193.233 1 204 11.7665 204 25C204 38.2335 193.233 49 180 49ZM180 4C168.42 4 159 13.4205 159 25C159 36.5795 168.42 46 180 46C191.579 46 201 36.5795 201 25C201 13.4205 191.579 4 180 4ZM191.171 35.342C191.347 35.2539 191.504 35.132 191.633 34.9832C191.763 34.8344 191.861 34.6616 191.923 34.4747C191.986 34.2878 192.011 34.0905 191.997 33.894C191.983 33.6975 191.93 33.5057 191.842 33.3295C191.702 33.05 188.332 26.5 180 26.5C171.668 26.5 168.298 33.05 168.158 33.329C167.981 33.6834 167.952 34.0936 168.076 34.4696C168.201 34.8456 168.47 35.1568 168.824 35.335C169.179 35.5133 169.589 35.5442 169.966 35.421C170.344 35.2979 170.657 35.0306 170.838 34.6775C170.946 34.466 173.565 29.5 180 29.5C186.435 29.5 189.054 34.466 189.158 34.671C189.283 34.9206 189.474 35.1304 189.712 35.2769C189.949 35.4234 190.223 35.5007 190.501 35.5C190.726 35.5 190.956 35.4495 191.171 35.342ZM187.5 22C185.846 22 184.5 20.6545 184.5 19C184.5 17.3455 185.846 16 187.5 16C189.154 16 190.5 17.3455 190.5 19C190.5 20.6545 189.154 22 187.5 22ZM172.5 22C170.845 22 169.5 20.6545 169.5 19C169.5 17.3455 170.845 16 172.5 16C174.154 16 175.5 17.3455 175.5 19C175.5 20.6545 174.154 22 172.5 22Z" fill="url(#paint1_linear_768_40059)"/>
<defs>
<linearGradient id="paint0_linear_768_40059" x1="154.399" y1="6.64063" x2="123.141" y2="103.446" gradientUnits="userSpaceOnUse">
<stop stop-color="#8DC8E9"/>
<stop offset="1" stop-color="#8C5AE3"/>
</linearGradient>
<linearGradient id="paint1_linear_768_40059" x1="205.739" y1="6.25" x2="151.168" y2="59.5619" gradientUnits="userSpaceOnUse">
<stop stop-color="#8DC8E9"/>
<stop offset="1" stop-color="#8C5AE3"/>
</linearGradient>
</defs>
</svg>
