<svg width="145" height="144" viewBox="0 0 145 144" fill="none" xmlns="http://www.w3.org/2000/svg">
<path d="M72.459 144C32.7585 144 0.458984 111.701 0.458984 72C0.458984 32.2995 32.7585 0 72.459 0C112.159 0 144.459 32.2995 144.459 72C144.459 111.701 112.159 144 72.459 144ZM72.459 9C37.7205 9 9.45898 37.2615 9.45898 72C9.45898 106.739 37.7205 135 72.459 135C107.197 135 135.459 106.739 135.459 72C135.459 37.2615 107.197 9 72.459 9ZM105.972 103.026C106.501 102.762 106.972 102.396 107.359 101.95C107.747 101.503 108.042 100.985 108.229 100.424C108.416 99.8635 108.491 99.2716 108.449 98.6821C108.407 98.0926 108.249 97.5171 107.985 96.9885C107.565 96.15 97.4535 76.5 72.459 76.5C47.4645 76.5 37.353 96.15 36.933 96.987C36.4019 98.0503 36.3139 99.2808 36.6885 100.409C37.063 101.537 37.8694 102.47 38.931 103.005C39.9946 103.54 41.2265 103.633 42.3582 103.263C43.49 102.894 44.4298 102.092 44.973 101.033C45.2985 100.398 53.154 85.5 72.459 85.5C91.764 85.5 99.6195 100.398 99.933 101.013C100.307 101.762 100.882 102.391 101.594 102.831C102.306 103.27 103.127 103.502 103.963 103.5C104.638 103.5 105.325 103.348 105.972 103.026ZM94.959 63C89.9955 63 85.959 58.9635 85.959 54C85.959 49.0365 89.9955 45 94.959 45C99.9225 45 103.959 49.0365 103.959 54C103.959 58.9635 99.9225 63 94.959 63ZM49.959 63C44.9955 63 40.959 58.9635 40.959 54C40.959 49.0365 44.9955 45 49.959 45C54.9225 45 58.959 49.0365 58.959 54C58.959 58.9635 54.9225 63 49.959 63Z" fill="#8777DA"/>
<path d="M72.459 144C32.7585 144 0.458984 111.701 0.458984 72C0.458984 32.2995 32.7585 0 72.459 0C112.159 0 144.459 32.2995 144.459 72C144.459 111.701 112.159 144 72.459 144ZM72.459 9C37.7205 9 9.45898 37.2615 9.45898 72C9.45898 106.739 37.7205 135 72.459 135C107.197 135 135.459 106.739 135.459 72C135.459 37.2615 107.197 9 72.459 9ZM105.972 103.026C106.501 102.762 106.972 102.396 107.359 101.95C107.747 101.503 108.042 100.985 108.229 100.424C108.416 99.8635 108.491 99.2716 108.449 98.6821C108.407 98.0926 108.249 97.5171 107.985 96.9885C107.565 96.15 97.4535 76.5 72.459 76.5C47.4645 76.5 37.353 96.15 36.933 96.987C36.4019 98.0503 36.3139 99.2808 36.6885 100.409C37.063 101.537 37.8694 102.47 38.931 103.005C39.9946 103.54 41.2265 103.633 42.3582 103.263C43.49 102.894 44.4298 102.092 44.973 101.033C45.2985 100.398 53.154 85.5 72.459 85.5C91.764 85.5 99.6195 100.398 99.933 101.013C100.307 101.762 100.882 102.391 101.594 102.831C102.306 103.27 103.127 103.502 103.963 103.5C104.638 103.5 105.325 103.348 105.972 103.026ZM94.959 63C89.9955 63 85.959 58.9635 85.959 54C85.959 49.0365 89.9955 45 94.959 45C99.9225 45 103.959 49.0365 103.959 54C103.959 58.9635 99.9225 63 94.959 63ZM49.959 63C44.9955 63 40.959 58.9635 40.959 54C40.959 49.0365 44.9955 45 49.959 45C54.9225 45 58.959 49.0365 58.959 54C58.959 58.9635 54.9225 63 49.959 63Z" fill="url(#paint0_linear_768_24908)"/>
<defs>
<linearGradient id="paint0_linear_768_24908" x1="149.676" y1="15.75" x2="-14.0382" y2="175.686" gradientUnits="userSpaceOnUse">
<stop stop-color="#8DC8E9"/>
<stop offset="1" stop-color="#8C5AE3"/>
</linearGradient>
</defs>
</svg>
