<svg width="48" height="48" viewBox="0 0 48 48" fill="none" xmlns="http://www.w3.org/2000/svg">
<path d="M24 48C10.7665 48 0 37.2335 0 24C0 10.7665 10.7665 0 24 0C37.2335 0 48 10.7665 48 24C48 37.2335 37.2335 48 24 48ZM24 3C12.4205 3 3 12.4205 3 24C3 35.5795 12.4205 45 24 45C35.5795 45 45 35.5795 45 24C45 12.4205 35.5795 3 24 3ZM35.171 34.342C35.3472 34.2539 35.5043 34.132 35.6334 33.9832C35.7625 33.8344 35.861 33.6616 35.9233 33.4747C35.9856 33.2878 36.0105 33.0905 35.9966 32.894C35.9826 32.6975 35.9301 32.5057 35.842 32.3295C35.702 32.05 32.3315 25.5 24 25.5C15.6685 25.5 12.298 32.05 12.158 32.329C11.981 32.6834 11.9517 33.0936 12.0765 33.4696C12.2013 33.8456 12.4701 34.1568 12.824 34.335C13.1785 34.5133 13.5892 34.5442 13.9664 34.421C14.3437 34.2979 14.6569 34.0306 14.838 33.6775C14.9465 33.466 17.565 28.5 24 28.5C30.435 28.5 33.0535 33.466 33.158 33.671C33.2825 33.9206 33.4743 34.1304 33.7116 34.2769C33.949 34.4234 34.2226 34.5007 34.5015 34.5C34.7265 34.5 34.9555 34.4495 35.171 34.342ZM31.5 21C29.8455 21 28.5 19.6545 28.5 18C28.5 16.3455 29.8455 15 31.5 15C33.1545 15 34.5 16.3455 34.5 18C34.5 19.6545 33.1545 21 31.5 21ZM16.5 21C14.8455 21 13.5 19.6545 13.5 18C13.5 16.3455 14.8455 15 16.5 15C18.1545 15 19.5 16.3455 19.5 18C19.5 19.6545 18.1545 21 16.5 21Z" fill="#8777DA"/>
<path d="M24 48C10.7665 48 0 37.2335 0 24C0 10.7665 10.7665 0 24 0C37.2335 0 48 10.7665 48 24C48 37.2335 37.2335 48 24 48ZM24 3C12.4205 3 3 12.4205 3 24C3 35.5795 12.4205 45 24 45C35.5795 45 45 35.5795 45 24C45 12.4205 35.5795 3 24 3ZM35.171 34.342C35.3472 34.2539 35.5043 34.132 35.6334 33.9832C35.7625 33.8344 35.861 33.6616 35.9233 33.4747C35.9856 33.2878 36.0105 33.0905 35.9966 32.894C35.9826 32.6975 35.9301 32.5057 35.842 32.3295C35.702 32.05 32.3315 25.5 24 25.5C15.6685 25.5 12.298 32.05 12.158 32.329C11.981 32.6834 11.9517 33.0936 12.0765 33.4696C12.2013 33.8456 12.4701 34.1568 12.824 34.335C13.1785 34.5133 13.5892 34.5442 13.9664 34.421C14.3437 34.2979 14.6569 34.0306 14.838 33.6775C14.9465 33.466 17.565 28.5 24 28.5C30.435 28.5 33.0535 33.466 33.158 33.671C33.2825 33.9206 33.4743 34.1304 33.7116 34.2769C33.949 34.4234 34.2226 34.5007 34.5015 34.5C34.7265 34.5 34.9555 34.4495 35.171 34.342ZM31.5 21C29.8455 21 28.5 19.6545 28.5 18C28.5 16.3455 29.8455 15 31.5 15C33.1545 15 34.5 16.3455 34.5 18C34.5 19.6545 33.1545 21 31.5 21ZM16.5 21C14.8455 21 13.5 19.6545 13.5 18C13.5 16.3455 14.8455 15 16.5 15C18.1545 15 19.5 16.3455 19.5 18C19.5 19.6545 18.1545 21 16.5 21Z" fill="url(#paint0_linear_768_24371)"/>
<defs>
<linearGradient id="paint0_linear_768_24371" x1="49.7391" y1="5.25" x2="-4.8324" y2="58.5619" gradientUnits="userSpaceOnUse">
<stop stop-color="#8DC8E9"/>
<stop offset="1" stop-color="#8C5AE3"/>
</linearGradient>
</defs>
</svg>
