<svg width="25" height="24" viewBox="0 0 25 24" fill="none" xmlns="http://www.w3.org/2000/svg">
<path fill-rule="evenodd" clip-rule="evenodd" d="M10.4238 11.168L12.6609 16.1292L15.9904 14.2099L15.9929 14.2089V10.3672L10.4238 11.168Z" fill="#2BBDF7"/>
<path fill-rule="evenodd" clip-rule="evenodd" d="M20.2992 7.4866L18.221 6.70382L16 6.52441V18.463L19.332 20.3833L21.962 15.0011L20.3032 9.79682L20.2992 7.4866Z" fill="#2891F9"/>
<path fill-rule="evenodd" clip-rule="evenodd" d="M20.0911 6.52832L19.3194 8.44817H19.3184V20.3852L22.6509 18.4654V6.52832H20.0911Z" fill="#2BBDF7"/>
<path fill-rule="evenodd" clip-rule="evenodd" d="M19.3325 4.60547L16 6.52682L19.3325 8.44768L22.6651 6.52682L19.3325 4.60547Z" fill="#2B6DEF"/>
<path fill-rule="evenodd" clip-rule="evenodd" d="M12.6627 12.2865V12.2855L9.33063 8.55702L2.66602 6.52441V18.4615L5.99757 20.3823L6.94971 13.7764L9.33063 14.2088V14.2068L12.6632 16.1272V12.2865H12.6627Z" fill="#2891F9"/>
<path fill-rule="evenodd" clip-rule="evenodd" d="M5.99957 4.60547L2.66602 6.52632L12.6617 12.2904L14.1721 11.4199L15.9937 10.3691L5.99957 4.60547Z" fill="#2B6DEF"/>
<path fill-rule="evenodd" clip-rule="evenodd" d="M6.0005 12.2871H6V20.3824L9.33254 18.4621V14.2079L6.0005 12.2871Z" fill="#2BBDF7"/>
</svg>
