<svg width="90" height="90" viewBox="0 0 90 90" fill="none" xmlns="http://www.w3.org/2000/svg">
<g clip-path="url(#clip0_768_24882)">
<path d="M54.6012 81.1465V83.3928C54.6012 83.5901 54.5906 83.7875 54.5694 83.9795C54.277 86.6222 52.0359 88.6783 49.3157 88.6783H41.2113C38.491 88.6783 36.25 86.6222 35.9575 83.9795C35.9364 83.7875 35.9258 83.5901 35.9258 83.3928V81.1465C36.6252 81.4583 37.4004 81.631 38.2162 81.631H52.3108C53.1265 81.631 53.9017 81.4583 54.6012 81.1465Z" fill="#9C9EAB"/>
<path d="M44.9999 11.5511C44.8264 11.5511 44.6545 11.5169 44.4942 11.4505C44.3339 11.3841 44.1882 11.2868 44.0655 11.1641C43.9428 11.0414 43.8455 10.8957 43.7791 10.7354C43.7127 10.5751 43.6785 10.4032 43.6785 10.2297V1.32137C43.6785 0.591446 44.27 0 44.9999 0C45.7298 0 46.3213 0.591446 46.3213 1.32137V10.2297C46.3213 10.4032 46.2871 10.5751 46.2207 10.7354C46.1543 10.8957 46.0569 11.0414 45.9342 11.1641C45.8115 11.2868 45.6659 11.3841 45.5056 11.4505C45.3452 11.5169 45.1734 11.5511 44.9999 11.5511ZM21.2811 21.3759C21.1075 21.3761 20.9356 21.3421 20.7753 21.2757C20.6149 21.2093 20.4692 21.1119 20.3466 20.989L14.0474 14.6896C13.7996 14.4418 13.6604 14.1057 13.6604 13.7552C13.6604 13.4047 13.7996 13.0686 14.0474 12.8208C14.2952 12.573 14.6313 12.4338 14.9818 12.4338C15.3322 12.4338 15.6683 12.573 15.9162 12.8208L22.2154 19.1202C22.4002 19.305 22.526 19.5405 22.577 19.7968C22.628 20.0531 22.6018 20.3188 22.5018 20.5602C22.4018 20.8016 22.2324 21.008 22.0152 21.1532C21.7979 21.2984 21.5424 21.3759 21.2811 21.3759ZM11.4564 45.0945H2.54793C1.81801 45.0945 1.22656 44.5031 1.22656 43.7732C1.22656 43.0432 1.81801 42.4518 2.54793 42.4518H11.4563C12.1862 42.4518 12.7776 43.0432 12.7776 43.7732C12.7776 44.5031 12.1862 45.0945 11.4564 45.0945ZM14.9819 75.1126C14.7205 75.1126 14.465 75.0351 14.2477 74.8899C14.0304 74.7447 13.8611 74.5384 13.761 74.2969C13.661 74.0555 13.6348 73.7898 13.6858 73.5335C13.7368 73.2771 13.8626 73.0417 14.0474 72.8569L20.3466 66.5576C20.4693 66.4349 20.615 66.3376 20.7753 66.2712C20.9357 66.2048 21.1075 66.1706 21.281 66.1706C21.4545 66.1706 21.6264 66.2048 21.7867 66.2712C21.947 66.3376 22.0927 66.4349 22.2154 66.5576C22.3381 66.6804 22.4354 66.826 22.5018 66.9863C22.5683 67.1467 22.6024 67.3185 22.6024 67.492C22.6024 67.6656 22.5683 67.8374 22.5018 67.9977C22.4354 68.158 22.3381 68.3037 22.2154 68.4264L15.9162 74.7257C15.7936 74.8485 15.6479 74.9459 15.4876 75.0123C15.3273 75.0787 15.1554 75.1128 14.9819 75.1126ZM75.0177 75.1126C74.8442 75.1128 74.6723 75.0787 74.5119 75.0123C74.3516 74.9459 74.2059 74.8485 74.0833 74.7257L67.784 68.4264C67.6613 68.3037 67.564 68.158 67.4976 67.9977C67.4312 67.8374 67.397 67.6656 67.397 67.492C67.397 67.3185 67.4312 67.1467 67.4976 66.9863C67.564 66.826 67.6613 66.6804 67.784 66.5576C67.9067 66.4349 68.0524 66.3376 68.2127 66.2712C68.3731 66.2048 68.5449 66.1706 68.7184 66.1706C68.8919 66.1706 69.0638 66.2048 69.2241 66.2712C69.3844 66.3376 69.5301 66.4349 69.6528 66.5576L75.952 72.8569C76.1368 73.0417 76.2626 73.2771 76.3136 73.5334C76.3646 73.7897 76.3384 74.0554 76.2384 74.2968C76.1384 74.5383 75.9691 74.7446 75.7518 74.8898C75.5345 75.035 75.2791 75.1125 75.0177 75.1126ZM87.4517 45.0945H78.5433C77.8134 45.0945 77.222 44.5031 77.222 43.7732C77.222 43.0432 77.8134 42.4518 78.5433 42.4518H87.4517C88.1816 42.4518 88.773 43.0432 88.773 43.7732C88.773 44.5031 88.1814 45.0945 87.4517 45.0945ZM68.7185 21.3759C68.4572 21.3759 68.2017 21.2984 67.9844 21.1533C67.7671 21.0081 67.5977 20.8017 67.4977 20.5603C67.3977 20.3188 67.3715 20.0531 67.4224 19.7968C67.4734 19.5405 67.5992 19.305 67.784 19.1202L74.0833 12.8208C74.206 12.6981 74.3516 12.6008 74.512 12.5344C74.6723 12.468 74.8441 12.4338 75.0177 12.4338C75.1912 12.4338 75.363 12.468 75.5233 12.5344C75.6837 12.6008 75.8293 12.6981 75.952 12.8208C76.0747 12.9435 76.1721 13.0892 76.2385 13.2495C76.3049 13.4098 76.3391 13.5817 76.3391 13.7552C76.3391 13.9287 76.3049 14.1006 76.2385 14.2609C76.1721 14.4212 76.0747 14.5669 75.952 14.6896L69.6528 20.989C69.5302 21.1119 69.3846 21.2093 69.2243 21.2757C69.0639 21.3421 68.892 21.3761 68.7185 21.3759Z" fill="#F8E2DB"/>
<path d="M45.2635 79.8691C45.2635 79.8691 36.6252 81.4583 35.9258 81.1465V83.3928C35.9258 83.5901 35.9364 83.7874 35.9575 83.9795C36.25 86.6222 38.491 88.6783 41.2113 88.6783H43.5016C41.2033 88.6783 39.2475 87.2105 38.5195 85.1615C38.3964 84.8149 38.6487 84.4499 39.0164 84.4499H52.3108C53.1142 84.4499 53.8788 84.2825 54.5694 83.9795C54.5906 83.7874 54.6012 83.5901 54.6012 83.3928V81.1465C53.9017 81.4583 45.2635 79.8691 45.2635 79.8691Z" fill="#8777DA"/>
<path d="M57.9495 75.994C57.9495 78.2914 56.5735 80.27 54.602 81.1473C53.8811 81.4681 53.1006 81.6332 52.3116 81.6318H38.217C37.4013 81.6318 36.6261 81.4592 35.9266 81.1473C33.9551 80.27 32.5791 78.2914 32.5791 75.994C32.5791 75.994 32.4963 67.7592 32.4805 67.5443V67.5372L45.2643 65.7754L57.9019 67.5372L57.9495 75.994Z" fill="#9C9EAB"/>
<path d="M42.6216 81.6317H38.217C37.4013 81.6317 36.6261 81.4591 35.9266 81.1472C33.9551 80.2698 32.5791 78.2913 32.5791 75.9939C32.5791 75.9939 32.4963 67.7591 32.4805 67.5442V67.5371H36.885V67.5442C36.9009 67.7591 36.9837 75.9939 36.9837 75.9939C36.9837 78.2913 38.3597 80.2698 40.3312 81.1472C41.0521 81.468 41.8325 81.6331 42.6216 81.6317ZM57.9495 75.9058H53.4568C52.7274 75.9058 52.1354 75.3138 52.1354 74.5844C52.1354 73.855 52.7274 73.2631 53.4568 73.2631H57.9354L57.9424 74.5844L57.9495 75.9058Z" fill="#9ABAFB"/>
<path d="M48.6112 74.5831C48.6112 75.3125 48.0193 75.9045 47.2899 75.9045H32.5768L32.5469 73.2617H47.2899C48.0193 73.2617 48.6112 73.8537 48.6112 74.5831Z" fill="#8777DA"/>
<path d="M45.0235 15.9447H45.023L45.0235 15.9441C31.4167 15.7348 19.974 27.594 20.2187 41.1018C20.2187 47.9923 22.9478 54.238 27.37 58.7818C29.9757 61.4615 32.2308 63.9386 32.481 67.5363L57.9024 67.5786C58.0452 63.8752 60.1505 61.3734 62.7739 58.6338C67.1115 54.1041 69.7824 47.9201 69.7824 41.1018C69.7823 27.2151 58.7005 15.957 45.0235 15.9447Z" fill="#E3CEFC"/>
<path d="M57.9025 67.571V67.578L32.481 67.5358C32.2308 63.9381 29.9757 61.461 27.37 58.7812C22.9478 54.2375 20.2187 47.9918 20.2187 41.1013C19.9738 27.5934 31.4169 15.7345 45.0235 15.9441C45.7106 15.9441 46.3907 15.9741 47.0637 16.0287C34.523 17.1281 24.3925 28.3844 24.6233 41.1013C24.6233 47.9918 27.3523 54.2375 31.7745 58.7812C34.3803 61.461 36.6354 63.9381 36.8856 67.5358L57.9025 67.571Z" fill="#9ABAFB"/>
<path d="M45.6223 53.6949C45.3506 54.0449 45.0024 54.3282 44.6044 54.5231C44.2065 54.7179 43.7692 54.8192 43.3261 54.8191C42.9196 54.819 42.5177 54.7337 42.1463 54.5688C41.7748 54.4038 41.4421 54.1627 41.1696 53.8612L32.889 44.6998C31.8125 43.5087 31.9054 41.6706 33.0965 40.5939C34.2875 39.5172 36.1255 39.6101 37.2025 40.8013L43.1575 47.3896L52.6585 35.1535C53.643 33.8856 55.4693 33.6556 56.7373 34.6403C58.0054 35.625 58.2352 37.4513 57.2505 38.7193L45.6223 53.6949Z" fill="#9ABAFB"/>
<path d="M44.9999 11.5511C45.7298 11.5511 46.3213 10.9596 46.3213 10.2297V1.32137C46.3213 0.591446 45.7298 0 44.9999 0C44.27 0 43.6785 0.591446 43.6785 1.32137V10.2297C43.6785 10.9596 44.27 11.5511 44.9999 11.5511ZM20.3466 20.989C20.5944 21.2368 20.9306 21.376 21.281 21.376C21.6315 21.376 21.9676 21.2368 22.2154 20.989C22.4632 20.7412 22.6024 20.4051 22.6024 20.0546C22.6024 19.7042 22.4632 19.3681 22.2154 19.1202L15.9162 12.8208C15.6683 12.573 15.3322 12.4338 14.9818 12.4338C14.6313 12.4338 14.2952 12.573 14.0474 12.8208C13.7996 13.0686 13.6604 13.4047 13.6604 13.7552C13.6604 14.1057 13.7996 14.4418 14.0474 14.6896L20.3466 20.989ZM11.4564 42.4518H2.54793C1.81801 42.4518 1.22656 43.0432 1.22656 43.7732C1.22656 44.5031 1.81801 45.0945 2.54793 45.0945H11.4563C12.1862 45.0945 12.7776 44.5031 12.7776 43.7732C12.7776 43.0432 12.1862 42.4518 11.4564 42.4518ZM20.3466 66.5575L14.0474 72.8567C13.7996 73.1045 13.6604 73.4406 13.6604 73.7911C13.6604 74.1416 13.7996 74.4777 14.0474 74.7255C14.2952 74.9733 14.6313 75.1125 14.9818 75.1125C15.3322 75.1125 15.6683 74.9733 15.9162 74.7255L22.2154 68.4262C22.4632 68.1784 22.6024 67.8423 22.6024 67.4918C22.6024 67.1414 22.4632 66.8053 22.2154 66.5575C21.9676 66.3096 21.6315 66.1704 21.281 66.1704C20.9306 66.1704 20.5944 66.3096 20.3466 66.5575ZM69.653 66.5575C69.5303 66.4348 69.3846 66.3374 69.2243 66.271C69.064 66.2046 68.8921 66.1704 68.7186 66.1704C68.5451 66.1704 68.3732 66.2046 68.2129 66.271C68.0526 66.3374 67.9069 66.4348 67.7842 66.5575C67.6615 66.6802 67.5642 66.8258 67.4978 66.9862C67.4313 67.1465 67.3972 67.3183 67.3972 67.4918C67.3972 67.6654 67.4313 67.8372 67.4978 67.9975C67.5642 68.1579 67.6615 68.3035 67.7842 68.4262L74.0835 74.7255C74.3313 74.9733 74.6674 75.1125 75.0178 75.1125C75.3683 75.1125 75.7044 74.9733 75.9522 74.7255C76.2 74.4777 76.3393 74.1416 76.3393 73.7911C76.3393 73.4406 76.2 73.1045 75.9522 72.8567L69.653 66.5575ZM87.4517 42.4518H78.5433C77.8134 42.4518 77.222 43.0432 77.222 43.7732C77.222 44.5031 77.8134 45.0945 78.5433 45.0945H87.4517C88.1816 45.0945 88.773 44.5031 88.773 43.7732C88.773 43.0432 88.1814 42.4518 87.4517 42.4518ZM74.0835 12.8208L67.7842 19.1202C67.5364 19.3681 67.3972 19.7042 67.3972 20.0546C67.3972 20.4051 67.5364 20.7412 67.7842 20.989C68.032 21.2368 68.3681 21.376 68.7186 21.376C69.0691 21.376 69.4052 21.2368 69.653 20.989L75.9522 14.6896C76.2 14.4418 76.3393 14.1057 76.3393 13.7552C76.3393 13.4047 76.2 13.0686 75.9522 12.8208C75.7044 12.573 75.3683 12.4338 75.0178 12.4338C74.6674 12.4338 74.3313 12.573 74.0835 12.8208ZM71.1035 41.1022C71.1035 26.5016 59.3935 14.6232 44.9999 14.6232C39.9579 14.6232 35.0642 16.0843 30.8482 18.8484C26.7463 21.5378 23.4763 25.3213 21.3919 29.7899C21.2494 30.1066 21.2373 30.4668 21.3583 30.7924C21.4793 31.118 21.7236 31.3829 22.0384 31.5298C22.3531 31.6766 22.7131 31.6936 23.0403 31.5771C23.3676 31.4606 23.6358 31.22 23.787 30.9072C27.6522 22.6205 35.9788 17.2659 44.9999 17.2659C57.9363 17.2659 68.4608 27.9588 68.4608 41.1022C68.4608 47.3451 66.1017 53.2472 61.8183 57.721C59.3495 60.2995 57.2479 62.7632 56.7072 66.2153H33.638C32.9567 62.6316 30.5122 60.1173 28.3156 57.8598C23.9457 53.3689 21.539 47.4175 21.539 41.1022C21.539 39.5428 21.6883 37.9833 21.9823 36.4665C22.0153 36.2961 22.0145 36.1209 21.9798 35.9509C21.9451 35.7809 21.8773 35.6194 21.7802 35.4755C21.6831 35.3317 21.5586 35.2085 21.4139 35.1128C21.2691 35.017 21.1069 34.9508 20.9366 34.9178C20.7662 34.8847 20.591 34.8856 20.421 34.9203C20.251 34.9549 20.0894 35.0228 19.9456 35.1199C19.8018 35.217 19.6785 35.3415 19.5828 35.4862C19.4871 35.631 19.4209 35.7931 19.3878 35.9635C19.0605 37.6568 18.8959 39.3776 18.8963 41.1022C18.8963 48.1099 21.5688 54.7159 26.4216 59.7029C29.2086 62.5669 31.1815 64.8531 31.1815 68.2039C31.1815 68.2155 31.1817 68.2275 31.1821 68.2391L31.2578 75.9935C31.2578 78.5092 32.5998 80.7173 34.6053 81.94V83.3931C34.6053 87.0363 37.569 90 41.2121 90H49.3165C52.9597 90 55.9234 87.0363 55.9234 83.3931V81.94C57.9289 80.7173 59.2709 78.5092 59.2709 75.9935C59.2709 75.9935 59.2615 67.3559 59.2439 67.2698C59.4946 64.2074 61.3509 62.0306 63.7272 59.5486C68.4837 54.5804 71.1035 48.0292 71.1035 41.1022ZM53.2805 83.3931C53.2805 85.5789 51.5021 87.3573 49.3164 87.3573H41.212C39.0262 87.3573 37.2478 85.5789 37.2478 83.3931V82.8838C37.5648 82.9282 37.8879 82.9527 38.2169 82.9527H52.3115C52.6404 82.9527 52.9635 82.928 53.2805 82.8838V83.3931ZM52.3115 80.3099H38.2169C35.8366 80.3099 33.9004 78.3737 33.9004 75.9935V75.9054H47.2903C48.0202 75.9054 48.6116 75.3139 48.6116 74.584C48.6116 73.8541 48.0202 73.2626 47.2903 73.2626H33.9004V68.8581H56.5871L56.628 73.2626H53.4567C52.7267 73.2626 52.1353 73.8541 52.1353 74.584C52.1353 75.3139 52.7267 75.9054 53.4567 75.9054H56.628V75.9935C56.628 78.3737 54.6915 80.3099 52.3115 80.3099Z" fill="#9ABAFB"/>
<path d="M71.1037 41.1021C71.1037 26.5015 59.3937 14.623 45.0001 14.623C39.9581 14.623 35.0644 16.0841 30.8484 18.8483C26.7465 21.5377 23.4765 25.3212 21.3921 29.7897C21.2496 30.1065 21.2375 30.4667 21.3585 30.7923C21.4795 31.1179 21.7238 31.3828 22.0386 31.5296C22.3533 31.6765 22.7133 31.6935 23.0405 31.577C23.3678 31.4605 23.636 31.2198 23.7871 30.9071C27.6524 22.6203 35.979 17.2658 45.0001 17.2658C57.9365 17.2658 68.4609 27.9587 68.4609 41.1021C68.4609 47.345 66.1019 53.2471 61.8185 57.7209C59.3496 60.2993 57.2481 62.7631 56.7074 66.2152H33.6382C32.9569 62.6315 30.5124 60.1172 28.3157 57.8597C23.9459 53.3688 21.5392 47.4174 21.5392 41.1021C21.5392 39.5427 21.6885 37.9831 21.9825 36.4664C22.0155 36.296 22.0147 36.1208 21.98 35.9508C21.9453 35.7808 21.8775 35.6192 21.7804 35.4754C21.6833 35.3316 21.5588 35.2083 21.4141 35.1126C21.2693 35.0169 21.1071 34.9507 20.9368 34.9176C20.7664 34.8846 20.5912 34.8855 20.4212 34.9201C20.2512 34.9548 20.0896 35.0226 19.9458 35.1197C19.802 35.2169 19.6787 35.3413 19.583 35.4861C19.4873 35.6308 19.4211 35.793 19.388 35.9634C19.0607 37.6567 18.8961 39.3774 18.8965 41.1021C18.8965 48.1098 21.569 54.7157 26.4218 59.7028C29.2088 62.5668 31.1817 64.8529 31.1817 68.2038C31.1817 68.2154 31.1819 68.2274 31.1822 68.239L31.258 75.9933C31.258 78.5091 32.6 80.7172 34.6055 81.9399V83.393C34.6055 87.0361 37.5692 89.9999 41.2123 89.9999H49.3167C52.9598 89.9999 55.9236 87.0361 55.9236 83.393V81.9399C57.9291 80.7172 59.2711 78.5091 59.2711 75.9933C59.2711 75.9933 59.2617 67.3558 59.2441 67.2696C59.4948 64.2072 61.3511 62.0305 63.7274 59.5484C68.4838 54.5803 71.1037 48.0291 71.1037 41.1021ZM53.2807 83.393C53.2807 85.5787 51.5023 87.3571 49.3166 87.3571H41.2122C39.0264 87.3571 37.248 85.5787 37.248 83.393V82.8837C37.565 82.9281 37.8881 82.9526 38.217 82.9526H52.3117C52.6406 82.9526 52.9637 82.9279 53.2807 82.8837V83.393ZM52.3117 80.3098H38.217C35.8368 80.3098 33.9006 78.3736 33.9006 75.9933V75.9052H47.2905C48.0204 75.9052 48.6118 75.3138 48.6118 74.5839C48.6118 73.854 48.0204 73.2625 47.2905 73.2625H33.9006V68.8579H56.5873L56.6281 73.2625H53.4569C52.7269 73.2625 52.1355 73.854 52.1355 74.5839C52.1355 75.3138 52.7269 75.9052 53.4569 75.9052H56.6281V75.9933C56.6281 78.3736 54.6917 80.3098 52.3117 80.3098Z" fill="#8777DA"/>
<path d="M53.5906 41.2761C53.3802 41.5532 53.2877 41.9021 53.333 42.2471C53.3783 42.5921 53.5579 42.9053 53.8327 43.1187C54.1075 43.3321 54.4554 43.4284 54.8009 43.3869C55.1463 43.3454 55.4615 43.1692 55.6778 42.8968L58.2938 39.528C58.9866 38.636 59.2903 37.5276 59.1494 36.4069C59.0815 35.8555 58.9049 35.3231 58.6299 34.8404C58.3549 34.3577 57.9869 33.9344 57.5472 33.5948C56.6551 32.9021 55.5461 32.5966 54.4261 32.7395C53.8747 32.8073 53.3423 32.9838 52.8596 33.2588C52.3769 33.5337 51.9536 33.9018 51.6142 34.3415L43.0801 45.3325L38.1822 39.9133C36.6186 38.1839 33.9394 38.0489 32.2101 39.6118C31.797 39.9832 31.4616 40.4329 31.2234 40.9347C30.9852 41.4366 30.8489 41.9807 30.8223 42.5356C30.7928 43.0903 30.8736 43.6454 31.06 44.1687C31.2465 44.692 31.5348 45.1731 31.9083 45.5843L40.1891 54.7458C41.856 56.6792 45.1497 56.5606 46.6657 54.5037L51.8957 47.7682C52.1061 47.4911 52.1987 47.1421 52.1534 46.7972C52.108 46.4522 51.9285 46.139 51.6536 45.9256C51.3788 45.7122 51.0309 45.6158 50.6855 45.6574C50.34 45.6989 50.0249 45.875 49.8085 46.1475L44.5785 52.883C44.0108 53.6543 42.7721 53.6992 42.1498 52.9737L33.8692 43.8122C33.2829 43.1635 33.3336 42.1589 33.9825 41.5726C34.6309 40.9869 35.6356 41.037 36.222 41.6859L42.177 48.2744C42.696 48.8762 43.7277 48.8417 44.201 48.1986L53.702 35.9626C54.2106 35.2786 55.2652 35.146 55.9268 35.6826C56.6109 36.1914 56.7434 37.2452 56.2068 37.9076L53.5906 41.2761Z" fill="#8777DA"/>
</g>
<defs>
<clipPath id="clip0_768_24882">
<rect width="90" height="90" fill="white"/>
</clipPath>
</defs>
</svg>
