<svg width="36" height="36" viewBox="0 0 36 36" fill="none" xmlns="http://www.w3.org/2000/svg">
<circle cx="18" cy="18" r="18" fill="white"/>
<path d="M23.781 13.6293L19.3035 18.1063C19.3166 18.1174 19.333 18.122 19.3455 18.1345L23.2921 22.0818C23.3053 22.0943 23.3092 22.1107 23.3204 22.1238L27.798 17.6456L23.781 13.6293ZM29.8067 14.7088L26.7178 11.6199C26.5947 11.4968 26.4278 11.4277 26.2538 11.4277C26.0798 11.4277 25.9129 11.4968 25.7898 11.6199L24.709 12.7007L28.7259 16.7176L29.8067 15.6368C29.9298 15.5137 29.9989 15.3468 29.9989 15.1728C29.9989 14.9988 29.9298 14.8319 29.8067 14.7088ZM18.6019 19.2468L17.8879 22.7643C17.796 23.2171 18.2088 23.6266 18.6603 23.5387L22.1883 22.8332L18.6019 19.2468Z" fill="black"/>
<path d="M23.781 13.6293L19.3035 18.1063C19.3166 18.1174 19.333 18.122 19.3455 18.1345L23.2921 22.0818C23.3053 22.0943 23.3092 22.1107 23.3204 22.1238L27.798 17.6456L23.781 13.6293ZM29.8067 14.7088L26.7178 11.6199C26.5947 11.4968 26.4278 11.4277 26.2538 11.4277C26.0798 11.4277 25.9129 11.4968 25.7898 11.6199L24.709 12.7007L28.7259 16.7176L29.8067 15.6368C29.9298 15.5137 29.9989 15.3468 29.9989 15.1728C29.9989 14.9988 29.9298 14.8319 29.8067 14.7088ZM18.6019 19.2468L17.8879 22.7643C17.796 23.2171 18.2088 23.6266 18.6603 23.5387L22.1883 22.8332L18.6019 19.2468Z" fill="url(#paint0_linear_1387_7275)"/>
<path d="M17.3858 18.63C17.4645 18.2494 17.6483 17.9016 17.9239 17.6259L23.5742 11.9756V10.4531C23.5742 9.37031 22.6883 8.48438 21.6055 8.48438H11.1055C10.0227 8.48438 9.13672 9.37031 9.13672 10.4531V25.5469C9.13672 26.6297 10.0227 27.5156 11.1055 27.5156H21.6055C22.6883 27.5156 23.5742 26.6297 23.5742 25.5469V23.6963C23.338 23.8734 23.0689 23.9981 22.7802 24.0506L18.9148 24.825C17.5577 25.0967 16.3246 23.8557 16.5983 22.5019L17.3858 18.63ZM12.418 13.0781H18.749C19.11 13.0781 19.4053 13.3734 19.4053 13.7344C19.4053 14.0953 19.11 14.3906 18.749 14.3906H12.418C12.0505 14.3906 11.7617 14.0953 11.7617 13.7344C11.7617 13.3734 12.0505 13.0781 12.418 13.0781ZM14.1373 24.2344H12.418C12.0505 24.2344 11.7617 23.9391 11.7617 23.5781C11.7617 23.2172 12.0505 22.9219 12.418 22.9219H14.1373C14.4983 22.9219 14.7936 23.2172 14.7936 23.5781C14.7936 23.9391 14.4983 24.2344 14.1373 24.2344ZM14.6689 21.6094H12.418C12.0505 21.6094 11.7617 21.3141 11.7617 20.9531C11.7617 20.5922 12.0505 20.2969 12.418 20.2969H14.6689C15.0298 20.2969 15.3252 20.5922 15.3252 20.9531C15.3252 21.3141 15.0298 21.6094 14.6689 21.6094ZM15.2005 18.9844H12.418C12.0505 18.9844 11.7617 18.6891 11.7617 18.3281C11.7617 17.9672 12.0505 17.6719 12.418 17.6719H15.2005C15.5614 17.6719 15.8567 17.9672 15.8567 18.3281C15.8567 18.6891 15.5614 18.9844 15.2005 18.9844Z" fill="url(#paint1_linear_1387_7275)"/>
<defs>
<linearGradient id="paint0_linear_1387_7275" x1="30.1714" y1="12.7537" x2="20.9473" y2="16.2941" gradientUnits="userSpaceOnUse">
<stop stop-color="#8DC8E9"/>
<stop offset="1" stop-color="#8C5AE3"/>
</linearGradient>
<linearGradient id="paint1_linear_1387_7275" x1="22.499" y1="-2.99999" x2="0.594452" y2="1.72221" gradientUnits="userSpaceOnUse">
<stop stop-color="#8DC8E9"/>
<stop offset="1" stop-color="#8C5AE3"/>
</linearGradient>
</defs>
</svg>
