<svg width="30" height="30" viewBox="0 0 30 30" fill="none" xmlns="http://www.w3.org/2000/svg">
<circle cx="15" cy="15" r="15" fill="white"/>
<path d="M13.8714 11.8133C14.2995 10.7461 14.5135 10.2126 14.8612 10.1386C14.9526 10.1192 15.0471 10.1192 15.1386 10.1386C15.4863 10.2126 15.7003 10.7461 16.1284 11.8133C16.3718 12.4201 16.4935 12.7236 16.7212 12.9299C16.7851 12.9878 16.8545 13.0394 16.9283 13.0839C17.1915 13.2425 17.5201 13.272 18.1773 13.3308C19.2898 13.4304 19.8461 13.4803 20.0159 13.7974C20.0511 13.8631 20.075 13.9342 20.0867 14.0078C20.143 14.3632 19.7341 14.7352 18.9162 15.4793L18.6891 15.6859C18.3067 16.0338 18.1156 16.2077 18.005 16.4248C17.9386 16.555 17.8942 16.6952 17.8733 16.8399C17.8386 17.081 17.8946 17.3333 18.0065 17.838L18.0465 18.0183C18.2473 18.9233 18.3477 19.3758 18.2224 19.5983C18.1098 19.7981 17.9025 19.926 17.6734 19.9369C17.4184 19.9491 17.0591 19.6563 16.3404 19.0707C15.8669 18.6849 15.6302 18.492 15.3674 18.4166C15.1272 18.3477 14.8725 18.3477 14.6324 18.4166C14.3696 18.492 14.1328 18.6849 13.6594 19.0707C12.9407 19.6563 12.5814 19.9491 12.3264 19.9369C12.0973 19.926 11.8899 19.7981 11.7774 19.5983C11.652 19.3758 11.7524 18.9233 11.9532 18.0183L11.9932 17.838C12.1052 17.3333 12.1612 17.081 12.1265 16.8399C12.1056 16.6952 12.0611 16.555 11.9948 16.4248C11.8842 16.2077 11.693 16.0338 11.3107 15.6859L11.0836 15.4793C10.2657 14.7352 9.85677 14.3632 9.91308 14.0078C9.92475 13.9342 9.94867 13.8631 9.98385 13.7974C10.1537 13.4803 10.71 13.4304 11.8225 13.3308C12.4797 13.272 12.8083 13.2425 13.0715 13.0839C13.1453 13.0394 13.2147 12.9878 13.2785 12.9299C13.5063 12.7236 13.628 12.4201 13.8714 11.8133Z" fill="black" stroke="black" stroke-width="2"/>
</svg>
