<svg width="343" height="331" viewBox="0 0 343 331" fill="none" xmlns="http://www.w3.org/2000/svg">
<mask id="mask0_1_27329" style="mask-type:alpha" maskUnits="userSpaceOnUse" x="0" y="0" width="338" height="331">
<path d="M168.343 6.56726L167.461 7.37834C166.65 8.12454 166.391 9.20409 167.317 9.80071C168.446 10.5274 172.235 12.6268 169.01 15.6549C165.785 18.6829 164.495 14.3629 164.213 13.2728C163.932 12.1889 162.597 12.4407 161.816 13.2426L160.544 14.5473C158.317 16.8331 158.23 20.451 160.37 22.8186C163.059 25.794 166.133 29.1367 168.432 31.4973C170.289 33.4036 173.085 33.6734 175.275 32.1614C179.299 29.3828 179.064 28.3021 178.121 28.0091C174.977 27.4843 174.856 25.0215 175.541 23.3662C176.227 21.7109 179.814 20.2978 180.379 23.3662C180.806 25.6866 183.035 25.7718 184.746 24.1479C187.027 21.9846 187.304 18.4102 185.349 15.9495L184.088 14.3629C183.616 13.6415 183.041 12.386 183.258 11.4695C183.495 10.4679 184.883 10.6237 185.878 10.3573C188.497 9.65559 190.936 6.35698 188.079 3.05836C184.842 -0.67935 180.741 2.50069 180.909 5.7571C180.929 6.14031 181.011 6.52384 180.967 6.90498C180.868 7.75221 180.436 8.08711 179.946 8.163C179.125 8.29022 178.43 7.63813 177.851 7.04172L177.646 6.8305C175.128 4.23675 171.003 4.12001 168.343 6.56726Z" stroke="#2E2FB2" stroke-width="1.5"/>
<path d="M133.079 10.9688C133.074 11.0592 132.98 11.3309 132.334 11.6925C131.727 12.0327 130.807 12.3471 129.612 12.5998C127.231 13.1027 123.925 13.3258 120.268 13.1325C116.611 12.9392 113.347 12.3688 111.032 11.6177C109.87 11.2404 108.988 10.8308 108.42 10.4285C107.816 10.0008 107.751 9.72068 107.755 9.63028C107.76 9.53987 107.855 9.26821 108.5 8.90656C109.108 8.56643 110.027 8.25197 111.223 7.99934C113.604 7.49642 116.909 7.27329 120.567 7.46661C124.224 7.65993 127.488 8.2303 129.802 8.98139C130.965 9.35868 131.846 9.76833 132.414 10.1706C133.019 10.5983 133.084 10.8784 133.079 10.9688Z" stroke="#2E2FB2" stroke-width="1.5"/>
<path d="M142.963 11.9087C142.917 12.7973 142.39 13.708 141.281 14.5922C140.173 15.4757 138.553 16.2727 136.503 16.9209C132.41 18.2155 126.764 18.867 120.547 18.5382C114.329 18.2095 108.784 16.9663 104.849 15.2473C102.879 14.3866 101.351 13.4231 100.342 12.4276C99.3322 11.4314 98.9044 10.4702 98.9512 9.58163C98.9981 8.69302 99.5244 7.78227 100.633 6.89808C101.741 6.01459 103.362 5.21757 105.412 4.56939C109.505 3.27481 115.15 2.62335 121.368 2.95208C127.585 3.28082 133.131 4.52399 137.066 6.24303C139.036 7.10373 140.564 8.06723 141.573 9.06266C142.583 10.0589 143.01 11.0201 142.963 11.9087Z" stroke="#2E2FB2" stroke-width="1.5"/>
<path d="M115.344 12.9883L112.956 17.9208" stroke="#2E2FB2" stroke-width="1.5"/>
<path d="M110.27 11.793L105.196 15.6787" stroke="#2E2FB2" stroke-width="1.5"/>
<line y1="-0.75" x2="5.11695" y2="-0.75" transform="matrix(-0.116671 0.993171 -0.993131 -0.117012 121.016 13.5869)" stroke="#2E2FB2" stroke-width="1.5"/>
<line y1="-0.75" x2="5.89371" y2="-0.75" transform="matrix(0.506463 0.862261 -0.861606 0.507577 127.281 13.5869)" stroke="#2E2FB2" stroke-width="1.5"/>
<line y1="-0.75" x2="8.29561" y2="-0.75" transform="matrix(0.863454 0.504427 -0.503315 0.864103 132.652 12.0918)" stroke="#2E2FB2" stroke-width="1.5"/>
<line y1="-0.75" x2="7.93113" y2="-0.75" transform="matrix(0.940728 -0.339163 0.338276 0.941047 132.504 10.9229)" stroke="#2E2FB2" stroke-width="1.5"/>
<line y1="-0.75" x2="5.08733" y2="-0.75" transform="matrix(0.645386 -0.763857 0.762915 0.646499 129.645 8.98047)" stroke="#2E2FB2" stroke-width="1.5"/>
<line x1="125.039" y1="7.60938" x2="125.039" y2="3.12501" stroke="#2E2FB2" stroke-width="1.5"/>
<line x1="118.77" y1="7.31055" x2="118.77" y2="2.82618" stroke="#2E2FB2" stroke-width="1.5"/>
<line y1="-0.75" x2="4.89199" y2="-0.75" transform="matrix(-0.521533 -0.853231 0.852544 -0.522655 114.609 7)" stroke="#2E2FB2" stroke-width="1.5"/>
<line y1="-0.75" x2="6.21361" y2="-0.75" transform="matrix(-0.816566 -0.577252 0.576114 -0.817369 109.078 8.20703)" stroke="#2E2FB2" stroke-width="1.5"/>
<line y1="-0.75" x2="7.94148" y2="-0.75" transform="matrix(-0.939505 0.342535 -0.341642 -0.93983 107.285 9.40234)" stroke="#2E2FB2" stroke-width="1.5"/>
<path d="M98.9531 9.8252V12.4022C98.9531 13.7532 99.1953 15.1389 100.16 16.085C102.577 18.457 108.483 21.4743 120.071 21.7595C130.813 22.0238 137.312 19.7017 140.607 17.5678C142.327 16.4536 142.949 14.3948 142.949 12.3452V11.7645" stroke="#2E2FB2" stroke-width="1.5"/>
<path d="M72.8161 23.7307C71.7918 26.6249 71.7187 34.5015 79.6202 42.8543C87.5217 51.2072 92.4966 51.3171 93.9964 50.3279M72.8161 23.7307C74.6451 22.2653 80.3224 22.0162 88.3995 32.743C96.4766 43.4698 95.4962 48.9358 93.9964 50.3279M72.8161 23.7307L65.7801 29.1999C64.7949 29.9658 64.1104 31.069 64.0383 32.3149C63.7736 36.8913 64.7727 44.7237 70.4383 50.3279C77.0106 56.829 81.5797 58.3791 83.0427 58.3416C84.6807 58.1616 89.1646 56.3068 93.9964 50.3279M80.2785 39.0076C83.2415 42.3414 89.6506 48.7233 91.5821 47.5803C93.9964 46.1515 88.8684 36.6879 84.5585 31.8637C80.8272 27.6873 77.2057 25.0496 75.8887 26.8081C74.5718 28.5666 77.3154 35.6738 80.2785 39.0076Z" stroke="#2E2FB2" stroke-width="1.5"/>
<path d="M149.027 285.807C146.138 289.513 144.198 299.246 152.1 307.599C160.001 315.952 168.708 313.394 170.207 312.405M149.027 285.807C150.856 284.342 159.716 281.74 167.793 292.467C175.87 303.194 171.707 311.012 170.207 312.405M149.027 285.807L141.991 291.277C141.006 292.042 140.321 293.146 140.249 294.392C139.985 298.968 140.984 306.8 146.649 312.405C153.222 318.906 155.56 318.981 157.023 318.944C158.661 318.764 163.837 316.814 170.207 312.405M154.494 302.65C157.457 305.984 163.837 310.928 167.793 309.657C171.086 308.599 168.147 297.291 163.837 292.467C160.106 288.291 154.018 287.176 152.1 288.885C150.181 290.593 151.531 299.316 154.494 302.65Z" stroke="#2E2FB2" stroke-width="1.5"/>
<path d="M329.842 149.555C329.839 149.557 329.833 149.564 329.816 149.574C329.798 149.584 329.764 149.599 329.707 149.612C329.588 149.639 329.402 149.648 329.133 149.612C328.593 149.539 327.857 149.301 326.963 148.885C325.186 148.057 322.94 146.596 320.665 144.692C318.39 142.787 316.556 140.833 315.427 139.229C314.859 138.422 314.494 137.739 314.327 137.22C314.244 136.961 314.22 136.775 314.225 136.654C314.227 136.596 314.236 136.559 314.243 136.539C314.249 136.521 314.255 136.514 314.257 136.511C314.259 136.508 314.265 136.502 314.282 136.492C314.301 136.482 314.335 136.467 314.392 136.454C314.51 136.427 314.697 136.418 314.966 136.454C315.506 136.527 316.242 136.765 317.135 137.181C318.913 138.009 321.158 139.47 323.434 141.374C325.709 143.279 327.543 145.233 328.672 146.837C329.24 147.644 329.605 148.327 329.772 148.846C329.855 149.105 329.879 149.29 329.874 149.412C329.871 149.47 329.863 149.507 329.856 149.527C329.849 149.545 329.844 149.552 329.842 149.555Z" stroke="#2E2FB2" stroke-width="1.5"/>
<path d="M335.809 154.988C335.382 155.5 334.643 155.828 333.515 155.86C332.389 155.893 330.966 155.625 329.329 155.05C326.06 153.901 322.09 151.58 318.22 148.341C314.35 145.102 311.365 141.601 309.655 138.583C308.799 137.072 308.284 135.717 308.116 134.601C307.948 133.484 308.138 132.698 308.565 132.186C308.993 131.674 309.732 131.347 310.859 131.314C311.985 131.281 313.408 131.549 315.045 132.124C318.314 133.274 322.284 135.595 326.154 138.833C330.024 142.072 333.009 145.573 334.719 148.591C335.575 150.103 336.091 151.457 336.258 152.573C336.426 153.69 336.236 154.476 335.809 154.988Z" stroke="#2E2FB2" stroke-width="1.5"/>
<path d="M317.445 142.305L313.495 144.344" stroke="#2E2FB2" stroke-width="1.5"/>
<path d="M314.73 139.053L309.544 139.102" stroke="#2E2FB2" stroke-width="1.5"/>
<line y1="-0.75" x2="4.15249" y2="-0.75" transform="matrix(-0.688663 0.724855 -0.724076 -0.689959 320.84 145.459)" stroke="#2E2FB2" stroke-width="1.5"/>
<line y1="-0.75" x2="4.78407" y2="-0.75" transform="matrix(-0.111379 0.994402 -0.993133 -0.111567 324.91 148.517)" stroke="#2E2FB2" stroke-width="1.5"/>
<line y1="-0.75" x2="6.73793" y2="-0.75" transform="matrix(0.388519 0.922111 -0.920561 0.389014 329.125 150.167)" stroke="#2E2FB2" stroke-width="1.5"/>
<line y1="-0.75" x2="6.44304" y2="-0.75" transform="matrix(0.955408 0.293752 -0.293224 0.956517 329.598 149.334)" stroke="#2E2FB2" stroke-width="1.5"/>
<line y1="-0.75" x2="4.13036" y2="-0.75" transform="matrix(0.974015 -0.223371 0.223056 0.975523 328.684 146.677)" stroke="#2E2FB2" stroke-width="1.5"/>
<line y1="-0.75" x2="3.63889" y2="-0.75" transform="matrix(0.599375 -0.800469 0.799617 0.60051 326.848 143.905)" stroke="#2E2FB2" stroke-width="1.5"/>
<line y1="-0.75" x2="3.63889" y2="-0.75" transform="matrix(0.599375 -0.800469 0.799617 0.60051 322.922 140.654)" stroke="#2E2FB2" stroke-width="1.5"/>
<line y1="-0.75" x2="3.97103" y2="-0.75" transform="matrix(0.0939076 -0.996215 0.994931 0.0940641 319.883 138.058)" stroke="#2E2FB2" stroke-width="1.5"/>
<line y1="-0.75" x2="5.04637" y2="-0.75" transform="matrix(-0.307427 -0.952274 0.950736 -0.307839 315.703 136.141)" stroke="#2E2FB2" stroke-width="1.5"/>
<line y1="-0.75" x2="6.45143" y2="-0.75" transform="matrix(-0.956452 -0.290321 0.289801 -0.957563 313.957 136.044)" stroke="#2E2FB2" stroke-width="1.5"/>
<path d="M308.336 132.253L307.315 133.617C306.504 134.699 305.871 135.964 306.144 137.29C306.716 140.068 309.194 144.734 316.249 150.308C322.774 155.463 327.939 157.216 331.161 157.562C333.119 157.772 334.792 156.553 335.973 154.976V154.976" stroke="#2E2FB2" stroke-width="1.5"/>
<path d="M201.809 28.3806L274.364 15.9433C274.839 15.8619 275.305 16.1312 275.472 16.5838L293.326 65.1343M201.809 28.3806L219.14 80.4891M201.809 28.3806L198.46 34.3671C198.323 34.6119 198.295 34.9029 198.383 35.1692L202.019 46.1694M293.326 65.1343L219.14 80.4891M293.326 65.1343L289.6 71.1782M219.14 80.4891L215.091 85.7163M215.091 85.7163L289.6 71.1782M215.091 85.7163L214.119 91.5969M215.091 85.7163L180.924 56.4767M215.091 85.7163L203.882 51.8049M289.6 71.1782L288.627 74.6819C288.528 75.0387 288.24 75.3116 287.879 75.3911L214.119 91.5969M214.119 91.5969L173.454 56.8842C173.162 56.6351 173.038 56.2409 173.136 55.8697L174.434 50.9229M174.434 50.9229L202.019 46.1694M174.434 50.9229L180.924 56.4767M202.019 46.1694L203.882 51.8049M180.924 56.4767L203.882 51.8049M215.865 30.2964L207.479 31.7743C206.88 31.8799 206.513 32.4915 206.702 33.0698L209.231 40.8063M215.865 30.2964L229.481 74.3113M215.865 30.2964L225.912 28.5257M229.481 74.3113L221.632 75.9018C221.135 76.0026 220.641 75.7149 220.483 75.2324L218.234 68.35M229.481 74.3113L239.441 72.2928M225.912 28.5257L239.441 72.2928M225.912 28.5257L237.084 26.5567M239.441 72.2928L249.92 70.1691M249.92 70.1691L237.084 26.5567M249.92 70.1691L258.896 68.35M237.084 26.5567L246.487 24.8995M246.487 24.8995L258.896 68.35M246.487 24.8995L256.111 23.2036M258.896 68.35L269.733 66.1537M269.733 66.1537L256.111 23.2036M269.733 66.1537L279.1 64.2555M256.111 23.2036L265.301 21.584M265.301 21.584L272.253 20.3586C272.731 20.2745 273.2 20.545 273.366 21.0005L276.158 28.6473M265.301 21.584L279.1 64.2555M279.1 64.2555L287.327 62.5882C287.927 62.4667 288.278 61.8399 288.068 61.2652L286.016 55.6467M286.016 55.6467L218.234 68.35M286.016 55.6467L282.86 47.0026M218.234 68.35L215.294 59.3576M282.86 47.0026L215.294 59.3576M282.86 47.0026L279.238 37.0814M215.294 59.3576L212.118 49.6383M279.238 37.0814L212.118 49.6383M279.238 37.0814L276.158 28.6473M212.118 49.6383L209.231 40.8063M209.231 40.8063L276.158 28.6473M210.742 33.641L209.736 35.1319M213.759 33.2614L210.888 38.0251M214.959 36.0751L213.953 37.6963M223.192 40.526L222.186 42.0169M226.21 40.1464L223.338 44.9101M227.409 42.9601L226.403 44.5813M236.641 47.7496L235.635 49.2405M239.659 47.37L236.787 52.1337M240.859 50.1837L239.853 51.8049M249.403 55.3023L248.397 56.7932M252.42 54.9227L249.549 59.6864M253.62 57.7364L252.614 59.3576M261.663 62.3573L260.658 63.8483M264.681 61.9777L261.81 66.7414M265.881 64.7914L264.875 66.4127M281.243 58.7102L280.237 60.2012M284.261 58.3307L281.389 63.0943M285.461 61.1443L284.455 62.7656M242.27 66.2517L241.264 67.7426M245.287 65.8721L242.416 70.6358M246.487 68.6858L245.481 70.307M221.766 70.3314L220.76 71.8224M224.783 69.9519L221.912 74.7156M225.983 72.7656L224.977 74.3868M229.335 59.4642L228.329 60.9551M232.352 59.0846L229.481 63.8483M233.552 61.8983L232.546 63.5195M243.91 36.7509L242.904 38.2419M246.928 36.3714L244.056 41.1351M248.128 39.1851L247.122 40.8063M250.979 26.2411L249.973 27.732M253.997 25.8615L251.125 30.6252M255.196 28.6752L254.19 30.2964M231.024 29.95L230.018 31.4409M234.041 29.5704L231.17 34.3341M235.241 32.3841L234.235 34.0053M256.44 44.2594L255.434 45.7504M259.458 43.8799L256.586 48.6436M260.658 46.6936L259.652 48.3148M269.201 51.8049L268.195 53.2959M272.219 51.4254L269.347 56.1891M273.419 54.2391L272.413 55.8603M275.519 40.526L274.514 42.0169M278.537 40.1464L275.666 44.9101M279.737 42.9601L278.731 44.5814M269.733 22.7851L268.728 24.2761M272.751 22.4055L269.88 27.1692M273.951 25.2192L272.945 26.8405M263.228 33.026L262.222 34.517M266.245 32.6465L263.374 37.4102M267.445 35.4602L266.439 37.0814M216.542 51.8049L215.537 53.2959M219.56 51.4254L216.688 56.1891M220.76 54.2391L219.754 55.8603" stroke="#2E2FB2" stroke-width="1.5" stroke-linecap="round"/>
<path d="M37.2616 63.6195C38.0224 63.8642 38.9115 64.0188 39.9475 64.0707C41.8174 64.1643 43.4514 63.563 44.737 62.6657M37.2616 63.6195C33.9963 62.5692 33.0949 59.859 33.0949 56.4873C33.0949 53.8351 35.7126 48.9862 41.6607 49.1784C47.6088 49.3705 48.205 55.4121 47.7596 58.4089C47.5653 59.7156 46.4665 61.4585 44.737 62.6657M37.2616 63.6195C36.1411 64.1088 33.9 65.3201 33.9 66.2502C33.9 66.8564 34.8583 67.3498 36.2517 67.636M44.737 62.6657C45.7445 62.9836 47.7596 63.8134 47.7596 64.5893C47.7596 65.1136 46.702 65.9204 45.1998 66.6036M36.2517 67.636C37.5303 67.8987 39.1754 67.987 40.7825 67.828C42.3254 67.6754 43.9232 67.1841 45.1998 66.6036M36.2517 67.636C36.2969 71.7982 35.7289 80.7598 33.0949 83.3081C29.8024 86.4935 27.3131 88.9172 27.4514 91.5487C27.4422 91.8322 27.5069 92.2148 27.7001 92.6044M56.753 89.4746C52.6069 96.4873 34.2636 94.4794 30.8161 94.2866C28.9798 94.1839 28.085 93.3804 27.7001 92.6044M56.753 89.4746C57.6375 87.9614 54.8182 85.4608 53.2979 84.3997C50.9697 82.7746 45.5701 77.6121 45.1998 66.6036M56.753 89.4746C58.9643 90.3051 57.6744 94.2866 53.0085 95.9917C50.4907 96.9118 42.8659 98.2568 35.449 98.3029C28.0322 98.349 26.1642 95.5184 26.1181 94.2866C26.0813 93.3012 27.1574 92.7545 27.7001 92.6044" stroke="#2E2FB2" stroke-width="1.5"/>
<path d="M305.557 196.117C306.448 199.663 307.293 207.314 305.583 210.027C303.447 213.419 301.834 215.997 302.49 218.216C302.54 218.46 302.673 218.774 302.917 219.068C303.402 219.652 304.324 220.156 305.901 219.87C308.861 219.333 324.811 217.313 326.887 210.478C327.327 209.005 324.426 207.443 322.921 206.846C320.616 205.932 314.717 202.631 312.149 193.302M300.632 190.878C300.089 188.612 301.314 183.937 306.392 182.89C311.47 181.843 313.212 186.883 313.448 189.533C313.551 190.689 312.977 192.402 311.759 193.785C310.854 194.814 309.593 195.66 307.99 195.961C307.101 196.127 306.316 196.176 305.622 196.122C302.641 195.89 301.322 193.758 300.632 190.878Z" stroke="#2E2FB2" stroke-width="1.5"/>
<path d="M130 70.272L133.016 45.8988C133.352 43.1831 135.808 41.242 138.528 41.5431L158.339 43.7363M130 70.272L154.209 71.5447M130 70.272L130.464 71.4334C131.188 73.2465 132.901 74.4723 134.851 74.5722L156.497 75.681M154.209 71.5447L158.339 43.7363M154.209 71.5447L156.497 75.681M158.339 43.7363L159.952 47.2891C160.351 48.1683 160.487 49.1443 160.343 50.0991L156.497 75.681M138.533 56.0114L137.828 60.987C137.413 63.9146 139.628 66.5905 142.566 66.2535C147.14 65.7287 151.741 64.1906 151.032 60.5359C150.015 55.2924 142.276 55.3348 138.533 56.0114ZM138.533 56.0114L138.592 55.5925M138.592 55.5925L139.122 51.8529C139.494 49.2267 141.87 47.3041 144.446 47.9353C147.656 48.7219 150.731 50.117 150.397 52.327C149.888 55.6869 142.315 55.9039 138.592 55.5925ZM150.397 66.7085L151.378 65.8742C151.742 65.5655 152.29 65.892 152.191 66.3584L151.54 69.4448" stroke="#2E2FB2" stroke-width="1.5" stroke-linecap="round"/>
<path d="M279.762 105.782L295.027 82.8517C296.483 80.6646 299.383 79.9774 301.665 81.2787L314.62 88.6648M279.762 105.782C279.538 106.176 279.224 107.452 279.762 109.408C279.912 109.952 280.641 110.863 281.707 111.949M279.762 105.782L282.466 107.942M293.907 117.081L294.834 121.55M293.907 117.081L297.065 112.75M293.907 117.081L290.624 114.458M314.62 88.6648C314.985 89.5361 315.496 91.869 314.62 94.23C314.56 94.3927 314.452 94.6201 314.302 94.9045M314.62 88.6648L312.592 91.4474M294.834 121.55C295.278 121.513 296.431 120.314 297.971 118.433M294.834 121.55C294.207 121.602 292.584 120.69 290.624 119.333M290.624 94.9045L301.569 101.313M297.065 112.75L297.971 118.433M297.065 112.75L299.5 109.408M297.971 118.433C298.741 117.494 299.608 116.384 300.531 115.164M299.5 109.408L300.531 115.164M299.5 109.408L301.569 106.569M300.531 115.164C301.293 114.156 302.095 113.073 302.912 111.949M301.569 106.569L302.912 111.949M301.569 106.569L303.558 103.842M302.912 111.949C303.69 110.879 304.483 109.772 305.27 108.656M303.558 103.842L305.27 108.656M303.558 103.842L305.401 101.313M305.27 108.656C305.947 107.698 306.62 106.734 307.276 105.782M305.401 101.313L307.276 105.782M305.401 101.313L307.276 98.7397M307.276 105.782C308.011 104.718 308.725 103.67 309.402 102.663M307.276 98.7397L309.402 102.663M307.276 98.7397L309.039 96.3208M309.402 102.663C310.014 101.752 310.596 100.875 311.134 100.052M309.039 96.3208L311.134 100.052M309.039 96.3208L310.563 94.23M311.134 100.052C311.649 99.2648 312.124 98.5265 312.547 97.854M310.563 94.23L312.547 97.854M310.563 94.23L312.592 91.4474M312.547 97.854C313.331 96.6098 313.94 95.591 314.302 94.9045M312.592 91.4474L314.302 94.9045M290.624 114.458V119.333M290.624 114.458L287.883 112.269M290.624 119.333C289.664 118.668 288.623 117.897 287.578 117.081M287.883 112.269L287.578 117.081M287.883 112.269L285.17 110.102M287.578 117.081C286.649 116.355 285.716 115.592 284.834 114.837M285.17 110.102L284.834 114.837M285.17 110.102L282.466 107.942M284.834 114.837C283.657 113.827 282.571 112.831 281.707 111.949M282.466 107.942L281.707 111.949M299.44 85.1238H299.554M308.273 89.6266H308.329M301.008 91.1266H301.072M294.745 92.7374H294.795M302.766 97.3272H302.813M292.135 105.398L292.198 105.356" stroke="#2E2FB2" stroke-width="1.5" stroke-linecap="round"/>
<path d="M86.9567 148.198L82.1931 121.556C81.7305 118.969 79.3472 117.18 76.7368 117.46L62.2109 119.019M86.9567 148.198C87.0048 148.642 86.7875 149.918 85.533 151.471C85.1841 151.903 84.1681 152.439 82.7797 153M86.9567 148.198L83.6679 149.083M69.7509 152.828L67.16 156.497M69.7509 152.828L68.6016 147.674M69.7509 152.828L73.745 151.753M62.2109 119.019C61.5394 119.661 60.1623 121.566 60.0257 124.042C60.0163 124.213 60.0242 124.461 60.048 124.777M62.2109 119.019L62.9492 122.329M67.16 156.497C66.7734 156.289 66.2035 154.752 65.5514 152.448M67.16 156.497C67.7051 156.791 69.5282 156.606 71.831 156.153M81.4228 134.101L69.0256 135.576M68.6016 147.674L65.5514 152.448M68.6016 147.674L67.7148 143.698M65.5514 152.448C65.2255 151.296 64.879 149.953 64.5246 148.488M67.7148 143.698L64.5246 148.488M67.7148 143.698L66.9617 140.321M64.5246 148.488C64.2319 147.278 63.9338 145.986 63.6374 144.649M66.9617 140.321L63.6374 144.649M66.9617 140.321L66.2379 137.076M63.6374 144.649C63.3552 143.377 63.0745 142.065 62.8015 140.748M66.2379 137.076L62.8015 140.748M66.2379 137.076L65.567 134.067M62.8015 140.748C62.567 139.616 62.3382 138.48 62.119 137.363M65.567 134.067L62.119 137.363M65.567 134.067L64.8842 131.006M62.119 137.363C61.8739 136.113 61.6407 134.886 61.4251 133.711M64.8842 131.006L61.4251 133.711M64.8842 131.006L64.2423 128.128M61.4251 133.711C61.2298 132.647 61.0489 131.626 60.8863 130.671M64.2423 128.128L60.8863 130.671M64.2423 128.128L63.6875 125.64M60.8863 130.671C60.7308 129.758 60.5921 128.904 60.4738 128.13M63.6875 125.64L60.4738 128.13M63.6875 125.64L62.9492 122.329M60.4738 128.13C60.2548 126.698 60.1054 125.539 60.048 124.777M62.9492 122.329L60.048 124.777M73.745 151.753L71.831 156.153M73.745 151.753L77.0788 150.856M71.831 156.153C72.9584 155.932 74.2007 155.646 75.4643 155.32M77.0788 150.856L75.4643 155.32M77.0788 150.856L80.3791 149.968M75.4643 155.32C76.5889 155.03 77.7303 154.709 78.8226 154.375M80.3791 149.968L78.8226 154.375M80.3791 149.968L83.6679 149.083M78.8226 154.375C80.2818 153.927 81.6533 153.455 82.7797 153M83.6679 149.083L82.7797 153M67.7149 123.193L67.7947 123.193M77.4043 121.724L77.4654 121.697M73.3417 127.275L73.4318 127.211M68.969 132.536L69.0412 132.468M78.3896 130.674L78.4428 130.633M81.4602 137.673L81.5295 137.583M77.0398 143.733L77.0932 143.701M72.8781 148.934L72.9041 148.914" stroke="#2E2FB2" stroke-width="1.5" stroke-linecap="round"/>
<path d="M99.8621 73.7608C102.482 76.8366 108.917 82.9854 113.692 82.9748C117.046 82.9674 120.004 82.9456 121.948 82.9269M93.3013 81.6041C94.7326 82.4994 98.5772 85.4055 102.505 89.8674C105.708 93.5066 107.311 98.8041 107.94 102.218M93.3013 81.6041V81.6041C91.9274 82.6139 90.049 82.585 88.7068 81.5333L86.2511 79.6091M93.3013 81.6041L98.2309 74.5881C99.7528 72.4221 99.3227 69.4451 97.2498 67.7985L95.7732 66.6255M86.2511 79.6091L85.3472 78.9009C84.7798 78.4563 84.5611 77.698 84.8046 77.0195V77.0195C85.0263 76.4019 85.5886 75.9709 86.2426 75.9175L86.4995 75.8965C86.7968 75.8722 87.0785 75.7537 87.3037 75.5582V75.5582C87.8568 75.0779 87.9465 74.2526 87.5093 73.6648L87.4513 73.5867C87.0109 72.9946 87.0646 72.1705 87.5782 71.6406L87.9933 71.2123C88.4527 70.7382 89.184 70.6571 89.7361 71.019V71.019C90.2418 71.3505 90.9046 71.3131 91.3698 70.9268L91.6287 70.7118C92.0881 70.3304 92.3327 69.7489 92.284 69.1537L92.2639 68.9069C92.2 68.1249 92.5378 67.3639 93.1608 66.8869L93.5282 66.6056C94.1927 66.0968 95.1179 66.105 95.7732 66.6255V66.6255M86.2511 79.6091L86.6927 79.1747C86.999 78.8732 87.4456 78.7597 87.8593 78.8761V78.8761C88.6594 79.1013 89.4438 78.461 89.3762 77.6326V77.6326C89.3284 77.0479 89.713 76.5152 90.2831 76.3767L91.3103 76.1271C92.1819 75.9153 92.77 75.101 92.6969 74.2071V74.2071C92.6237 73.3104 93.2155 72.4943 94.0906 72.2853L94.3821 72.2157C95.4249 71.9667 96.1301 70.9942 96.0428 69.9257L95.7732 66.6255M121.948 82.9269V82.9269C123.04 82.9163 124 83.6733 124.102 84.7608C124.453 88.4945 123.937 94.4212 120.234 98.0985C117.583 100.731 112.951 102.594 110.129 103.576C109.155 103.914 108.127 103.232 107.94 102.218V102.218M121.948 82.9269C121.735 86.1834 122.035 91.5072 118.827 94.7971C112.794 100.984 110.742 100.445 107.94 102.218" stroke="#2E2FB2" stroke-width="1.5" stroke-linecap="round"/>
<path d="M237.662 116.915C241.688 120.435 251.096 127.392 256.523 127.065M237.662 116.915C238.727 115.588 241.607 113.614 244.444 111.866C246.831 110.395 244.453 105.774 246.844 104.31V104.31C248.83 102.836 251.973 97.6793 255.861 93.0955C258.482 90.0054 263.089 89.992 266.008 90.5377C266.878 90.7004 267.749 90.3583 268.507 89.9V89.9C269.307 89.4162 269.707 90.4481 269.823 91.3759C269.971 92.5695 270.752 93.3665 270.752 94.0778C270.752 95.06 271.248 95.9604 270.752 97.6793C270.255 99.3983 270.669 101.69 270.752 103.737C270.834 105.783 269.345 106.52 267.856 106.274C267.192 106.165 266.618 105.44 266.187 104.636C265.642 103.621 263.931 103.244 263.803 102.099V102.099C263.742 101.561 261.869 99.5786 260.866 99.287C260.229 99.102 260.382 100.123 260.621 100.741C262.942 106.739 262.777 111.093 262.108 113.515C261.824 114.542 260.693 114.912 259.704 114.516V114.516C258.513 114.04 257.165 114.657 256.79 115.883C256.341 117.351 255.903 118.955 255.861 119.698C255.778 121.171 258.012 125.428 256.523 127.065M237.662 116.915C236.972 116.697 235.627 116.604 235.759 117.979C235.891 119.354 241.109 123.3 243.701 125.101C246.293 126.901 252.387 129.357 254.703 129.357C257.527 129.357 257.185 128.62 256.523 127.065M267.856 96.5696L267.735 96.6206C267.308 96.7996 267.031 97.2169 267.031 97.6793V97.6793" stroke="#2E2FB2" stroke-width="1.5" stroke-linecap="round"/>
<path d="M260.739 141.013L260.06 157.415C259.973 159.529 261.225 161.469 263.187 162.26L275.87 167.37M260.739 141.013L276.083 137.506C277.078 137.278 278.12 137.361 279.067 137.743L291.733 142.85M260.739 141.013L277.061 146.432M275.87 167.37L287.876 163.338C289.863 162.67 291.223 160.835 291.282 158.74L291.733 142.85M275.87 167.37L277.061 146.432M291.733 142.85L278.173 146.466C277.807 146.563 277.42 146.552 277.061 146.432V146.432M285.09 154.942L284.934 155.059M271.066 160.937V161.067M267.123 154.295H267.252M271.582 149.811H271.729M264.546 147.513H264.638M263.007 158.471H263.052M276.983 140.178H277.063M276.344 143.741H276.404" stroke="#2E2FB2" stroke-width="1.5" stroke-linecap="round"/>
<path d="M25.7916 112.725L17.5462 144.854M25.7916 112.725L48.4206 136.562M25.7916 112.725L44.7862 123.353C46.1845 124.135 47.1231 125.54 47.3104 127.132L48.4206 136.562M25.7916 112.725L15.4297 128.363C14.6782 129.497 14.4213 130.889 14.7184 132.217L17.5462 144.854M17.5462 144.854L48.4206 136.562M17.5462 144.854L31.1885 148.822C32.845 149.303 34.6329 148.897 35.9185 147.747L48.4206 136.562M29.0483 133.61C29.2317 133.957 29.9568 134.609 31.3904 134.439C33.1824 134.227 32.5409 129.565 31.4397 128.14C30.9087 127.452 30.129 127.822 29.4461 128.448C28.9642 128.89 28.0857 128.715 27.9462 128.076V128.076C27.6538 126.737 28.128 125.346 29.1777 124.464L30.0513 123.73" stroke="#2E2FB2" stroke-width="1.5" stroke-linecap="round"/>
<path d="M154.331 87.1294C149.934 87.7584 148.769 86.8592 148.331 86.6796C148.079 86.5765 147.231 85.7967 146.273 85.5586M154.331 87.1294C157.771 86.6374 161.022 86.8124 162.713 87.0917C163.277 87.1849 163.853 86.8697 164.097 86.3527C164.397 85.7174 164.942 84.9297 166.047 84.2463M154.331 87.1294C154.608 89.6366 155.338 94.7533 156.041 95.1628M156.041 95.1628C155.443 95.3454 154.834 95.5043 154.221 95.6332C152.942 95.9023 151.723 96.4924 150.936 97.5369C150.473 98.1518 150.118 98.6414 149.77 99.0038M156.041 95.1628C159.064 94.2387 161.8 92.7074 163.33 91.3834M148.1 88.0351C149.098 88.6629 151.293 89.8216 152.084 89.435M157.266 87.117C158.14 88.4277 160.576 91.1159 163.33 91.3834M163.33 91.3834C163.431 91.2966 163.526 91.2106 163.615 91.1258C164.106 90.6617 164.997 90.5353 165.629 90.7731C167.475 91.4672 170.256 91.1945 171.755 90.9081C171.967 90.8674 172.247 90.8224 172.579 90.775M166.047 84.2463C167.007 83.6523 168.389 83.1371 170.402 82.869C171.322 82.7465 172.197 82.5584 173.025 82.3229M166.047 84.2463C166.271 85.8386 167.891 89.3737 172.579 90.775M172.579 90.775C173.307 90.6709 174.283 90.5557 175.335 90.4519M173.025 82.3229C174.022 83.6107 175.879 87.0393 175.335 90.4519M173.025 82.3229C175.878 81.5118 178.171 80.1376 179.785 78.9375M175.335 90.4519C178.011 90.1881 181.18 89.9983 182.021 90.2542C182.553 90.416 182.977 90.6769 183.393 90.8629M177.093 88.7771C177.65 89.0057 179.513 89.2256 180.575 87.8837M179.785 78.9375C180.686 78.2683 181.375 77.6533 181.833 77.2203C183.352 75.7851 187.09 89.5736 185.544 90.6232C184.619 91.2509 184.014 91.1397 183.393 90.8629M179.785 78.9375C181.201 80.0835 183.905 84.0729 183.393 90.8629M146.273 85.5586C145.563 85.3822 144.792 85.5035 144.159 86.4188C142.673 88.5689 145.984 99.6565 147.846 99.7653C148.716 99.8161 149.235 99.5599 149.77 99.0038M146.273 85.5586C145.815 87.6728 145.874 93.3217 149.77 99.0038" stroke="#2E2FB2" stroke-width="1.5" stroke-linecap="round"/>
<path d="M22.1935 173.87L23.7391 172.085M26.6407 175.54V173.189M23.7391 172.085L24.8849 170.763C25.491 170.063 26.6407 170.492 26.6407 171.417V173.189M23.7391 172.085L26.6407 173.189M36.5809 222.305L36.6646 224.168M41.2878 223.693L39.9007 225.301M36.6646 224.168L36.7601 226.297C36.8006 227.2 37.925 227.59 38.5161 226.905L39.9007 225.301M36.6646 224.168L39.9007 225.301M29.7411 203.678C27.2232 204.358 22.1035 204.794 21.7678 201.096C21.3584 196.587 21.6336 194.648 34.5009 187.59C35.0264 187.301 35.6919 187.541 35.9175 188.096C39.3486 196.54 41 198.152 40.7118 201.096C40.4121 204.158 39.5728 207.16 35.0766 207.64C31.4796 208.024 30.0208 205.159 29.7411 203.678ZM29.7411 203.678L30.2954 208.72C30.3737 209.432 29.6997 209.993 29.0136 209.787L26.6218 209.069C25.9081 208.854 25.6713 207.963 26.1845 207.422L29.7411 203.678ZM57.8917 182.998L42.1016 227.48C41.1622 230.126 38.2283 231.48 35.6052 230.478L7.78011 219.848C5.2297 218.873 3.93243 216.033 4.86583 213.468L20.8941 169.41C21.8418 166.805 24.7278 165.468 27.3277 166.43L54.9146 176.636C57.4802 177.585 58.8068 180.42 57.8917 182.998Z" stroke="#2E2FB2" stroke-width="1.5" stroke-linecap="round"/>
<path d="M54.2661 287L50.2848 236.583C50.2582 236.246 50.4037 235.918 50.6715 235.712L55.3044 232.143M54.2661 287L113.269 326.308C113.676 326.58 114.22 326.516 114.554 326.159L117.739 322.749M54.2661 287L58.2899 284.01M117.739 322.749L123.191 319.499M117.739 322.749L58.2899 284.01M123.191 319.499L63.3522 279.591M123.191 319.499L102.632 297.308C101.919 296.539 102.721 295.331 103.707 295.688L126.55 303.981M123.191 319.499L126.55 303.981M134.614 266.721L74.1258 225.253M134.614 266.721L132.009 278.758M134.614 266.721L113.04 261.239C111.996 260.974 111.328 262.321 112.172 262.991L132.009 278.758M74.1258 225.253L68.7252 227.897C68.4473 228.033 68.2481 228.29 68.1856 228.593L65.8184 240.072M74.1258 225.253L92.3668 246.585C93.047 247.38 92.203 248.553 91.2326 248.162L71.1875 240.072M74.1258 225.253L71.1875 240.072M65.8184 240.072L55.3044 232.143M65.8184 240.072C65.483 241.99 65.1031 244.164 64.6966 246.496M55.3044 232.143L55.7608 240.072M58.2899 284.01L63.3522 279.591M58.2899 284.01L55.7608 240.072M58.2899 284.01C58.2628 283.54 62.0459 261.695 64.6966 246.496M63.3522 279.591L65.8184 267.152M63.3522 279.591L82.2833 287.428C83.2788 287.841 84.1325 286.603 83.394 285.819L65.8184 267.152M55.7608 240.072L64.6966 246.496M126.55 303.981L107.385 286.267C106.608 285.549 107.332 284.274 108.347 284.574L129.404 290.794M126.55 303.981L129.404 290.794M129.404 290.794L110.349 274.31C109.534 273.605 110.256 272.288 111.288 272.595L132.009 278.758M129.404 290.794L132.009 278.758M71.1875 240.072L89.7785 260.643C90.4899 261.43 89.6472 262.637 88.6631 262.241L68.4092 254.085M71.1875 240.072L68.4092 254.085M68.4092 254.085L86.755 275.087C87.4705 275.906 86.5488 277.117 85.5686 276.646L65.8184 267.152M68.4092 254.085L65.8184 267.152" stroke="#2E2FB2" stroke-width="1.5" stroke-linecap="round"/>
<path d="M271.488 279.919C270.788 279.354 266.953 279.128 267.291 268.961C267.63 258.793 266.741 257.092 260.812 258.056C254.883 259.019 256.011 265.452 248.34 258.056C240.669 250.659 230.968 250.885 228.938 242.977C226.907 235.069 235.706 232.923 239.767 240.944C243.828 248.965 252.708 253.597 257.139 252.806C261.57 252.015 263.118 247.157 266.389 247.609C269.66 248.061 266.953 255.178 269.773 256.195C272.593 257.212 278.572 256.534 278.121 263.199C277.67 269.865 281.505 277.208 286.13 271.672C290.755 266.137 289.965 263.764 297.862 262.409C305.758 261.053 303.615 250.321 296.17 250.885C288.724 251.45 281.731 260.488 279.926 254.614C278.121 248.739 291.996 241.681 284.212 236.229C276.429 230.776 266.953 236.538 264.81 237.555C262.666 238.571 251.048 247.948 245.407 239.023C239.767 230.099 244.166 225.015 248.34 225.58C252.514 226.145 264.81 235.069 267.291 229.308C269.773 223.546 265.712 220.383 262.328 219.931C258.944 219.479 257.527 213.831 259.169 212.249M271.488 279.919C273.022 279.656 276.293 279.58 277.105 281.388C277.838 283.019 277.218 284.588 276.703 285.35C276.603 285.497 276.454 285.601 276.285 285.657C275.073 286.056 272.868 286.492 272.029 285.568C271.127 284.574 271.293 281.388 271.488 279.919ZM259.169 212.249C260.335 212.852 262.734 213.695 263.005 212.249C263.343 210.441 262.956 209.199 261.57 208.295C260.185 207.391 257.929 208.182 258.041 209.538C258.132 210.622 258.831 211.797 259.169 212.249ZM261.424 203.974L315.644 257.257C316.074 257.68 316.035 258.386 315.559 258.758L272.189 292.711C271.79 293.024 271.219 292.988 270.862 292.628L216.563 237.807C216.136 237.375 216.189 236.665 216.676 236.302L260.125 203.885C260.52 203.59 261.072 203.628 261.424 203.974ZM272.187 298.234L322.033 258.76C322.505 258.386 322.542 257.683 322.112 257.262L262.174 198.591C261.825 198.25 261.281 198.21 260.887 198.496L209.858 235.54C209.361 235.902 209.304 236.622 209.739 237.057L270.859 298.158C271.218 298.516 271.789 298.549 272.187 298.234Z" stroke="#2E2FB2" stroke-width="1.5" stroke-linecap="round"/>
<path d="M121.536 245.013C120.485 242.681 119.507 241.864 118.784 241.598C118.193 241.381 117.561 241.653 117.022 241.981C116.364 242.381 115.652 242.857 115.507 243.103C115.242 243.554 111.88 243.937 110.314 241.696C108.749 239.454 109.538 235.376 112.869 235.461C113.465 235.476 113.982 235.465 114.427 235.436C115.927 235.338 116.345 233.962 115.639 232.635C114.67 230.817 115.401 228.557 117.252 227.651L120.411 226.105C121.059 225.787 121.826 226.24 121.94 226.953C122.353 229.532 123.615 232.48 126.536 230.659C129.394 228.875 128.462 226.179 127.173 224.41C126.766 223.852 126.898 223.018 127.517 222.712L129.62 221.672C132.205 220.394 135.338 221.559 136.422 224.231C136.922 225.464 137.322 226.482 137.414 226.794C137.682 227.704 138.234 229.291 140.361 226.641C142.488 223.992 146.952 225.421 146.898 228.68C146.845 231.938 144.803 230.861 142.691 231.517C140.58 232.172 140.67 232.929 140.87 233.811C141.069 234.693 143.415 237.574 143.393 238.605C143.371 239.636 136.818 243.113 136.092 242.735C135.365 242.357 134.897 240.565 134.192 239.156C133.487 237.747 131.272 237.96 130.468 238.271C129.546 238.627 128.091 239.938 128.238 241.758C128.373 243.423 130.939 244.945 130.618 245.533C130.297 246.122 128.185 246.777 126.819 247.177C125.453 247.578 123.173 248.644 121.536 245.013Z" stroke="#2E2FB2" stroke-width="1.5" stroke-linecap="round"/>
<path d="M151.623 258.473L169.504 231.366C171.09 228.962 174.374 228.392 176.678 230.12L190.392 240.406C192.599 242.062 193.048 245.192 191.395 247.401L172.084 273.21C170.443 275.404 167.34 275.868 165.129 274.25L152.844 265.262C150.691 263.687 150.154 260.7 151.623 258.473Z" stroke="#2E2FB2" stroke-width="1.5" stroke-linecap="round"/>
<path d="M65.3382 205.66L63.3544 209.072M65.3382 205.66C74.3798 209.234 90.6343 215.789 97.6389 219.019M65.3382 205.66L60.6538 204.798M63.3544 209.072C72.9695 213.147 93.0397 221.688 96.4004 223.258M63.3544 209.072L59.6619 206.504M96.4004 223.258L97.6389 219.019M96.4004 223.258C97.0338 223.554 97.5908 223.769 98.0789 223.919M97.6389 219.019C99.5718 219.91 100.8 220.549 100.979 220.801C101.538 221.593 101.551 222.377 101.413 222.934C101.306 223.366 101.099 223.819 100.704 224.019C100.247 224.249 99.4242 224.331 98.0789 223.919M98.0789 223.919L99.2885 219.803M60.6538 204.798L60.3881 204.749C59.3641 204.561 58.8061 205.909 59.6619 206.504V206.504M60.6538 204.798L59.6619 206.504" stroke="#2E2FB2" stroke-width="1.5" stroke-linecap="round"/>
<path d="M230.866 277.171L226.227 278.195M230.866 277.171L227.332 282.333M230.866 277.171L231.787 281.18M236.02 319.349L238.191 316.136C238.966 314.987 239.231 313.568 238.92 312.217L238.66 311.087M236.02 319.349L197.484 329.685C194.787 330.408 192.021 328.783 191.34 326.075L190.525 322.836M236.02 319.349L235.108 315.464M182.859 292.361L184.989 288.871C185.698 287.709 186.85 286.886 188.18 286.593L189.43 286.317M182.859 292.361L190.525 322.836M182.859 292.361C182.96 292.196 184.489 291.758 186.968 291.145M227.332 282.333C226.395 282.527 225.397 282.734 224.351 282.952M227.332 282.333L228.267 286.317M192.578 324.069C191.871 325.733 189.905 328.509 187.701 326.302C185.496 324.094 188.665 323.071 190.525 322.836M186.968 291.145L189.43 286.317M186.968 291.145C188.014 290.886 189.23 290.595 190.579 290.281M189.43 286.317L192.985 285.532M190.579 290.281L192.985 285.532M190.579 290.281C191.727 290.013 192.971 289.728 194.29 289.429M192.985 285.532L196.537 284.748M194.29 289.429L196.537 284.748M194.29 289.429C195.495 289.157 196.761 288.873 198.073 288.582M196.537 284.748L200.033 283.976M198.073 288.582L200.033 283.976M198.073 288.582C199.453 288.276 200.882 287.961 202.342 287.642M200.033 283.976L204.372 283.019M202.342 287.642L204.372 283.019M202.342 287.642C203.841 287.315 205.371 286.983 206.911 286.65M204.372 283.019L208.523 282.102M206.911 286.65L208.523 282.102M206.911 286.65C208.284 286.354 209.664 286.057 211.038 285.764M208.523 282.102L212.7 281.18M211.038 285.764L212.7 281.18M211.038 285.764C212.646 285.42 214.245 285.08 215.81 284.748M212.7 281.18L217.262 280.174M215.81 284.748L217.262 280.174M215.81 284.748C217.203 284.453 218.569 284.165 219.891 283.886M217.262 280.174L221.588 279.219M219.891 283.886L221.588 279.219M219.891 283.886C221.448 283.559 222.943 283.246 224.351 282.952M221.588 279.219L226.227 278.195M224.351 282.952L226.227 278.195M228.267 286.317L231.787 281.18M228.267 286.317L229.197 290.281M231.787 281.18L232.841 285.764M229.197 290.281L232.841 285.764M229.197 290.281L230.183 294.481M232.841 285.764L233.879 290.281M230.183 294.481L233.879 290.281M230.183 294.481L231.183 298.739M233.879 290.281L234.844 294.481M231.183 298.739L234.844 294.481M231.183 298.739L232.155 302.881M234.844 294.481L235.896 299.057M232.155 302.881L235.896 299.057M232.155 302.881L233.159 307.158M235.896 299.057L236.925 303.536M233.159 307.158L236.925 303.536M233.159 307.158L234.196 311.579M236.925 303.536L237.914 307.838M234.196 311.579L237.914 307.838M234.196 311.579L235.108 315.464M237.914 307.838L238.66 311.087M235.108 315.464L238.66 311.087M187.701 321.3C189.014 321.772 189.873 321.357 190.415 320.635C191.324 319.423 189.972 318.023 188.457 318.023V318.023C187.963 318.023 187.465 318.147 187.09 318.469C186.16 319.267 185.49 320.505 187.701 321.3ZM185.462 315.35C186.957 316.726 188.225 316.33 189.144 315.424C190.147 314.436 189.326 312.902 187.958 312.567V312.567C187.787 312.526 187.612 312.502 187.437 312.504C185.623 312.53 183.034 313.116 185.462 315.35ZM183.654 310.176C184.171 311.412 186.381 310.826 188.002 310.131C188.6 309.875 188.902 309.221 188.77 308.584V308.584C188.607 307.795 187.836 307.281 187.063 307.508C185.237 308.044 183.157 308.991 183.654 310.176ZM181.759 304.14C182.358 306.836 185.119 305.522 186.945 304.151C187.421 303.793 187.597 303.172 187.433 302.6V302.6C187.279 302.06 186.846 301.639 186.291 301.557C184.13 301.24 181.159 301.436 181.759 304.14ZM181.759 299.57C182.599 300.41 184.268 299.601 185.41 298.805C185.843 298.503 186.002 297.95 185.853 297.443V297.443C185.639 296.72 184.869 296.317 184.153 296.554L183.064 296.915C182.928 296.96 182.795 297.015 182.673 297.09C181.876 297.581 180.803 298.612 181.759 299.57Z" stroke="#2E2FB2" stroke-width="1.5" stroke-linecap="round"/>
<path d="M205.389 14.3273C205.001 13.5504 203.708 4.74566 209.138 5.00462C214.568 5.26358 220.774 9.92495 216.766 14.3273C212.758 18.7297 205.906 8.88909 212.37 8.75961C214.956 8.75961 215.215 12.1261 213.792 12.3851" stroke="#2E2FB2" stroke-width="1.5" stroke-linecap="round"/>
<path d="M27.7562 251.534C27.9348 250.684 32.3879 242.982 36.4807 246.565C40.5736 250.149 42.541 257.664 36.6685 258.618C30.796 259.571 31.5374 247.596 36.6815 251.519C38.707 253.129 36.8197 255.927 35.5449 255.245M43.2084 251.534C43.8651 253.091 44.4092 257.106 41.332 260.714" stroke="#2E2FB2" stroke-width="1.5" stroke-linecap="round"/>
<path d="M116.664 35.7904C117.459 35.8202 125.097 38.6491 122.495 42.8963C119.893 47.1435 113.415 50.08 111.648 44.9276C109.881 39.7751 120.802 38.5943 118.056 43.8428C116.916 45.9194 114.099 44.6484 114.518 43.3925M119.051 49.7352C117.748 50.5684 114.207 51.6798 110.476 49.4601" stroke="#2E2FB2" stroke-width="1.5" stroke-linecap="round"/>
<path d="M334.103 172.692C332.683 170.584 329.759 170.81 327.792 172.692C324.154 176.173 322.642 183.2 328.109 183.841C333.577 184.482 332.403 173.443 327.808 177.28C326.001 178.851 327.86 181.361 329.01 180.677M320.89 179.086C320.89 178.839 321.293 170.213 329.01 168.945" stroke="#2E2FB2" stroke-width="1.5" stroke-linecap="round"/>
<path d="M218.799 259.078C217.335 256.904 214.321 257.137 212.292 259.078C208.542 262.666 206.983 269.911 212.62 270.572C218.256 271.232 217.047 259.851 212.309 263.807C210.446 265.427 212.362 268.014 213.549 267.31M205.177 265.669C205.177 265.414 205.593 256.521 213.549 255.214" stroke="#2E2FB2" stroke-width="1.5" stroke-linecap="round"/>
<path d="M5.45598 170.494L1.91232 165.762C0.881021 164.385 1.24117 162.421 2.69405 161.5V161.5C4.17153 160.563 4.51435 158.554 3.43122 157.179L2.5269 156.032C1.16203 154.301 1.56676 151.766 3.39272 150.531V150.531C5.19381 149.312 5.60419 146.818 4.27412 145.097V145.097C3.16635 143.664 3.23482 141.646 4.43715 140.291L6.72918 137.709" stroke="#2E2FB2" stroke-width="1.5" stroke-linecap="round"/>
<path d="M279.637 190.296L278.961 187.512C278.506 185.639 280.113 183.91 282.014 184.227V184.227C283.432 184.464 284.784 183.544 285.085 182.139L285.272 181.261C285.747 179.045 288.115 177.802 290.209 178.671L293.641 180.096" stroke="#2E2FB2" stroke-width="1.5" stroke-linecap="round"/>
<path d="M80.6091 89.935L81.8084 92.5371C82.6153 94.288 81.3707 96.2938 79.4436 96.3482V96.3482C78.0074 96.3887 76.8572 97.5517 76.8325 98.9882L76.8171 99.8853C76.7781 102.152 74.6926 103.827 72.4711 103.377L68.829 102.639" stroke="#2E2FB2" stroke-width="1.5" stroke-linecap="round"/>
<path d="M282.91 305.288C282.576 303.049 282.208 298.507 283.407 298.25C284.234 298.072 287.091 298.224 289.629 298.418C291.05 298.526 292.152 297.163 291.716 295.812V295.812C291.287 294.485 292.345 293.139 293.743 293.233L295.049 293.322C296.416 293.414 297.662 292.527 298.019 291.207L298.219 290.469C298.65 288.881 300.289 287.933 301.881 288.353V288.353C303.472 288.773 305.112 287.825 305.542 286.236L306.032 284.429" stroke="#2E2FB2" stroke-width="1.5" stroke-linecap="round"/>
<path d="M63.5659 171.943L68.2965 173.414C69.6575 173.838 70.247 175.436 69.4866 176.642V176.642C68.6875 177.909 69.3828 179.585 70.844 179.914L70.9995 179.949C72.4257 180.271 73.1857 181.832 72.559 183.153L72.469 183.342C71.8447 184.658 72.4996 186.225 73.8747 186.705L74.2553 186.837C75.635 187.319 76.4157 188.777 76.0516 190.192L74.7549 195.232" stroke="#2E2FB2" stroke-width="1.5" stroke-linecap="round"/>
</mask>
<g mask="url(#mask0_1_27329)">
<rect x="-2.63281" y="-20.7031" width="344.633" height="362.74" fill="url(#paint0_linear_1_27329)"/>
</g>
<g clip-path="url(#clip0_1_27329)">
<g clip-path="url(#clip1_1_27329)">
<path d="M141.75 153.469V203.469C141.75 205.678 139.959 207.469 137.75 207.469H102.25C101.145 207.469 100.25 206.574 100.25 205.469V185.463C100.25 180.959 102.58 176.776 106.41 174.408L110.25 172.031V153.469C110.25 151.26 112.041 149.469 114.25 149.469H137.75C139.959 149.469 141.75 151.26 141.75 153.469Z" fill="#DBE9F8"/>
<path d="M137.74 155.219C125.733 155.219 116 164.952 116 176.959V203.459C116 207.174 110.411 207.353 110.254 203.641C110.248 203.507 110.25 153.344 110.25 153.469C110.25 151.26 112.041 149.469 114.25 149.469H137.75C141.646 149.469 141.504 155.219 137.74 155.219Z" fill="#E3CEFC"/>
<path d="M135.196 149.469L133.411 152.683C133.195 153.072 132.878 153.397 132.494 153.623C132.11 153.849 131.672 153.969 131.226 153.969H121.024C120.116 153.969 119.28 153.476 118.839 152.683L117.054 149.469H135.196ZM120.255 192.313L110.25 200.781V203.469C110.25 205.678 112.041 207.469 114.25 207.469H102.25C101.145 207.469 100.25 206.573 100.25 205.469V185.463C100.25 180.959 102.58 176.776 106.41 174.408L110.25 172.031V189.156C116.407 185.77 116.507 185.556 117.778 185.556C121.342 185.556 122.97 190.014 120.255 192.313Z" fill="#9ABAFB"/>
<path d="M110.25 172.031V177.04C110.25 177.685 109.936 178.286 109.414 178.665C105.838 181.269 104 185.196 104 189.213V201.844C104 202.879 103.161 203.719 102.125 203.719C101.089 203.719 100.25 202.879 100.25 201.844V185.463C100.25 180.959 102.58 176.776 106.41 174.407L110.25 172.031ZM119.02 188.422L112.484 192.09C111.484 192.651 110.25 191.928 110.25 190.782V189.156L115.933 186.031C116.815 185.546 117.78 185.455 118.653 185.66C119.973 185.968 120.201 187.759 119.02 188.422Z" fill="#DBE9F8"/>
<path d="M109.25 173.826L106.936 175.258C103.376 177.461 101.25 181.276 101.25 185.462V207.469C101.25 207.734 101.145 207.988 100.957 208.176C100.77 208.363 100.515 208.469 100.25 208.469C99.9848 208.469 99.7304 208.363 99.5429 208.176C99.3554 207.988 99.25 207.734 99.25 207.469V185.462C99.25 180.61 101.766 176.105 105.884 173.557C110.034 170.989 109.862 171.031 110.25 171.031C110.79 171.031 111.236 171.464 111.249 172.008C111.251 172.084 111.25 185.697 111.25 185.774C111.25 186.535 112.066 187.016 112.732 186.65L115.451 185.154C117.656 183.942 120.379 184.601 121.785 186.688C121.861 186.797 121.914 186.919 121.942 187.049C121.969 187.178 121.971 187.312 121.947 187.442C121.922 187.572 121.872 187.696 121.799 187.807C121.726 187.918 121.632 188.013 121.523 188.087C121.413 188.161 121.289 188.212 121.159 188.238C121.03 188.264 120.896 188.264 120.766 188.238C120.636 188.212 120.513 188.16 120.403 188.086C120.294 188.011 120.2 187.916 120.127 187.805C119.303 186.583 117.707 186.196 116.415 186.907L113.696 188.402C111.696 189.502 109.25 188.056 109.25 185.774V173.826ZM137.75 148.469H114.25C111.493 148.469 109.25 150.712 109.25 153.469V162.844C109.25 163.109 109.355 163.363 109.543 163.551C109.73 163.738 109.985 163.844 110.25 163.844C110.515 163.844 110.77 163.738 110.957 163.551C111.145 163.363 111.25 163.109 111.25 162.844V153.469C111.25 151.815 112.596 150.469 114.25 150.469H116.465L117.965 153.168C118.268 153.714 118.712 154.169 119.249 154.485C119.787 154.802 120.4 154.969 121.024 154.969H131.226C131.491 154.969 131.745 154.863 131.933 154.676C132.12 154.488 132.226 154.234 132.226 153.969C132.226 153.704 132.12 153.449 131.933 153.262C131.745 153.074 131.491 152.969 131.226 152.969H121.024C120.757 152.969 120.494 152.897 120.264 152.761C120.033 152.626 119.843 152.431 119.713 152.197L118.753 150.469H137.75C139.404 150.469 140.75 151.815 140.75 153.469V203.469C140.75 205.123 139.404 206.469 137.75 206.469H114.25C112.596 206.469 111.25 205.123 111.25 203.469C111.25 202.615 111.111 201.362 112.312 200.346L120.901 193.075C121.103 192.904 121.229 192.659 121.251 192.395C121.273 192.131 121.189 191.868 121.018 191.666C120.933 191.566 120.829 191.483 120.713 191.423C120.596 191.363 120.468 191.326 120.338 191.315C120.207 191.305 120.075 191.32 119.95 191.36C119.825 191.4 119.709 191.464 119.609 191.549L111.02 198.82C109.101 200.444 109.25 202.496 109.25 203.469C109.25 206.226 111.493 208.469 114.25 208.469H137.75C140.507 208.469 142.75 206.226 142.75 203.469V153.469C142.75 150.712 140.507 148.469 137.75 148.469Z" fill="#8777DA"/>
<mask id="path-68-inside-1_1_27329" fill="white">
<path d="M134.517 174.134C134.94 173.778 134.997 173.142 134.594 172.765C133.575 171.81 132.332 171.118 130.972 170.755C129.29 170.307 127.51 170.386 125.874 170.982C124.237 171.578 122.824 172.663 121.824 174.089C120.824 175.514 120.286 177.213 120.283 178.954C120.28 180.696 120.813 182.396 121.808 183.825C122.803 185.255 124.213 186.344 125.847 186.945C127.481 187.547 129.261 187.632 130.945 187.189C132.305 186.832 133.551 186.143 134.573 185.192C134.977 184.816 134.922 184.18 134.501 183.822L129.685 179.734C129.213 179.333 129.214 178.605 129.687 178.207L134.517 174.134Z"/>
</mask>
<path d="M134.517 174.134C134.94 173.778 134.997 173.142 134.594 172.765C133.575 171.81 132.332 171.118 130.972 170.755C129.29 170.307 127.51 170.386 125.874 170.982C124.237 171.578 122.824 172.663 121.824 174.089C120.824 175.514 120.286 177.213 120.283 178.954C120.28 180.696 120.813 182.396 121.808 183.825C122.803 185.255 124.213 186.344 125.847 186.945C127.481 187.547 129.261 187.632 130.945 187.189C132.305 186.832 133.551 186.143 134.573 185.192C134.977 184.816 134.922 184.18 134.501 183.822L129.685 179.734C129.213 179.333 129.214 178.605 129.687 178.207L134.517 174.134Z" fill="#9ABAFB" stroke="#8777DA" stroke-width="3" mask="url(#path-68-inside-1_1_27329)"/>
<circle cx="132.886" cy="179.112" r="1.20947" fill="#8777DA"/>
<circle cx="137.551" cy="179.112" r="1.20947" fill="#8777DA"/>
</g>
<g clip-path="url(#clip2_1_27329)">
<path d="M193.25 153V203C193.25 205.209 195.041 207 197.25 207H232.75C233.855 207 234.75 206.105 234.75 205V184.994C234.75 180.49 232.42 176.308 228.59 173.939L224.75 171.563V153C224.75 150.791 222.959 149 220.75 149H197.25C195.041 149 193.25 150.791 193.25 153Z" fill="#DBE9F8"/>
<path d="M197.26 154.75C209.267 154.75 219 164.483 219 176.49V202.99C219 206.705 224.589 206.884 224.746 203.173C224.752 203.039 224.75 152.875 224.75 153C224.75 150.791 222.959 149 220.75 149H197.25C193.354 149 193.496 154.75 197.26 154.75Z" fill="#E3CEFC"/>
<path d="M199.804 149L201.589 152.214C201.805 152.603 202.122 152.928 202.506 153.154C202.89 153.381 203.328 153.5 203.774 153.5H213.976C214.884 153.5 215.72 153.008 216.161 152.214L217.946 149H199.804ZM214.745 191.844L224.75 200.313V203C224.75 205.209 222.959 207 220.75 207H232.75C233.855 207 234.75 206.105 234.75 205V184.994C234.75 180.49 232.42 176.308 228.59 173.939L224.75 171.563V188.688C218.593 185.301 218.493 185.088 217.222 185.088C213.658 185.088 212.03 189.546 214.745 191.844Z" fill="#9ABAFB"/>
<path d="M224.75 171.562V176.571C224.75 177.216 225.064 177.817 225.586 178.197C229.162 180.801 231 184.727 231 188.744V201.375C231 202.411 231.839 203.25 232.875 203.25C233.911 203.25 234.75 202.411 234.75 201.375V184.994C234.75 180.49 232.42 176.307 228.59 173.939L224.75 171.562ZM215.98 187.953L222.516 191.621C223.516 192.182 224.75 191.46 224.75 190.313V188.688L219.067 185.563C218.185 185.077 217.22 184.986 216.347 185.191C215.027 185.499 214.799 187.29 215.98 187.953Z" fill="#DBE9F8"/>
<path d="M225.75 173.357L228.064 174.789C231.624 176.992 233.75 180.807 233.75 184.994V207C233.75 207.265 233.855 207.52 234.043 207.707C234.23 207.895 234.485 208 234.75 208C235.015 208 235.27 207.895 235.457 207.707C235.645 207.52 235.75 207.265 235.75 207V184.994C235.75 180.141 233.234 175.636 229.116 173.088C224.966 170.521 225.138 170.562 224.75 170.562C224.21 170.562 223.764 170.995 223.751 171.539C223.749 171.615 223.75 185.229 223.75 185.305C223.75 186.066 222.934 186.548 222.268 186.181L219.549 184.686C217.344 183.473 214.621 184.132 213.215 186.219C213.139 186.328 213.086 186.451 213.058 186.58C213.031 186.71 213.029 186.843 213.053 186.974C213.078 187.104 213.128 187.228 213.201 187.338C213.274 187.449 213.368 187.544 213.477 187.618C213.587 187.692 213.711 187.744 213.841 187.769C213.97 187.795 214.104 187.795 214.234 187.769C214.364 187.743 214.487 187.691 214.597 187.617C214.706 187.543 214.8 187.447 214.873 187.337C215.697 186.114 217.293 185.727 218.585 186.438L221.304 187.933C223.304 189.033 225.75 187.587 225.75 185.305V173.357ZM197.25 148H220.75C223.507 148 225.75 150.243 225.75 153V162.375C225.75 162.64 225.645 162.895 225.457 163.082C225.27 163.27 225.015 163.375 224.75 163.375C224.485 163.375 224.23 163.27 224.043 163.082C223.855 162.895 223.75 162.64 223.75 162.375V153C223.75 151.346 222.404 150 220.75 150H218.535L217.035 152.7C216.732 153.245 216.288 153.7 215.751 154.016C215.213 154.333 214.6 154.5 213.976 154.5H203.774C203.509 154.5 203.255 154.395 203.067 154.207C202.88 154.02 202.774 153.765 202.774 153.5C202.774 153.235 202.88 152.98 203.067 152.793C203.255 152.605 203.509 152.5 203.774 152.5H213.976C214.243 152.5 214.506 152.428 214.736 152.293C214.967 152.157 215.157 151.962 215.287 151.728L216.247 150H197.25C195.596 150 194.25 151.346 194.25 153V203C194.25 204.654 195.596 206 197.25 206H220.75C222.404 206 223.75 204.654 223.75 203C223.75 202.146 223.889 200.893 222.688 199.877L214.099 192.607C213.897 192.435 213.771 192.191 213.749 191.926C213.727 191.662 213.811 191.4 213.982 191.197C214.067 191.097 214.171 191.014 214.287 190.954C214.404 190.894 214.532 190.858 214.662 190.847C214.793 190.836 214.925 190.851 215.05 190.891C215.175 190.931 215.291 190.995 215.391 191.08L223.98 198.351C225.899 199.975 225.75 202.027 225.75 203C225.75 205.757 223.507 208 220.75 208H197.25C194.493 208 192.25 205.757 192.25 203V153C192.25 150.243 194.493 148 197.25 148Z" fill="#8777DA"/>
<mask id="path-76-inside-2_1_27329" fill="white">
<path d="M200.483 173.666C200.06 173.31 200.003 172.674 200.406 172.296C201.425 171.341 202.668 170.649 204.028 170.287C205.71 169.838 207.49 169.917 209.126 170.514C210.763 171.11 212.176 172.194 213.176 173.62C214.176 175.046 214.714 176.744 214.717 178.486C214.72 180.227 214.187 181.927 213.192 183.357C212.197 184.786 210.787 185.875 209.153 186.477C207.519 187.078 205.739 187.163 204.055 186.721C202.695 186.363 201.449 185.675 200.427 184.723C200.023 184.347 200.078 183.711 200.499 183.354L205.315 179.265C205.787 178.865 205.786 178.137 205.313 177.738L200.483 173.666Z"/>
</mask>
<path d="M200.483 173.666C200.06 173.31 200.003 172.674 200.406 172.296C201.425 171.341 202.668 170.649 204.028 170.287C205.71 169.838 207.49 169.917 209.126 170.514C210.763 171.11 212.176 172.194 213.176 173.62C214.176 175.046 214.714 176.744 214.717 178.486C214.72 180.227 214.187 181.927 213.192 183.357C212.197 184.786 210.787 185.875 209.153 186.477C207.519 187.078 205.739 187.163 204.055 186.721C202.695 186.363 201.449 185.675 200.427 184.723C200.023 184.347 200.078 183.711 200.499 183.354L205.315 179.265C205.787 178.865 205.786 178.137 205.313 177.738L200.483 173.666Z" fill="#9ABAFB" stroke="#8777DA" stroke-width="3" mask="url(#path-76-inside-2_1_27329)"/>
<circle cx="1.20947" cy="1.20947" r="1.20947" transform="matrix(-1 0 0 1 203.323 177.434)" fill="#8777DA"/>
<circle cx="1.20947" cy="1.20947" r="1.20947" transform="matrix(-1 0 0 1 198.658 177.434)" fill="#8777DA"/>
</g>
<path d="M134.026 115.783C133.992 115.439 133.846 115.172 133.587 114.982C133.329 114.791 132.978 114.696 132.535 114.696C132.233 114.696 131.979 114.739 131.772 114.824C131.564 114.906 131.405 115.021 131.295 115.169C131.187 115.317 131.133 115.484 131.133 115.672C131.127 115.828 131.16 115.964 131.231 116.081C131.305 116.197 131.405 116.298 131.533 116.384C131.661 116.466 131.809 116.538 131.976 116.601C132.144 116.661 132.323 116.712 132.513 116.754L133.297 116.942C133.678 117.027 134.028 117.141 134.346 117.283C134.664 117.425 134.939 117.599 135.172 117.807C135.405 118.014 135.586 118.259 135.714 118.54C135.844 118.821 135.911 119.143 135.914 119.507C135.911 120.041 135.775 120.504 135.505 120.896C135.238 121.286 134.851 121.588 134.346 121.804C133.843 122.017 133.236 122.124 132.526 122.124C131.822 122.124 131.208 122.016 130.685 121.8C130.165 121.584 129.759 121.264 129.466 120.841C129.177 120.415 129.025 119.888 129.01 119.26H130.796C130.816 119.553 130.9 119.797 131.047 119.993C131.198 120.186 131.398 120.332 131.648 120.432C131.901 120.528 132.187 120.577 132.505 120.577C132.817 120.577 133.089 120.531 133.319 120.44C133.552 120.349 133.732 120.223 133.86 120.061C133.988 119.899 134.052 119.713 134.052 119.503C134.052 119.307 133.993 119.142 133.877 119.009C133.763 118.875 133.596 118.761 133.374 118.668C133.155 118.574 132.887 118.489 132.569 118.412L131.618 118.173C130.883 117.994 130.302 117.714 129.876 117.334C129.449 116.953 129.238 116.44 129.241 115.795C129.238 115.267 129.378 114.805 129.662 114.411C129.949 114.016 130.343 113.707 130.843 113.486C131.343 113.264 131.911 113.153 132.547 113.153C133.195 113.153 133.76 113.264 134.243 113.486C134.729 113.707 135.107 114.016 135.377 114.411C135.647 114.805 135.786 115.263 135.795 115.783H134.026ZM137.155 122V113.273H143.036V114.794H139V116.874H142.733V118.395H139V120.479H143.053V122H137.155ZM144.503 122V113.273H147.946C148.605 113.273 149.167 113.391 149.633 113.626C150.102 113.859 150.459 114.19 150.703 114.619C150.95 115.045 151.074 115.547 151.074 116.124C151.074 116.703 150.949 117.202 150.699 117.619C150.449 118.034 150.086 118.352 149.612 118.574C149.14 118.795 148.569 118.906 147.899 118.906H145.594V117.423H147.601C147.953 117.423 148.246 117.375 148.479 117.278C148.711 117.182 148.885 117.037 148.998 116.844C149.115 116.651 149.173 116.411 149.173 116.124C149.173 115.834 149.115 115.589 148.998 115.391C148.885 115.192 148.71 115.041 148.474 114.939C148.241 114.834 147.947 114.781 147.592 114.781H146.348V122H144.503ZM149.216 118.028L151.385 122H149.348L147.226 118.028H149.216ZM153.72 113.273L155.829 119.903H155.91L158.024 113.273H160.069L157.061 122H154.683L151.67 113.273H153.72ZM161.12 122V113.273H167.001V114.794H162.965V116.874H166.698V118.395H162.965V120.479H167.018V122H161.12ZM168.468 122V113.273H171.911C172.57 113.273 173.132 113.391 173.598 113.626C174.067 113.859 174.423 114.19 174.668 114.619C174.915 115.045 175.039 115.547 175.039 116.124C175.039 116.703 174.914 117.202 174.664 117.619C174.414 118.034 174.051 118.352 173.577 118.574C173.105 118.795 172.534 118.906 171.864 118.906H169.558V117.423H171.566C171.918 117.423 172.21 117.375 172.443 117.278C172.676 117.182 172.85 117.037 172.963 116.844C173.08 116.651 173.138 116.411 173.138 116.124C173.138 115.834 173.08 115.589 172.963 115.391C172.85 115.192 172.675 115.041 172.439 114.939C172.206 114.834 171.912 114.781 171.557 114.781H170.313V122H168.468ZM173.181 118.028L175.35 122H173.313L171.191 118.028H173.181ZM176.343 122V113.273H178.188V120.479H181.929V122H176.343ZM183.151 122V113.273H189.032V114.794H184.996V116.874H188.729V118.395H184.996V120.479H189.049V122H183.151ZM195.233 115.783C195.199 115.439 195.053 115.172 194.794 114.982C194.536 114.791 194.185 114.696 193.742 114.696C193.441 114.696 193.186 114.739 192.979 114.824C192.771 114.906 192.612 115.021 192.502 115.169C192.394 115.317 192.34 115.484 192.34 115.672C192.334 115.828 192.367 115.964 192.438 116.081C192.512 116.197 192.612 116.298 192.74 116.384C192.868 116.466 193.016 116.538 193.183 116.601C193.351 116.661 193.53 116.712 193.72 116.754L194.504 116.942C194.885 117.027 195.235 117.141 195.553 117.283C195.871 117.425 196.146 117.599 196.379 117.807C196.612 118.014 196.793 118.259 196.921 118.54C197.051 118.821 197.118 119.143 197.121 119.507C197.118 120.041 196.982 120.504 196.712 120.896C196.445 121.286 196.058 121.588 195.553 121.804C195.05 122.017 194.443 122.124 193.733 122.124C193.029 122.124 192.415 122.016 191.892 121.8C191.372 121.584 190.966 121.264 190.673 120.841C190.384 120.415 190.232 119.888 190.218 119.26H192.003C192.023 119.553 192.107 119.797 192.254 119.993C192.405 120.186 192.605 120.332 192.855 120.432C193.108 120.528 193.394 120.577 193.712 120.577C194.024 120.577 194.296 120.531 194.526 120.44C194.759 120.349 194.939 120.223 195.067 120.061C195.195 119.899 195.259 119.713 195.259 119.503C195.259 119.307 195.2 119.142 195.084 119.009C194.97 118.875 194.803 118.761 194.581 118.668C194.362 118.574 194.094 118.489 193.776 118.412L192.825 118.173C192.09 117.994 191.509 117.714 191.083 117.334C190.656 116.953 190.445 116.44 190.448 115.795C190.445 115.267 190.585 114.805 190.869 114.411C191.156 114.016 191.55 113.707 192.05 113.486C192.55 113.264 193.118 113.153 193.754 113.153C194.402 113.153 194.968 113.264 195.45 113.486C195.936 113.707 196.314 114.016 196.584 114.411C196.854 114.805 196.993 115.263 197.002 115.783H195.233ZM203.096 115.783C203.062 115.439 202.916 115.172 202.657 114.982C202.399 114.791 202.048 114.696 201.605 114.696C201.304 114.696 201.05 114.739 200.842 114.824C200.635 114.906 200.476 115.021 200.365 115.169C200.257 115.317 200.203 115.484 200.203 115.672C200.197 115.828 200.23 115.964 200.301 116.081C200.375 116.197 200.476 116.298 200.604 116.384C200.731 116.466 200.879 116.538 201.047 116.601C201.214 116.661 201.393 116.712 201.584 116.754L202.368 116.942C202.748 117.027 203.098 117.141 203.416 117.283C203.734 117.425 204.01 117.599 204.243 117.807C204.476 118.014 204.656 118.259 204.784 118.54C204.915 118.821 204.981 119.143 204.984 119.507C204.981 120.041 204.845 120.504 204.575 120.896C204.308 121.286 203.922 121.588 203.416 121.804C202.913 122.017 202.307 122.124 201.596 122.124C200.892 122.124 200.278 122.016 199.756 121.8C199.236 121.584 198.829 121.264 198.537 120.841C198.247 120.415 198.095 119.888 198.081 119.26H199.866C199.886 119.553 199.97 119.797 200.118 119.993C200.268 120.186 200.469 120.332 200.719 120.432C200.971 120.528 201.257 120.577 201.575 120.577C201.888 120.577 202.159 120.531 202.389 120.44C202.622 120.349 202.802 120.223 202.93 120.061C203.058 119.899 203.122 119.713 203.122 119.503C203.122 119.307 203.064 119.142 202.947 119.009C202.834 118.875 202.666 118.761 202.444 118.668C202.226 118.574 201.957 118.489 201.639 118.412L200.689 118.173C199.953 117.994 199.372 117.714 198.946 117.334C198.52 116.953 198.308 116.44 198.311 115.795C198.308 115.267 198.449 114.805 198.733 114.411C199.02 114.016 199.413 113.707 199.913 113.486C200.413 113.264 200.981 113.153 201.618 113.153C202.265 113.153 202.831 113.264 203.314 113.486C203.8 113.707 204.177 114.016 204.447 114.411C204.717 114.805 204.856 115.263 204.865 115.783H203.096ZM121.623 132.328H119.756C119.722 132.087 119.653 131.872 119.548 131.685C119.442 131.494 119.308 131.332 119.143 131.199C118.978 131.065 118.788 130.963 118.572 130.892C118.359 130.821 118.127 130.786 117.877 130.786C117.425 130.786 117.032 130.898 116.697 131.122C116.362 131.344 116.102 131.668 115.917 132.094C115.732 132.517 115.64 133.031 115.64 133.636C115.64 134.259 115.732 134.781 115.917 135.205C116.104 135.628 116.366 135.947 116.701 136.163C117.036 136.379 117.424 136.487 117.864 136.487C118.112 136.487 118.34 136.455 118.55 136.389C118.763 136.324 118.952 136.229 119.117 136.104C119.282 135.976 119.418 135.821 119.526 135.639C119.637 135.457 119.714 135.25 119.756 135.017L121.623 135.026C121.575 135.426 121.454 135.812 121.261 136.185C121.07 136.554 120.813 136.885 120.489 137.178C120.168 137.467 119.785 137.697 119.339 137.868C118.896 138.036 118.394 138.119 117.835 138.119C117.056 138.119 116.36 137.943 115.746 137.591C115.136 137.239 114.653 136.729 114.298 136.061C113.945 135.393 113.769 134.585 113.769 133.636C113.769 132.685 113.948 131.875 114.306 131.207C114.664 130.54 115.15 130.031 115.763 129.682C116.377 129.33 117.067 129.153 117.835 129.153C118.34 129.153 118.809 129.224 119.241 129.366C119.675 129.509 120.06 129.716 120.396 129.989C120.731 130.259 121.004 130.589 121.214 130.982C121.427 131.374 121.563 131.822 121.623 132.328ZM130.966 133.636C130.966 134.588 130.786 135.398 130.425 136.065C130.067 136.733 129.578 137.243 128.959 137.595C128.342 137.945 127.649 138.119 126.879 138.119C126.104 138.119 125.408 137.943 124.791 137.591C124.175 137.239 123.688 136.729 123.33 136.061C122.972 135.393 122.793 134.585 122.793 133.636C122.793 132.685 122.972 131.875 123.33 131.207C123.688 130.54 124.175 130.031 124.791 129.682C125.408 129.33 126.104 129.153 126.879 129.153C127.649 129.153 128.342 129.33 128.959 129.682C129.578 130.031 130.067 130.54 130.425 131.207C130.786 131.875 130.966 132.685 130.966 133.636ZM129.095 133.636C129.095 133.02 129.003 132.5 128.818 132.077C128.636 131.653 128.379 131.332 128.047 131.114C127.714 130.895 127.325 130.786 126.879 130.786C126.433 130.786 126.044 130.895 125.712 131.114C125.379 131.332 125.121 131.653 124.936 132.077C124.754 132.5 124.663 133.02 124.663 133.636C124.663 134.253 124.754 134.773 124.936 135.196C125.121 135.619 125.379 135.94 125.712 136.159C126.044 136.378 126.433 136.487 126.879 136.487C127.325 136.487 127.714 136.378 128.047 136.159C128.379 135.94 128.636 135.619 128.818 135.196C129.003 134.773 129.095 134.253 129.095 133.636ZM132.333 129.273H134.608L137.012 135.136H137.114L139.517 129.273H141.793V138H140.003V132.32H139.931L137.672 137.957H136.453L134.195 132.298H134.123V138H132.333V129.273ZM143.313 129.273H145.589L147.992 135.136H148.094L150.498 129.273H152.773V138H150.984V132.32H150.911L148.653 137.957H147.434L145.175 132.298H145.103V138H143.313V129.273ZM159.684 129.273H161.529V134.94C161.529 135.577 161.377 136.134 161.074 136.611C160.772 137.088 160.35 137.46 159.808 137.727C159.265 137.991 158.633 138.124 157.912 138.124C157.187 138.124 156.554 137.991 156.011 137.727C155.468 137.46 155.047 137.088 154.745 136.611C154.444 136.134 154.294 135.577 154.294 134.94V129.273H156.139V134.783C156.139 135.115 156.211 135.411 156.356 135.669C156.504 135.928 156.711 136.131 156.978 136.278C157.245 136.426 157.556 136.5 157.912 136.5C158.27 136.5 158.581 136.426 158.845 136.278C159.112 136.131 159.318 135.928 159.463 135.669C159.61 135.411 159.684 135.115 159.684 134.783V129.273ZM170.347 129.273V138H168.754L164.957 132.507H164.893V138H163.048V129.273H164.667L168.434 134.761H168.511V129.273H170.347ZM173.717 129.273V138H171.872V129.273H173.717ZM182.935 132.328H181.069C181.035 132.087 180.965 131.872 180.86 131.685C180.755 131.494 180.62 131.332 180.455 131.199C180.29 131.065 180.1 130.963 179.884 130.892C179.671 130.821 179.44 130.786 179.19 130.786C178.738 130.786 178.344 130.898 178.009 131.122C177.674 131.344 177.414 131.668 177.229 132.094C177.045 132.517 176.952 133.031 176.952 133.636C176.952 134.259 177.045 134.781 177.229 135.205C177.417 135.628 177.678 135.947 178.013 136.163C178.349 136.379 178.737 136.487 179.177 136.487C179.424 136.487 179.653 136.455 179.863 136.389C180.076 136.324 180.265 136.229 180.43 136.104C180.594 135.976 180.731 135.821 180.839 135.639C180.95 135.457 181.026 135.25 181.069 135.017L182.935 135.026C182.887 135.426 182.766 135.812 182.573 136.185C182.383 136.554 182.126 136.885 181.802 137.178C181.481 137.467 181.097 137.697 180.651 137.868C180.208 138.036 179.707 138.119 179.147 138.119C178.369 138.119 177.673 137.943 177.059 137.591C176.448 137.239 175.965 136.729 175.61 136.061C175.258 135.393 175.082 134.585 175.082 133.636C175.082 132.685 175.261 131.875 175.619 131.207C175.977 130.54 176.462 130.031 177.076 129.682C177.69 129.33 178.38 129.153 179.147 129.153C179.653 129.153 180.121 129.224 180.553 129.366C180.988 129.509 181.373 129.716 181.708 129.989C182.043 130.259 182.316 130.589 182.526 130.982C182.739 131.374 182.876 131.822 182.935 132.328ZM185.599 138H183.621L186.634 129.273H189.012L192.021 138H190.043L187.857 131.267H187.789L185.599 138ZM185.475 134.57H190.146V136.01H185.475V134.57ZM191.672 130.794V129.273H198.84V130.794H196.168V138H194.344V130.794H191.672ZM201.865 129.273V138H200.02V129.273H201.865ZM211.403 133.636C211.403 134.588 211.223 135.398 210.862 136.065C210.504 136.733 210.016 137.243 209.396 137.595C208.78 137.945 208.087 138.119 207.317 138.119C206.541 138.119 205.845 137.943 205.229 137.591C204.612 137.239 204.125 136.729 203.767 136.061C203.409 135.393 203.23 134.585 203.23 133.636C203.23 132.685 203.409 131.875 203.767 131.207C204.125 130.54 204.612 130.031 205.229 129.682C205.845 129.33 206.541 129.153 207.317 129.153C208.087 129.153 208.78 129.33 209.396 129.682C210.016 130.031 210.504 130.54 210.862 131.207C211.223 131.875 211.403 132.685 211.403 133.636ZM209.533 133.636C209.533 133.02 209.44 132.5 209.256 132.077C209.074 131.653 208.817 131.332 208.484 131.114C208.152 130.895 207.763 130.786 207.317 130.786C206.871 130.786 206.482 130.895 206.149 131.114C205.817 131.332 205.558 131.653 205.374 132.077C205.192 132.5 205.101 133.02 205.101 133.636C205.101 134.253 205.192 134.773 205.374 135.196C205.558 135.619 205.817 135.94 206.149 136.159C206.482 136.378 206.871 136.487 207.317 136.487C207.763 136.487 208.152 136.378 208.484 136.159C208.817 135.94 209.074 135.619 209.256 135.196C209.44 134.773 209.533 134.253 209.533 133.636ZM220.07 129.273V138H218.476L214.679 132.507H214.615V138H212.77V129.273H214.39L218.157 134.761H218.233V129.273H220.07Z" fill="#8777DA"/>
<path d="M166.392 157.23L177.027 162.566H182.241C182.241 161.723 182.978 160.34 184.591 160.34C186.205 160.34 187 161.554 187 162.566C187 163.578 186.275 165.096 184.591 165.096C182.908 165.096 182.241 163.639 182.241 162.566H177.027V168.528C177.027 168.906 176.814 169.252 176.476 169.421L171.48 171.928L177.027 174.711V180.672C177.027 181.05 176.814 181.396 176.476 181.566L171.48 184.072L177.027 186.855V193.434H181.566C181.566 191.916 182.473 190.904 184.087 190.904C185.701 190.904 186.608 192.422 186.608 193.434C186.608 194.952 185.701 195.964 184.087 195.964C182.473 195.964 181.566 194.952 181.566 193.434H177.027L166.392 198.77C166.104 198.914 165.764 198.911 165.479 198.761L155.878 193.715C155.55 193.542 155.344 193.201 155.344 192.83V186.855L160.639 184.072L155.878 181.57C155.55 181.397 155.344 181.057 155.344 180.685V174.711H150.493C150.493 175.65 150.219 177.241 148.284 177.241C146.349 177.241 146 175.599 146 174.711C146 173.823 146.775 172.687 148.284 172.687C149.793 172.687 150.493 173.772 150.493 174.711H155.344L160.639 171.928L155.878 169.426C155.55 169.253 155.344 168.912 155.344 168.54V162.566L165.479 157.239C165.764 157.089 166.104 157.086 166.392 157.23Z" fill="#DBE9F8"/>
<path d="M155.344 162.566L165.479 167.894C165.764 168.044 166.104 168.047 166.392 167.902L177.027 162.566M155.344 162.566L165.479 157.239C165.764 157.089 166.104 157.086 166.392 157.23L177.027 162.566M155.344 162.566V168.54C155.344 168.912 155.55 169.253 155.878 169.426L160.639 171.928M177.027 162.566V168.528C177.027 168.906 176.814 169.252 176.476 169.421L171.48 171.928M177.027 162.566H182.241M182.241 162.566C182.241 161.723 182.978 160.34 184.591 160.34C186.205 160.34 187 161.554 187 162.566C187 163.578 186.275 165.096 184.591 165.096C182.908 165.096 182.241 163.639 182.241 162.566ZM160.639 171.928L165.479 174.472C165.764 174.622 166.104 174.625 166.392 174.481L171.48 171.928M160.639 171.928L155.344 174.711M155.344 174.711L165.479 180.038C165.764 180.188 166.104 180.191 166.392 180.047L177.027 174.711M155.344 174.711V180.685C155.344 181.057 155.55 181.397 155.878 181.57L160.639 184.072M155.344 174.711H150.493M177.027 174.711L171.48 171.928M177.027 174.711V180.672C177.027 181.05 176.814 181.396 176.476 181.566L171.48 184.072M160.639 184.072L165.479 186.616C165.764 186.766 166.104 186.77 166.392 186.625L171.48 184.072M160.639 184.072L155.344 186.855M155.344 186.855V192.83C155.344 193.201 155.55 193.542 155.878 193.715L165.479 198.761C165.764 198.911 166.104 198.914 166.392 198.77L177.027 193.434M155.344 186.855L165.479 192.183C165.764 192.333 166.104 192.336 166.392 192.191L177.027 186.855M177.027 193.434V186.855M177.027 193.434H181.566M177.027 186.855L171.48 184.072M181.566 193.434C181.566 191.916 182.473 190.904 184.087 190.904C185.701 190.904 186.608 192.422 186.608 193.434C186.608 194.952 185.701 195.964 184.087 195.964C182.473 195.964 181.566 194.952 181.566 193.434ZM150.493 174.711C150.493 173.772 149.793 172.687 148.284 172.687C146.775 172.687 146 173.823 146 174.711C146 175.599 146.349 177.241 148.284 177.241C150.219 177.241 150.493 175.65 150.493 174.711Z" stroke="#8777DA" stroke-width="1.5"/>
</g>
<defs>
<linearGradient id="paint0_linear_1_27329" x1="354.487" y1="18.9716" x2="-56.8832" y2="400.786" gradientUnits="userSpaceOnUse">
<stop stop-color="#8DC8E9"/>
<stop offset="1" stop-color="#8C5AE3"/>
</linearGradient>
<clipPath id="clip0_1_27329">
<rect width="150" height="100" fill="white" transform="translate(92 110)"/>
</clipPath>
<clipPath id="clip1_1_27329">
<rect width="60" height="60" fill="white" transform="translate(91 148.469)"/>
</clipPath>
<clipPath id="clip2_1_27329">
<rect width="60" height="60" fill="white" transform="matrix(-1 0 0 1 244 148)"/>
</clipPath>
</defs>
</svg>
