<svg width="24" height="24" viewBox="0 0 24 24" fill="none" xmlns="http://www.w3.org/2000/svg">
<path d="M9.35001 14.7274C11.4839 14.7274 13.2137 12.9975 13.2137 10.8637C13.2137 8.72983 11.4839 7 9.35001 7C7.21616 7 5.48633 8.72983 5.48633 10.8637C5.48633 12.9975 7.21616 14.7274 9.35001 14.7274Z" stroke="white" stroke-width="1.5851" stroke-miterlimit="10"/>
<path d="M14.3574 7.14117C14.699 7.04854 15.0512 7.00108 15.4051 7C16.4298 7 17.4125 7.40707 18.1371 8.13165C18.8617 8.85623 19.2688 9.83897 19.2688 10.8637C19.2688 11.8884 18.8617 12.8711 18.1371 13.5957C17.4125 14.3203 16.4298 14.7274 15.4051 14.7274" stroke="white" stroke-width="1.5851" stroke-linecap="round" stroke-linejoin="round"/>
<path d="M4 17.5067C4.60329 16.6482 5.40433 15.9475 6.33546 15.4638C7.26658 14.9801 8.30045 14.7275 9.34972 14.7275C10.399 14.7275 11.4329 14.9801 12.364 15.4638C13.2951 15.9475 14.0961 16.6482 14.6994 17.5067" stroke="white" stroke-width="1.5851" stroke-linecap="round" stroke-linejoin="round"/>
<path d="M15.4043 14.7275C16.4537 14.7269 17.4877 14.9791 18.419 15.4628C19.3502 15.9465 20.1511 16.6475 20.754 17.5064" stroke="white" stroke-width="1.5851" stroke-linecap="round" stroke-linejoin="round"/>
</svg>
