<svg width="342" height="276" viewBox="0 0 342 276" fill="none" xmlns="http://www.w3.org/2000/svg">
<rect y="237" width="342" height="39" rx="10" fill="#C89DFB"/>
<path d="M22.8303 251.091H25.0621L27.7308 255.917H27.8374L30.506 251.091H32.7379L28.7695 257.93V262H26.7987V257.93L22.8303 251.091ZM36.0977 262.16C35.2987 262.16 34.6063 261.984 34.0203 261.632C33.4344 261.281 32.9798 260.789 32.6567 260.157C32.3371 259.525 32.1773 258.786 32.1773 257.941C32.1773 257.096 32.3371 256.355 32.6567 255.72C32.9798 255.084 33.4344 254.591 34.0203 254.239C34.6063 253.887 35.2987 253.712 36.0977 253.712C36.8968 253.712 37.5892 253.887 38.1752 254.239C38.7611 254.591 39.2139 255.084 39.5335 255.72C39.8566 256.355 40.0182 257.096 40.0182 257.941C40.0182 258.786 39.8566 259.525 39.5335 260.157C39.2139 260.789 38.7611 261.281 38.1752 261.632C37.5892 261.984 36.8968 262.16 36.0977 262.16ZM36.1084 260.615C36.5416 260.615 36.9039 260.496 37.195 260.258C37.4862 260.017 37.7029 259.694 37.8449 259.289C37.9905 258.884 38.0633 258.433 38.0633 257.936C38.0633 257.435 37.9905 256.982 37.8449 256.577C37.7029 256.169 37.4862 255.844 37.195 255.603C36.9039 255.361 36.5416 255.24 36.1084 255.24C35.6645 255.24 35.2952 255.361 35.0004 255.603C34.7093 255.844 34.4909 256.169 34.3453 256.577C34.2032 256.982 34.1322 257.435 34.1322 257.936C34.1322 258.433 34.2032 258.884 34.3453 259.289C34.4909 259.694 34.7093 260.017 35.0004 260.258C35.2952 260.496 35.6645 260.615 36.1084 260.615ZM46.8697 258.559V253.818H48.7979V262H46.9283V260.546H46.843C46.6584 261.004 46.3548 261.379 45.9322 261.67C45.5131 261.961 44.9964 262.107 44.3821 262.107C43.8459 262.107 43.3718 261.988 42.9599 261.75C42.5515 261.508 42.2319 261.158 42.0011 260.7C41.7702 260.239 41.6548 259.681 41.6548 259.028V253.818H43.5831V258.729C43.5831 259.248 43.7251 259.66 44.0092 259.965C44.2933 260.271 44.6662 260.423 45.1278 260.423C45.4119 260.423 45.6871 260.354 45.9535 260.216C46.2198 260.077 46.4382 259.871 46.6087 259.598C46.7827 259.321 46.8697 258.974 46.8697 258.559ZM56.1901 262L53.8783 253.818H55.8438L57.282 259.571H57.3566L58.8268 253.818H60.771L62.2412 259.539H62.3211L63.738 253.818H65.7089L63.3918 262H61.3836L59.8495 256.471H59.7377L58.2036 262H56.1901ZM70.3897 262.16C69.5907 262.16 68.8983 261.984 68.3123 261.632C67.7264 261.281 67.2718 260.789 66.9487 260.157C66.6291 259.525 66.4693 258.786 66.4693 257.941C66.4693 257.096 66.6291 256.355 66.9487 255.72C67.2718 255.084 67.7264 254.591 68.3123 254.239C68.8983 253.887 69.5907 253.712 70.3897 253.712C71.1887 253.712 71.8812 253.887 72.4672 254.239C73.0531 254.591 73.5059 255.084 73.8255 255.72C74.1486 256.355 74.3102 257.096 74.3102 257.941C74.3102 258.786 74.1486 259.525 73.8255 260.157C73.5059 260.789 73.0531 261.281 72.4672 261.632C71.8812 261.984 71.1887 262.16 70.3897 262.16ZM70.4004 260.615C70.8336 260.615 71.1958 260.496 71.487 260.258C71.7782 260.017 71.9949 259.694 72.1369 259.289C72.2825 258.884 72.3553 258.433 72.3553 257.936C72.3553 257.435 72.2825 256.982 72.1369 256.577C71.9949 256.169 71.7782 255.844 71.487 255.603C71.1958 255.361 70.8336 255.24 70.4004 255.24C69.9565 255.24 69.5872 255.361 69.2924 255.603C69.0012 255.844 68.7828 256.169 68.6373 256.577C68.4952 256.982 68.4242 257.435 68.4242 257.936C68.4242 258.433 68.4952 258.884 68.6373 259.289C68.7828 259.694 69.0012 260.017 69.2924 260.258C69.5872 260.496 69.9565 260.615 70.4004 260.615ZM77.8751 257.206V262H75.9468V253.818H77.7899V255.208H77.8857C78.074 254.75 78.374 254.386 78.786 254.116C79.2014 253.847 79.7146 253.712 80.3254 253.712C80.89 253.712 81.3818 253.832 81.8009 254.074C82.2235 254.315 82.5502 254.665 82.781 255.123C83.0154 255.581 83.1308 256.137 83.1272 256.79V262H81.199V257.089C81.199 256.542 81.0569 256.114 80.7728 255.805C80.4923 255.496 80.1034 255.342 79.6063 255.342C79.2689 255.342 78.9688 255.416 78.7061 255.565C78.4468 255.711 78.2426 255.922 78.0935 256.199C77.9479 256.476 77.8751 256.812 77.8751 257.206ZM87.3513 260.509L87.282 261.094C87.2323 261.542 87.1436 261.996 87.0157 262.458C86.8914 262.923 86.76 263.351 86.6215 263.742C86.483 264.132 86.3712 264.44 86.286 264.663H84.9862C85.036 264.447 85.1034 264.152 85.1887 263.779C85.2774 263.406 85.3627 262.987 85.4443 262.522C85.526 262.057 85.5811 261.585 85.6095 261.105L85.6468 260.509H87.3513ZM94.0936 265.068C93.8308 265.068 93.5875 265.047 93.3638 265.004C93.1436 264.965 92.9679 264.919 92.8365 264.866L93.2839 263.364C93.5645 263.445 93.8148 263.484 94.035 263.481C94.2551 263.477 94.4487 263.408 94.6156 263.273C94.786 263.142 94.9299 262.922 95.0471 262.613L95.2122 262.17L92.2452 253.818H94.2907L96.1763 259.997H96.2615L98.1525 253.818H100.203L96.9274 262.991C96.7747 263.424 96.5723 263.795 96.3201 264.104C96.068 264.417 95.7591 264.654 95.3933 264.818C95.0311 264.985 94.5978 265.068 94.0936 265.068ZM104.828 262.16C104.029 262.16 103.337 261.984 102.751 261.632C102.165 261.281 101.71 260.789 101.387 260.157C101.068 259.525 100.908 258.786 100.908 257.941C100.908 257.096 101.068 256.355 101.387 255.72C101.71 255.084 102.165 254.591 102.751 254.239C103.337 253.887 104.029 253.712 104.828 253.712C105.627 253.712 106.32 253.887 106.906 254.239C107.492 254.591 107.944 255.084 108.264 255.72C108.587 256.355 108.749 257.096 108.749 257.941C108.749 258.786 108.587 259.525 108.264 260.157C107.944 260.789 107.492 261.281 106.906 261.632C106.32 261.984 105.627 262.16 104.828 262.16ZM104.839 260.615C105.272 260.615 105.634 260.496 105.926 260.258C106.217 260.017 106.433 259.694 106.575 259.289C106.721 258.884 106.794 258.433 106.794 257.936C106.794 257.435 106.721 256.982 106.575 256.577C106.433 256.169 106.217 255.844 105.926 255.603C105.634 255.361 105.272 255.24 104.839 255.24C104.395 255.24 104.026 255.361 103.731 255.603C103.44 255.844 103.221 256.169 103.076 256.577C102.934 256.982 102.863 257.435 102.863 257.936C102.863 258.433 102.934 258.884 103.076 259.289C103.221 259.694 103.44 260.017 103.731 260.258C104.026 260.496 104.395 260.615 104.839 260.615ZM115.6 258.559V253.818H117.528V262H115.659V260.546H115.574C115.389 261.004 115.085 261.379 114.663 261.67C114.244 261.961 113.727 262.107 113.113 262.107C112.576 262.107 112.102 261.988 111.69 261.75C111.282 261.508 110.962 261.158 110.732 260.7C110.501 260.239 110.385 259.681 110.385 259.028V253.818H112.314V258.729C112.314 259.248 112.456 259.66 112.74 259.965C113.024 260.271 113.397 260.423 113.858 260.423C114.142 260.423 114.418 260.354 114.684 260.216C114.95 260.077 115.169 259.871 115.339 259.598C115.513 259.321 115.6 258.974 115.6 258.559ZM119.511 262V253.818H121.381V255.182H121.466C121.615 254.71 121.871 254.346 122.233 254.09C122.599 253.831 123.016 253.701 123.485 253.701C123.592 253.701 123.71 253.706 123.842 253.717C123.977 253.724 124.089 253.737 124.177 253.754V255.528C124.096 255.5 123.966 255.475 123.789 255.453C123.615 255.429 123.446 255.416 123.283 255.416C122.931 255.416 122.615 255.493 122.334 255.645C122.057 255.794 121.839 256.002 121.679 256.268C121.519 256.535 121.44 256.842 121.44 257.19V262H119.511ZM132.748 262.16C131.949 262.16 131.257 261.984 130.671 261.632C130.085 261.281 129.63 260.789 129.307 260.157C128.987 259.525 128.828 258.786 128.828 257.941C128.828 257.096 128.987 256.355 129.307 255.72C129.63 255.084 130.085 254.591 130.671 254.239C131.257 253.887 131.949 253.712 132.748 253.712C133.547 253.712 134.24 253.887 134.826 254.239C135.411 254.591 135.864 255.084 136.184 255.72C136.507 256.355 136.669 257.096 136.669 257.941C136.669 258.786 136.507 259.525 136.184 260.157C135.864 260.789 135.411 261.281 134.826 261.632C134.24 261.984 133.547 262.16 132.748 262.16ZM132.759 260.615C133.192 260.615 133.554 260.496 133.845 260.258C134.137 260.017 134.353 259.694 134.495 259.289C134.641 258.884 134.714 258.433 134.714 257.936C134.714 257.435 134.641 256.982 134.495 256.577C134.353 256.169 134.137 255.844 133.845 255.603C133.554 255.361 133.192 255.24 132.759 255.24C132.315 255.24 131.946 255.361 131.651 255.603C131.36 255.844 131.141 256.169 130.996 256.577C130.854 256.982 130.783 257.435 130.783 257.936C130.783 258.433 130.854 258.884 130.996 259.289C131.141 259.694 131.36 260.017 131.651 260.258C131.946 260.496 132.315 260.615 132.759 260.615ZM138.305 265.068V253.818H140.202V255.171H140.313C140.413 254.972 140.553 254.761 140.734 254.537C140.915 254.31 141.16 254.116 141.469 253.957C141.778 253.793 142.172 253.712 142.652 253.712C143.284 253.712 143.854 253.873 144.362 254.196C144.873 254.516 145.278 254.99 145.576 255.619C145.878 256.244 146.029 257.011 146.029 257.92C146.029 258.818 145.882 259.582 145.587 260.21C145.292 260.839 144.891 261.318 144.383 261.648C143.875 261.979 143.3 262.144 142.657 262.144C142.188 262.144 141.8 262.066 141.491 261.909C141.182 261.753 140.933 261.565 140.745 261.345C140.56 261.121 140.416 260.91 140.313 260.711H140.233V265.068H138.305ZM140.196 257.909C140.196 258.438 140.271 258.902 140.42 259.299C140.573 259.697 140.791 260.008 141.075 260.232C141.363 260.452 141.711 260.562 142.119 260.562C142.545 260.562 142.902 260.448 143.19 260.221C143.477 259.99 143.694 259.676 143.84 259.278C143.989 258.877 144.063 258.42 144.063 257.909C144.063 257.401 143.991 256.95 143.845 256.556C143.699 256.162 143.483 255.853 143.195 255.629C142.907 255.406 142.549 255.294 142.119 255.294C141.707 255.294 141.357 255.402 141.07 255.619C140.782 255.835 140.564 256.139 140.415 256.529C140.269 256.92 140.196 257.38 140.196 257.909ZM147.68 265.068V253.818H149.577V255.171H149.688C149.788 254.972 149.928 254.761 150.109 254.537C150.29 254.31 150.535 254.116 150.844 253.957C151.153 253.793 151.547 253.712 152.027 253.712C152.659 253.712 153.229 253.873 153.737 254.196C154.248 254.516 154.653 254.99 154.951 255.619C155.253 256.244 155.404 257.011 155.404 257.92C155.404 258.818 155.257 259.582 154.962 260.21C154.667 260.839 154.266 261.318 153.758 261.648C153.25 261.979 152.675 262.144 152.032 262.144C151.563 262.144 151.175 262.066 150.866 261.909C150.557 261.753 150.308 261.565 150.12 261.345C149.935 261.121 149.791 260.91 149.688 260.711H149.608V265.068H147.68ZM149.571 257.909C149.571 258.438 149.646 258.902 149.795 259.299C149.948 259.697 150.166 260.008 150.45 260.232C150.738 260.452 151.086 260.562 151.494 260.562C151.92 260.562 152.277 260.448 152.565 260.221C152.852 259.99 153.069 259.676 153.215 259.278C153.364 258.877 153.438 258.42 153.438 257.909C153.438 257.401 153.366 256.95 153.22 256.556C153.074 256.162 152.858 255.853 152.57 255.629C152.282 255.406 151.924 255.294 151.494 255.294C151.082 255.294 150.732 255.402 150.445 255.619C150.157 255.835 149.939 256.139 149.79 256.529C149.644 256.92 149.571 257.38 149.571 257.909ZM160.624 262.16C159.825 262.16 159.133 261.984 158.547 261.632C157.961 261.281 157.506 260.789 157.183 260.157C156.863 259.525 156.704 258.786 156.704 257.941C156.704 257.096 156.863 256.355 157.183 255.72C157.506 255.084 157.961 254.591 158.547 254.239C159.133 253.887 159.825 253.712 160.624 253.712C161.423 253.712 162.116 253.887 162.702 254.239C163.287 254.591 163.74 255.084 164.06 255.72C164.383 256.355 164.545 257.096 164.545 257.941C164.545 258.786 164.383 259.525 164.06 260.157C163.74 260.789 163.287 261.281 162.702 261.632C162.116 261.984 161.423 262.16 160.624 262.16ZM160.635 260.615C161.068 260.615 161.43 260.496 161.721 260.258C162.013 260.017 162.229 259.694 162.371 259.289C162.517 258.884 162.59 258.433 162.59 257.936C162.59 257.435 162.517 256.982 162.371 256.577C162.229 256.169 162.013 255.844 161.721 255.603C161.43 255.361 161.068 255.24 160.635 255.24C160.191 255.24 159.822 255.361 159.527 255.603C159.236 255.844 159.017 256.169 158.872 256.577C158.73 256.982 158.659 257.435 158.659 257.936C158.659 258.433 158.73 258.884 158.872 259.289C159.017 259.694 159.236 260.017 159.527 260.258C159.822 260.496 160.191 260.615 160.635 260.615ZM168.109 257.206V262H166.181V253.818H168.024V255.208H168.12C168.308 254.75 168.608 254.386 169.02 254.116C169.436 253.847 169.949 253.712 170.56 253.712C171.124 253.712 171.616 253.832 172.035 254.074C172.458 254.315 172.785 254.665 173.015 255.123C173.25 255.581 173.365 256.137 173.362 256.79V262H171.433V257.089C171.433 256.542 171.291 256.114 171.007 255.805C170.727 255.496 170.338 255.342 169.841 255.342C169.503 255.342 169.203 255.416 168.94 255.565C168.681 255.711 168.477 255.922 168.328 256.199C168.182 256.476 168.109 256.812 168.109 257.206ZM178.944 262.16C178.124 262.16 177.415 261.989 176.819 261.648C176.226 261.304 175.769 260.817 175.45 260.189C175.13 259.557 174.97 258.813 174.97 257.957C174.97 257.115 175.13 256.377 175.45 255.741C175.773 255.102 176.224 254.605 176.803 254.25C177.381 253.891 178.062 253.712 178.843 253.712C179.347 253.712 179.823 253.793 180.27 253.957C180.721 254.116 181.119 254.365 181.464 254.702C181.812 255.04 182.085 255.469 182.284 255.991C182.483 256.51 182.582 257.128 182.582 257.845V258.436H175.876V257.137H180.734C180.73 256.767 180.65 256.439 180.494 256.151C180.338 255.86 180.119 255.631 179.839 255.464C179.562 255.297 179.239 255.214 178.869 255.214C178.475 255.214 178.129 255.31 177.831 255.501C177.532 255.69 177.3 255.938 177.133 256.247C176.97 256.553 176.886 256.888 176.883 257.254V258.388C176.883 258.864 176.97 259.273 177.144 259.614C177.318 259.951 177.561 260.21 177.873 260.391C178.186 260.569 178.552 260.658 178.971 260.658C179.251 260.658 179.505 260.619 179.732 260.54C179.96 260.459 180.157 260.34 180.324 260.184C180.491 260.027 180.617 259.834 180.702 259.603L182.502 259.805C182.389 260.281 182.172 260.697 181.852 261.052C181.536 261.403 181.131 261.677 180.638 261.872C180.144 262.064 179.58 262.16 178.944 262.16ZM186.142 257.206V262H184.213V253.818H186.056V255.208H186.152C186.341 254.75 186.641 254.386 187.053 254.116C187.468 253.847 187.981 253.712 188.592 253.712C189.157 253.712 189.648 253.832 190.067 254.074C190.49 254.315 190.817 254.665 191.048 255.123C191.282 255.581 191.397 256.137 191.394 256.79V262H189.466V257.089C189.466 256.542 189.324 256.114 189.039 255.805C188.759 255.496 188.37 255.342 187.873 255.342C187.536 255.342 187.235 255.416 186.973 255.565C186.713 255.711 186.509 255.922 186.36 256.199C186.214 256.476 186.142 256.812 186.142 257.206ZM197.44 253.818V255.31H192.736V253.818H197.44ZM193.897 251.858H195.826V259.539C195.826 259.798 195.865 259.997 195.943 260.136C196.025 260.271 196.131 260.363 196.262 260.413C196.394 260.462 196.539 260.487 196.699 260.487C196.82 260.487 196.93 260.478 197.029 260.461C197.132 260.443 197.211 260.427 197.264 260.413L197.589 261.92C197.486 261.956 197.338 261.995 197.147 262.037C196.958 262.08 196.728 262.105 196.454 262.112C195.971 262.126 195.536 262.053 195.149 261.893C194.762 261.73 194.455 261.478 194.228 261.137C194.004 260.796 193.894 260.37 193.897 259.859V251.858ZM204.462 262L202.15 253.818H204.115L205.554 259.571H205.628L207.098 253.818H209.043L210.513 259.539H210.593L212.009 253.818H213.98L211.663 262H209.655L208.121 256.471H208.009L206.475 262H204.462ZM217.681 262.165C217.163 262.165 216.696 262.073 216.28 261.888C215.868 261.7 215.542 261.423 215.3 261.057C215.062 260.691 214.943 260.24 214.943 259.704C214.943 259.243 215.028 258.861 215.199 258.559C215.369 258.257 215.602 258.016 215.897 257.835C216.191 257.653 216.523 257.517 216.893 257.424C217.266 257.328 217.651 257.259 218.049 257.217C218.528 257.167 218.917 257.123 219.215 257.083C219.513 257.041 219.73 256.977 219.865 256.892C220.004 256.803 220.073 256.666 220.073 256.482V256.45C220.073 256.048 219.954 255.738 219.716 255.517C219.478 255.297 219.135 255.187 218.688 255.187C218.216 255.187 217.841 255.29 217.564 255.496C217.29 255.702 217.106 255.945 217.01 256.226L215.21 255.97C215.352 255.473 215.586 255.058 215.913 254.724C216.239 254.386 216.639 254.134 217.111 253.967C217.583 253.797 218.105 253.712 218.677 253.712C219.071 253.712 219.464 253.758 219.854 253.85C220.245 253.942 220.602 254.095 220.925 254.308C221.248 254.518 221.507 254.804 221.703 255.166C221.902 255.528 222.001 255.981 222.001 256.524V262H220.147V260.876H220.083C219.966 261.103 219.801 261.316 219.588 261.515C219.379 261.711 219.114 261.869 218.794 261.989C218.478 262.107 218.107 262.165 217.681 262.165ZM218.182 260.748C218.569 260.748 218.904 260.672 219.189 260.519C219.473 260.363 219.691 260.157 219.844 259.901C220 259.646 220.078 259.367 220.078 259.065V258.101C220.018 258.151 219.915 258.197 219.769 258.239C219.627 258.282 219.467 258.319 219.29 258.351C219.112 258.383 218.936 258.412 218.762 258.436C218.588 258.461 218.438 258.483 218.31 258.5C218.022 258.539 217.765 258.603 217.537 258.692C217.31 258.781 217.131 258.905 216.999 259.065C216.868 259.221 216.802 259.424 216.802 259.672C216.802 260.027 216.932 260.295 217.191 260.477C217.45 260.658 217.781 260.748 218.182 260.748ZM230.407 255.981L228.649 256.173C228.599 255.995 228.512 255.828 228.388 255.672C228.267 255.516 228.104 255.39 227.898 255.294C227.692 255.198 227.44 255.15 227.141 255.15C226.74 255.15 226.403 255.237 226.129 255.411C225.859 255.585 225.726 255.81 225.73 256.087C225.726 256.325 225.813 256.519 225.991 256.668C226.172 256.817 226.47 256.94 226.886 257.036L228.281 257.334C229.055 257.501 229.631 257.765 230.007 258.127C230.387 258.49 230.579 258.964 230.582 259.55C230.579 260.065 230.428 260.519 230.13 260.913C229.835 261.304 229.425 261.609 228.899 261.83C228.374 262.05 227.77 262.16 227.088 262.16C226.087 262.16 225.281 261.95 224.67 261.531C224.059 261.109 223.695 260.521 223.578 259.768L225.458 259.587C225.543 259.956 225.724 260.235 226.001 260.423C226.278 260.612 226.639 260.706 227.083 260.706C227.541 260.706 227.908 260.612 228.185 260.423C228.466 260.235 228.606 260.002 228.606 259.725C228.606 259.491 228.516 259.298 228.335 259.145C228.157 258.992 227.88 258.875 227.504 258.793L226.108 258.5C225.323 258.337 224.743 258.062 224.366 257.675C223.99 257.284 223.803 256.79 223.807 256.194C223.803 255.69 223.94 255.253 224.217 254.884C224.498 254.511 224.886 254.223 225.384 254.021C225.884 253.815 226.461 253.712 227.115 253.712C228.074 253.712 228.828 253.916 229.379 254.324C229.933 254.733 230.275 255.285 230.407 255.981ZM238.929 262.144C238.287 262.144 237.711 261.979 237.203 261.648C236.696 261.318 236.294 260.839 236 260.21C235.705 259.582 235.558 258.818 235.558 257.92C235.558 257.011 235.707 256.244 236.005 255.619C236.307 254.99 236.713 254.516 237.225 254.196C237.736 253.873 238.306 253.712 238.935 253.712C239.414 253.712 239.808 253.793 240.117 253.957C240.426 254.116 240.671 254.31 240.852 254.537C241.033 254.761 241.174 254.972 241.273 255.171H241.353V251.091H243.287V262H241.39V260.711H241.273C241.174 260.91 241.03 261.121 240.842 261.345C240.653 261.565 240.405 261.753 240.096 261.909C239.787 262.066 239.398 262.144 238.929 262.144ZM239.467 260.562C239.876 260.562 240.224 260.452 240.511 260.232C240.799 260.008 241.017 259.697 241.167 259.299C241.316 258.902 241.39 258.438 241.39 257.909C241.39 257.38 241.316 256.92 241.167 256.529C241.021 256.139 240.804 255.835 240.517 255.619C240.233 255.402 239.883 255.294 239.467 255.294C239.038 255.294 238.679 255.406 238.391 255.629C238.104 255.853 237.887 256.162 237.741 256.556C237.596 256.95 237.523 257.401 237.523 257.909C237.523 258.42 237.596 258.877 237.741 259.278C237.891 259.676 238.109 259.99 238.397 260.221C238.688 260.448 239.045 260.562 239.467 260.562ZM245.341 262V253.818H247.27V262H245.341ZM246.311 252.657C246.005 252.657 245.743 252.556 245.522 252.353C245.302 252.147 245.192 251.901 245.192 251.613C245.192 251.322 245.302 251.075 245.522 250.873C245.743 250.667 246.005 250.564 246.311 250.564C246.62 250.564 246.883 250.667 247.099 250.873C247.319 251.075 247.429 251.322 247.429 251.613C247.429 251.901 247.319 252.147 247.099 252.353C246.883 252.556 246.62 252.657 246.311 252.657ZM255.719 255.981L253.961 256.173C253.912 255.995 253.825 255.828 253.7 255.672C253.58 255.516 253.416 255.39 253.21 255.294C253.004 255.198 252.752 255.15 252.454 255.15C252.053 255.15 251.715 255.237 251.442 255.411C251.172 255.585 251.039 255.81 251.042 256.087C251.039 256.325 251.126 256.519 251.303 256.668C251.484 256.817 251.783 256.94 252.198 257.036L253.594 257.334C254.368 257.501 254.943 257.765 255.32 258.127C255.7 258.49 255.891 258.964 255.895 259.55C255.891 260.065 255.74 260.519 255.442 260.913C255.147 261.304 254.737 261.609 254.212 261.83C253.686 262.05 253.082 262.16 252.401 262.16C251.399 262.16 250.593 261.95 249.982 261.531C249.371 261.109 249.007 260.521 248.89 259.768L250.771 259.587C250.856 259.956 251.037 260.235 251.314 260.423C251.591 260.612 251.951 260.706 252.395 260.706C252.853 260.706 253.221 260.612 253.498 260.423C253.778 260.235 253.919 260.002 253.919 259.725C253.919 259.491 253.828 259.298 253.647 259.145C253.469 258.992 253.192 258.875 252.816 258.793L251.42 258.5C250.636 258.337 250.055 258.062 249.679 257.675C249.302 257.284 249.116 256.79 249.119 256.194C249.116 255.69 249.252 255.253 249.529 254.884C249.81 254.511 250.199 254.223 250.696 254.021C251.197 253.815 251.774 253.712 252.427 253.712C253.386 253.712 254.141 253.916 254.691 254.324C255.245 254.733 255.588 255.285 255.719 255.981ZM262.945 265.068V260.711H262.865C262.765 260.91 262.622 261.121 262.433 261.345C262.245 261.565 261.997 261.753 261.688 261.909C261.379 262.066 260.99 262.144 260.521 262.144C259.878 262.144 259.303 261.979 258.795 261.648C258.287 261.318 257.886 260.839 257.591 260.21C257.297 259.582 257.149 258.818 257.149 257.92C257.149 257.011 257.298 256.244 257.597 255.619C257.899 254.99 258.305 254.516 258.817 254.196C259.328 253.873 259.898 253.712 260.526 253.712C261.006 253.712 261.4 253.793 261.709 253.957C262.018 254.116 262.263 254.31 262.444 254.537C262.625 254.761 262.765 254.972 262.865 255.171H262.982V253.818H264.878V265.068H262.945ZM261.059 260.562C261.468 260.562 261.816 260.452 262.103 260.232C262.391 260.008 262.609 259.697 262.758 259.299C262.907 258.902 262.982 258.438 262.982 257.909C262.982 257.38 262.907 256.92 262.758 256.529C262.613 256.139 262.396 255.835 262.108 255.619C261.824 255.402 261.475 255.294 261.059 255.294C260.629 255.294 260.271 255.406 259.983 255.629C259.695 255.853 259.479 256.162 259.333 256.556C259.188 256.95 259.115 257.401 259.115 257.909C259.115 258.42 259.188 258.877 259.333 259.278C259.482 259.676 259.701 259.99 259.988 260.221C260.28 260.448 260.637 260.562 261.059 260.562ZM272.075 258.559V253.818H274.003V262H272.133V260.546H272.048C271.863 261.004 271.56 261.379 271.137 261.67C270.718 261.961 270.202 262.107 269.587 262.107C269.051 262.107 268.577 261.988 268.165 261.75C267.757 261.508 267.437 261.158 267.206 260.7C266.975 260.239 266.86 259.681 266.86 259.028V253.818H268.788V258.729C268.788 259.248 268.93 259.66 269.214 259.965C269.498 260.271 269.871 260.423 270.333 260.423C270.617 260.423 270.892 260.354 271.159 260.216C271.425 260.077 271.643 259.871 271.814 259.598C271.988 259.321 272.075 258.974 272.075 258.559ZM278.34 262.165C277.822 262.165 277.355 262.073 276.939 261.888C276.527 261.7 276.201 261.423 275.959 261.057C275.721 260.691 275.602 260.24 275.602 259.704C275.602 259.243 275.688 258.861 275.858 258.559C276.028 258.257 276.261 258.016 276.556 257.835C276.851 257.653 277.183 257.517 277.552 257.424C277.925 257.328 278.31 257.259 278.708 257.217C279.187 257.167 279.576 257.123 279.874 257.083C280.173 257.041 280.389 256.977 280.524 256.892C280.663 256.803 280.732 256.666 280.732 256.482V256.45C280.732 256.048 280.613 255.738 280.375 255.517C280.137 255.297 279.794 255.187 279.347 255.187C278.875 255.187 278.5 255.29 278.223 255.496C277.95 255.702 277.765 255.945 277.669 256.226L275.869 255.97C276.011 255.473 276.245 255.058 276.572 254.724C276.899 254.386 277.298 254.134 277.77 253.967C278.243 253.797 278.765 253.712 279.336 253.712C279.731 253.712 280.123 253.758 280.514 253.85C280.904 253.942 281.261 254.095 281.584 254.308C281.907 254.518 282.167 254.804 282.362 255.166C282.561 255.528 282.66 255.981 282.66 256.524V262H280.807V260.876H280.743C280.625 261.103 280.46 261.316 280.247 261.515C280.038 261.711 279.773 261.869 279.454 261.989C279.138 262.107 278.766 262.165 278.34 262.165ZM278.841 260.748C279.228 260.748 279.564 260.672 279.848 260.519C280.132 260.363 280.35 260.157 280.503 259.901C280.659 259.646 280.737 259.367 280.737 259.065V258.101C280.677 258.151 280.574 258.197 280.428 258.239C280.286 258.282 280.127 258.319 279.949 258.351C279.771 258.383 279.596 258.412 279.422 258.436C279.248 258.461 279.097 258.483 278.969 258.5C278.681 258.539 278.424 258.603 278.196 258.692C277.969 258.781 277.79 258.905 277.658 259.065C277.527 259.221 277.461 259.424 277.461 259.672C277.461 260.027 277.591 260.295 277.85 260.477C278.109 260.658 278.44 260.748 278.841 260.748ZM286.527 251.091V262H284.599V251.091H286.527ZM288.51 262V253.818H290.439V262H288.51ZM289.48 252.657C289.174 252.657 288.912 252.556 288.691 252.353C288.471 252.147 288.361 251.901 288.361 251.613C288.361 251.322 288.471 251.075 288.691 250.873C288.912 250.667 289.174 250.564 289.48 250.564C289.789 250.564 290.051 250.667 290.268 250.873C290.488 251.075 290.598 251.322 290.598 251.613C290.598 251.901 290.488 252.147 290.268 252.353C290.051 252.556 289.789 252.657 289.48 252.657ZM296.566 253.818V255.31H291.729V253.818H296.566ZM292.938 262V253.046C292.938 252.495 293.052 252.037 293.279 251.672C293.51 251.306 293.819 251.032 294.206 250.851C294.593 250.67 295.023 250.58 295.495 250.58C295.829 250.58 296.125 250.606 296.384 250.659C296.644 250.713 296.835 250.761 296.96 250.803L296.576 252.295C296.495 252.27 296.392 252.245 296.267 252.22C296.143 252.192 296.005 252.178 295.852 252.178C295.493 252.178 295.239 252.265 295.09 252.439C294.945 252.609 294.872 252.854 294.872 253.174V262H292.938ZM298.076 262V253.818H300.004V262H298.076ZM299.045 252.657C298.74 252.657 298.477 252.556 298.257 252.353C298.037 252.147 297.927 251.901 297.927 251.613C297.927 251.322 298.037 251.075 298.257 250.873C298.477 250.667 298.74 250.564 299.045 250.564C299.354 250.564 299.617 250.667 299.834 250.873C300.054 251.075 300.164 251.322 300.164 251.613C300.164 251.901 300.054 252.147 299.834 252.353C299.617 252.556 299.354 252.657 299.045 252.657ZM305.609 262.16C304.789 262.16 304.08 261.989 303.484 261.648C302.891 261.304 302.434 260.817 302.115 260.189C301.795 259.557 301.635 258.813 301.635 257.957C301.635 257.115 301.795 256.377 302.115 255.741C302.438 255.102 302.889 254.605 303.468 254.25C304.047 253.891 304.727 253.712 305.508 253.712C306.012 253.712 306.488 253.793 306.935 253.957C307.386 254.116 307.784 254.365 308.129 254.702C308.477 255.04 308.75 255.469 308.949 255.991C309.148 256.51 309.247 257.128 309.247 257.845V258.436H302.541V257.137H307.399C307.395 256.767 307.315 256.439 307.159 256.151C307.003 255.86 306.784 255.631 306.504 255.464C306.227 255.297 305.904 255.214 305.534 255.214C305.14 255.214 304.794 255.31 304.496 255.501C304.197 255.69 303.965 255.938 303.798 256.247C303.635 256.553 303.551 256.888 303.548 257.254V258.388C303.548 258.864 303.635 259.273 303.809 259.614C303.983 259.951 304.226 260.21 304.538 260.391C304.851 260.569 305.217 260.658 305.636 260.658C305.916 260.658 306.17 260.619 306.397 260.54C306.625 260.459 306.822 260.34 306.989 260.184C307.156 260.027 307.282 259.834 307.367 259.603L309.167 259.805C309.054 260.281 308.837 260.697 308.517 261.052C308.201 261.403 307.797 261.677 307.303 261.872C306.809 262.064 306.245 262.16 305.609 262.16ZM313.915 262.144C313.272 262.144 312.697 261.979 312.189 261.648C311.681 261.318 311.28 260.839 310.985 260.21C310.69 259.582 310.543 258.818 310.543 257.92C310.543 257.011 310.692 256.244 310.99 255.619C311.292 254.99 311.699 254.516 312.21 254.196C312.722 253.873 313.291 253.712 313.92 253.712C314.399 253.712 314.794 253.793 315.103 253.957C315.411 254.116 315.657 254.31 315.838 254.537C316.019 254.761 316.159 254.972 316.258 255.171H316.338V251.091H318.272V262H316.376V260.711H316.258C316.159 260.91 316.015 261.121 315.827 261.345C315.639 261.565 315.39 261.753 315.081 261.909C314.772 262.066 314.383 262.144 313.915 262.144ZM314.453 260.562C314.861 260.562 315.209 260.452 315.497 260.232C315.784 260.008 316.003 259.697 316.152 259.299C316.301 258.902 316.376 258.438 316.376 257.909C316.376 257.38 316.301 256.92 316.152 256.529C316.006 256.139 315.79 255.835 315.502 255.619C315.218 255.402 314.868 255.294 314.453 255.294C314.023 255.294 313.664 255.406 313.377 255.629C313.089 255.853 312.872 256.162 312.727 256.556C312.581 256.95 312.508 257.401 312.508 257.909C312.508 258.42 312.581 258.877 312.727 259.278C312.876 259.676 313.094 259.99 313.382 260.221C313.673 260.448 314.03 260.562 314.453 260.562Z" fill="white"/>
<path d="M216.969 89.1954H204.337V79.6621H136.334V89.1954H123.702C119.455 89.1954 116 92.6501 116 96.8971V104.461C116 118.445 125.539 130.213 138.444 133.685C142.282 144.138 151.084 152.163 162.014 154.918V168.613H159.712C150.518 168.613 143.066 176.066 143.066 185.26H197.611C197.611 176.066 190.158 168.613 180.965 168.613H178.661V154.918C189.59 152.162 198.393 144.138 202.231 133.685C215.135 130.213 224.675 118.444 224.675 104.461V96.8971C224.675 92.6501 221.22 89.1954 216.973 89.1954H216.969ZM124.321 104.46V97.519H136.331V121.987C136.331 122.668 136.394 123.334 136.433 124.005C129.276 120.379 124.32 113.017 124.32 104.461L124.321 104.46ZM181.561 129.253L170.333 123.351L159.104 129.253L161.249 116.751L152.165 107.896L164.718 106.072L170.332 94.6973L175.946 106.072L188.499 107.896L179.415 116.751L181.56 129.253H181.561ZM216.346 104.46C216.346 113.016 211.391 120.379 204.234 124.004C204.273 123.333 204.336 122.668 204.336 121.987V97.5184H216.345V104.46L216.346 104.46Z" fill="#C89DFB"/>
<path fill-rule="evenodd" clip-rule="evenodd" d="M170.668 79.6621H136.334V89.1954H123.702C119.455 89.1954 116 92.6501 116 96.8971V104.461C116 118.445 125.539 130.213 138.444 133.685C142.282 144.138 151.084 152.163 162.014 154.918V168.613H159.712C150.518 168.613 143.066 176.066 143.066 185.26H197.611C197.611 185.259 197.611 185.259 197.611 185.258H170.668V123.527L170.333 123.351L159.104 129.253L161.249 116.751L152.165 107.896L164.718 106.072L170.332 94.6973L170.668 95.378V79.6621ZM224.673 104.848C224.674 104.719 224.675 104.59 224.675 104.461V96.8971C224.675 96.8318 224.674 96.7667 224.673 96.7018V104.848ZM124.321 97.519V104.46L124.32 104.461C124.32 113.017 129.276 120.379 136.433 124.005C136.422 123.824 136.41 123.644 136.398 123.463C136.365 122.974 136.331 122.485 136.331 121.987V97.519H124.321Z" fill="#D9B9FE"/>
<path d="M28.0061 71.5149L4.38401 60.3576C2.77032 59.5955 2.88716 57.2617 4.5689 56.6645L69.7607 33.5144C70.8096 33.142 71.9607 33.6975 72.3218 34.7503L85.9197 74.3978C86.2729 75.4274 85.7377 76.5504 84.7155 76.9247L20.7294 100.352C19.061 100.963 17.4838 99.2571 18.2232 97.6415L28.9706 74.1556C29.4263 73.1598 28.9963 71.9827 28.0061 71.5149Z" fill="#C89DFB"/>
<path d="M28.0061 71.5149L4.38401 60.3576C2.77032 59.5955 2.88716 57.2617 4.5689 56.6645L69.7607 33.5144C70.8096 33.142 71.9607 33.6975 72.3218 34.7503L85.9197 74.3978C86.2729 75.4274 85.7377 76.5504 84.7155 76.9247L20.7294 100.352C19.061 100.963 17.4838 99.2571 18.2232 97.6415L28.9706 74.1556C29.4263 73.1598 28.9963 71.9827 28.0061 71.5149Z" fill="url(#paint0_linear_768_39361)"/>
<path d="M311.05 70.7484L337.229 59.247C338.907 58.5098 338.793 56.0917 337.052 55.5168L264.787 31.6472C263.764 31.3091 262.656 31.843 262.284 32.8544L247.238 73.6577C246.849 74.7125 247.406 75.8805 248.47 76.2429L319.529 100.442C321.215 101.017 322.754 99.2651 321.968 97.6663L310.06 73.4624C309.558 72.4408 310.008 71.2064 311.05 70.7484Z" fill="#C89DFB"/>
<path d="M311.05 70.7484L337.229 59.247C338.907 58.5098 338.793 56.0917 337.052 55.5168L264.787 31.6472C263.764 31.3091 262.656 31.843 262.284 32.8544L247.238 73.6577C246.849 74.7125 247.406 75.8805 248.47 76.2429L319.529 100.442C321.215 101.017 322.754 99.2651 321.968 97.6663L310.06 73.4624C309.558 72.4408 310.008 71.2064 311.05 70.7484Z" fill="url(#paint1_linear_768_39361)"/>
<path d="M42.6349 35.0671L62.1828 76.0342C63.1707 78.1044 65.6779 78.9288 67.74 77.9242C84.9358 69.5471 124.034 55.8144 169.862 55.5928C215.916 55.3702 257.213 69.4478 275.51 78.0049C277.578 78.972 280.058 78.1084 281.01 76.0332L299.774 35.1351C300.67 33.1832 299.88 30.8762 297.945 29.944C276.767 19.7399 230.338 2.00001 169.862 2C114.152 1.99999 65.1085 19.5433 44.3543 29.8985C42.4501 30.8486 41.7185 33.1465 42.6349 35.0671Z" fill="#9ABAFB"/>
<path d="M89.4663 39.5701L86.3673 40.9032C86.2082 40.5953 86.0172 40.3377 85.7943 40.1305C85.5714 39.9234 85.3209 39.772 85.0429 39.6766C84.7649 39.5811 84.4637 39.5469 84.1392 39.574C83.8174 39.5951 83.483 39.6804 83.1359 39.8297C82.5202 40.0945 82.0451 40.4773 81.7104 40.9781C81.38 41.4771 81.2004 42.07 81.1718 42.7568C81.1473 43.4419 81.2849 44.199 81.5846 45.0281C81.8966 45.8911 82.2779 46.5629 82.7286 47.0436C83.1819 47.5182 83.6811 47.8094 84.2261 47.9171C84.7738 48.0188 85.3492 47.9399 85.9525 47.6804C86.2913 47.5347 86.5831 47.3578 86.8279 47.1499C87.0767 46.9402 87.2759 46.7054 87.4255 46.4456C87.5777 46.1797 87.6776 45.8948 87.7252 45.5908C87.7755 45.2808 87.7709 44.9577 87.7115 44.6215L90.8174 43.3075C90.9716 43.9059 91.0133 44.543 90.9425 45.2187C90.8758 45.8926 90.6902 46.5614 90.3859 47.2251C90.08 47.8846 89.6371 48.4954 89.0573 49.0577C88.4817 49.6181 87.7579 50.0859 86.8861 50.4609C85.7374 50.955 84.6152 51.1396 83.5196 51.0145C82.4266 50.8835 81.438 50.4338 80.5539 49.6654C79.6697 48.897 78.97 47.8001 78.4546 46.3745C77.9377 44.9447 77.7661 43.6181 77.9398 42.3947C78.1134 41.1714 78.5615 40.1061 79.284 39.199C80.0065 38.2919 80.9317 37.5957 82.0598 37.1105C82.8283 36.7799 83.5788 36.5841 84.3112 36.5233C85.042 36.4582 85.7311 36.5284 86.3783 36.7339C87.024 36.9352 87.6112 37.2716 88.1398 37.7432C88.6684 38.2148 89.1105 38.8238 89.4663 39.5701Z" fill="white"/>
<path d="M100.893 45.1511C99.8529 45.4722 98.903 45.5326 98.0433 45.3324C97.1868 45.1265 96.456 44.6984 95.8509 44.0481C95.249 43.3921 94.8147 42.5503 94.5481 41.5228C94.2804 40.4909 94.2458 39.5258 94.4444 38.6274C94.6463 37.7233 95.063 36.9411 95.6947 36.2805C96.3296 35.6143 97.1671 35.1207 98.2073 34.7997C99.2474 34.4786 100.196 34.4211 101.052 34.627C101.912 34.8272 102.643 35.2553 103.245 35.9113C103.85 36.5616 104.286 37.4027 104.554 38.4346C104.821 39.4621 104.853 40.4279 104.651 41.3319C104.452 42.2303 104.036 43.0126 103.401 43.6788C102.769 44.3393 101.933 44.8301 100.893 45.1511ZM100.287 42.7353C100.665 42.6185 100.955 42.4022 101.156 42.0861C101.357 41.7701 101.473 41.3819 101.502 40.9214C101.535 40.4597 101.481 39.9545 101.338 39.4059C101.194 38.8486 100.996 38.3828 100.746 38.0086C100.5 37.6331 100.215 37.3682 99.8921 37.2141C99.569 37.0599 99.2183 37.0411 98.84 37.1579C98.4489 37.2786 98.1485 37.4983 97.9387 37.817C97.7332 38.1343 97.6138 38.5239 97.5804 38.9856C97.5513 39.4461 97.609 39.9549 97.7536 40.5122C97.896 41.0608 98.0901 41.5229 98.3361 41.8984C98.5864 42.2726 98.8753 42.5362 99.2028 42.689C99.5346 42.8406 99.896 42.856 100.287 42.7353Z" fill="white"/>
<path d="M111.564 35.7542L112.723 41.55L109.513 42.3133L107.481 32.1508L110.533 31.425L110.906 33.2908L111.018 33.2642C111.117 32.5892 111.4 32.0113 111.868 31.5305C112.335 31.0452 112.94 30.7141 113.684 30.5372C114.393 30.3687 115.04 30.3835 115.625 30.5816C116.214 30.7744 116.71 31.1231 117.113 31.6278C117.52 32.1271 117.798 32.7588 117.946 33.5229L119.241 40.0001L116.031 40.7634L114.863 34.9213C114.755 34.3556 114.524 33.9484 114.172 33.6995C113.824 33.4495 113.396 33.3849 112.888 33.5056C112.551 33.5857 112.269 33.7315 112.041 33.9428C111.816 34.1488 111.661 34.4051 111.576 34.7119C111.495 35.0176 111.491 35.365 111.564 35.7542Z" fill="white"/>
<path d="M128.49 43.3392C127.52 43.5118 126.669 43.5239 125.938 43.3754C125.207 43.227 124.608 42.9521 124.144 42.5506C123.679 42.1492 123.362 41.6575 123.193 41.0756L126.243 40.3549C126.332 40.5537 126.465 40.7172 126.644 40.8453C126.826 40.9727 127.05 41.0561 127.315 41.0957C127.585 41.1346 127.892 41.1232 128.238 41.0618C128.782 40.9649 129.212 40.7514 129.526 40.4215C129.846 40.0952 129.956 39.6029 129.858 38.9445L129.588 37.1428L129.475 37.1629C129.394 37.5016 129.241 37.8187 129.017 38.1144C128.793 38.41 128.497 38.6636 128.129 38.8753C127.765 39.0862 127.333 39.2362 126.832 39.3252C126.088 39.4576 125.38 39.4055 124.708 39.1688C124.04 38.9269 123.465 38.472 122.983 37.8042C122.505 37.1311 122.179 36.2141 122.005 35.053C121.826 33.8563 121.869 32.8371 122.134 31.9953C122.399 31.149 122.811 30.4843 123.37 30.0011C123.934 29.5171 124.573 29.2117 125.286 29.0848C125.822 28.9895 126.294 29.0013 126.703 29.1204C127.115 29.2342 127.467 29.4137 127.759 29.6587C128.05 29.9037 128.283 30.1705 128.458 30.4591L128.551 30.4425L128.288 28.6876L131.523 28.112L133.063 38.4015C133.193 39.2689 133.086 40.0393 132.741 40.7127C132.396 41.386 131.857 41.9455 131.124 42.3911C130.391 42.8412 129.513 43.1572 128.49 43.3392ZM127.606 36.7488C128 36.6786 128.321 36.5142 128.569 36.2555C128.816 35.9968 128.986 35.6583 129.078 35.24C129.17 34.8217 129.175 34.339 129.093 33.7919C129.01 33.2358 128.863 32.771 128.653 32.3974C128.446 32.0186 128.185 31.7454 127.868 31.5778C127.557 31.4095 127.204 31.3604 126.81 31.4305C126.407 31.5022 126.082 31.6741 125.837 31.9462C125.591 32.2183 125.425 32.5697 125.34 33.0005C125.258 33.4261 125.258 33.9125 125.34 34.4597C125.422 35.0068 125.565 35.4631 125.77 35.8286C125.975 36.1941 126.23 36.4569 126.536 36.6172C126.846 36.7766 127.203 36.8205 127.606 36.7488Z" fill="white"/>
<path d="M136.315 37.8387L135.183 27.537L138.361 27.1222L138.567 29.0001L138.674 28.9862C138.787 28.2821 139.037 27.737 139.424 27.3508C139.811 26.9602 140.286 26.7282 140.848 26.6548C140.999 26.635 141.157 26.6258 141.32 26.6272C141.482 26.6241 141.635 26.6337 141.777 26.6559L142.091 29.5063C141.929 29.473 141.719 29.4573 141.461 29.4592C141.208 29.4605 140.983 29.474 140.787 29.4996C140.399 29.5502 140.058 29.6831 139.765 29.8982C139.476 30.1083 139.259 30.3792 139.115 30.711C138.974 31.0378 138.927 31.4068 138.972 31.8182L139.586 37.4117L136.315 37.8387Z" fill="white"/>
<path d="M149.146 36.4612C148.487 36.5155 147.895 36.4537 147.368 36.2759C146.846 36.0932 146.422 35.7897 146.095 35.3653C145.772 34.9361 145.587 34.3805 145.539 33.6984C145.499 33.124 145.567 32.6311 145.741 32.2196C145.915 31.8081 146.171 31.4644 146.508 31.1884C146.845 30.9125 147.24 30.6926 147.693 30.529C148.146 30.3608 148.633 30.2327 149.154 30.1447C149.738 30.0425 150.207 29.9474 150.561 29.8596C150.916 29.7672 151.17 29.6583 151.323 29.5329C151.481 29.4025 151.553 29.2319 151.538 29.021L151.536 28.9874C151.512 28.6418 151.374 28.3846 151.124 28.2157C150.873 28.0468 150.546 27.979 150.142 28.0122C149.708 28.048 149.364 28.171 149.113 28.3812C148.862 28.5915 148.712 28.8656 148.663 29.2036L145.623 29.3456C145.669 28.7099 145.861 28.13 146.199 27.6058C146.541 27.0767 147.029 26.6438 147.664 26.3073C148.303 25.9658 149.084 25.7571 150.008 25.681C150.667 25.6268 151.28 25.6553 151.846 25.7666C152.413 25.8734 152.913 26.0579 153.346 26.3201C153.778 26.5778 154.121 26.9106 154.375 27.3185C154.633 27.7259 154.782 28.2034 154.819 28.7508L155.307 35.778L152.214 36.0327L152.114 34.5922L152.033 34.5989C151.874 34.964 151.659 35.2796 151.389 35.5455C151.123 35.8111 150.802 36.0203 150.425 36.1732C150.052 36.3257 149.626 36.4217 149.146 36.4612ZM150.012 34.2237C150.366 34.1946 150.68 34.0965 150.952 33.9297C151.229 33.7625 151.444 33.5462 151.597 33.2809C151.749 33.0111 151.814 32.7079 151.791 32.3714L151.723 31.3887C151.632 31.4458 151.521 31.5001 151.389 31.5515C151.262 31.6026 151.121 31.6526 150.967 31.7014C150.812 31.7502 150.653 31.7949 150.489 31.8355C150.325 31.876 150.167 31.9138 150.017 31.9488C149.711 32.0236 149.452 32.1217 149.239 32.243C149.031 32.3639 148.874 32.5122 148.769 32.6878C148.669 32.8586 148.626 33.0562 148.641 33.2805C148.665 33.6216 148.804 33.8719 149.059 34.0314C149.318 34.1906 149.636 34.2547 150.012 34.2237Z" fill="white"/>
<path d="M165.461 24.9229L165.53 27.3509L158.996 27.5714L158.927 25.1434L165.461 24.9229ZM160.225 22.6153L163.522 22.504L163.796 32.0878C163.802 32.2901 163.838 32.4532 163.905 32.577C163.975 32.6961 164.075 32.7805 164.202 32.8302C164.329 32.8754 164.481 32.8951 164.656 32.8892C164.782 32.8849 164.914 32.8692 165.053 32.842C165.196 32.8102 165.303 32.7841 165.375 32.7636L165.942 35.1276C165.786 35.1779 165.565 35.2416 165.279 35.3187C164.998 35.3957 164.659 35.4499 164.264 35.4812C163.492 35.5433 162.826 35.4757 162.267 35.2786C161.713 35.0768 161.282 34.7492 160.977 34.296C160.676 33.8426 160.52 33.265 160.509 32.5633L160.225 22.6153Z" fill="white"/>
<path d="M176.277 30.7815L176.365 24.8919L179.657 24.9513L179.503 35.3138L176.359 35.2571L176.388 33.3276L176.28 33.3256C176.041 33.9557 175.642 34.4523 175.083 34.8157C174.529 35.1746 173.863 35.347 173.085 35.3329C172.379 35.3202 171.761 35.1471 171.23 34.8136C170.7 34.4801 170.291 34.0206 170.003 33.435C169.714 32.845 169.574 32.1586 169.581 31.376L169.68 24.7712L172.979 24.8308L172.89 30.7879C172.886 31.3501 173.028 31.7958 173.315 32.1249C173.603 32.454 173.998 32.6231 174.502 32.6322C174.83 32.6382 175.126 32.5715 175.389 32.4323C175.656 32.2887 175.869 32.0788 176.026 31.8027C176.187 31.5222 176.271 31.1818 176.277 30.7815Z" fill="white"/>
<path d="M187.347 21.9243L186.573 35.7208L183.281 35.4999L184.055 21.7034L187.347 21.9243Z" fill="white"/>
<path d="M194.265 36.5473C193.608 36.4733 193.035 36.2978 192.546 36.021C192.062 35.7402 191.694 35.3593 191.441 34.8782C191.193 34.3932 191.102 33.8104 191.166 33.1297C191.22 32.5565 191.366 32.0842 191.605 31.7127C191.843 31.3413 192.15 31.0523 192.527 30.8458C192.903 30.6393 193.327 30.4992 193.799 30.4257C194.272 30.3477 194.772 30.3157 195.299 30.3299C195.89 30.3421 196.367 30.3392 196.73 30.3213C197.093 30.2988 197.361 30.2407 197.532 30.1469C197.709 30.0491 197.807 29.8949 197.827 29.6845L197.83 29.6509C197.862 29.3061 197.769 29.0263 197.55 28.8115C197.331 28.5967 197.02 28.4667 196.618 28.4214C196.184 28.3725 195.827 28.4273 195.545 28.5857C195.264 28.7441 195.072 28.9849 194.969 29.3083L191.955 28.8602C192.104 28.2433 192.387 27.7095 192.804 27.2587C193.227 26.8039 193.777 26.4722 194.457 26.2635C195.141 26.0509 195.943 25.9965 196.864 26.1002C197.521 26.1742 198.119 26.3208 198.659 26.54C199.199 26.7547 199.66 27.0329 200.044 27.3748C200.427 27.7122 200.711 28.1062 200.894 28.5568C201.082 29.0079 201.15 29.5066 201.099 30.053L200.437 37.0659L197.352 36.7185L197.488 35.281L197.408 35.2719C197.191 35.6006 196.929 35.8697 196.62 36.0793C196.316 36.2894 195.965 36.4333 195.57 36.5109C195.178 36.589 194.743 36.6011 194.265 36.5473ZM195.481 34.5118C195.834 34.5515 196.158 34.5156 196.453 34.404C196.752 34.293 196.999 34.1216 197.193 33.8899C197.386 33.6538 197.499 33.3678 197.531 33.032L197.624 32.0512C197.525 32.0899 197.407 32.1219 197.269 32.1471C197.136 32.1728 196.989 32.1947 196.829 32.2129C196.669 32.2311 196.505 32.2443 196.337 32.2526C196.17 32.2608 196.009 32.2676 195.854 32.2729C195.541 32.2874 195.27 32.3338 195.042 32.4121C194.817 32.491 194.639 32.6067 194.508 32.7593C194.381 32.9079 194.307 33.0942 194.285 33.3181C194.253 33.6585 194.349 33.9318 194.574 34.1381C194.803 34.3449 195.105 34.4695 195.481 34.5118Z" fill="white"/>
<path d="M211.1 28.2062L210.778 30.6137L204.321 29.5822L204.644 27.1748L211.1 28.2062ZM206.326 24.9299L209.584 25.4504L208.311 34.9532C208.284 35.1538 208.294 35.3215 208.339 35.4563C208.39 35.5873 208.473 35.6895 208.591 35.7629C208.708 35.8318 208.854 35.8801 209.027 35.9077C209.151 35.9276 209.284 35.9374 209.425 35.9371C209.57 35.9331 209.68 35.9278 209.753 35.9213L209.93 38.3607C209.769 38.3805 209.541 38.4011 209.248 38.4225C208.959 38.4447 208.618 38.4335 208.225 38.3889C207.456 38.3025 206.813 38.1087 206.296 37.8074C205.783 37.5024 205.413 37.0972 205.186 36.5919C204.963 36.0872 204.903 35.4879 205.005 34.7938L206.326 24.9299Z" fill="white"/>
<path d="M213.621 39.1692L215.301 28.9427L218.539 29.5771L216.859 39.8035L213.621 39.1692ZM217.119 28.0688C216.665 27.9797 216.299 27.7523 216.022 27.3865C215.746 27.0162 215.643 26.6158 215.714 26.1853C215.784 25.7592 216.007 25.4272 216.383 25.1894C216.76 24.9471 217.176 24.8705 217.63 24.9596C218.09 25.0495 218.455 25.2792 218.727 25.6486C219.004 26.0144 219.108 26.4104 219.037 26.8365C218.967 27.267 218.743 27.6034 218.366 27.8457C217.994 28.0844 217.579 28.1587 217.119 28.0688Z" fill="white"/>
<path d="M225.956 40.9649C224.897 40.7114 224.031 40.2753 223.358 39.6565C222.689 39.0344 222.229 38.2816 221.975 37.3981C221.727 36.5114 221.707 35.5476 221.916 34.5068C222.126 33.4616 222.513 32.5953 223.078 31.9077C223.648 31.2167 224.355 30.7435 225.199 30.4881C226.049 30.2293 227.003 30.2266 228.062 30.48C229.12 30.7335 229.984 31.1712 230.652 31.7934C231.325 32.4122 231.786 33.165 232.035 34.0518C232.288 34.9352 232.31 35.8995 232.1 36.9447C231.891 37.9855 231.502 38.8513 230.932 39.5423C230.367 40.2299 229.66 40.7031 228.81 40.9619C227.966 41.2173 227.014 41.2183 225.956 40.9649ZM226.466 38.5286C226.851 38.6208 227.201 38.5797 227.515 38.4055C227.83 38.2312 228.1 37.9491 228.325 37.5593C228.554 37.1705 228.725 36.6983 228.836 36.1426C228.95 35.5781 228.977 35.0669 228.917 34.609C228.862 34.1521 228.725 33.7727 228.506 33.4706C228.287 33.1686 227.985 32.9715 227.6 32.8794C227.202 32.7841 226.842 32.8225 226.518 32.9947C226.199 33.1679 225.925 33.4489 225.695 33.8377C225.47 34.2276 225.301 34.7047 225.188 35.2692C225.076 35.8249 225.048 36.3312 225.103 36.788C225.162 37.246 225.304 37.6264 225.527 37.9295C225.755 38.2336 226.068 38.4333 226.466 38.5286Z" fill="white"/>
<path d="M239.438 38.1829L238.011 43.9187L234.848 42.9813L237.349 32.924L240.357 33.8154L239.898 35.6619L240.008 35.6945C240.381 35.1442 240.876 34.773 241.493 34.581C242.112 34.3846 242.788 34.395 243.521 34.6123C244.219 34.8193 244.786 35.1582 245.22 35.629C245.659 36.0966 245.95 36.6563 246.094 37.3082C246.243 37.9569 246.221 38.6582 246.029 39.4121L244.435 45.8223L241.272 44.8849L242.709 39.1033C242.853 38.5458 242.821 38.0678 242.615 37.6691C242.412 37.2718 242.061 36.999 241.561 36.8507C241.229 36.7523 240.917 36.7396 240.626 36.8126C240.34 36.8825 240.094 37.0324 239.889 37.2621C239.688 37.4931 239.537 37.8001 239.438 38.1829Z" fill="white"/>
<path d="M258.391 43.0395L255.513 42.1043C255.545 41.8868 255.519 41.6751 255.435 41.4689C255.352 41.2585 255.218 41.0704 255.033 40.9047C254.854 40.7362 254.626 40.603 254.351 40.5053C253.991 40.3774 253.661 40.3417 253.363 40.398C253.07 40.4559 252.888 40.6106 252.817 40.8621C252.755 41.0546 252.782 41.2498 252.896 41.4477C253.015 41.6471 253.267 41.8629 253.653 42.095L255.427 43.1248C256.345 43.6604 256.977 44.2322 257.321 44.8404C257.669 45.4501 257.737 46.1178 257.526 46.8435C257.319 47.5232 256.943 48.0453 256.398 48.4098C255.858 48.7758 255.207 48.9787 254.445 49.0183C253.685 49.0536 252.868 48.9163 251.995 48.6065C250.6 48.1118 249.587 47.4305 248.955 46.5628C248.328 45.6923 248.104 44.7453 248.282 43.7217L251.376 44.7337C251.336 45.1199 251.43 45.4582 251.658 45.7486C251.885 46.0391 252.219 46.2625 252.66 46.4189C253.059 46.5602 253.406 46.5998 253.701 46.5377C253.996 46.4755 254.183 46.3202 254.261 46.0716C254.324 45.8459 254.28 45.6325 254.129 45.4311C253.979 45.2255 253.712 45.0117 253.328 44.7897L251.722 43.8554C250.797 43.327 250.167 42.7342 249.833 42.0771C249.501 41.4157 249.449 40.7064 249.679 39.9492C249.873 39.2838 250.215 38.7785 250.707 38.4334C251.2 38.084 251.808 37.8994 252.531 37.8794C253.254 37.8594 254.057 38.0059 254.939 38.3187C256.261 38.7879 257.22 39.4402 257.815 40.2756C258.411 41.1067 258.603 42.028 258.391 43.0395Z" fill="white"/>
<path d="M268.12 39.8123L264.683 48.7487L262.121 47.6869L264.985 38.5128L268.12 39.8123ZM261.944 52.3968C261.5 52.2125 261.173 51.8926 260.966 51.4371C260.762 50.9834 260.74 50.5271 260.9 50.0683C261.057 49.618 261.348 49.2989 261.775 49.1112C262.207 48.921 262.646 48.918 263.091 49.1022C263.519 49.2796 263.838 49.5969 264.05 50.0541C264.268 50.5088 264.298 50.9613 264.141 51.4116C264.035 51.7175 263.861 51.9639 263.62 52.1509C263.383 52.3395 263.117 52.4574 262.82 52.5044C262.527 52.5532 262.235 52.5174 261.944 52.3968Z" fill="white"/>
<path d="M41 211C41 208.791 42.7909 207 45 207H115C117.209 207 119 208.791 119 211V229H41V211Z" fill="#9ABAFB"/>
<path d="M41 211C41 208.791 42.7909 207 45 207H115C117.209 207 119 208.791 119 211V229H41V211Z" fill="url(#paint2_linear_768_39361)"/>
<path d="M222 218C222 215.791 223.791 214 226 214H296C298.209 214 300 215.791 300 218V229H222V218Z" fill="#9ABAFB"/>
<path d="M222 218C222 215.791 223.791 214 226 214H296C298.209 214 300 215.791 300 218V229H222V218Z" fill="url(#paint3_linear_768_39361)"/>
<path d="M123 196C123 193.791 124.791 192 127 192H214C216.209 192 218 193.791 218 196V229H123V196Z" fill="#9ABAFB"/>
<path d="M123 196C123 193.791 124.791 192 127 192H214C216.209 192 218 193.791 218 196V229H123V196Z" fill="url(#paint4_linear_768_39361)"/>
<path d="M173.121 201.818V220H168.185V206.364H168.078L164.101 208.743V204.553L168.575 201.818H173.121Z" fill="white"/>
<defs>
<linearGradient id="paint0_linear_768_39361" x1="89.6915" y1="40.4025" x2="12.6019" y2="134.653" gradientUnits="userSpaceOnUse">
<stop stop-color="#8DC8E9"/>
<stop offset="1" stop-color="#8C5AE3"/>
</linearGradient>
<linearGradient id="paint1_linear_768_39361" x1="243.07" y1="38.8021" x2="320.84" y2="141.024" gradientUnits="userSpaceOnUse">
<stop stop-color="#8DC8E9"/>
<stop offset="1" stop-color="#8C5AE3"/>
</linearGradient>
<linearGradient id="paint2_linear_768_39361" x1="121.826" y1="209.406" x2="108.491" y2="255.594" gradientUnits="userSpaceOnUse">
<stop stop-color="#8DC8E9"/>
<stop offset="1" stop-color="#8C5AE3"/>
</linearGradient>
<linearGradient id="paint3_linear_768_39361" x1="302.826" y1="215.641" x2="296.361" y2="248.484" gradientUnits="userSpaceOnUse">
<stop stop-color="#8DC8E9"/>
<stop offset="1" stop-color="#8C5AE3"/>
</linearGradient>
<linearGradient id="paint4_linear_768_39361" x1="221.442" y1="196.047" x2="192.493" y2="268.66" gradientUnits="userSpaceOnUse">
<stop stop-color="#8DC8E9"/>
<stop offset="1" stop-color="#8C5AE3"/>
</linearGradient>
</defs>
</svg>
