<svg width="342" height="319" viewBox="0 0 342 319" fill="none" xmlns="http://www.w3.org/2000/svg">
<rect x="112.75" y="264.893" width="28.5" height="13.5" rx="6.75" fill="white"/>
<path d="M121.371 275.779C121.231 275.779 121.101 275.768 120.982 275.745C120.864 275.724 120.77 275.699 120.7 275.671L120.939 274.87C121.089 274.913 121.222 274.934 121.339 274.932C121.457 274.93 121.56 274.894 121.649 274.822C121.74 274.751 121.817 274.634 121.879 274.469L121.967 274.233L120.385 269.779H121.476L122.482 273.074H122.527L123.536 269.779H124.629L122.882 274.671C122.801 274.902 122.693 275.1 122.558 275.265C122.424 275.431 122.259 275.558 122.064 275.645C121.871 275.734 121.64 275.779 121.371 275.779ZM127.124 274.228C126.687 274.228 126.309 274.137 125.991 273.955C125.674 273.771 125.431 273.512 125.261 273.177C125.09 272.84 125.005 272.443 125.005 271.986C125.005 271.537 125.09 271.144 125.261 270.805C125.433 270.464 125.674 270.198 125.982 270.009C126.291 269.818 126.654 269.722 127.07 269.722C127.339 269.722 127.593 269.766 127.832 269.853C128.072 269.938 128.284 270.071 128.468 270.251C128.654 270.43 128.799 270.66 128.906 270.938C129.012 271.215 129.065 271.544 129.065 271.927V272.242H125.488V271.549H128.079C128.077 271.352 128.034 271.177 127.951 271.023C127.868 270.868 127.751 270.746 127.602 270.657C127.454 270.568 127.281 270.523 127.085 270.523C126.874 270.523 126.69 270.574 126.531 270.677C126.371 270.777 126.247 270.91 126.158 271.074C126.071 271.237 126.027 271.416 126.025 271.611V272.216C126.025 272.47 126.071 272.688 126.164 272.87C126.257 273.05 126.387 273.188 126.553 273.285C126.72 273.379 126.915 273.427 127.138 273.427C127.288 273.427 127.424 273.406 127.545 273.364C127.666 273.321 127.771 273.257 127.86 273.174C127.949 273.09 128.016 272.987 128.062 272.864L129.022 272.972C128.961 273.226 128.846 273.448 128.675 273.637C128.507 273.824 128.291 273.97 128.028 274.074C127.764 274.177 127.463 274.228 127.124 274.228ZM133.384 270.932L132.446 271.035C132.42 270.94 132.373 270.851 132.307 270.768C132.242 270.684 132.155 270.617 132.045 270.566C131.936 270.515 131.801 270.489 131.642 270.489C131.428 270.489 131.248 270.536 131.102 270.628C130.958 270.721 130.887 270.841 130.889 270.989C130.887 271.116 130.934 271.219 131.028 271.299C131.125 271.378 131.284 271.444 131.506 271.495L132.25 271.654C132.663 271.743 132.97 271.884 133.17 272.077C133.373 272.27 133.475 272.523 133.477 272.836C133.475 273.11 133.395 273.353 133.236 273.563C133.079 273.771 132.86 273.934 132.58 274.052C132.299 274.169 131.977 274.228 131.614 274.228C131.08 274.228 130.65 274.116 130.324 273.893C129.998 273.667 129.804 273.354 129.741 272.952L130.744 272.856C130.79 273.053 130.886 273.201 131.034 273.302C131.182 273.402 131.374 273.452 131.611 273.452C131.855 273.452 132.051 273.402 132.199 273.302C132.348 273.201 132.423 273.077 132.423 272.93C132.423 272.805 132.375 272.701 132.278 272.62C132.184 272.538 132.036 272.476 131.835 272.432L131.091 272.276C130.672 272.189 130.363 272.042 130.162 271.836C129.961 271.627 129.862 271.364 129.864 271.046C129.862 270.777 129.935 270.544 130.082 270.347C130.232 270.148 130.439 269.995 130.705 269.887C130.972 269.777 131.279 269.722 131.628 269.722C132.139 269.722 132.542 269.831 132.835 270.049C133.131 270.267 133.313 270.561 133.384 270.932Z" fill="#8777DA"/>
<rect x="112.75" y="264.893" width="28.5" height="13.5" rx="6.75" stroke="#8777DA" stroke-width="1.5"/>
<path d="M38.5 125L42.8301 117.5H34.1699L38.5 125ZM84.5 87.25C84.9142 87.25 85.25 86.9142 85.25 86.5C85.25 86.0858 84.9142 85.75 84.5 85.75V87.25ZM39.25 118.25V91.5H37.75V118.25H39.25ZM43.5 87.25H84.5V85.75H43.5V87.25ZM39.25 91.5C39.25 89.1528 41.1528 87.25 43.5 87.25V85.75C40.3244 85.75 37.75 88.3244 37.75 91.5H39.25Z" fill="#9ABAFB"/>
<rect x="105" y="299.749" width="45" height="19" rx="9.5" fill="#DBE9F8"/>
<path d="M113.823 312.749V305.476H118.482V306.58H115.14V308.555H118.162V309.659H115.14V312.749H113.823ZM119.625 312.749V307.294H120.911V312.749H119.625ZM120.272 306.52C120.068 306.52 119.893 306.452 119.746 306.317C119.599 306.18 119.526 306.016 119.526 305.824C119.526 305.63 119.599 305.465 119.746 305.33C119.893 305.193 120.068 305.124 120.272 305.124C120.478 305.124 120.653 305.193 120.797 305.33C120.944 305.465 121.017 305.63 121.017 305.824C121.017 306.016 120.944 306.18 120.797 306.317C120.653 306.452 120.478 306.52 120.272 306.52ZM123.518 309.553V312.749H122.233V307.294H123.461V308.221H123.525C123.651 307.915 123.851 307.673 124.126 307.493C124.403 307.313 124.745 307.223 125.152 307.223C125.528 307.223 125.856 307.303 126.135 307.464C126.417 307.625 126.635 307.859 126.789 308.164C126.945 308.469 127.022 308.84 127.02 309.276V312.749H125.734V309.474C125.734 309.11 125.64 308.825 125.45 308.619C125.263 308.413 125.004 308.31 124.672 308.31C124.448 308.31 124.247 308.359 124.072 308.459C123.899 308.556 123.763 308.697 123.664 308.881C123.567 309.066 123.518 309.29 123.518 309.553ZM128.327 312.749V307.294H129.612V312.749H128.327ZM128.973 306.52C128.769 306.52 128.594 306.452 128.447 306.317C128.3 306.18 128.227 306.016 128.227 305.824C128.227 305.63 128.3 305.465 128.447 305.33C128.594 305.193 128.769 305.124 128.973 305.124C129.179 305.124 129.354 305.193 129.498 305.33C129.645 305.465 129.719 305.63 129.719 305.824C129.719 306.016 129.645 306.18 129.498 306.317C129.354 306.452 129.179 306.52 128.973 306.52ZM135.245 308.736L134.073 308.864C134.04 308.745 133.982 308.634 133.899 308.53C133.819 308.426 133.71 308.342 133.572 308.278C133.435 308.214 133.267 308.182 133.068 308.182C132.801 308.182 132.576 308.24 132.393 308.356C132.214 308.472 132.125 308.622 132.127 308.807C132.125 308.965 132.183 309.094 132.301 309.194C132.422 309.293 132.621 309.375 132.898 309.439L133.828 309.638C134.344 309.749 134.728 309.925 134.979 310.167C135.232 310.408 135.36 310.724 135.362 311.115C135.36 311.458 135.259 311.761 135.06 312.024C134.864 312.285 134.59 312.488 134.24 312.635C133.89 312.782 133.487 312.855 133.033 312.855C132.365 312.855 131.828 312.715 131.42 312.436C131.013 312.154 130.771 311.763 130.692 311.261L131.946 311.14C132.003 311.386 132.124 311.572 132.308 311.697C132.493 311.823 132.733 311.886 133.029 311.886C133.335 311.886 133.58 311.823 133.764 311.697C133.951 311.572 134.045 311.417 134.045 311.232C134.045 311.076 133.984 310.947 133.864 310.845C133.745 310.743 133.561 310.665 133.31 310.611L132.379 310.415C131.856 310.307 131.469 310.123 131.218 309.865C130.967 309.605 130.843 309.276 130.845 308.878C130.843 308.542 130.934 308.25 131.119 308.004C131.306 307.756 131.565 307.564 131.896 307.429C132.23 307.292 132.615 307.223 133.05 307.223C133.69 307.223 134.193 307.359 134.56 307.631C134.929 307.904 135.157 308.272 135.245 308.736ZM137.708 309.553V312.749H136.422V305.476H137.679V308.221H137.743C137.871 307.913 138.069 307.67 138.336 307.493C138.606 307.313 138.949 307.223 139.366 307.223C139.745 307.223 140.075 307.302 140.357 307.461C140.639 307.62 140.856 307.852 141.01 308.157C141.167 308.462 141.245 308.835 141.245 309.276V312.749H139.959V309.474C139.959 309.107 139.864 308.822 139.675 308.619C139.488 308.413 139.225 308.31 138.887 308.31C138.659 308.31 138.456 308.359 138.276 308.459C138.098 308.556 137.959 308.697 137.857 308.881C137.757 309.066 137.708 309.29 137.708 309.553Z" fill="#8777DA"/>
<g clip-path="url(#clip0_305_9832)">
<path d="M293.892 116.091C290.998 115.887 289.798 116.652 289.56 117.059C289.175 117.719 289.051 118.043 289.051 119.709C289.051 122.605 289.968 123.429 290.478 123.48C298.971 123.497 316.182 123.419 317.079 122.971C318.2 122.41 317.793 120.678 317.895 118.639C317.976 117.008 316.638 116.261 315.958 116.091C309.809 116.176 296.787 116.295 293.892 116.091Z" fill="#DBE9F8"/>
<path d="M293.94 123.922C291.017 123.718 289.806 124.483 289.565 124.89C289.177 125.55 289.051 125.874 289.051 127.54C289.051 130.436 290.12 130.462 290.635 130.513C299.213 130.53 316.225 130.873 317.503 130.383C318.78 129.892 318.181 128.475 318.181 126.47C318.181 124.837 316.911 124.092 316.225 123.922C310.015 124.007 296.863 124.126 293.94 123.922Z" fill="#DBE9F8"/>
<path d="M293.088 130.554C290.662 130.554 289.674 131.214 289.476 131.695C289.155 132.471 289.051 132.854 289.051 134.816C289.051 138.227 291.938 139.188 292.363 139.249C299.445 139.269 311.849 139.342 312.597 138.814C313.532 138.154 313.017 135.957 313.102 133.556C313.17 131.635 312.052 130.457 311.485 130.257C306.358 130.357 295.494 130.554 293.088 130.554Z" fill="#DBE9F8"/>
<path d="M301.631 136.126C301.465 137.897 302.9 138.571 303.638 138.686H314.501C315.585 138.686 317.767 138.05 317.823 135.503C317.892 132.32 315.816 131.075 313.394 131.075C312.149 129.137 310.28 128.445 307.582 128.86C305.423 129.193 304.053 132.228 303.638 133.704C303.038 133.773 301.797 134.355 301.631 136.126Z" fill="#E3CEFC"/>
<path d="M290.145 116.544L294.643 110.109H312.91L316.785 116.544H290.145Z" fill="#DBE9F8"/>
<path d="M304.125 126.761H314.125C314.47 126.761 314.75 126.481 314.75 126.136C314.75 125.791 314.47 125.511 314.125 125.511H304.125C303.78 125.511 303.5 125.791 303.5 126.136C303.5 126.481 303.78 126.761 304.125 126.761Z" fill="#8777DA"/>
<path d="M318.5 121.136V118.636C318.5 118.032 318.32 117.473 318.023 116.994C318.015 116.979 318.014 116.962 318.005 116.948L314.14 110.736C313.566 109.813 312.574 109.261 311.486 109.261H295.515C294.426 109.261 293.435 109.813 292.861 110.736L288.996 116.948C288.989 116.961 288.989 116.974 288.981 116.988C288.681 117.467 288.5 118.029 288.5 118.636V121.136C288.5 122.161 289.004 123.066 289.77 123.636C289.004 124.206 288.5 125.109 288.5 126.136V128.636C288.5 129.661 289.004 130.566 289.77 131.136C289.004 131.706 288.5 132.609 288.5 133.636V136.136C288.5 137.858 289.903 139.261 291.625 139.261H299.82C299.902 139.261 299.983 139.245 300.059 139.213C300.135 139.182 300.204 139.136 300.262 139.078C300.32 139.02 300.366 138.951 300.398 138.875C300.429 138.799 300.445 138.718 300.445 138.636C300.445 138.291 300.165 138.011 299.82 138.011H291.625C290.591 138.011 289.75 137.169 289.75 136.136V133.636C289.75 132.601 290.591 131.761 291.625 131.761H302.08C302.425 131.761 302.705 131.481 302.705 131.136C302.705 130.791 302.425 130.511 302.08 130.511H291.625C290.591 130.511 289.75 129.669 289.75 128.636V126.136C289.75 125.101 290.591 124.261 291.625 124.261H315.375C316.409 124.261 317.25 125.102 317.25 126.136V128.636C317.25 128.911 317.182 129.187 317.052 129.453C316.901 129.763 317.029 130.137 317.339 130.29C317.65 130.442 318.024 130.315 318.175 130.003C318.391 129.563 318.5 129.105 318.5 128.636V126.136C318.5 125.111 317.996 124.206 317.23 123.636C317.996 123.064 318.5 122.161 318.5 121.136ZM293.923 111.396C294.266 110.842 294.861 110.511 295.514 110.511H311.485C312.137 110.511 312.733 110.842 313.077 111.396L315.656 115.539C315.563 115.529 315.471 115.511 315.375 115.511H291.625C291.529 115.511 291.437 115.529 291.344 115.538L293.923 111.396ZM317.25 121.136C317.25 122.17 316.409 123.011 315.375 123.011H291.625C290.591 123.011 289.75 122.17 289.75 121.136V118.636C289.75 117.601 290.591 116.761 291.625 116.761H315.375C316.409 116.761 317.25 117.601 317.25 118.636V121.136H317.25Z" fill="#8777DA"/>
<path d="M291 134.886C291 135.92 291.841 136.761 292.875 136.761C293.909 136.761 294.75 135.92 294.75 134.886C294.75 133.852 293.909 133.011 292.875 133.011C291.841 133.011 291 133.851 291 134.886ZM293.5 134.886C293.5 135.231 293.22 135.511 292.875 135.511C292.53 135.511 292.25 135.231 292.25 134.886C292.25 134.541 292.53 134.261 292.875 134.261C293.22 134.261 293.5 134.541 293.5 134.886ZM314.125 130.511C314.011 130.511 313.897 130.517 313.786 130.527C312.745 128.964 310.996 128.011 309.125 128.011C306.215 128.011 303.814 130.232 303.529 133.068C302.09 133.346 301 134.616 301 136.136C301 137.858 302.402 139.261 304.125 139.261H314.125C316.537 139.261 318.5 137.298 318.5 134.886C318.5 132.473 316.537 130.511 314.125 130.511ZM314.125 138.011H304.125C303.091 138.011 302.25 137.17 302.25 136.136C302.25 135.102 303.091 134.261 304.125 134.261C304.47 134.261 304.75 133.981 304.75 133.636C304.75 131.223 306.712 129.261 309.125 129.261C310.687 129.261 312.144 130.122 312.922 131.508C313.052 131.739 313.31 131.862 313.577 131.817C313.756 131.786 313.937 131.761 314.125 131.761C315.847 131.761 317.25 133.163 317.25 134.886C317.25 136.608 315.847 138.011 314.125 138.011ZM314.125 118.011H304.125C303.78 118.011 303.5 118.291 303.5 118.636C303.5 118.981 303.78 119.261 304.125 119.261H314.125C314.47 119.261 314.75 118.981 314.75 118.636C314.75 118.291 314.47 118.011 314.125 118.011ZM314.125 120.511H304.125C303.78 120.511 303.5 120.791 303.5 121.136C303.5 121.481 303.78 121.761 304.125 121.761H314.125C314.47 121.761 314.75 121.481 314.75 121.136C314.75 120.791 314.47 120.511 314.125 120.511ZM292.875 118.011C291.841 118.011 291 118.851 291 119.886C291 120.921 291.841 121.761 292.875 121.761C293.909 121.761 294.75 120.92 294.75 119.886C294.75 118.852 293.909 118.011 292.875 118.011ZM292.875 120.511C292.53 120.511 292.25 120.231 292.25 119.886C292.25 119.541 292.53 119.261 292.875 119.261C293.22 119.261 293.5 119.541 293.5 119.886C293.5 120.231 293.22 120.511 292.875 120.511ZM291 127.386C291 128.42 291.841 129.261 292.875 129.261C293.909 129.261 294.75 128.42 294.75 127.386C294.75 126.352 293.909 125.511 292.875 125.511C291.841 125.511 291 126.351 291 127.386ZM293.5 127.386C293.5 127.731 293.22 128.011 292.875 128.011C292.53 128.011 292.25 127.731 292.25 127.386C292.25 127.041 292.53 126.761 292.875 126.761C293.22 126.761 293.5 127.041 293.5 127.386Z" fill="#8777DA"/>
<circle cx="292.873" cy="119.884" r="0.623657" fill="#E3CEFC"/>
<circle cx="292.873" cy="127.384" r="0.623657" fill="#E3CEFC"/>
<circle cx="292.873" cy="134.892" r="0.623657" fill="#E3CEFC"/>
</g>
<path d="M292.159 146.987C292.126 146.677 291.986 146.436 291.74 146.263C291.496 146.09 291.179 146.004 290.788 146.004C290.514 146.004 290.278 146.045 290.082 146.128C289.885 146.211 289.735 146.323 289.631 146.465C289.526 146.607 289.473 146.77 289.471 146.952C289.471 147.103 289.505 147.235 289.574 147.346C289.645 147.457 289.741 147.552 289.861 147.63C289.982 147.706 290.116 147.77 290.263 147.822C290.409 147.874 290.557 147.918 290.707 147.953L291.388 148.124C291.663 148.188 291.927 148.274 292.18 148.383C292.436 148.492 292.664 148.629 292.866 148.795C293.069 148.961 293.23 149.161 293.349 149.395C293.467 149.629 293.526 149.904 293.526 150.219C293.526 150.645 293.417 151.02 293.199 151.345C292.982 151.667 292.667 151.919 292.255 152.101C291.845 152.281 291.349 152.371 290.767 152.371C290.201 152.371 289.71 152.283 289.293 152.108C288.879 151.933 288.555 151.677 288.32 151.341C288.088 151.005 287.963 150.595 287.944 150.112H289.24C289.259 150.366 289.337 150.576 289.474 150.744C289.612 150.912 289.79 151.038 290.011 151.121C290.233 151.204 290.482 151.245 290.756 151.245C291.043 151.245 291.294 151.203 291.509 151.117C291.727 151.03 291.897 150.909 292.021 150.755C292.144 150.599 292.206 150.417 292.209 150.208C292.206 150.019 292.151 149.863 292.042 149.739C291.933 149.614 291.78 149.51 291.584 149.427C291.39 149.342 291.162 149.266 290.902 149.2L290.074 148.987C289.476 148.833 289.002 148.6 288.654 148.287C288.308 147.972 288.136 147.554 288.136 147.033C288.136 146.605 288.252 146.23 288.484 145.908C288.718 145.586 289.036 145.336 289.439 145.158C289.841 144.979 290.297 144.889 290.806 144.889C291.322 144.889 291.774 144.979 292.163 145.158C292.553 145.336 292.86 145.583 293.082 145.901C293.305 146.216 293.42 146.578 293.427 146.987H292.159ZM297.059 152.367C296.512 152.367 296.04 152.254 295.642 152.026C295.246 151.797 294.942 151.472 294.729 151.053C294.516 150.632 294.41 150.136 294.41 149.565C294.41 149.004 294.516 148.512 294.729 148.088C294.945 147.662 295.245 147.331 295.631 147.094C296.017 146.855 296.47 146.735 296.991 146.735C297.327 146.735 297.645 146.79 297.943 146.899C298.244 147.005 298.509 147.171 298.738 147.396C298.97 147.621 299.153 147.907 299.285 148.255C299.418 148.601 299.484 149.013 299.484 149.491V149.885H295.013V149.019H298.252C298.249 148.772 298.196 148.553 298.092 148.362C297.988 148.167 297.842 148.015 297.655 147.903C297.471 147.792 297.255 147.737 297.009 147.737C296.746 147.737 296.515 147.801 296.316 147.928C296.118 148.054 295.963 148.22 295.851 148.426C295.742 148.629 295.687 148.853 295.684 149.097V149.853C295.684 150.17 295.742 150.443 295.858 150.67C295.974 150.895 296.137 151.068 296.345 151.188C296.553 151.307 296.797 151.366 297.076 151.366C297.263 151.366 297.433 151.34 297.584 151.288C297.736 151.233 297.867 151.154 297.978 151.05C298.09 150.946 298.174 150.817 298.231 150.663L299.431 150.798C299.355 151.115 299.211 151.392 298.998 151.629C298.787 151.863 298.517 152.045 298.188 152.176C297.859 152.303 297.482 152.367 297.059 152.367ZM300.572 152.261V146.806H301.818V147.715H301.875C301.974 147.4 302.145 147.158 302.386 146.987C302.63 146.814 302.908 146.728 303.221 146.728C303.292 146.728 303.371 146.732 303.459 146.739C303.549 146.743 303.623 146.752 303.682 146.764V147.946C303.628 147.927 303.542 147.911 303.423 147.896C303.307 147.88 303.195 147.872 303.086 147.872C302.851 147.872 302.641 147.922 302.454 148.024C302.269 148.124 302.123 148.262 302.017 148.44C301.91 148.617 301.857 148.822 301.857 149.054V152.261H300.572ZM309.575 146.806L307.632 152.261H306.212L304.269 146.806H305.64L306.894 150.858H306.95L308.207 146.806H309.575ZM312.693 152.367C312.147 152.367 311.674 152.254 311.277 152.026C310.881 151.797 310.577 151.472 310.364 151.053C310.151 150.632 310.044 150.136 310.044 149.565C310.044 149.004 310.151 148.512 310.364 148.088C310.579 147.662 310.88 147.331 311.266 147.094C311.652 146.855 312.105 146.735 312.626 146.735C312.962 146.735 313.279 146.79 313.578 146.899C313.878 147.005 314.143 147.171 314.373 147.396C314.605 147.621 314.787 147.907 314.92 148.255C315.053 148.601 315.119 149.013 315.119 149.491V149.885H310.648V149.019H313.887C313.884 148.772 313.831 148.553 313.727 148.362C313.623 148.167 313.477 148.015 313.29 147.903C313.105 147.792 312.89 147.737 312.644 147.737C312.381 147.737 312.15 147.801 311.951 147.928C311.752 148.054 311.597 148.22 311.486 148.426C311.377 148.629 311.322 148.853 311.319 149.097V149.853C311.319 150.17 311.377 150.443 311.493 150.67C311.609 150.895 311.771 151.068 311.98 151.188C312.188 151.307 312.432 151.366 312.711 151.366C312.898 151.366 313.068 151.34 313.219 151.288C313.371 151.233 313.502 151.154 313.613 151.05C313.724 150.946 313.809 150.817 313.865 150.663L315.066 150.798C314.99 151.115 314.845 151.392 314.632 151.629C314.422 151.863 314.152 152.045 313.823 152.176C313.494 152.303 313.117 152.367 312.693 152.367ZM316.206 152.261V146.806H317.453V147.715H317.51C317.609 147.4 317.78 147.158 318.021 146.987C318.265 146.814 318.543 146.728 318.856 146.728C318.927 146.728 319.006 146.732 319.093 146.739C319.183 146.743 319.258 146.752 319.317 146.764V147.946C319.263 147.927 319.176 147.911 319.058 147.896C318.942 147.88 318.83 147.872 318.721 147.872C318.486 147.872 318.276 147.922 318.089 148.024C317.904 148.124 317.758 148.262 317.652 148.44C317.545 148.617 317.492 148.822 317.492 149.054V152.261H316.206Z" fill="#8777DA"/>
<path d="M275.928 162.967V159.806H277.214V165.261H275.967V164.291H275.91C275.787 164.597 275.585 164.846 275.303 165.041C275.024 165.235 274.679 165.332 274.27 165.332C273.912 165.332 273.596 165.252 273.322 165.094C273.049 164.933 272.836 164.7 272.682 164.394C272.528 164.086 272.452 163.715 272.452 163.279V159.806H273.737V163.08C273.737 163.426 273.832 163.701 274.021 163.904C274.211 164.108 274.459 164.21 274.767 164.21C274.956 164.21 275.14 164.163 275.317 164.071C275.495 163.979 275.64 163.841 275.754 163.659C275.87 163.475 275.928 163.244 275.928 162.967ZM278.536 167.306V159.806H279.8V160.708H279.874C279.941 160.576 280.034 160.435 280.155 160.286C280.276 160.134 280.439 160.005 280.645 159.899C280.851 159.79 281.114 159.735 281.433 159.735C281.855 159.735 282.235 159.843 282.573 160.058C282.914 160.271 283.184 160.587 283.383 161.006C283.584 161.423 283.685 161.935 283.685 162.541C283.685 163.14 283.586 163.649 283.39 164.068C283.193 164.487 282.926 164.806 282.587 165.026C282.249 165.247 281.865 165.357 281.437 165.357C281.124 165.357 280.865 165.305 280.659 165.2C280.453 165.096 280.287 164.971 280.162 164.824C280.039 164.675 279.943 164.534 279.874 164.401H279.821V167.306H278.536ZM279.796 162.533C279.796 162.886 279.846 163.195 279.945 163.46C280.047 163.725 280.193 163.933 280.382 164.082C280.574 164.229 280.806 164.302 281.078 164.302C281.362 164.302 281.6 164.226 281.792 164.075C281.984 163.921 282.128 163.711 282.225 163.446C282.325 163.179 282.374 162.874 282.374 162.533C282.374 162.195 282.326 161.894 282.229 161.631C282.132 161.369 281.987 161.163 281.795 161.014C281.604 160.864 281.365 160.79 281.078 160.79C280.804 160.79 280.57 160.862 280.379 161.006C280.187 161.151 280.041 161.353 279.942 161.614C279.845 161.874 279.796 162.181 279.796 162.533ZM286.81 165.357C286.381 165.357 285.998 165.247 285.659 165.026C285.321 164.806 285.053 164.487 284.857 164.068C284.66 163.649 284.562 163.14 284.562 162.541C284.562 161.935 284.661 161.423 284.86 161.006C285.061 160.587 285.332 160.271 285.673 160.058C286.014 159.843 286.394 159.735 286.813 159.735C287.133 159.735 287.396 159.79 287.602 159.899C287.808 160.005 287.971 160.134 288.092 160.286C288.212 160.435 288.306 160.576 288.372 160.708H288.425V157.988H289.714V165.261H288.45V164.401H288.372C288.306 164.534 288.21 164.675 288.085 164.824C287.959 164.971 287.793 165.096 287.587 165.2C287.381 165.305 287.122 165.357 286.81 165.357ZM287.168 164.302C287.441 164.302 287.673 164.229 287.864 164.082C288.056 163.933 288.202 163.725 288.301 163.46C288.401 163.195 288.45 162.886 288.45 162.533C288.45 162.181 288.401 161.874 288.301 161.614C288.204 161.353 288.06 161.151 287.868 161.006C287.679 160.862 287.445 160.79 287.168 160.79C286.882 160.79 286.643 160.864 286.451 161.014C286.259 161.163 286.115 161.369 286.018 161.631C285.921 161.894 285.872 162.195 285.872 162.533C285.872 162.874 285.921 163.179 286.018 163.446C286.117 163.711 286.263 163.921 286.455 164.075C286.649 164.226 286.887 164.302 287.168 164.302ZM292.654 165.371C292.308 165.371 291.997 165.309 291.72 165.186C291.445 165.061 291.228 164.876 291.067 164.632C290.908 164.388 290.829 164.088 290.829 163.73C290.829 163.422 290.885 163.168 290.999 162.967C291.113 162.765 291.268 162.604 291.464 162.484C291.661 162.363 291.882 162.272 292.128 162.21C292.377 162.146 292.634 162.1 292.899 162.072C293.219 162.039 293.478 162.009 293.677 161.983C293.876 161.955 294.02 161.912 294.11 161.855C294.202 161.796 294.248 161.705 294.248 161.582V161.56C294.248 161.293 294.169 161.086 294.01 160.939C293.852 160.792 293.623 160.719 293.325 160.719C293.01 160.719 292.76 160.787 292.576 160.925C292.394 161.062 292.27 161.224 292.206 161.411L291.006 161.241C291.101 160.909 291.257 160.632 291.475 160.41C291.693 160.185 291.959 160.017 292.274 159.906C292.589 159.792 292.937 159.735 293.318 159.735C293.581 159.735 293.842 159.766 294.103 159.828C294.363 159.889 294.601 159.991 294.817 160.133C295.032 160.273 295.205 160.463 295.335 160.705C295.468 160.946 295.534 161.248 295.534 161.61V165.261H294.298V164.511H294.256C294.177 164.663 294.067 164.805 293.925 164.938C293.786 165.068 293.609 165.173 293.396 165.254C293.185 165.332 292.938 165.371 292.654 165.371ZM292.988 164.426C293.246 164.426 293.47 164.375 293.659 164.274C293.848 164.169 293.994 164.032 294.096 163.862C294.2 163.691 294.252 163.505 294.252 163.304V162.661C294.212 162.694 294.143 162.725 294.046 162.754C293.951 162.782 293.845 162.807 293.726 162.828C293.608 162.85 293.491 162.868 293.375 162.885C293.259 162.902 293.158 162.916 293.073 162.928C292.881 162.954 292.71 162.996 292.558 163.055C292.407 163.115 292.287 163.198 292.199 163.304C292.112 163.408 292.068 163.543 292.068 163.709C292.068 163.946 292.154 164.124 292.327 164.245C292.5 164.366 292.72 164.426 292.988 164.426ZM299.55 159.806V160.801H296.415V159.806H299.55ZM297.189 158.499H298.474V163.62C298.474 163.793 298.5 163.926 298.552 164.018C298.607 164.108 298.678 164.169 298.765 164.203C298.853 164.236 298.95 164.252 299.057 164.252C299.137 164.252 299.211 164.246 299.277 164.234C299.345 164.223 299.398 164.212 299.433 164.203L299.65 165.207C299.581 165.231 299.483 165.257 299.355 165.286C299.229 165.314 299.076 165.331 298.893 165.335C298.571 165.345 298.281 165.296 298.023 165.19C297.765 165.081 297.56 164.913 297.409 164.685C297.26 164.458 297.186 164.174 297.189 163.833V158.499ZM302.982 165.367C302.435 165.367 301.962 165.254 301.565 165.026C301.169 164.797 300.865 164.472 300.652 164.053C300.439 163.632 300.332 163.136 300.332 162.565C300.332 162.004 300.439 161.512 300.652 161.088C300.867 160.662 301.168 160.331 301.554 160.094C301.94 159.855 302.393 159.735 302.914 159.735C303.25 159.735 303.567 159.79 303.866 159.899C304.166 160.005 304.432 160.171 304.661 160.396C304.893 160.621 305.076 160.907 305.208 161.255C305.341 161.601 305.407 162.013 305.407 162.491V162.885H300.936V162.019H304.175C304.172 161.772 304.119 161.553 304.015 161.362C303.911 161.167 303.765 161.015 303.578 160.903C303.393 160.792 303.178 160.737 302.932 160.737C302.669 160.737 302.438 160.801 302.239 160.928C302.04 161.054 301.885 161.22 301.774 161.426C301.665 161.629 301.61 161.853 301.607 162.097V162.853C301.607 163.17 301.665 163.443 301.781 163.67C301.897 163.895 302.059 164.068 302.268 164.188C302.476 164.307 302.72 164.366 302.999 164.366C303.186 164.366 303.356 164.34 303.507 164.288C303.659 164.233 303.79 164.154 303.901 164.05C304.013 163.946 304.097 163.817 304.153 163.663L305.354 163.798C305.278 164.115 305.134 164.392 304.92 164.629C304.71 164.863 304.44 165.045 304.111 165.176C303.782 165.303 303.405 165.367 302.982 165.367ZM311.347 167.42C310.885 167.42 310.489 167.357 310.157 167.232C309.826 167.109 309.56 166.943 309.358 166.734C309.157 166.526 309.018 166.295 308.939 166.042L310.097 165.761C310.149 165.868 310.225 165.973 310.324 166.078C310.424 166.184 310.558 166.272 310.726 166.34C310.896 166.411 311.11 166.447 311.368 166.447C311.733 166.447 312.035 166.358 312.274 166.18C312.513 166.005 312.633 165.716 312.633 165.314V164.281H312.569C312.502 164.413 312.405 164.549 312.278 164.689C312.152 164.829 311.985 164.946 311.777 165.041C311.571 165.135 311.312 165.183 310.999 165.183C310.58 165.183 310.2 165.084 309.859 164.888C309.521 164.689 309.251 164.393 309.05 164C308.851 163.605 308.751 163.11 308.751 162.516C308.751 161.917 308.851 161.411 309.05 160.999C309.251 160.585 309.522 160.271 309.863 160.058C310.204 159.843 310.584 159.735 311.003 159.735C311.322 159.735 311.585 159.79 311.791 159.899C311.999 160.005 312.165 160.134 312.288 160.286C312.411 160.435 312.505 160.576 312.569 160.708H312.64V159.806H313.907V165.35C313.907 165.816 313.796 166.202 313.574 166.507C313.351 166.813 313.047 167.041 312.661 167.193C312.275 167.344 311.837 167.42 311.347 167.42ZM311.358 164.174C311.63 164.174 311.862 164.108 312.054 163.975C312.246 163.843 312.391 163.652 312.491 163.403C312.59 163.155 312.64 162.857 312.64 162.509C312.64 162.165 312.59 161.865 312.491 161.607C312.394 161.349 312.249 161.149 312.057 161.006C311.868 160.862 311.635 160.79 311.358 160.79C311.071 160.79 310.832 160.864 310.64 161.014C310.449 161.163 310.304 161.368 310.207 161.628C310.11 161.886 310.062 162.18 310.062 162.509C310.062 162.842 310.11 163.135 310.207 163.386C310.307 163.634 310.452 163.828 310.644 163.968C310.838 164.105 311.076 164.174 311.358 164.174ZM316.795 165.371C316.449 165.371 316.138 165.309 315.861 165.186C315.586 165.061 315.368 164.876 315.207 164.632C315.049 164.388 314.969 164.088 314.969 163.73C314.969 163.422 315.026 163.168 315.14 162.967C315.253 162.765 315.408 162.604 315.605 162.484C315.801 162.363 316.023 162.272 316.269 162.21C316.518 162.146 316.774 162.1 317.04 162.072C317.359 162.039 317.618 162.009 317.817 161.983C318.016 161.955 318.161 161.912 318.251 161.855C318.343 161.796 318.389 161.705 318.389 161.582V161.56C318.389 161.293 318.31 161.086 318.151 160.939C317.992 160.792 317.764 160.719 317.466 160.719C317.151 160.719 316.901 160.787 316.716 160.925C316.534 161.062 316.411 161.224 316.347 161.411L315.147 161.241C315.242 160.909 315.398 160.632 315.616 160.41C315.833 160.185 316.1 160.017 316.415 159.906C316.729 159.792 317.077 159.735 317.459 159.735C317.721 159.735 317.983 159.766 318.243 159.828C318.504 159.889 318.742 159.991 318.957 160.133C319.173 160.273 319.345 160.463 319.476 160.705C319.608 160.946 319.675 161.248 319.675 161.61V165.261H318.439V164.511H318.396C318.318 164.663 318.208 164.805 318.066 164.938C317.926 165.068 317.75 165.173 317.537 165.254C317.326 165.332 317.079 165.371 316.795 165.371ZM317.128 164.426C317.386 164.426 317.61 164.375 317.8 164.274C317.989 164.169 318.135 164.032 318.236 163.862C318.34 163.691 318.393 163.505 318.393 163.304V162.661C318.352 162.694 318.284 162.725 318.187 162.754C318.092 162.782 317.985 162.807 317.867 162.828C317.749 162.85 317.631 162.868 317.515 162.885C317.399 162.902 317.299 162.916 317.214 162.928C317.022 162.954 316.85 162.996 316.699 163.055C316.547 163.115 316.428 163.198 316.34 163.304C316.252 163.408 316.209 163.543 316.209 163.709C316.209 163.946 316.295 164.124 316.468 164.245C316.641 164.366 316.861 164.426 317.128 164.426ZM320.967 165.261V159.806H322.196V160.733H322.26C322.373 160.421 322.562 160.177 322.824 160.002C323.087 159.824 323.401 159.735 323.765 159.735C324.135 159.735 324.446 159.825 324.699 160.005C324.955 160.183 325.135 160.425 325.239 160.733H325.296C325.417 160.43 325.62 160.189 325.907 160.009C326.196 159.826 326.538 159.735 326.933 159.735C327.435 159.735 327.845 159.894 328.162 160.211C328.479 160.528 328.638 160.991 328.638 161.6V165.261H327.349V161.798C327.349 161.46 327.259 161.212 327.079 161.056C326.899 160.898 326.679 160.818 326.418 160.818C326.108 160.818 325.865 160.915 325.69 161.109C325.517 161.301 325.431 161.551 325.431 161.859V165.261H324.17V161.745C324.17 161.463 324.085 161.238 323.915 161.07C323.747 160.902 323.526 160.818 323.254 160.818C323.069 160.818 322.901 160.866 322.75 160.96C322.598 161.053 322.478 161.184 322.388 161.354C322.298 161.523 322.253 161.719 322.253 161.944V165.261H320.967ZM332.357 165.367C331.81 165.367 331.337 165.254 330.94 165.026C330.544 164.797 330.24 164.472 330.027 164.053C329.814 163.632 329.707 163.136 329.707 162.565C329.707 162.004 329.814 161.512 330.027 161.088C330.242 160.662 330.543 160.331 330.929 160.094C331.315 159.855 331.768 159.735 332.289 159.735C332.625 159.735 332.942 159.79 333.241 159.899C333.541 160.005 333.807 160.171 334.036 160.396C334.268 160.621 334.451 160.907 334.583 161.255C334.716 161.601 334.782 162.013 334.782 162.491V162.885H330.311V162.019H333.55C333.547 161.772 333.494 161.553 333.39 161.362C333.286 161.167 333.14 161.015 332.953 160.903C332.768 160.792 332.553 160.737 332.307 160.737C332.044 160.737 331.813 160.801 331.614 160.928C331.415 161.054 331.26 161.22 331.149 161.426C331.04 161.629 330.985 161.853 330.982 162.097V162.853C330.982 163.17 331.04 163.443 331.156 163.67C331.272 163.895 331.434 164.068 331.643 164.188C331.851 164.307 332.095 164.366 332.374 164.366C332.561 164.366 332.731 164.34 332.882 164.288C333.034 164.233 333.165 164.154 333.276 164.05C333.388 163.946 333.472 163.817 333.528 163.663L334.729 163.798C334.653 164.115 334.509 164.392 334.295 164.629C334.085 164.863 333.815 165.045 333.486 165.176C333.157 165.303 332.78 165.367 332.357 165.367ZM296.123 174.248L294.951 174.376C294.918 174.257 294.86 174.146 294.777 174.042C294.697 173.938 294.588 173.854 294.45 173.79C294.313 173.726 294.145 173.694 293.946 173.694C293.679 173.694 293.454 173.752 293.271 173.868C293.091 173.984 293.003 174.134 293.005 174.319C293.003 174.478 293.061 174.607 293.179 174.706C293.3 174.805 293.499 174.887 293.776 174.951L294.706 175.15C295.222 175.261 295.606 175.438 295.857 175.679C296.11 175.921 296.238 176.237 296.24 176.627C296.238 176.97 296.137 177.274 295.938 177.536C295.742 177.797 295.468 178 295.118 178.147C294.768 178.294 294.365 178.367 293.911 178.367C293.243 178.367 292.706 178.228 292.298 177.948C291.891 177.667 291.649 177.275 291.57 176.773L292.824 176.652C292.881 176.898 293.002 177.084 293.186 177.21C293.371 177.335 293.611 177.398 293.907 177.398C294.212 177.398 294.457 177.335 294.642 177.21C294.829 177.084 294.923 176.929 294.923 176.744C294.923 176.588 294.862 176.459 294.742 176.357C294.623 176.256 294.439 176.177 294.188 176.123L293.257 175.928C292.734 175.819 292.347 175.635 292.096 175.377C291.845 175.117 291.721 174.788 291.723 174.39C291.721 174.054 291.812 173.763 291.997 173.516C292.184 173.268 292.443 173.076 292.774 172.941C293.108 172.804 293.493 172.735 293.928 172.735C294.568 172.735 295.071 172.871 295.438 173.144C295.807 173.416 296.035 173.784 296.123 174.248ZM300.024 172.806V173.801H296.888V172.806H300.024ZM297.662 171.499H298.948V176.62C298.948 176.793 298.974 176.926 299.026 177.018C299.08 177.108 299.151 177.169 299.239 177.203C299.327 177.236 299.424 177.252 299.53 177.252C299.611 177.252 299.684 177.246 299.75 177.234C299.819 177.223 299.871 177.212 299.907 177.203L300.123 178.207C300.055 178.231 299.956 178.257 299.829 178.286C299.703 178.314 299.549 178.331 299.367 178.335C299.045 178.345 298.755 178.296 298.497 178.19C298.239 178.081 298.034 177.913 297.883 177.685C297.733 177.458 297.66 177.174 297.662 176.833V171.499ZM302.669 178.371C302.323 178.371 302.012 178.309 301.735 178.186C301.46 178.061 301.242 177.876 301.081 177.632C300.923 177.388 300.843 177.088 300.843 176.73C300.843 176.422 300.9 176.168 301.014 175.967C301.127 175.765 301.282 175.604 301.479 175.484C301.675 175.363 301.897 175.272 302.143 175.21C302.392 175.146 302.648 175.1 302.914 175.072C303.233 175.039 303.492 175.009 303.691 174.983C303.89 174.955 304.035 174.912 304.125 174.855C304.217 174.796 304.263 174.705 304.263 174.582V174.56C304.263 174.293 304.184 174.086 304.025 173.939C303.867 173.792 303.638 173.719 303.34 173.719C303.025 173.719 302.775 173.787 302.59 173.925C302.408 174.062 302.285 174.224 302.221 174.411L301.021 174.241C301.116 173.909 301.272 173.632 301.49 173.41C301.707 173.185 301.974 173.017 302.289 172.906C302.603 172.792 302.951 172.735 303.333 172.735C303.595 172.735 303.857 172.766 304.117 172.828C304.378 172.889 304.616 172.991 304.831 173.133C305.047 173.273 305.219 173.463 305.35 173.705C305.482 173.946 305.549 174.248 305.549 174.61V178.261H304.313V177.511H304.27C304.192 177.663 304.082 177.805 303.94 177.938C303.8 178.068 303.624 178.173 303.411 178.254C303.2 178.332 302.953 178.371 302.669 178.371ZM303.002 177.426C303.26 177.426 303.484 177.375 303.674 177.274C303.863 177.169 304.009 177.032 304.11 176.862C304.215 176.691 304.267 176.505 304.267 176.304V175.661C304.226 175.694 304.158 175.725 304.061 175.754C303.966 175.782 303.859 175.807 303.741 175.828C303.623 175.85 303.505 175.868 303.389 175.885C303.273 175.902 303.173 175.916 303.088 175.928C302.896 175.954 302.724 175.996 302.573 176.055C302.421 176.115 302.302 176.198 302.214 176.304C302.126 176.408 302.083 176.543 302.083 176.709C302.083 176.946 302.169 177.124 302.342 177.245C302.515 177.366 302.735 177.426 303.002 177.426ZM309.565 172.806V173.801H306.429V172.806H309.565ZM307.203 171.499H308.489V176.62C308.489 176.793 308.515 176.926 308.567 177.018C308.621 177.108 308.693 177.169 308.78 177.203C308.868 177.236 308.965 177.252 309.071 177.252C309.152 177.252 309.225 177.246 309.291 177.234C309.36 177.223 309.412 177.212 309.448 177.203L309.664 178.207C309.596 178.231 309.497 178.257 309.37 178.286C309.244 178.314 309.09 178.331 308.908 178.335C308.586 178.345 308.296 178.296 308.038 178.19C307.78 178.081 307.575 177.913 307.424 177.685C307.274 177.458 307.201 177.174 307.203 176.833V171.499ZM312.996 178.367C312.449 178.367 311.977 178.254 311.579 178.026C311.184 177.797 310.88 177.472 310.667 177.053C310.454 176.632 310.347 176.136 310.347 175.565C310.347 175.004 310.454 174.512 310.667 174.088C310.882 173.662 311.183 173.331 311.569 173.094C311.955 172.855 312.408 172.735 312.929 172.735C313.265 172.735 313.582 172.79 313.88 172.899C314.181 173.005 314.446 173.171 314.676 173.396C314.908 173.621 315.09 173.907 315.223 174.255C315.355 174.601 315.422 175.013 315.422 175.491V175.885H310.951V175.019H314.189C314.187 174.772 314.134 174.553 314.03 174.362C313.925 174.167 313.78 174.015 313.593 173.903C313.408 173.792 313.193 173.737 312.946 173.737C312.684 173.737 312.453 173.801 312.254 173.928C312.055 174.054 311.9 174.22 311.789 174.426C311.68 174.629 311.624 174.853 311.622 175.097V175.853C311.622 176.17 311.68 176.443 311.796 176.67C311.912 176.895 312.074 177.068 312.282 177.188C312.491 177.307 312.735 177.366 313.014 177.366C313.201 177.366 313.37 177.34 313.522 177.288C313.673 177.233 313.805 177.154 313.916 177.05C314.027 176.946 314.111 176.817 314.168 176.663L315.368 176.798C315.293 177.115 315.148 177.392 314.935 177.629C314.724 177.863 314.455 178.045 314.125 178.176C313.796 178.303 313.42 178.367 312.996 178.367Z" fill="#9C9EAB"/>
<circle cx="127.5" cy="61.8911" r="11.5" fill="#DBE9F8" stroke="#8777DA"/>
<path d="M127.125 66.3758C126.297 66.3758 125.628 67.0653 125.628 67.8926C125.628 68.7003 126.278 69.4095 127.125 69.4095C127.972 69.4095 128.642 68.7003 128.642 67.8926C128.642 67.0653 127.952 66.3758 127.125 66.3758ZM127.381 54.8911C124.721 54.8911 123.5 56.4671 123.5 57.5309C123.5 58.2991 124.15 58.6537 124.682 58.6537C125.746 58.6537 125.312 57.1368 127.322 57.1368C128.307 57.1368 129.095 57.5703 129.095 58.4764C129.095 59.5402 127.991 60.1508 127.341 60.7024C126.77 61.1948 126.022 62.0025 126.022 63.6967C126.022 64.721 126.297 65.0165 127.105 65.0165C128.07 65.0165 128.267 64.5832 128.267 64.2088C128.267 63.1845 128.287 62.5935 129.37 61.7464C129.902 61.3328 131.577 59.9932 131.577 58.1415C131.577 56.2898 129.902 54.8911 127.381 54.8911Z" fill="#8777DA"/>
<path d="M92.4263 89.8911V82.6184H95.1536C95.7123 82.6184 96.181 82.7226 96.5598 82.9309C96.941 83.1392 97.2286 83.4257 97.4228 83.7903C97.6193 84.1525 97.7175 84.5644 97.7175 85.0261C97.7175 85.4924 97.6193 85.9067 97.4228 86.269C97.2263 86.6312 96.9363 86.9164 96.5527 87.1248C96.1692 87.3307 95.6969 87.4337 95.1358 87.4337H93.3283V86.3506H94.9583C95.285 86.3506 95.5525 86.2938 95.7608 86.1802C95.9692 86.0665 96.123 85.9103 96.2225 85.7114C96.3243 85.5126 96.3752 85.2841 96.3752 85.0261C96.3752 84.768 96.3243 84.5407 96.2225 84.3442C96.123 84.1477 95.968 83.995 95.7573 83.8861C95.5489 83.7749 95.2802 83.7192 94.9512 83.7192H93.7438V89.8911H92.4263ZM100.091 82.6184V89.8911H98.805V82.6184H100.091ZM102.982 90.0012C102.636 90.0012 102.325 89.9396 102.048 89.8165C101.773 89.6911 101.556 89.5064 101.395 89.2626C101.236 89.0187 101.157 88.7181 101.157 88.3606C101.157 88.0528 101.214 87.7983 101.327 87.5971C101.441 87.3958 101.596 87.2349 101.792 87.1141C101.989 86.9934 102.21 86.9022 102.456 86.8407C102.705 86.7768 102.962 86.7306 103.227 86.7022C103.547 86.669 103.806 86.6395 104.005 86.6134C104.204 86.585 104.348 86.5424 104.438 86.4856C104.53 86.4264 104.577 86.3352 104.577 86.2121V86.1908C104.577 85.9233 104.497 85.7162 104.339 85.5694C104.18 85.4226 103.952 85.3492 103.653 85.3492C103.338 85.3492 103.089 85.4179 102.904 85.5552C102.722 85.6925 102.599 85.8547 102.535 86.0417L101.334 85.8712C101.429 85.5398 101.585 85.2628 101.803 85.0403C102.021 84.8154 102.287 84.6473 102.602 84.536C102.917 84.4224 103.265 84.3655 103.646 84.3655C103.909 84.3655 104.171 84.3963 104.431 84.4579C104.691 84.5194 104.929 84.6212 105.145 84.7633C105.36 84.903 105.533 85.0935 105.663 85.335C105.796 85.5765 105.862 85.8783 105.862 86.2405V89.8911H104.626V89.1418H104.584C104.506 89.2933 104.395 89.4354 104.253 89.568C104.114 89.6982 103.937 89.8035 103.724 89.884C103.514 89.9621 103.266 90.0012 102.982 90.0012ZM103.316 89.0566C103.574 89.0566 103.798 89.0057 103.987 88.9039C104.176 88.7997 104.322 88.6624 104.424 88.492C104.528 88.3215 104.58 88.1357 104.58 87.9344V87.2917C104.54 87.3248 104.471 87.3556 104.374 87.384C104.279 87.4124 104.173 87.4373 104.055 87.4586C103.936 87.4799 103.819 87.4988 103.703 87.5154C103.587 87.532 103.486 87.5462 103.401 87.558C103.209 87.5841 103.038 87.6267 102.886 87.6859C102.735 87.745 102.615 87.8279 102.528 87.9344C102.44 88.0386 102.396 88.1735 102.396 88.3393C102.396 88.576 102.483 88.7547 102.655 88.8755C102.828 88.9962 103.048 89.0566 103.316 89.0566ZM107.758 91.9366C107.583 91.9366 107.421 91.9224 107.272 91.894C107.125 91.8679 107.008 91.8371 106.92 91.8016L107.219 90.8002C107.406 90.8547 107.573 90.8807 107.719 90.8783C107.866 90.876 107.995 90.8298 108.106 90.7398C108.22 90.6522 108.316 90.5055 108.394 90.2995L108.504 90.0047L106.526 84.4366H107.89L109.147 88.5559H109.204L110.464 84.4366H111.831L109.648 90.5516C109.546 90.8405 109.411 91.0878 109.243 91.2938C109.075 91.5021 108.869 91.6608 108.625 91.7697C108.383 91.8809 108.095 91.9366 107.758 91.9366ZM114.95 89.9976C114.403 89.9976 113.931 89.884 113.533 89.6567C113.138 89.4271 112.834 89.1028 112.621 88.6837C112.408 88.2623 112.301 87.7663 112.301 87.1958C112.301 86.6347 112.408 86.1423 112.621 85.7185C112.836 85.2924 113.137 84.961 113.523 84.7242C113.909 84.4851 114.362 84.3655 114.883 84.3655C115.219 84.3655 115.536 84.42 115.835 84.5289C116.135 84.6354 116.4 84.8012 116.63 85.0261C116.862 85.251 117.044 85.5374 117.177 85.8854C117.309 86.2311 117.376 86.643 117.376 87.1212V87.5154H112.905V86.6489H116.143C116.141 86.4027 116.088 86.1837 115.984 85.992C115.879 85.7978 115.734 85.6451 115.547 85.5339C115.362 85.4226 115.147 85.367 114.901 85.367C114.638 85.367 114.407 85.4309 114.208 85.5587C114.009 85.6842 113.854 85.8499 113.743 86.0559C113.634 86.2595 113.578 86.4832 113.576 86.7271V87.4834C113.576 87.8007 113.634 88.0729 113.75 88.3002C113.866 88.5251 114.028 88.6979 114.237 88.8187C114.445 88.937 114.689 88.9962 114.968 88.9962C115.155 88.9962 115.324 88.9702 115.476 88.9181C115.627 88.8637 115.759 88.7843 115.87 88.6802C115.981 88.576 116.065 88.447 116.122 88.2931L117.322 88.428C117.247 88.7453 117.102 89.0223 116.889 89.259C116.679 89.4934 116.409 89.6757 116.08 89.8059C115.75 89.9337 115.374 89.9976 114.95 89.9976ZM118.463 89.8911V84.4366H119.71V85.3457H119.767C119.866 85.0308 120.036 84.7881 120.278 84.6177C120.522 84.4449 120.8 84.3584 121.112 84.3584C121.183 84.3584 121.263 84.362 121.35 84.3691C121.44 84.3738 121.515 84.3821 121.574 84.394V85.5765C121.52 85.5575 121.433 85.541 121.315 85.5268C121.199 85.5102 121.086 85.5019 120.977 85.5019C120.743 85.5019 120.532 85.5528 120.345 85.6546C120.161 85.754 120.015 85.8925 119.909 86.0701C119.802 86.2476 119.749 86.4524 119.749 86.6844V89.8911H118.463ZM123.018 89.8911H121.612L124.173 82.6184H125.799L128.363 89.8911H126.957L125.014 84.1099H124.957L123.018 89.8911ZM123.065 87.0396H126.9V88.0978H123.065V87.0396ZM129.361 82.6184V85.2959H128.381V82.6184H129.361ZM134.913 85.8783L133.741 86.0062C133.708 85.8878 133.65 85.7765 133.567 85.6724C133.487 85.5682 133.378 85.4842 133.24 85.4202C133.103 85.3563 132.935 85.3244 132.736 85.3244C132.469 85.3244 132.244 85.3824 132.061 85.4984C131.882 85.6144 131.793 85.7647 131.795 85.9494C131.793 86.108 131.851 86.237 131.969 86.3364C132.09 86.4359 132.289 86.5175 132.566 86.5815L133.496 86.7803C134.012 86.8916 134.396 87.068 134.647 87.3094C134.9 87.5509 135.028 87.867 135.03 88.2576C135.028 88.6009 134.927 88.9039 134.728 89.1667C134.532 89.4271 134.258 89.6307 133.908 89.7775C133.558 89.9243 133.155 89.9976 132.701 89.9976C132.033 89.9976 131.496 89.858 131.088 89.5786C130.681 89.2969 130.439 88.9051 130.36 88.4032L131.614 88.2824C131.671 88.5287 131.792 88.7145 131.976 88.84C132.161 88.9655 132.401 89.0282 132.697 89.0282C133.002 89.0282 133.248 88.9655 133.432 88.84C133.619 88.7145 133.713 88.5594 133.713 88.3748C133.713 88.2185 133.652 88.0895 133.532 87.9877C133.413 87.8859 133.229 87.8078 132.978 87.7533L132.047 87.558C131.524 87.4491 131.137 87.2656 130.886 87.0076C130.635 86.7472 130.511 86.4181 130.513 86.0204C130.511 85.6842 130.602 85.393 130.787 85.1468C130.974 84.8982 131.233 84.7065 131.564 84.5715C131.898 84.4342 132.283 84.3655 132.718 84.3655C133.358 84.3655 133.861 84.5017 134.228 84.7739C134.597 85.0462 134.825 85.4143 134.913 85.8783ZM141.294 84.4366V85.4309H138.159V84.4366H141.294ZM138.933 83.1297H140.218V88.2505C140.218 88.4233 140.244 88.5559 140.297 88.6482C140.351 88.7382 140.422 88.7997 140.51 88.8329C140.597 88.866 140.694 88.8826 140.801 88.8826C140.881 88.8826 140.955 88.8767 141.021 88.8648C141.09 88.853 141.142 88.8423 141.177 88.8329L141.394 89.8378C141.325 89.8615 141.227 89.8876 141.099 89.916C140.974 89.9444 140.82 89.961 140.637 89.9657C140.315 89.9752 140.025 89.9266 139.767 89.8201C139.509 89.7112 139.305 89.5431 139.153 89.3158C139.004 89.0886 138.931 88.8045 138.933 88.4636V83.1297ZM145.846 87.5971V84.4366H147.132V89.8911H145.885V88.9217H145.828C145.705 89.2271 145.503 89.4768 145.221 89.6709C144.942 89.8651 144.597 89.9621 144.188 89.9621C143.83 89.9621 143.514 89.8828 143.24 89.7242C142.967 89.5632 142.754 89.33 142.6 89.0246C142.446 88.7169 142.369 88.3452 142.369 87.9096V84.4366H143.655V87.7107C143.655 88.0564 143.75 88.331 143.939 88.5346C144.128 88.7382 144.377 88.84 144.685 88.84C144.874 88.84 145.058 88.7938 145.235 88.7015C145.413 88.6092 145.558 88.4718 145.672 88.2896C145.788 88.1049 145.846 87.8741 145.846 87.5971ZM148.453 89.8911V84.4366H149.7V85.3457H149.757C149.856 85.0308 150.027 84.7881 150.268 84.6177C150.512 84.4449 150.79 84.3584 151.103 84.3584C151.174 84.3584 151.253 84.362 151.341 84.3691C151.431 84.3738 151.505 84.3821 151.564 84.394V85.5765C151.51 85.5575 151.423 85.541 151.305 85.5268C151.189 85.5102 151.077 85.5019 150.968 85.5019C150.733 85.5019 150.523 85.5528 150.336 85.6546C150.151 85.754 150.005 85.8925 149.899 86.0701C149.792 86.2476 149.739 86.4524 149.739 86.6844V89.8911H148.453ZM153.704 86.6951V89.8911H152.418V84.4366H153.647V85.3634H153.711C153.836 85.058 154.036 84.8154 154.311 84.6354C154.588 84.4555 154.93 84.3655 155.337 84.3655C155.714 84.3655 156.042 84.446 156.321 84.607C156.603 84.768 156.821 85.0012 156.974 85.3066C157.131 85.612 157.208 85.9825 157.205 86.4181V89.8911H155.92V86.617C155.92 86.2524 155.825 85.9671 155.636 85.7611C155.449 85.5552 155.189 85.4522 154.858 85.4522C154.633 85.4522 154.433 85.5019 154.258 85.6013C154.085 85.6984 153.949 85.8393 153.849 86.0239C153.752 86.2086 153.704 86.4323 153.704 86.6951ZM159.741 87.7533V87.661C159.743 87.2325 159.783 86.8916 159.862 86.6383C159.942 86.385 160.056 86.1814 160.202 86.0275C160.349 85.8712 160.528 85.728 160.739 85.5978C160.883 85.5078 161.012 85.4096 161.126 85.303C161.242 85.1941 161.333 85.0734 161.399 84.9408C161.465 84.8059 161.499 84.6556 161.499 84.4898C161.499 84.3028 161.455 84.1406 161.367 84.0033C161.28 83.866 161.161 83.7595 161.012 83.6837C160.865 83.608 160.701 83.5701 160.518 83.5701C160.35 83.5701 160.191 83.6068 160.039 83.6802C159.89 83.7512 159.766 83.8601 159.666 84.0069C159.569 84.1513 159.515 84.3348 159.503 84.5573H158.239C158.25 84.1075 158.359 83.7311 158.565 83.428C158.774 83.125 159.048 82.8977 159.389 82.7462C159.732 82.5947 160.111 82.519 160.526 82.519C160.978 82.519 161.375 82.5983 161.719 82.7569C162.064 82.9155 162.333 83.1416 162.525 83.4351C162.719 83.7263 162.816 84.072 162.816 84.4721C162.816 84.742 162.772 84.9834 162.685 85.1965C162.599 85.4096 162.478 85.599 162.319 85.7647C162.16 85.9304 161.972 86.0784 161.754 86.2086C161.563 86.327 161.405 86.4501 161.282 86.5779C161.161 86.7057 161.071 86.8561 161.012 87.0289C160.955 87.1994 160.926 87.4101 160.923 87.661V87.7533H159.741ZM160.359 89.9692C160.146 89.9692 159.962 89.8935 159.808 89.742C159.654 89.5905 159.577 89.4058 159.577 89.188C159.577 88.9749 159.654 88.7926 159.808 88.6411C159.962 88.4896 160.146 88.4138 160.359 88.4138C160.569 88.4138 160.752 88.4896 160.906 88.6411C161.062 88.7926 161.14 88.9749 161.14 89.188C161.14 89.3324 161.103 89.4638 161.03 89.5822C160.959 89.7005 160.864 89.7952 160.746 89.8663C160.63 89.9349 160.501 89.9692 160.359 89.9692Z" fill="#8777DA"/>
<circle cx="127.5" cy="217" r="11.5" fill="#DBE9F8" stroke="#8777DA"/>
<path d="M127.125 221.485C126.297 221.485 125.628 222.174 125.628 223.001C125.628 223.809 126.278 224.518 127.125 224.518C127.972 224.518 128.642 223.809 128.642 223.001C128.642 222.174 127.952 221.485 127.125 221.485ZM127.381 210C124.721 210 123.5 211.576 123.5 212.64C123.5 213.408 124.15 213.763 124.682 213.763C125.746 213.763 125.312 212.246 127.322 212.246C128.307 212.246 129.095 212.679 129.095 213.585C129.095 214.649 127.991 215.26 127.341 215.811C126.77 216.304 126.022 217.111 126.022 218.806C126.022 219.83 126.297 220.125 127.105 220.125C128.07 220.125 128.267 219.692 128.267 219.318C128.267 218.293 128.287 217.702 129.37 216.855C129.902 216.442 131.577 215.102 131.577 213.25C131.577 211.399 129.902 210 127.381 210Z" fill="#8777DA"/>
<path d="M104.349 240.05C104.29 239.858 104.208 239.686 104.104 239.535C104.002 239.381 103.879 239.25 103.735 239.141C103.593 239.032 103.43 238.95 103.245 238.896C103.06 238.839 102.859 238.81 102.641 238.81C102.251 238.81 101.903 238.909 101.597 239.105C101.292 239.302 101.051 239.59 100.876 239.972C100.703 240.35 100.617 240.812 100.617 241.357C100.617 241.906 100.703 242.371 100.876 242.752C101.049 243.133 101.289 243.423 101.597 243.622C101.905 243.819 102.262 243.917 102.67 243.917C103.039 243.917 103.358 243.846 103.628 243.704C103.901 243.562 104.11 243.361 104.257 243.1C104.404 242.837 104.477 242.53 104.477 242.177L104.775 242.223H102.801V241.193H105.752V242.067C105.752 242.689 105.619 243.228 105.354 243.683C105.089 244.137 104.724 244.487 104.26 244.734C103.796 244.978 103.264 245.099 102.662 245.099C101.992 245.099 101.404 244.949 100.898 244.648C100.393 244.345 99.9991 243.916 99.715 243.359C99.4333 242.801 99.2924 242.138 99.2924 241.371C99.2924 240.784 99.3753 240.259 99.541 239.798C99.7091 239.336 99.9435 238.944 100.244 238.622C100.545 238.298 100.898 238.052 101.302 237.884C101.707 237.713 102.148 237.628 102.623 237.628C103.026 237.628 103.401 237.687 103.749 237.805C104.097 237.921 104.406 238.087 104.676 238.303C104.948 238.518 105.172 238.774 105.347 239.07C105.522 239.366 105.637 239.692 105.692 240.05H104.349ZM108.539 245.11C108.193 245.11 107.882 245.049 107.605 244.925C107.33 244.8 107.112 244.615 106.951 244.371C106.793 244.128 106.713 243.827 106.713 243.469C106.713 243.162 106.77 242.907 106.884 242.706C106.998 242.505 107.153 242.344 107.349 242.223C107.546 242.102 107.767 242.011 108.013 241.95C108.262 241.886 108.519 241.839 108.784 241.811C109.103 241.778 109.363 241.748 109.561 241.722C109.76 241.694 109.905 241.651 109.995 241.594C110.087 241.535 110.133 241.444 110.133 241.321V241.3C110.133 241.032 110.054 240.825 109.895 240.678C109.737 240.531 109.508 240.458 109.21 240.458C108.895 240.458 108.645 240.527 108.461 240.664C108.278 240.801 108.155 240.964 108.091 241.151L106.891 240.98C106.986 240.649 107.142 240.372 107.36 240.149C107.578 239.924 107.844 239.756 108.159 239.645C108.474 239.531 108.822 239.474 109.203 239.474C109.466 239.474 109.727 239.505 109.988 239.567C110.248 239.628 110.486 239.73 110.701 239.872C110.917 240.012 111.09 240.202 111.22 240.444C111.352 240.685 111.419 240.987 111.419 241.349V245H110.183V244.251H110.14C110.062 244.402 109.952 244.544 109.81 244.677C109.67 244.807 109.494 244.912 109.281 244.993C109.07 245.071 108.823 245.11 108.539 245.11ZM108.873 244.165C109.131 244.165 109.354 244.115 109.544 244.013C109.733 243.909 109.879 243.771 109.98 243.601C110.085 243.43 110.137 243.245 110.137 243.043V242.401C110.096 242.434 110.028 242.464 109.931 242.493C109.836 242.521 109.73 242.546 109.611 242.567C109.493 242.589 109.376 242.608 109.26 242.624C109.144 242.641 109.043 242.655 108.958 242.667C108.766 242.693 108.594 242.736 108.443 242.795C108.291 242.854 108.172 242.937 108.084 243.043C107.997 243.147 107.953 243.282 107.953 243.448C107.953 243.685 108.039 243.864 108.212 243.984C108.385 244.105 108.605 244.165 108.873 244.165ZM112.711 245V239.545H113.94V240.472H114.004C114.118 240.16 114.306 239.916 114.569 239.741C114.831 239.563 115.145 239.474 115.51 239.474C115.879 239.474 116.19 239.564 116.444 239.744C116.699 239.922 116.879 240.165 116.983 240.472H117.04C117.161 240.169 117.364 239.928 117.651 239.748C117.94 239.566 118.282 239.474 118.677 239.474C119.179 239.474 119.589 239.633 119.906 239.95C120.223 240.268 120.382 240.73 120.382 241.339V245H119.093V241.538C119.093 241.199 119.003 240.952 118.823 240.795C118.643 240.637 118.423 240.558 118.162 240.558C117.852 240.558 117.609 240.655 117.434 240.849C117.261 241.04 117.175 241.29 117.175 241.598V245H115.914V241.484C115.914 241.203 115.829 240.978 115.659 240.81C115.491 240.642 115.27 240.558 114.998 240.558C114.814 240.558 114.645 240.605 114.494 240.7C114.342 240.792 114.222 240.923 114.132 241.094C114.042 241.262 113.997 241.458 113.997 241.683V245H112.711ZM124.101 245.107C123.554 245.107 123.081 244.993 122.684 244.766C122.288 244.536 121.984 244.212 121.771 243.793C121.558 243.371 121.452 242.875 121.452 242.305C121.452 241.744 121.558 241.251 121.771 240.827C121.987 240.401 122.287 240.07 122.673 239.833C123.059 239.594 123.512 239.474 124.033 239.474C124.369 239.474 124.687 239.529 124.985 239.638C125.286 239.744 125.551 239.91 125.78 240.135C126.012 240.36 126.195 240.646 126.327 240.994C126.46 241.34 126.526 241.752 126.526 242.23V242.624H122.055V241.758H125.294C125.291 241.512 125.238 241.293 125.134 241.101C125.03 240.907 124.884 240.754 124.697 240.643C124.513 240.531 124.297 240.476 124.051 240.476C123.788 240.476 123.557 240.54 123.358 240.668C123.16 240.793 123.005 240.959 122.893 241.165C122.784 241.368 122.729 241.592 122.726 241.836V242.592C122.726 242.91 122.784 243.182 122.9 243.409C123.016 243.634 123.179 243.807 123.387 243.928C123.595 244.046 123.839 244.105 124.118 244.105C124.305 244.105 124.475 244.079 124.626 244.027C124.778 243.973 124.909 243.893 125.02 243.789C125.132 243.685 125.216 243.556 125.273 243.402L126.473 243.537C126.397 243.854 126.253 244.131 126.04 244.368C125.829 244.602 125.559 244.785 125.23 244.915C124.901 245.043 124.524 245.107 124.101 245.107ZM132.473 245.107C131.941 245.107 131.479 244.989 131.088 244.755C130.698 244.521 130.395 244.193 130.179 243.771C129.966 243.35 129.86 242.857 129.86 242.294C129.86 241.731 129.966 241.237 130.179 240.813C130.395 240.389 130.698 240.06 131.088 239.826C131.479 239.592 131.941 239.474 132.473 239.474C133.006 239.474 133.468 239.592 133.858 239.826C134.249 240.06 134.551 240.389 134.764 240.813C134.979 241.237 135.087 241.731 135.087 242.294C135.087 242.857 134.979 243.35 134.764 243.771C134.551 244.193 134.249 244.521 133.858 244.755C133.468 244.989 133.006 245.107 132.473 245.107ZM132.48 244.077C132.769 244.077 133.011 243.997 133.205 243.839C133.399 243.678 133.543 243.462 133.638 243.192C133.735 242.923 133.784 242.622 133.784 242.29C133.784 241.957 133.735 241.655 133.638 241.385C133.543 241.113 133.399 240.896 133.205 240.735C133.011 240.574 132.769 240.494 132.48 240.494C132.185 240.494 131.938 240.574 131.742 240.735C131.548 240.896 131.402 241.113 131.305 241.385C131.21 241.655 131.163 241.957 131.163 242.29C131.163 242.622 131.21 242.923 131.305 243.192C131.402 243.462 131.548 243.678 131.742 243.839C131.938 243.997 132.185 244.077 132.48 244.077ZM140.865 239.545L138.922 245H137.502L135.559 239.545H136.93L138.184 243.597H138.24L139.498 239.545H140.865ZM143.983 245.107C143.437 245.107 142.964 244.993 142.567 244.766C142.171 244.536 141.867 244.212 141.654 243.793C141.441 243.371 141.334 242.875 141.334 242.305C141.334 241.744 141.441 241.251 141.654 240.827C141.869 240.401 142.17 240.07 142.556 239.833C142.942 239.594 143.395 239.474 143.916 239.474C144.252 239.474 144.569 239.529 144.868 239.638C145.168 239.744 145.434 239.91 145.663 240.135C145.895 240.36 146.077 240.646 146.21 240.994C146.343 241.34 146.409 241.752 146.409 242.23V242.624H141.938V241.758H145.177C145.174 241.512 145.121 241.293 145.017 241.101C144.913 240.907 144.767 240.754 144.58 240.643C144.395 240.531 144.18 240.476 143.934 240.476C143.671 240.476 143.44 240.54 143.241 240.668C143.042 240.793 142.887 240.959 142.776 241.165C142.667 241.368 142.612 241.592 142.609 241.836V242.592C142.609 242.91 142.667 243.182 142.783 243.409C142.899 243.634 143.061 243.807 143.27 243.928C143.478 244.046 143.722 244.105 144.001 244.105C144.188 244.105 144.358 244.079 144.509 244.027C144.661 243.973 144.792 243.893 144.903 243.789C145.015 243.685 145.099 243.556 145.155 243.402L146.356 243.537C146.28 243.854 146.135 244.131 145.922 244.368C145.712 244.602 145.442 244.785 145.113 244.915C144.784 245.043 144.407 245.107 143.983 245.107ZM147.496 245V239.545H148.743V240.455H148.8C148.899 240.14 149.07 239.897 149.311 239.727C149.555 239.554 149.833 239.467 150.146 239.467C150.217 239.467 150.296 239.471 150.384 239.478C150.473 239.483 150.548 239.491 150.607 239.503V240.685C150.553 240.666 150.466 240.65 150.348 240.636C150.232 240.619 150.12 240.611 150.011 240.611C149.776 240.611 149.566 240.662 149.379 240.763C149.194 240.863 149.048 241.001 148.942 241.179C148.835 241.357 148.782 241.561 148.782 241.793V245H147.496ZM152.69 242.862V242.77C152.692 242.341 152.733 242 152.811 241.747C152.891 241.494 153.005 241.29 153.152 241.136C153.298 240.98 153.477 240.837 153.688 240.707C153.832 240.617 153.961 240.518 154.075 240.412C154.191 240.303 154.282 240.182 154.348 240.05C154.415 239.915 154.448 239.764 154.448 239.599C154.448 239.412 154.404 239.25 154.316 239.112C154.229 238.975 154.11 238.868 153.961 238.793C153.815 238.717 153.65 238.679 153.468 238.679C153.3 238.679 153.14 238.716 152.988 238.789C152.839 238.86 152.715 238.969 152.615 239.116C152.518 239.26 152.464 239.444 152.452 239.666H151.188C151.2 239.216 151.309 238.84 151.515 238.537C151.723 238.234 151.998 238.007 152.338 237.855C152.682 237.704 153.06 237.628 153.475 237.628C153.927 237.628 154.325 237.707 154.668 237.866C155.014 238.024 155.282 238.25 155.474 238.544C155.668 238.835 155.765 239.181 155.765 239.581C155.765 239.851 155.721 240.092 155.634 240.305C155.549 240.518 155.427 240.708 155.268 240.874C155.109 241.039 154.921 241.187 154.703 241.317C154.512 241.436 154.354 241.559 154.231 241.687C154.11 241.815 154.02 241.965 153.961 242.138C153.904 242.308 153.875 242.519 153.873 242.77V242.862H152.69ZM153.308 245.078C153.095 245.078 152.911 245.002 152.757 244.851C152.604 244.699 152.527 244.515 152.527 244.297C152.527 244.084 152.604 243.902 152.757 243.75C152.911 243.598 153.095 243.523 153.308 243.523C153.519 243.523 153.701 243.598 153.855 243.75C154.011 243.902 154.089 244.084 154.089 244.297C154.089 244.441 154.052 244.573 153.979 244.691C153.908 244.809 153.813 244.904 153.695 244.975C153.579 245.044 153.45 245.078 153.308 245.078Z" fill="#8777DA"/>
<g clip-path="url(#clip1_305_9832)">
<path d="M209.879 150.937C210.168 151.015 211.457 150.605 212.087 150.315C210.19 148.956 210.085 144.111 210.269 141.859C210.243 141.793 210.668 141.701 212.581 141.859C214.971 142.057 218.883 139.686 220.187 139.508C220.456 140.693 221.88 141.569 222.558 141.859C222.545 143.354 222.487 146.624 222.36 147.747C222.202 149.149 220.543 150.078 220.523 150.611C220.507 151.038 222.303 151.035 223.1 150.949C223.324 150.89 223.676 150.773 224.277 150.315C225.028 149.742 224.573 144.447 224.534 142.215C224.494 139.982 224.395 136.979 223.012 135.28C221.629 133.581 219.772 133.324 216.295 133.186C212.818 133.048 211.415 133.917 209.657 135.636C207.898 137.354 208.728 142.59 208.709 146.344C208.689 150.098 209.541 150.846 209.879 150.937Z" fill="#E3CEFC"/>
<path d="M212.146 141.911L210.365 141.751C210.047 143.473 210.433 146.916 210.605 148.194C210.935 150.659 213.375 151.466 213.601 151.919C213.783 152.281 213.492 153.02 213.024 153.775C211.957 154.783 211.746 155.054 211.782 155.145C211.983 155.643 213.903 157.292 215.136 157.477L218.892 156.801C219.544 156.407 219.804 155.962 220.115 155.595C220.221 155.47 220.861 155.081 221.186 154.552L220.427 153.956L219.779 153.104C219.673 152.923 219.217 152.636 219.479 151.314C220.77 150.793 221.64 149.601 222.365 148.265C223.09 146.928 222.721 145.104 222.699 141.751C221.489 140.763 220.574 140.243 220.115 139.353C217.697 140.381 215.208 141.272 213.973 141.751L212.146 141.911Z" fill="#F8E2DB"/>
<path d="M226.135 162.652H206.658C206.658 161.22 206.785 158.086 207.295 157.008C207.805 155.93 208.351 155.813 209.613 155.608C209.569 155.523 211.056 155.286 211.743 155.145C212.217 155.81 213.543 156.882 213.99 156.957H215.257C216.118 156.995 217.372 156.957 217.484 156.957C217.635 156.957 218.386 156.484 218.688 156.371C218.929 156.281 219.934 155.466 220.105 154.688C220.797 154.978 222.454 155.733 223.821 156.025C225.531 156.39 225.866 157.85 225.866 158.019C225.866 158.154 226.045 161.163 226.135 162.652Z" fill="#DBE9F8"/>
<path d="M224.03 155.155L221.33 154.226C220.792 154.042 220.321 153.703 219.975 153.252C219.936 153.199 219.886 153.156 219.829 153.123C219.772 153.09 219.709 153.068 219.644 153.06C219.578 153.051 219.512 153.055 219.449 153.072C219.385 153.089 219.325 153.118 219.273 153.158C219.221 153.198 219.177 153.248 219.144 153.304C219.111 153.361 219.089 153.424 219.081 153.489C219.072 153.554 219.076 153.62 219.093 153.684C219.11 153.747 219.139 153.807 219.179 153.859C219.42 154.173 219.707 154.449 220.032 154.676C218.893 156.646 216.341 157.313 214.38 156.119C214.144 155.974 213.836 156.049 213.691 156.285C213.622 156.398 213.601 156.534 213.632 156.663C213.663 156.792 213.745 156.903 213.858 156.972C216.309 158.465 219.509 157.625 220.919 155.141C221.048 155.189 223.483 156.024 223.697 156.099C224.861 156.503 225.646 157.595 225.646 158.825V162.152C225.646 162.284 225.698 162.412 225.792 162.505C225.886 162.599 226.014 162.652 226.147 162.652C226.28 162.652 226.407 162.599 226.501 162.505C226.595 162.412 226.648 162.284 226.648 162.152V158.825C226.648 157.171 225.596 155.697 224.03 155.155Z" fill="#8777DA"/>
<path d="M223.202 145.785V141.652C223.202 141.543 223.167 141.437 223.101 141.35C223.035 141.264 222.943 141.201 222.838 141.171C221.722 140.854 220.838 140.031 220.414 138.912C220.295 138.6 219.907 138.488 219.64 138.692C216.987 140.722 213.692 141.597 210.364 141.156C210.065 141.116 209.797 141.348 209.797 141.652V145.785C209.797 147.452 210.415 149.048 211.538 150.281C211.582 150.33 211.636 150.369 211.695 150.397C211.755 150.425 211.819 150.441 211.885 150.444C211.951 150.447 212.017 150.438 212.078 150.415C212.14 150.393 212.197 150.359 212.246 150.315C212.295 150.271 212.334 150.217 212.362 150.158C212.39 150.099 212.406 150.034 212.41 149.969C212.413 149.903 212.403 149.837 212.381 149.776C212.358 149.714 212.324 149.657 212.28 149.608C211.325 148.56 210.799 147.202 210.799 145.785V142.211C213.99 142.501 217.126 141.675 219.744 139.855C220.283 140.859 221.146 141.619 222.2 142.013V145.785C222.2 149.947 217.942 152.571 214.281 151.025C213.879 150.856 213.469 151.245 213.614 151.652C213.552 152.819 212.787 153.842 211.67 154.226L208.97 155.155C207.404 155.697 206.352 157.171 206.352 158.825V162.152C206.352 162.284 206.404 162.412 206.498 162.505C206.592 162.599 206.72 162.652 206.853 162.652C206.986 162.652 207.113 162.599 207.207 162.505C207.301 162.412 207.354 162.284 207.354 162.152V158.825C207.354 157.595 208.137 156.499 209.302 156.099L209.302 156.097C209.304 156.103 209.183 156.14 211.997 155.172C213.345 154.708 214.312 153.553 214.558 152.187C218.799 153.47 223.202 150.315 223.202 145.785Z" fill="#8777DA"/>
<path d="M209.875 150.946C209.941 150.956 210.007 150.953 210.071 150.936C210.134 150.92 210.194 150.892 210.247 150.853C210.3 150.813 210.345 150.764 210.378 150.708C210.412 150.652 210.434 150.589 210.444 150.524C210.453 150.459 210.45 150.393 210.434 150.329C210.418 150.266 210.389 150.206 210.35 150.153C210.311 150.1 210.261 150.056 210.205 150.022C210.148 149.989 210.086 149.966 210.021 149.957C209.536 149.886 209.17 149.461 209.171 148.968V139.371C209.171 136.217 211.742 133.652 214.902 133.652H218.097C221.258 133.652 223.829 136.217 223.829 139.371V148.968C223.829 149.461 223.464 149.886 222.979 149.957C222.849 149.978 222.732 150.049 222.654 150.155C222.576 150.261 222.543 150.393 222.562 150.523C222.581 150.653 222.651 150.77 222.756 150.85C222.861 150.929 222.993 150.964 223.124 150.946C224.097 150.804 224.831 149.954 224.831 148.968V139.371C224.831 135.666 221.81 132.652 218.097 132.652H214.902C211.189 132.652 208.168 135.666 208.168 139.371V148.968C208.168 149.954 208.902 150.804 209.875 150.946Z" fill="#8777DA"/>
<path d="M214.934 143.527C214.801 143.527 214.673 143.58 214.579 143.673C214.485 143.767 214.433 143.894 214.433 144.027V144.902C214.433 145.034 214.485 145.162 214.579 145.255C214.673 145.349 214.801 145.402 214.934 145.402C215.067 145.402 215.194 145.349 215.288 145.255C215.382 145.162 215.435 145.034 215.435 144.902V144.027C215.435 143.894 215.382 143.767 215.288 143.673C215.194 143.58 215.067 143.527 214.934 143.527ZM218.066 145.402C218.199 145.402 218.326 145.349 218.42 145.255C218.514 145.162 218.567 145.034 218.567 144.902V144.027C218.567 143.894 218.514 143.767 218.42 143.673C218.326 143.58 218.199 143.527 218.066 143.527C217.933 143.527 217.806 143.58 217.712 143.673C217.618 143.767 217.565 143.894 217.565 144.027V144.902C217.565 145.034 217.618 145.162 217.712 145.255C217.806 145.349 217.933 145.402 218.066 145.402Z" fill="#8777DA"/>
</g>
<path d="M198.902 175.652V168.379H201.629C202.188 168.379 202.657 168.483 203.035 168.692C203.417 168.9 203.704 169.186 203.898 169.551C204.095 169.913 204.193 170.325 204.193 170.787C204.193 171.253 204.095 171.667 203.898 172.03C203.702 172.392 203.412 172.677 203.028 172.886C202.645 173.091 202.172 173.194 201.611 173.194H199.804V172.111H201.434C201.761 172.111 202.028 172.055 202.236 171.941C202.445 171.827 202.599 171.671 202.698 171.472C202.8 171.273 202.851 171.045 202.851 170.787C202.851 170.529 202.8 170.301 202.698 170.105C202.599 169.908 202.444 169.756 202.233 169.647C202.025 169.536 201.756 169.48 201.427 169.48H200.219V175.652H198.902ZM206.566 168.379V175.652H205.281V168.379H206.566ZM209.458 175.762C209.112 175.762 208.801 175.7 208.524 175.577C208.249 175.452 208.031 175.267 207.87 175.023C207.712 174.779 207.632 174.479 207.632 174.121C207.632 173.814 207.689 173.559 207.803 173.358C207.916 173.157 208.072 172.996 208.268 172.875C208.465 172.754 208.686 172.663 208.932 172.601C209.181 172.538 209.438 172.491 209.703 172.463C210.022 172.43 210.282 172.4 210.48 172.374C210.679 172.346 210.824 172.303 210.914 172.246C211.006 172.187 211.052 172.096 211.052 171.973V171.952C211.052 171.684 210.973 171.477 210.814 171.33C210.656 171.183 210.427 171.11 210.129 171.11C209.814 171.11 209.564 171.179 209.38 171.316C209.197 171.453 209.074 171.615 209.01 171.802L207.81 171.632C207.905 171.301 208.061 171.024 208.279 170.801C208.496 170.576 208.763 170.408 209.078 170.297C209.393 170.183 209.741 170.126 210.122 170.126C210.384 170.126 210.646 170.157 210.907 170.219C211.167 170.28 211.405 170.382 211.62 170.524C211.836 170.664 212.009 170.854 212.139 171.096C212.271 171.337 212.338 171.639 212.338 172.001V175.652H211.102V174.903H211.059C210.981 175.054 210.871 175.196 210.729 175.329C210.589 175.459 210.413 175.564 210.2 175.645C209.989 175.723 209.742 175.762 209.458 175.762ZM209.791 174.817C210.05 174.817 210.273 174.766 210.463 174.665C210.652 174.56 210.798 174.423 210.899 174.253C211.004 174.082 211.056 173.896 211.056 173.695V173.052C211.015 173.086 210.947 173.116 210.85 173.145C210.755 173.173 210.648 173.198 210.53 173.219C210.412 173.241 210.295 173.26 210.179 173.276C210.063 173.293 209.962 173.307 209.877 173.319C209.685 173.345 209.513 173.387 209.362 173.447C209.21 173.506 209.091 173.589 209.003 173.695C208.916 173.799 208.872 173.934 208.872 174.1C208.872 174.337 208.958 174.515 209.131 174.636C209.304 174.757 209.524 174.817 209.791 174.817ZM214.234 177.697C214.059 177.697 213.897 177.683 213.747 177.655C213.601 177.629 213.483 177.598 213.396 177.562L213.694 176.561C213.881 176.615 214.048 176.641 214.195 176.639C214.342 176.637 214.471 176.591 214.582 176.501C214.696 176.413 214.791 176.266 214.87 176.06L214.98 175.765L213.002 170.197H214.365L215.622 174.317H215.679L216.94 170.197H218.307L216.123 176.312C216.021 176.601 215.886 176.849 215.718 177.055C215.55 177.263 215.344 177.422 215.1 177.53C214.859 177.642 214.57 177.697 214.234 177.697ZM221.426 175.758C220.879 175.758 220.407 175.645 220.009 175.417C219.614 175.188 219.309 174.864 219.096 174.444C218.883 174.023 218.777 173.527 218.777 172.957C218.777 172.395 218.883 171.903 219.096 171.479C219.312 171.053 219.612 170.722 219.998 170.485C220.384 170.246 220.838 170.126 221.358 170.126C221.695 170.126 222.012 170.181 222.31 170.29C222.611 170.396 222.876 170.562 223.106 170.787C223.338 171.012 223.52 171.298 223.652 171.646C223.785 171.992 223.851 172.404 223.851 172.882V173.276H219.38V172.41H222.619C222.617 172.163 222.563 171.944 222.459 171.753C222.355 171.559 222.209 171.406 222.022 171.295C221.838 171.183 221.622 171.128 221.376 171.128C221.113 171.128 220.883 171.192 220.684 171.319C220.485 171.445 220.33 171.611 220.218 171.817C220.11 172.02 220.054 172.244 220.052 172.488V173.244C220.052 173.561 220.11 173.834 220.226 174.061C220.342 174.286 220.504 174.459 220.712 174.579C220.92 174.698 221.164 174.757 221.444 174.757C221.631 174.757 221.8 174.731 221.951 174.679C222.103 174.624 222.234 174.545 222.346 174.441C222.457 174.337 222.541 174.208 222.598 174.054L223.798 174.189C223.722 174.506 223.578 174.783 223.365 175.02C223.154 175.254 222.884 175.436 222.555 175.567C222.226 175.694 221.85 175.758 221.426 175.758ZM224.939 175.652V170.197H226.185V171.106H226.242C226.342 170.792 226.512 170.549 226.753 170.378C226.997 170.206 227.275 170.119 227.588 170.119C227.659 170.119 227.738 170.123 227.826 170.13C227.916 170.135 227.99 170.143 228.05 170.155V171.337C227.995 171.318 227.909 171.302 227.79 171.288C227.674 171.271 227.562 171.263 227.453 171.263C227.219 171.263 227.008 171.314 226.821 171.415C226.636 171.515 226.491 171.653 226.384 171.831C226.278 172.008 226.224 172.213 226.224 172.445V175.652H224.939ZM228.96 175.652V168.379H231.745C232.27 168.379 232.707 168.462 233.055 168.628C233.405 168.791 233.667 169.015 233.84 169.299C234.015 169.583 234.103 169.905 234.103 170.265C234.103 170.561 234.046 170.814 233.932 171.025C233.818 171.233 233.666 171.402 233.474 171.533C233.282 171.663 233.068 171.756 232.831 171.813V171.884C233.089 171.898 233.337 171.978 233.573 172.122C233.813 172.264 234.008 172.465 234.159 172.726C234.311 172.986 234.387 173.301 234.387 173.67C234.387 174.047 234.295 174.385 234.113 174.686C233.931 174.984 233.656 175.22 233.289 175.393C232.922 175.565 232.461 175.652 231.904 175.652H228.96ZM230.278 174.551H231.695C232.173 174.551 232.518 174.46 232.728 174.278C232.941 174.093 233.048 173.856 233.048 173.567C233.048 173.352 232.995 173.158 232.888 172.985C232.782 172.81 232.63 172.672 232.434 172.573C232.237 172.471 232.003 172.42 231.73 172.42H230.278V174.551ZM230.278 171.472H231.581C231.809 171.472 232.013 171.431 232.196 171.348C232.378 171.263 232.521 171.143 232.625 170.989C232.732 170.833 232.785 170.648 232.785 170.435C232.785 170.154 232.686 169.922 232.487 169.739C232.29 169.557 231.998 169.466 231.61 169.466H230.278V171.472Z" fill="#8777DA"/>
<path d="M208.464 183.197H209.75V188.964C209.75 189.357 209.675 189.682 209.526 189.937C209.377 190.193 209.161 190.384 208.88 190.509C208.598 190.635 208.256 190.697 207.853 190.697C207.806 190.697 207.762 190.696 207.722 190.694C207.682 190.694 207.638 190.693 207.591 190.69V189.643C207.626 189.645 207.658 189.646 207.687 189.646C207.715 189.649 207.745 189.65 207.775 189.65C208.022 189.65 208.198 189.589 208.304 189.469C208.411 189.35 208.464 189.176 208.464 188.947V183.197ZM209.103 182.423C208.897 182.423 208.721 182.356 208.574 182.221C208.43 182.083 208.358 181.919 208.358 181.727C208.358 181.533 208.43 181.368 208.574 181.234C208.721 181.096 208.897 181.028 209.103 181.028C209.307 181.028 209.481 181.096 209.625 181.234C209.772 181.368 209.846 181.533 209.846 181.727C209.846 181.919 209.772 182.083 209.625 182.221C209.481 182.356 209.307 182.423 209.103 182.423ZM213.451 188.758C212.918 188.758 212.457 188.641 212.066 188.407C211.675 188.172 211.372 187.845 211.157 187.423C210.944 187.002 210.837 186.509 210.837 185.946C210.837 185.382 210.944 184.889 211.157 184.465C211.372 184.041 211.675 183.712 212.066 183.478C212.457 183.243 212.918 183.126 213.451 183.126C213.984 183.126 214.445 183.243 214.836 183.478C215.226 183.712 215.528 184.041 215.741 184.465C215.957 184.889 216.065 185.382 216.065 185.946C216.065 186.509 215.957 187.002 215.741 187.423C215.528 187.845 215.226 188.172 214.836 188.407C214.445 188.641 213.984 188.758 213.451 188.758ZM213.458 187.729C213.747 187.729 213.988 187.649 214.182 187.491C214.377 187.33 214.521 187.114 214.616 186.844C214.713 186.574 214.761 186.274 214.761 185.942C214.761 185.609 214.713 185.307 214.616 185.037C214.521 184.765 214.377 184.548 214.182 184.387C213.988 184.226 213.747 184.145 213.458 184.145C213.162 184.145 212.916 184.226 212.719 184.387C212.525 184.548 212.38 184.765 212.283 185.037C212.188 185.307 212.141 185.609 212.141 185.942C212.141 186.274 212.188 186.574 212.283 186.844C212.38 187.114 212.525 187.33 212.719 187.491C212.916 187.649 213.162 187.729 213.458 187.729ZM217.156 188.652V183.197H218.441V188.652H217.156ZM217.802 182.423C217.598 182.423 217.423 182.356 217.276 182.221C217.13 182.083 217.056 181.919 217.056 181.727C217.056 181.533 217.13 181.368 217.276 181.234C217.423 181.096 217.598 181.028 217.802 181.028C218.008 181.028 218.183 181.096 218.328 181.234C218.474 181.368 218.548 181.533 218.548 181.727C218.548 181.919 218.474 182.083 218.328 182.221C218.183 182.356 218.008 182.423 217.802 182.423ZM221.049 185.456V188.652H219.763V183.197H220.992V184.124H221.056C221.181 183.819 221.381 183.576 221.656 183.396C221.933 183.216 222.275 183.126 222.682 183.126C223.059 183.126 223.386 183.207 223.666 183.368C223.947 183.529 224.165 183.762 224.319 184.067C224.475 184.373 224.552 184.743 224.55 185.179V188.652H223.264V185.378C223.264 185.013 223.17 184.728 222.98 184.522C222.793 184.316 222.534 184.213 222.203 184.213C221.978 184.213 221.778 184.263 221.603 184.362C221.43 184.459 221.294 184.6 221.194 184.785C221.097 184.969 221.049 185.193 221.049 185.456Z" fill="#9C9EAB"/>
<g clip-path="url(#clip2_305_9832)">
<path d="M34.1754 141.24L32.4537 142.055C32.136 143.777 32.3623 146.927 32.6048 148.194C33.0489 150.514 35.3748 151.466 35.6013 151.919C35.7826 152.281 35.4924 153.02 35.0242 153.775C33.9566 154.783 33.7458 155.054 33.7823 155.145C33.9834 155.643 35.903 157.292 37.1362 157.477L40.8923 156.801C41.5437 156.407 41.8041 155.962 42.1148 155.595C42.2209 155.47 42.8611 155.081 43.1863 154.552L42.4275 153.956L41.7787 153.104C41.6729 152.923 41.2171 152.636 41.4789 151.314C42.7702 150.793 43.6403 149.601 44.3653 148.265C45.0903 146.928 44.8352 145.75 44.8125 142.397C40.7573 142.623 36.6223 140.877 36.0333 140.402C35.5621 140.021 35.2026 140.137 35.0818 140.243L34.1754 141.24Z" fill="#F8E2DB"/>
<path d="M48.1346 162.652H28.658C28.658 161.22 28.7854 158.086 29.2951 157.008C29.8047 155.93 30.3508 155.814 31.6134 155.608C31.5687 155.524 33.056 155.287 33.7434 155.146C34.2168 155.811 35.5426 156.883 35.9896 156.958H37.2574C38.1178 156.995 39.3724 156.958 39.4839 156.958C39.6347 156.958 40.3861 156.484 40.6878 156.372C40.9291 156.282 41.9342 155.466 42.1047 154.688C42.7975 154.978 44.4538 155.734 45.8215 156.026C47.5311 156.391 47.8664 157.851 47.8664 158.019C47.8664 158.154 48.0452 161.164 48.1346 162.652Z" fill="#E3CEFC"/>
<path d="M46.3097 144.054H44.5318C44.4828 143.8 44.3848 143.101 44.3848 142.336C39.0594 142.925 38.0287 141.501 34.8875 139.833C34.7109 140.893 33.0469 141.943 32.2369 142.336V145.771L30.6909 144.643V137.01L32.2369 136.102L35.1082 133.354C38.0204 133.411 43.8447 133.55 43.8447 133.648C43.8447 133.747 43.6648 134.916 43.5748 135.489L45.8816 136.79L46.3097 144.054Z" fill="#9ABAFB"/>
<path d="M36.934 143.214C36.8011 143.214 36.6737 143.267 36.5797 143.36C36.4857 143.454 36.4329 143.581 36.4329 143.714V144.589C36.4329 144.722 36.4857 144.849 36.5797 144.942C36.6737 145.036 36.8011 145.089 36.934 145.089C37.067 145.089 37.1944 145.036 37.2884 144.942C37.3824 144.849 37.4352 144.722 37.4352 144.589V143.714C37.4352 143.581 37.3824 143.454 37.2884 143.36C37.1944 143.267 37.067 143.214 36.934 143.214ZM40.0662 145.089C40.1991 145.089 40.3266 145.036 40.4205 144.942C40.5145 144.849 40.5673 144.722 40.5673 144.589V143.714C40.5673 143.581 40.5145 143.454 40.4205 143.36C40.3266 143.267 40.1991 143.214 40.0662 143.214C39.9333 143.214 39.8058 143.267 39.7118 143.36C39.6178 143.454 39.565 143.581 39.565 143.714V144.589C39.565 144.722 39.6178 144.849 39.7118 144.942C39.8058 145.036 39.9333 145.089 40.0662 145.089Z" fill="#8777DA"/>
<path d="M36.5585 152.187C40.828 153.479 45.2027 150.288 45.2027 145.784V142.276C45.2027 141.973 44.9344 141.741 44.6356 141.781C41.3074 142.221 38.013 141.346 35.3594 139.317C35.0929 139.113 34.7046 139.223 34.5857 139.537C34.1616 140.656 33.278 141.479 32.1613 141.795C32.0564 141.825 31.9641 141.888 31.8984 141.975C31.8326 142.062 31.7971 142.167 31.7971 142.276V144.964C31.4646 144.79 31.2375 144.446 31.2379 144.05V137.959C31.2383 137.31 31.7666 136.772 32.4313 136.772C32.5314 136.772 32.6292 136.742 32.7121 136.686C32.795 136.63 32.8593 136.551 32.8965 136.458C33.5814 134.753 35.2139 133.652 37.0565 133.652H43.0097C43.36 133.652 43.6027 134.003 43.478 134.331L43.1138 135.29C43.0102 135.562 43.1616 135.866 43.4425 135.947L44.3107 136.199C45.1686 136.448 45.7684 137.233 45.7714 138.107V144.028H46.7721L46.7753 138.104C46.7707 136.789 45.8723 135.61 44.5906 135.239L44.2434 135.138L44.4152 134.686C44.7876 133.706 44.0615 132.653 43.0102 132.652H37.0562C34.9075 132.652 32.9917 133.876 32.0914 135.798C31.0422 135.961 30.2364 136.867 30.2356 137.958V144.049C30.235 145.005 30.9039 145.809 31.8025 146.026C31.8558 147.484 32.3881 148.896 33.3165 150.024C33.3583 150.075 33.4096 150.117 33.4677 150.148C33.5257 150.179 33.5893 150.198 33.6548 150.205C33.7203 150.211 33.7864 150.205 33.8494 150.186C33.9124 150.167 33.971 150.135 34.0218 150.094C34.1246 150.009 34.1896 149.888 34.2026 149.756C34.2156 149.624 34.1756 149.492 34.0912 149.39C33.2582 148.377 32.7995 147.097 32.7995 145.784V142.638C33.8538 142.243 34.7163 141.483 35.2554 140.479C37.874 142.299 41.0092 143.126 44.2004 142.835V145.784C44.2004 149.837 40.0547 152.589 36.3154 151.039C35.9826 150.9 35.6156 151.144 35.6183 151.503C35.6168 152.732 34.8343 153.826 33.6701 154.226L30.9704 155.155C29.4039 155.696 28.3519 157.17 28.3519 158.825V162.152C28.3519 162.284 28.4047 162.412 28.4986 162.505C28.5926 162.599 28.7201 162.652 28.853 162.652C28.9859 162.652 29.1134 162.599 29.2074 162.505C29.3013 162.412 29.3541 162.284 29.3541 162.152V158.825C29.3541 157.595 30.1372 156.499 31.3026 156.098L31.3019 156.096C31.3041 156.103 31.9949 155.86 33.9968 155.172C35.3449 154.708 36.3123 153.553 36.5585 152.187Z" fill="#8777DA"/>
<path d="M46.0252 155.153L43.3299 154.226C42.7389 154.023 42.24 153.644 41.887 153.129C41.7307 152.901 41.4188 152.842 41.1904 152.999C41.0807 153.074 41.0054 153.189 40.9809 153.319C40.9564 153.45 40.9848 153.584 41.0599 153.694C41.3262 154.082 41.6543 154.413 42.0313 154.677C40.8618 156.702 38.1861 157.353 36.2069 156.007C36.097 155.935 35.9633 155.909 35.8344 155.934C35.7055 155.96 35.5918 156.035 35.5178 156.143C35.4438 156.251 35.4154 156.384 35.4387 156.513C35.462 156.642 35.5351 156.757 35.6424 156.833C38.1211 158.519 41.4748 157.691 42.92 155.141C43.0787 155.2 45.541 156.044 45.6975 156.098C46.8605 156.506 47.6459 157.595 47.6459 158.825V162.152C47.6459 162.284 47.6987 162.412 47.7926 162.505C47.8866 162.599 48.0141 162.652 48.147 162.652C48.2799 162.652 48.4074 162.599 48.5014 162.505C48.5954 162.412 48.6482 162.284 48.6482 162.152V158.825C48.6482 157.169 47.594 155.694 46.0252 155.153Z" fill="#8777DA"/>
</g>
<path d="M20.7701 175.652V168.379H23.4973C24.056 168.379 24.5248 168.483 24.9036 168.692C25.2847 168.9 25.5724 169.186 25.7665 169.551C25.963 169.913 26.0613 170.325 26.0613 170.787C26.0613 171.253 25.963 171.667 25.7665 172.03C25.57 172.392 25.28 172.677 24.8965 172.886C24.513 173.091 24.0407 173.194 23.4796 173.194H21.6721V172.111H23.302C23.6287 172.111 23.8962 172.055 24.1046 171.941C24.3129 171.827 24.4668 171.671 24.5662 171.472C24.668 171.273 24.7189 171.045 24.7189 170.787C24.7189 170.529 24.668 170.301 24.5662 170.105C24.4668 169.908 24.3117 169.756 24.101 169.647C23.8927 169.536 23.624 169.48 23.2949 169.48H22.0875V175.652H20.7701ZM28.4343 168.379V175.652H27.1488V168.379H28.4343ZM31.3258 175.762C30.9802 175.762 30.6689 175.7 30.3919 175.577C30.1172 175.452 29.8994 175.267 29.7385 175.023C29.5798 174.779 29.5005 174.479 29.5005 174.121C29.5005 173.814 29.5574 173.559 29.671 173.358C29.7846 173.157 29.9397 172.996 30.1362 172.875C30.3327 172.754 30.554 172.663 30.8002 172.601C31.0488 172.538 31.3057 172.491 31.5708 172.463C31.8904 172.43 32.1497 172.4 32.3485 172.374C32.5474 172.346 32.6918 172.303 32.7818 172.246C32.8741 172.187 32.9203 172.096 32.9203 171.973V171.952C32.9203 171.684 32.841 171.477 32.6824 171.33C32.5237 171.183 32.2953 171.11 31.997 171.11C31.6821 171.11 31.4324 171.179 31.2477 171.316C31.0654 171.453 30.9423 171.615 30.8784 171.802L29.6781 171.632C29.7728 171.301 29.929 171.024 30.1468 170.801C30.3646 170.576 30.631 170.408 30.9458 170.297C31.2607 170.183 31.6087 170.126 31.9899 170.126C32.2527 170.126 32.5143 170.157 32.7747 170.219C33.0351 170.28 33.273 170.382 33.4885 170.524C33.7039 170.664 33.8767 170.854 34.0069 171.096C34.1395 171.337 34.2058 171.639 34.2058 172.001V175.652H32.97V174.903H32.9274C32.8493 175.054 32.7392 175.196 32.5971 175.329C32.4574 175.459 32.2811 175.564 32.068 175.645C31.8573 175.723 31.6099 175.762 31.3258 175.762ZM31.6596 174.817C31.9177 174.817 32.1414 174.766 32.3308 174.665C32.5202 174.56 32.6658 174.423 32.7676 174.253C32.8717 174.082 32.9238 173.896 32.9238 173.695V173.052C32.8836 173.086 32.8149 173.116 32.7179 173.145C32.6232 173.173 32.5166 173.198 32.3983 173.219C32.2799 173.241 32.1627 173.26 32.0467 173.276C31.9307 173.293 31.8301 173.307 31.7449 173.319C31.5531 173.345 31.3815 173.387 31.2299 173.447C31.0784 173.506 30.9589 173.589 30.8713 173.695C30.7837 173.799 30.7399 173.934 30.7399 174.1C30.7399 174.337 30.8263 174.515 30.9991 174.636C31.1719 174.757 31.3921 174.817 31.6596 174.817ZM36.1021 177.697C35.9269 177.697 35.7647 177.683 35.6156 177.655C35.4688 177.629 35.3516 177.598 35.264 177.562L35.5623 176.561C35.7493 176.615 35.9163 176.641 36.063 176.639C36.2098 176.637 36.3388 176.591 36.4501 176.501C36.5637 176.413 36.6596 176.266 36.7377 176.06L36.8478 175.765L34.8699 170.197H36.2335L37.4906 174.317H37.5474L38.8081 170.197H40.1752L37.9913 176.312C37.8895 176.601 37.7546 176.849 37.5865 177.055C37.4184 177.263 37.2124 177.422 36.9686 177.53C36.7271 177.642 36.4383 177.697 36.1021 177.697ZM43.294 175.758C42.7472 175.758 42.2749 175.645 41.8771 175.417C41.4818 175.188 41.1776 174.864 40.9645 174.444C40.7514 174.023 40.6449 173.527 40.6449 172.957C40.6449 172.395 40.7514 171.903 40.9645 171.479C41.1799 171.053 41.4806 170.722 41.8665 170.485C42.2524 170.246 42.7057 170.126 43.2266 170.126C43.5627 170.126 43.88 170.181 44.1783 170.29C44.4789 170.396 44.7441 170.562 44.9737 170.787C45.2057 171.012 45.388 171.298 45.5206 171.646C45.6532 171.992 45.7195 172.404 45.7195 172.882V173.276H41.2486V172.41H44.4872C44.4848 172.163 44.4316 171.944 44.3274 171.753C44.2232 171.559 44.0777 171.406 43.8906 171.295C43.706 171.183 43.4905 171.128 43.2443 171.128C42.9815 171.128 42.7507 171.192 42.5518 171.319C42.353 171.445 42.1979 171.611 42.0866 171.817C41.9777 172.02 41.9221 172.244 41.9197 172.488V173.244C41.9197 173.561 41.9777 173.834 42.0938 174.061C42.2098 174.286 42.3719 174.459 42.5803 174.579C42.7886 174.698 43.0324 174.757 43.3118 174.757C43.4988 174.757 43.6681 174.731 43.8196 174.679C43.9711 174.624 44.1025 174.545 44.2138 174.441C44.325 174.337 44.4091 174.208 44.4659 174.054L45.6662 174.189C45.5904 174.506 45.446 174.783 45.233 175.02C45.0223 175.254 44.7524 175.436 44.4233 175.567C44.0942 175.694 43.7178 175.758 43.294 175.758ZM46.807 175.652V170.197H48.0534V171.106H48.1103C48.2097 170.792 48.3801 170.549 48.6216 170.378C48.8655 170.206 49.1436 170.119 49.4561 170.119C49.5272 170.119 49.6065 170.123 49.6941 170.13C49.784 170.135 49.8586 170.143 49.9178 170.155V171.337C49.8633 171.318 49.7769 171.302 49.6586 171.288C49.5426 171.271 49.4301 171.263 49.3212 171.263C49.0868 171.263 48.8761 171.314 48.6891 171.415C48.5044 171.515 48.3588 171.653 48.2523 171.831C48.1458 172.008 48.0925 172.213 48.0925 172.445V175.652H46.807ZM51.3622 175.652H49.956L52.5163 168.379H54.1428L56.7067 175.652H55.3004L53.358 169.871H53.3011L51.3622 175.652ZM51.4084 172.8H55.2436V173.859H51.4084V172.8Z" fill="#8777DA"/>
<path d="M30.4642 183.197H31.7497V188.964C31.7497 189.357 31.6752 189.682 31.526 189.937C31.3769 190.193 31.1614 190.384 30.8797 190.509C30.598 190.635 30.2559 190.697 29.8534 190.697C29.8061 190.697 29.7623 190.696 29.722 190.694C29.6818 190.694 29.638 190.693 29.5906 190.69V189.643C29.6262 189.645 29.6581 189.646 29.6865 189.646C29.7149 189.649 29.7445 189.65 29.7753 189.65C30.0215 189.65 30.1979 189.589 30.3044 189.469C30.411 189.35 30.4642 189.176 30.4642 188.947V183.197ZM31.1034 182.423C30.8975 182.423 30.7211 182.356 30.5743 182.221C30.4299 182.083 30.3577 181.919 30.3577 181.727C30.3577 181.533 30.4299 181.368 30.5743 181.234C30.7211 181.096 30.8975 181.028 31.1034 181.028C31.307 181.028 31.481 181.096 31.6254 181.234C31.7722 181.368 31.8456 181.533 31.8456 181.727C31.8456 181.919 31.7722 182.083 31.6254 182.221C31.481 182.356 31.307 182.423 31.1034 182.423ZM35.4509 188.758C34.9182 188.758 34.4566 188.641 34.066 188.407C33.6753 188.172 33.3723 187.845 33.1569 187.423C32.9438 187.002 32.8373 186.509 32.8373 185.946C32.8373 185.382 32.9438 184.889 33.1569 184.465C33.3723 184.041 33.6753 183.712 34.066 183.478C34.4566 183.243 34.9182 183.126 35.4509 183.126C35.9836 183.126 36.4452 183.243 36.8358 183.478C37.2265 183.712 37.5283 184.041 37.7414 184.465C37.9568 184.889 38.0645 185.382 38.0645 185.946C38.0645 186.509 37.9568 187.002 37.7414 187.423C37.5283 187.845 37.2265 188.172 36.8358 188.407C36.4452 188.641 35.9836 188.758 35.4509 188.758ZM35.458 187.729C35.7468 187.729 35.9883 187.649 36.1824 187.491C36.3766 187.33 36.521 187.114 36.6157 186.844C36.7127 186.574 36.7613 186.274 36.7613 185.942C36.7613 185.609 36.7127 185.307 36.6157 185.037C36.521 184.765 36.3766 184.548 36.1824 184.387C35.9883 184.226 35.7468 184.145 35.458 184.145C35.1621 184.145 34.9159 184.226 34.7194 184.387C34.5252 184.548 34.3796 184.765 34.2826 185.037C34.1879 185.307 34.1405 185.609 34.1405 185.942C34.1405 186.274 34.1879 186.574 34.2826 186.844C34.3796 187.114 34.5252 187.33 34.7194 187.491C34.9159 187.649 35.1621 187.729 35.458 187.729ZM39.1556 188.652V183.197H40.4411V188.652H39.1556ZM39.8019 182.423C39.5983 182.423 39.4231 182.356 39.2764 182.221C39.1296 182.083 39.0562 181.919 39.0562 181.727C39.0562 181.533 39.1296 181.368 39.2764 181.234C39.4231 181.096 39.5983 181.028 39.8019 181.028C40.0079 181.028 40.1831 181.096 40.3275 181.234C40.4743 181.368 40.5477 181.533 40.5477 181.727C40.5477 181.919 40.4743 182.083 40.3275 182.221C40.1831 182.356 40.0079 182.423 39.8019 182.423ZM43.0486 185.456V188.652H41.7631V183.197H42.9917V184.124H43.0557C43.1811 183.819 43.3812 183.576 43.6558 183.396C43.9328 183.216 44.2749 183.126 44.6821 183.126C45.0585 183.126 45.3864 183.207 45.6657 183.368C45.9475 183.529 46.1653 183.762 46.3192 184.067C46.4754 184.373 46.5523 184.743 46.55 185.179V188.652H45.2645V185.378C45.2645 185.013 45.1698 184.728 44.9804 184.522C44.7934 184.316 44.5341 184.213 44.2027 184.213C43.9778 184.213 43.7777 184.263 43.6025 184.362C43.4297 184.459 43.2936 184.6 43.1942 184.785C43.0971 184.969 43.0486 185.193 43.0486 185.456Z" fill="#9C9EAB"/>
<path d="M128.215 253.857C128.215 253.443 127.879 253.107 127.465 253.107C127.051 253.107 126.715 253.443 126.715 253.857L128.215 253.857ZM127.465 293.857L131.795 286.357L123.135 286.357L127.465 293.857ZM126.715 253.857L126.715 287.107L128.215 287.107L128.215 253.857L126.715 253.857Z" fill="#8777DA"/>
<path d="M128.215 1C128.215 0.585786 127.879 0.25 127.465 0.25C127.051 0.25 126.715 0.585786 126.715 1L128.215 1ZM127.465 41L131.795 33.5L123.135 33.5L127.465 41ZM126.715 1L126.715 34.25L128.215 34.25L128.215 1L126.715 1Z" fill="#8777DA"/>
<path d="M108.5 218L101 213.67L101 222.33L108.5 218ZM38.75 196C38.75 195.586 38.4142 195.25 38 195.25C37.5858 195.25 37.25 195.586 37.25 196L38.75 196ZM101.75 217.25L43 217.25L43 218.75L101.75 218.75L101.75 217.25ZM38.75 213L38.75 196L37.25 196L37.25 213L38.75 213ZM43 217.25C40.6528 217.25 38.75 215.347 38.75 213L37.25 213C37.25 216.176 39.8244 218.75 43 218.75L43 217.25Z" fill="#9ABAFB"/>
<path d="M146 218L153.5 213.67L153.5 222.33L146 218ZM215.75 196C215.75 195.586 216.086 195.25 216.5 195.25C216.914 195.25 217.25 195.586 217.25 196L215.75 196ZM152.75 217.25L211.5 217.25L211.5 218.75L152.75 218.75L152.75 217.25ZM215.75 213L215.75 196L217.25 196L217.25 213L215.75 213ZM211.5 217.25C213.847 217.25 215.75 215.347 215.75 213L217.25 213C217.25 216.176 214.676 218.75 211.5 218.75L211.5 217.25Z" fill="#9ABAFB"/>
<path d="M217 125L212.67 117.5H221.33L217 125ZM171 87.25C170.586 87.25 170.25 86.9142 170.25 86.5C170.25 86.0858 170.586 85.75 171 85.75V87.25ZM216.25 118.25V91.5H217.75V118.25H216.25ZM212 87.25H171V85.75H212V87.25ZM216.25 91.5C216.25 89.1528 214.347 87.25 212 87.25V85.75C215.176 85.75 217.75 88.3244 217.75 91.5H216.25Z" fill="#9ABAFB"/>
<rect x="23.75" y="94.75" width="28.5" height="13.5" rx="6.75" fill="white"/>
<path d="M32.3707 105.636C32.2306 105.636 32.1009 105.625 31.9815 105.602C31.8641 105.581 31.7704 105.557 31.7003 105.528L31.9389 104.727C32.0885 104.771 32.2221 104.792 32.3395 104.79C32.4569 104.788 32.5601 104.751 32.6491 104.679C32.7401 104.609 32.8168 104.491 32.8793 104.327L32.9673 104.091L31.3849 99.6364H32.4759L33.4815 102.932H33.527L34.5355 99.6364H35.6293L33.8821 104.528C33.8007 104.759 33.6927 104.957 33.5582 105.122C33.4238 105.289 33.259 105.416 33.0639 105.503C32.8707 105.592 32.6397 105.636 32.3707 105.636ZM38.1243 104.085C37.6868 104.085 37.3089 103.994 36.9908 103.812C36.6745 103.629 36.4311 103.369 36.2607 103.034C36.0902 102.697 36.005 102.3 36.005 101.844C36.005 101.395 36.0902 101.001 36.2607 100.662C36.433 100.321 36.6735 100.056 36.9822 99.8665C37.291 99.6752 37.6536 99.5795 38.0703 99.5795C38.3393 99.5795 38.593 99.6231 38.8317 99.7102C39.0722 99.7955 39.2843 99.928 39.468 100.108C39.6536 100.288 39.7995 100.517 39.9055 100.795C40.0116 101.072 40.0646 101.402 40.0646 101.784V102.099H36.4879V101.406H39.0788C39.0769 101.209 39.0343 101.034 38.951 100.881C38.8677 100.725 38.7512 100.603 38.6016 100.514C38.4538 100.425 38.2815 100.381 38.0845 100.381C37.8743 100.381 37.6896 100.432 37.5305 100.534C37.3714 100.634 37.2474 100.767 37.1584 100.932C37.0713 101.095 37.0268 101.274 37.0249 101.469V102.074C37.0249 102.328 37.0713 102.545 37.1641 102.727C37.2569 102.907 37.3866 103.045 37.5533 103.142C37.7199 103.237 37.915 103.284 38.1385 103.284C38.2881 103.284 38.4235 103.263 38.5447 103.222C38.666 103.178 38.7711 103.115 38.8601 103.031C38.9491 102.948 39.0163 102.845 39.0618 102.722L40.022 102.83C39.9614 103.083 39.8459 103.305 39.6754 103.494C39.5069 103.682 39.291 103.828 39.0277 103.932C38.7644 104.034 38.4633 104.085 38.1243 104.085ZM44.3835 100.79L43.446 100.892C43.4195 100.797 43.3731 100.708 43.3068 100.625C43.2424 100.542 43.1553 100.474 43.0455 100.423C42.9356 100.372 42.8011 100.347 42.642 100.347C42.428 100.347 42.2481 100.393 42.1023 100.486C41.9583 100.579 41.8873 100.699 41.8892 100.847C41.8873 100.973 41.9337 101.077 42.0284 101.156C42.125 101.236 42.2841 101.301 42.5057 101.352L43.25 101.511C43.6629 101.6 43.9697 101.741 44.1705 101.935C44.3731 102.128 44.4754 102.381 44.4773 102.693C44.4754 102.968 44.3949 103.21 44.2358 103.42C44.0786 103.629 43.8598 103.792 43.5795 103.909C43.2992 104.027 42.9773 104.085 42.6136 104.085C42.0795 104.085 41.6496 103.973 41.3239 103.75C40.9981 103.525 40.804 103.211 40.7415 102.81L41.7443 102.713C41.7898 102.91 41.8864 103.059 42.0341 103.159C42.1818 103.259 42.3741 103.31 42.6108 103.31C42.8551 103.31 43.0511 103.259 43.1989 103.159C43.3485 103.059 43.4233 102.935 43.4233 102.787C43.4233 102.662 43.375 102.559 43.2784 102.477C43.1837 102.396 43.036 102.333 42.8352 102.29L42.0909 102.134C41.6723 102.046 41.3627 101.9 41.1619 101.693C40.9612 101.485 40.8617 101.222 40.8636 100.903C40.8617 100.634 40.9347 100.402 41.0824 100.205C41.232 100.006 41.4394 99.8523 41.7045 99.7443C41.9716 99.6345 42.2794 99.5795 42.6278 99.5795C43.1392 99.5795 43.5417 99.6884 43.8352 99.9062C44.1307 100.124 44.3134 100.419 44.3835 100.79Z" fill="#9ABAFB"/>
<rect x="23.75" y="94.75" width="28.5" height="13.5" rx="6.75" stroke="#9ABAFB" stroke-width="1.5"/>
<rect x="204.75" y="94.75" width="24.5" height="13.5" rx="6.75" fill="white"/>
<path d="M213.686 101.443V104H212.657V99.6364H213.64V100.378H213.691C213.792 100.134 213.952 99.9394 214.172 99.7955C214.393 99.6515 214.667 99.5795 214.993 99.5795C215.294 99.5795 215.556 99.6439 215.779 99.7727C216.005 99.9015 216.179 100.088 216.302 100.332C216.427 100.577 216.489 100.873 216.487 101.222V104H215.458V101.381C215.458 101.089 215.383 100.861 215.231 100.696C215.082 100.531 214.874 100.449 214.609 100.449C214.429 100.449 214.269 100.489 214.129 100.568C213.991 100.646 213.882 100.759 213.802 100.906C213.725 101.054 213.686 101.233 213.686 101.443ZM219.436 104.085C219.01 104.085 218.64 103.991 218.328 103.804C218.015 103.616 217.773 103.354 217.6 103.017C217.43 102.68 217.345 102.286 217.345 101.835C217.345 101.384 217.43 100.99 217.6 100.651C217.773 100.312 218.015 100.048 218.328 99.8608C218.64 99.6733 219.01 99.5795 219.436 99.5795C219.862 99.5795 220.231 99.6733 220.544 99.8608C220.856 100.048 221.098 100.312 221.268 100.651C221.44 100.99 221.527 101.384 221.527 101.835C221.527 102.286 221.44 102.68 221.268 103.017C221.098 103.354 220.856 103.616 220.544 103.804C220.231 103.991 219.862 104.085 219.436 104.085ZM219.441 103.261C219.672 103.261 219.866 103.198 220.021 103.071C220.176 102.942 220.292 102.77 220.368 102.554C220.445 102.338 220.484 102.098 220.484 101.832C220.484 101.565 220.445 101.324 220.368 101.108C220.292 100.89 220.176 100.717 220.021 100.588C219.866 100.459 219.672 100.395 219.441 100.395C219.205 100.395 219.008 100.459 218.85 100.588C218.695 100.717 218.579 100.89 218.501 101.108C218.425 101.324 218.387 101.565 218.387 101.832C218.387 102.098 218.425 102.338 218.501 102.554C218.579 102.77 218.695 102.942 218.85 103.071C219.008 103.198 219.205 103.261 219.441 103.261Z" fill="#9ABAFB"/>
<rect x="204.75" y="94.75" width="24.5" height="13.5" rx="6.75" stroke="#9ABAFB" stroke-width="1.5"/>
<path d="M161 240.25C160.586 240.25 160.25 240.586 160.25 241C160.25 241.414 160.586 241.75 161 241.75V240.25ZM303 190.5L298.67 198H307.33L303 190.5ZM302.25 101.5C302.25 101.914 302.586 102.25 303 102.25C303.414 102.25 303.75 101.914 303.75 101.5H302.25ZM133.5 18L141 22.3301V13.6699L133.5 18ZM161 241.75H298V240.25H161V241.75ZM303.75 236V197.25H302.25V236H303.75ZM303.75 101.5V23H302.25V101.5H303.75ZM298 17.25H140.25V18.75H298V17.25ZM303.75 23C303.75 19.8244 301.176 17.25 298 17.25V18.75C300.347 18.75 302.25 20.6528 302.25 23H303.75ZM298 241.75C301.176 241.75 303.75 239.176 303.75 236H302.25C302.25 238.347 300.347 240.25 298 240.25V241.75Z" fill="#8777DA"/>
<rect x="219.75" y="233.986" width="24.5" height="13.5" rx="6.75" fill="white"/>
<path d="M228.686 240.679V243.236H227.657V238.872H228.64V239.614H228.691C228.792 239.369 228.952 239.175 229.172 239.031C229.393 238.887 229.667 238.815 229.993 238.815C230.294 238.815 230.556 238.88 230.779 239.009C231.005 239.137 231.179 239.324 231.302 239.568C231.427 239.813 231.489 240.109 231.487 240.457V243.236H230.458V240.617C230.458 240.325 230.383 240.097 230.231 239.932C230.082 239.767 229.874 239.685 229.609 239.685C229.429 239.685 229.269 239.724 229.129 239.804C228.991 239.882 228.882 239.994 228.802 240.142C228.725 240.29 228.686 240.469 228.686 240.679ZM234.436 243.321C234.01 243.321 233.64 243.227 233.328 243.04C233.015 242.852 232.773 242.59 232.6 242.253C232.43 241.916 232.345 241.522 232.345 241.071C232.345 240.62 232.43 240.225 232.6 239.886C232.773 239.547 233.015 239.284 233.328 239.097C233.64 238.909 234.01 238.815 234.436 238.815C234.862 238.815 235.231 238.909 235.544 239.097C235.856 239.284 236.098 239.547 236.268 239.886C236.44 240.225 236.527 240.62 236.527 241.071C236.527 241.522 236.44 241.916 236.268 242.253C236.098 242.59 235.856 242.852 235.544 243.04C235.231 243.227 234.862 243.321 234.436 243.321ZM234.441 242.497C234.672 242.497 234.866 242.434 235.021 242.307C235.176 242.178 235.292 242.006 235.368 241.79C235.445 241.574 235.484 241.333 235.484 241.068C235.484 240.801 235.445 240.56 235.368 240.344C235.292 240.126 235.176 239.953 235.021 239.824C234.866 239.695 234.672 239.631 234.441 239.631C234.205 239.631 234.008 239.695 233.85 239.824C233.695 239.953 233.579 240.126 233.501 240.344C233.425 240.56 233.387 240.801 233.387 241.068C233.387 241.333 233.425 241.574 233.501 241.79C233.579 242.006 233.695 242.178 233.85 242.307C234.008 242.434 234.205 242.497 234.441 242.497Z" fill="#8777DA"/>
<rect x="219.75" y="233.986" width="24.5" height="13.5" rx="6.75" stroke="#8777DA" stroke-width="1.5"/>
<defs>
<clipPath id="clip0_305_9832">
<rect width="30" height="30" fill="white" transform="translate(288.5 109.261)"/>
</clipPath>
<clipPath id="clip1_305_9832">
<rect width="30" height="30" fill="white" transform="translate(201.5 132.652)"/>
</clipPath>
<clipPath id="clip2_305_9832">
<rect width="30" height="30" fill="white" transform="translate(23.5 132.652)"/>
</clipPath>
</defs>
</svg>
