<svg width="254" height="231" viewBox="0 0 254 231" fill="none" xmlns="http://www.w3.org/2000/svg">
<g clip-path="url(#clip0_305_9828)">
<path d="M117.892 67.8303C114.998 67.6265 113.798 68.3909 113.56 68.7986C113.175 69.4579 113.051 69.7825 113.051 71.4485C113.051 74.3443 113.968 75.1687 114.478 75.2196C122.971 75.2366 140.182 75.1585 141.079 74.71C142.2 74.1495 141.793 72.4168 141.895 70.3784C141.976 68.7476 140.638 68.0002 139.958 67.8303C133.809 67.9152 120.787 68.0342 117.892 67.8303Z" fill="#DBE9F8"/>
<path d="M117.94 75.6614C115.017 75.4575 113.806 76.2219 113.565 76.6296C113.177 77.2889 113.051 77.6136 113.051 79.2796C113.051 82.1753 114.12 82.2012 114.635 82.2522C123.213 82.2692 140.225 82.6127 141.503 82.1218C142.78 81.631 142.181 80.214 142.181 78.2094C142.181 76.5766 140.911 75.8312 140.225 75.6614C134.015 75.7463 120.863 75.8652 117.94 75.6614Z" fill="#DBE9F8"/>
<path d="M117.088 82.2934C114.662 82.2934 113.674 82.9537 113.476 83.4339C113.155 84.2105 113.051 84.593 113.051 86.5554C113.051 89.9663 115.938 90.9277 116.363 90.9878C123.445 91.0078 135.849 91.0815 136.597 90.5532C137.532 89.8929 137.017 87.6959 137.102 85.2948C137.17 83.3739 136.052 82.1967 135.485 81.9966C130.358 82.0966 119.494 82.2934 117.088 82.2934Z" fill="#DBE9F8"/>
<path d="M125.631 87.8652C125.465 89.6365 126.9 90.3101 127.638 90.4254H138.501C139.585 90.4254 141.767 89.7888 141.823 87.2425C141.892 84.0595 139.816 82.814 137.394 82.814C136.149 80.8765 134.28 80.1846 131.582 80.5998C129.423 80.9319 128.053 83.9672 127.638 85.4434C127.038 85.5126 125.797 86.0938 125.631 87.8652Z" fill="#E3CEFC"/>
<path d="M114.145 68.2833L118.643 61.8481H136.91L140.785 68.2833H114.145Z" fill="#DBE9F8"/>
<path d="M128.125 78.5H138.125C138.47 78.5 138.75 78.22 138.75 77.875C138.75 77.53 138.47 77.25 138.125 77.25H128.125C127.78 77.25 127.5 77.53 127.5 77.875C127.5 78.22 127.78 78.5 128.125 78.5Z" fill="#8777DA"/>
<path d="M142.5 72.875V70.375C142.5 69.7712 142.32 69.2125 142.023 68.7337C142.015 68.7187 142.014 68.7012 142.005 68.6875L138.14 62.475C137.566 61.5525 136.574 61 135.486 61H119.515C118.426 61 117.435 61.5525 116.861 62.475L112.996 68.6875C112.989 68.7 112.989 68.7137 112.981 68.7275C112.681 69.2062 112.5 69.7687 112.5 70.375V72.875C112.5 73.9 113.004 74.805 113.77 75.375C113.004 75.945 112.5 76.8487 112.5 77.875V80.375C112.5 81.4 113.004 82.305 113.77 82.875C113.004 83.445 112.5 84.3487 112.5 85.375V87.875C112.5 89.5975 113.903 91 115.625 91H123.82C123.902 91.0001 123.983 90.9839 124.059 90.9526C124.135 90.9212 124.204 90.8751 124.262 90.8171C124.32 90.759 124.366 90.6901 124.398 90.6142C124.429 90.5384 124.445 90.4571 124.445 90.375C124.445 90.03 124.165 89.75 123.82 89.75H115.625C114.591 89.75 113.75 88.9087 113.75 87.875V85.375C113.75 84.34 114.591 83.5 115.625 83.5H126.08C126.425 83.5 126.705 83.22 126.705 82.875C126.705 82.53 126.425 82.25 126.08 82.25H115.625C114.591 82.25 113.75 81.4087 113.75 80.375V77.875C113.75 76.84 114.591 76 115.625 76H139.375C140.409 76 141.25 76.8412 141.25 77.875V80.375C141.25 80.65 141.182 80.9263 141.052 81.1925C140.901 81.5025 141.029 81.8762 141.339 82.0288C141.65 82.1813 142.024 82.0538 142.175 81.7425C142.391 81.3026 142.5 80.8438 142.5 80.375V77.875C142.5 76.85 141.996 75.945 141.23 75.375C141.996 74.8038 142.5 73.9 142.5 72.875ZM117.923 63.135C118.266 62.5812 118.861 62.25 119.514 62.25H135.485C136.137 62.25 136.733 62.5812 137.077 63.135L139.656 67.2787C139.563 67.2687 139.471 67.25 139.375 67.25H115.625C115.529 67.25 115.437 67.2687 115.344 67.2774L117.923 63.135ZM141.25 72.875C141.25 73.9088 140.409 74.75 139.375 74.75H115.625C114.591 74.75 113.75 73.9088 113.75 72.875V70.375C113.75 69.34 114.591 68.5 115.625 68.5H139.375C140.409 68.5 141.25 69.34 141.25 70.375V72.875H141.25Z" fill="#8777DA"/>
<path d="M115 86.625C115 87.6588 115.841 88.5 116.875 88.5C117.909 88.5 118.75 87.6588 118.75 86.625C118.75 85.5912 117.909 84.75 116.875 84.75C115.841 84.75 115 85.59 115 86.625ZM117.5 86.625C117.5 86.97 117.22 87.25 116.875 87.25C116.53 87.25 116.25 86.97 116.25 86.625C116.25 86.28 116.53 86 116.875 86C117.22 86 117.5 86.28 117.5 86.625ZM138.125 82.25C138.011 82.25 137.897 82.2563 137.786 82.2663C136.745 80.7038 134.996 79.75 133.125 79.75C130.215 79.75 127.814 81.9712 127.529 84.8075C126.09 85.085 125 86.3551 125 87.875C125 89.5975 126.402 91 128.125 91H138.125C140.537 91 142.5 89.0375 142.5 86.625C142.5 84.2125 140.537 82.25 138.125 82.25ZM138.125 89.75H128.125C127.091 89.75 126.25 88.9088 126.25 87.875C126.25 86.8413 127.091 86 128.125 86C128.47 86 128.75 85.72 128.75 85.375C128.75 82.9625 130.712 81 133.125 81C134.687 81 136.144 81.8613 136.922 83.2475C137.052 83.4788 137.31 83.6012 137.577 83.5562C137.756 83.525 137.937 83.5 138.125 83.5C139.847 83.5 141.25 84.9025 141.25 86.6249C141.25 88.3474 139.847 89.75 138.125 89.75ZM138.125 69.75H128.125C127.78 69.75 127.5 70.03 127.5 70.375C127.5 70.72 127.78 71 128.125 71H138.125C138.47 71 138.75 70.72 138.75 70.375C138.75 70.03 138.47 69.75 138.125 69.75ZM138.125 72.25H128.125C127.78 72.25 127.5 72.53 127.5 72.875C127.5 73.22 127.78 73.5001 128.125 73.5001H138.125C138.47 73.5001 138.75 73.22 138.75 72.875C138.75 72.53 138.47 72.25 138.125 72.25ZM116.875 69.75C115.841 69.75 115 70.59 115 71.625C115 72.66 115.841 73.5 116.875 73.5C117.909 73.5 118.75 72.6588 118.75 71.625C118.75 70.5913 117.909 69.75 116.875 69.75ZM116.875 72.25C116.53 72.25 116.25 71.97 116.25 71.625C116.25 71.28 116.53 71 116.875 71C117.22 71 117.5 71.28 117.5 71.625C117.5 71.97 117.22 72.25 116.875 72.25ZM115 79.125C115 80.1588 115.841 81 116.875 81C117.909 81 118.75 80.1588 118.75 79.125C118.75 78.0912 117.909 77.25 116.875 77.25C115.841 77.25 115 78.09 115 79.125ZM117.5 79.125C117.5 79.47 117.22 79.75 116.875 79.75C116.53 79.75 116.25 79.47 116.25 79.125C116.25 78.78 116.53 78.5 116.875 78.5C117.22 78.5 117.5 78.78 117.5 79.125Z" fill="#8777DA"/>
<circle cx="116.873" cy="71.6232" r="0.623657" fill="#E3CEFC"/>
<circle cx="116.873" cy="79.1237" r="0.623657" fill="#E3CEFC"/>
<circle cx="116.873" cy="86.6312" r="0.623657" fill="#E3CEFC"/>
</g>
<path d="M116.159 98.7266C116.126 98.4164 115.986 98.175 115.74 98.0021C115.496 97.8293 115.179 97.7429 114.788 97.7429C114.514 97.7429 114.278 97.7843 114.082 97.8672C113.885 97.95 113.735 98.0625 113.631 98.2045C113.526 98.3466 113.473 98.5088 113.471 98.6911C113.471 98.8426 113.505 98.974 113.574 99.0852C113.645 99.1965 113.741 99.2912 113.861 99.3693C113.982 99.4451 114.116 99.509 114.263 99.5611C114.409 99.6132 114.557 99.657 114.707 99.6925L115.388 99.8629C115.663 99.9268 115.927 100.013 116.18 100.122C116.436 100.231 116.664 100.368 116.866 100.534C117.069 100.7 117.23 100.9 117.349 101.134C117.467 101.369 117.526 101.643 117.526 101.958C117.526 102.384 117.417 102.759 117.199 103.084C116.982 103.406 116.667 103.658 116.255 103.84C115.845 104.02 115.349 104.11 114.767 104.11C114.201 104.11 113.71 104.022 113.293 103.847C112.879 103.672 112.555 103.416 112.32 103.08C112.088 102.744 111.963 102.335 111.944 101.852H113.24C113.259 102.105 113.337 102.316 113.474 102.484C113.612 102.652 113.79 102.777 114.011 102.86C114.233 102.943 114.482 102.984 114.756 102.984C115.043 102.984 115.294 102.942 115.509 102.857C115.727 102.769 115.897 102.648 116.021 102.494C116.144 102.338 116.206 102.156 116.209 101.947C116.206 101.758 116.151 101.602 116.042 101.479C115.933 101.353 115.78 101.249 115.584 101.166C115.39 101.081 115.162 101.005 114.902 100.939L114.074 100.726C113.476 100.572 113.002 100.339 112.654 100.026C112.308 99.7114 112.136 99.2936 112.136 98.7727C112.136 98.3442 112.252 97.969 112.484 97.647C112.718 97.325 113.036 97.0753 113.439 96.8977C113.841 96.7178 114.297 96.6278 114.806 96.6278C115.322 96.6278 115.774 96.7178 116.163 96.8977C116.553 97.0753 116.86 97.3227 117.082 97.6399C117.305 97.9548 117.42 98.317 117.427 98.7266H116.159ZM121.059 104.107C120.512 104.107 120.04 103.993 119.642 103.766C119.246 103.536 118.942 103.212 118.729 102.793C118.516 102.371 118.41 101.875 118.41 101.305C118.41 100.744 118.516 100.251 118.729 99.8274C118.945 99.4013 119.245 99.0698 119.631 98.8331C120.017 98.594 120.47 98.4744 120.991 98.4744C121.327 98.4744 121.645 98.5289 121.943 98.6378C122.244 98.7443 122.509 98.91 122.738 99.1349C122.97 99.3598 123.153 99.6463 123.285 99.9943C123.418 100.34 123.484 100.752 123.484 101.23V101.624H119.013V100.758H122.252C122.249 100.512 122.196 100.293 122.092 100.101C121.988 99.9067 121.842 99.754 121.655 99.6428C121.471 99.5315 121.255 99.4759 121.009 99.4759C120.746 99.4759 120.515 99.5398 120.316 99.6676C120.118 99.7931 119.963 99.9588 119.851 100.165C119.742 100.368 119.687 100.592 119.684 100.836V101.592C119.684 101.91 119.742 102.182 119.858 102.409C119.974 102.634 120.137 102.807 120.345 102.928C120.553 103.046 120.797 103.105 121.076 103.105C121.263 103.105 121.433 103.079 121.584 103.027C121.736 102.973 121.867 102.893 121.978 102.789C122.09 102.685 122.174 102.556 122.231 102.402L123.431 102.537C123.355 102.854 123.211 103.131 122.998 103.368C122.787 103.602 122.517 103.785 122.188 103.915C121.859 104.043 121.482 104.107 121.059 104.107ZM124.572 104V98.5455H125.818V99.4545H125.875C125.974 99.1397 126.145 98.897 126.386 98.7266C126.63 98.5537 126.908 98.4673 127.221 98.4673C127.292 98.4673 127.371 98.4709 127.459 98.478C127.549 98.4827 127.623 98.491 127.682 98.5028V99.6854C127.628 99.6664 127.542 99.6499 127.423 99.6357C127.307 99.6191 127.195 99.6108 127.086 99.6108C126.851 99.6108 126.641 99.6617 126.454 99.7635C126.269 99.8629 126.123 100.001 126.017 100.179C125.91 100.357 125.857 100.561 125.857 100.793V104H124.572ZM133.575 98.5455L131.632 104H130.212L128.269 98.5455H129.64L130.894 102.597H130.95L132.207 98.5455H133.575ZM136.693 104.107C136.147 104.107 135.674 103.993 135.277 103.766C134.881 103.536 134.577 103.212 134.364 102.793C134.151 102.371 134.044 101.875 134.044 101.305C134.044 100.744 134.151 100.251 134.364 99.8274C134.579 99.4013 134.88 99.0698 135.266 98.8331C135.652 98.594 136.105 98.4744 136.626 98.4744C136.962 98.4744 137.279 98.5289 137.578 98.6378C137.878 98.7443 138.143 98.91 138.373 99.1349C138.605 99.3598 138.787 99.6463 138.92 99.9943C139.053 100.34 139.119 100.752 139.119 101.23V101.624H134.648V100.758H137.887C137.884 100.512 137.831 100.293 137.727 100.101C137.623 99.9067 137.477 99.754 137.29 99.6428C137.105 99.5315 136.89 99.4759 136.644 99.4759C136.381 99.4759 136.15 99.5398 135.951 99.6676C135.752 99.7931 135.597 99.9588 135.486 100.165C135.377 100.368 135.322 100.592 135.319 100.836V101.592C135.319 101.91 135.377 102.182 135.493 102.409C135.609 102.634 135.771 102.807 135.98 102.928C136.188 103.046 136.432 103.105 136.711 103.105C136.898 103.105 137.068 103.079 137.219 103.027C137.371 102.973 137.502 102.893 137.613 102.789C137.724 102.685 137.809 102.556 137.865 102.402L139.066 102.537C138.99 102.854 138.845 103.131 138.632 103.368C138.422 103.602 138.152 103.785 137.823 103.915C137.494 104.043 137.117 104.107 136.693 104.107ZM140.206 104V98.5455H141.453V99.4545H141.51C141.609 99.1397 141.78 98.897 142.021 98.7266C142.265 98.5537 142.543 98.4673 142.856 98.4673C142.927 98.4673 143.006 98.4709 143.093 98.478C143.183 98.4827 143.258 98.491 143.317 98.5028V99.6854C143.263 99.6664 143.176 99.6499 143.058 99.6357C142.942 99.6191 142.83 99.6108 142.721 99.6108C142.486 99.6108 142.276 99.6617 142.089 99.7635C141.904 99.8629 141.758 100.001 141.652 100.179C141.545 100.357 141.492 100.561 141.492 100.793V104H140.206Z" fill="#8777DA"/>
<path d="M100.427 117.107C99.883 117.107 99.4154 116.987 99.0248 116.748C98.6365 116.509 98.337 116.179 98.1263 115.757C97.918 115.333 97.8138 114.846 97.8138 114.294C97.8138 113.74 97.9204 113.251 98.1334 112.827C98.3465 112.401 98.6472 112.07 99.0354 111.833C99.426 111.594 99.8877 111.474 100.42 111.474C100.863 111.474 101.255 111.556 101.596 111.719C101.939 111.88 102.213 112.109 102.416 112.405C102.62 112.698 102.736 113.042 102.764 113.435H101.535C101.486 113.172 101.367 112.953 101.18 112.778C100.996 112.6 100.748 112.511 100.438 112.511C100.175 112.511 99.9445 112.582 99.7456 112.724C99.5468 112.864 99.3917 113.065 99.2805 113.328C99.1715 113.591 99.1171 113.906 99.1171 114.273C99.1171 114.644 99.1715 114.964 99.2805 115.232C99.3894 115.497 99.5421 115.701 99.7385 115.846C99.9374 115.988 100.171 116.059 100.438 116.059C100.628 116.059 100.797 116.023 100.946 115.952C101.097 115.879 101.224 115.774 101.326 115.636C101.428 115.499 101.498 115.332 101.535 115.136H102.764C102.733 115.522 102.62 115.864 102.423 116.162C102.227 116.458 101.959 116.69 101.621 116.858C101.282 117.024 100.884 117.107 100.427 117.107ZM103.82 117V111.545H105.066V112.455H105.123C105.222 112.14 105.393 111.897 105.634 111.727C105.878 111.554 106.156 111.467 106.469 111.467C106.54 111.467 106.619 111.471 106.707 111.478C106.797 111.483 106.871 111.491 106.93 111.503V112.685C106.876 112.666 106.79 112.65 106.671 112.636C106.555 112.619 106.443 112.611 106.334 112.611C106.1 112.611 105.889 112.662 105.702 112.763C105.517 112.863 105.372 113.001 105.265 113.179C105.158 113.357 105.105 113.561 105.105 113.793V117H103.82ZM109.975 117.107C109.428 117.107 108.956 116.993 108.558 116.766C108.162 116.536 107.858 116.212 107.645 115.793C107.432 115.371 107.326 114.875 107.326 114.305C107.326 113.744 107.432 113.251 107.645 112.827C107.861 112.401 108.161 112.07 108.547 111.833C108.933 111.594 109.386 111.474 109.907 111.474C110.243 111.474 110.561 111.529 110.859 111.638C111.16 111.744 111.425 111.91 111.654 112.135C111.886 112.36 112.069 112.646 112.201 112.994C112.334 113.34 112.4 113.752 112.4 114.23V114.624H107.929V113.758H111.168C111.166 113.512 111.112 113.293 111.008 113.101C110.904 112.907 110.758 112.754 110.571 112.643C110.387 112.531 110.171 112.476 109.925 112.476C109.662 112.476 109.431 112.54 109.233 112.668C109.034 112.793 108.879 112.959 108.767 113.165C108.658 113.368 108.603 113.592 108.6 113.836V114.592C108.6 114.91 108.658 115.182 108.774 115.409C108.89 115.634 109.053 115.807 109.261 115.928C109.469 116.046 109.713 116.105 109.992 116.105C110.179 116.105 110.349 116.079 110.5 116.027C110.652 115.973 110.783 115.893 110.894 115.789C111.006 115.685 111.09 115.556 111.147 115.402L112.347 115.537C112.271 115.854 112.127 116.131 111.914 116.368C111.703 116.602 111.433 116.785 111.104 116.915C110.775 117.043 110.398 117.107 109.975 117.107ZM115.057 117.11C114.712 117.11 114.4 117.049 114.123 116.925C113.849 116.8 113.631 116.615 113.47 116.371C113.311 116.128 113.232 115.827 113.232 115.469C113.232 115.162 113.289 114.907 113.402 114.706C113.516 114.505 113.671 114.344 113.868 114.223C114.064 114.102 114.285 114.011 114.532 113.95C114.78 113.886 115.037 113.839 115.302 113.811C115.622 113.778 115.881 113.748 116.08 113.722C116.279 113.694 116.423 113.651 116.513 113.594C116.606 113.535 116.652 113.444 116.652 113.321V113.3C116.652 113.032 116.572 112.825 116.414 112.678C116.255 112.531 116.027 112.458 115.728 112.458C115.414 112.458 115.164 112.527 114.979 112.664C114.797 112.801 114.674 112.964 114.61 113.151L113.41 112.98C113.504 112.649 113.66 112.372 113.878 112.149C114.096 111.924 114.362 111.756 114.677 111.645C114.992 111.531 115.34 111.474 115.721 111.474C115.984 111.474 116.246 111.505 116.506 111.567C116.767 111.628 117.004 111.73 117.22 111.872C117.435 112.012 117.608 112.202 117.738 112.444C117.871 112.685 117.937 112.987 117.937 113.349V117H116.701V116.251H116.659C116.581 116.402 116.471 116.544 116.329 116.677C116.189 116.807 116.013 116.912 115.799 116.993C115.589 117.071 115.341 117.11 115.057 117.11ZM115.391 116.165C115.649 116.165 115.873 116.115 116.062 116.013C116.252 115.909 116.397 115.771 116.499 115.601C116.603 115.43 116.655 115.245 116.655 115.043V114.401C116.615 114.434 116.546 114.464 116.449 114.493C116.355 114.521 116.248 114.546 116.13 114.567C116.011 114.589 115.894 114.608 115.778 114.624C115.662 114.641 115.562 114.655 115.476 114.667C115.285 114.693 115.113 114.736 114.961 114.795C114.81 114.854 114.69 114.937 114.603 115.043C114.515 115.147 114.471 115.282 114.471 115.448C114.471 115.685 114.558 115.864 114.731 115.984C114.903 116.105 115.124 116.165 115.391 116.165ZM121.954 111.545V112.54H118.818V111.545H121.954ZM119.592 110.239H120.878V115.359C120.878 115.532 120.904 115.665 120.956 115.757C121.01 115.847 121.081 115.909 121.169 115.942C121.256 115.975 121.353 115.991 121.46 115.991C121.54 115.991 121.614 115.986 121.68 115.974C121.749 115.962 121.801 115.951 121.836 115.942L122.053 116.947C121.984 116.97 121.886 116.996 121.758 117.025C121.633 117.053 121.479 117.07 121.297 117.075C120.975 117.084 120.685 117.036 120.427 116.929C120.169 116.82 119.964 116.652 119.812 116.425C119.663 116.197 119.59 115.913 119.592 115.572V110.239ZM125.385 117.107C124.838 117.107 124.366 116.993 123.968 116.766C123.573 116.536 123.268 116.212 123.055 115.793C122.842 115.371 122.736 114.875 122.736 114.305C122.736 113.744 122.842 113.251 123.055 112.827C123.271 112.401 123.571 112.07 123.957 111.833C124.343 111.594 124.797 111.474 125.317 111.474C125.654 111.474 125.971 111.529 126.269 111.638C126.57 111.744 126.835 111.91 127.065 112.135C127.297 112.36 127.479 112.646 127.611 112.994C127.744 113.34 127.81 113.752 127.81 114.23V114.624H123.339V113.758H126.578C126.576 113.512 126.522 113.293 126.418 113.101C126.314 112.907 126.168 112.754 125.981 112.643C125.797 112.531 125.581 112.476 125.335 112.476C125.072 112.476 124.842 112.54 124.643 112.668C124.444 112.793 124.289 112.959 124.177 113.165C124.069 113.368 124.013 113.592 124.011 113.836V114.592C124.011 114.91 124.069 115.182 124.185 115.409C124.301 115.634 124.463 115.807 124.671 115.928C124.879 116.046 125.123 116.105 125.403 116.105C125.59 116.105 125.759 116.079 125.91 116.027C126.062 115.973 126.193 115.893 126.305 115.789C126.416 115.685 126.5 115.556 126.557 115.402L127.757 115.537C127.681 115.854 127.537 116.131 127.324 116.368C127.113 116.602 126.843 116.785 126.514 116.915C126.185 117.043 125.809 117.107 125.385 117.107ZM133.75 119.159C133.289 119.159 132.892 119.096 132.561 118.971C132.229 118.848 131.963 118.682 131.762 118.474C131.561 118.265 131.421 118.035 131.343 117.781L132.5 117.501C132.553 117.607 132.628 117.713 132.728 117.817C132.827 117.923 132.961 118.011 133.129 118.08C133.299 118.151 133.514 118.186 133.772 118.186C134.136 118.186 134.438 118.097 134.677 117.92C134.916 117.745 135.036 117.456 135.036 117.053V116.02H134.972C134.906 116.152 134.809 116.289 134.681 116.428C134.555 116.568 134.388 116.685 134.18 116.78C133.974 116.875 133.715 116.922 133.402 116.922C132.983 116.922 132.603 116.824 132.263 116.627C131.924 116.428 131.654 116.132 131.453 115.739C131.254 115.344 131.155 114.849 131.155 114.255C131.155 113.656 131.254 113.151 131.453 112.739C131.654 112.324 131.925 112.011 132.266 111.798C132.607 111.582 132.987 111.474 133.406 111.474C133.726 111.474 133.988 111.529 134.194 111.638C134.403 111.744 134.568 111.873 134.691 112.025C134.815 112.174 134.908 112.315 134.972 112.447H135.043V111.545H136.311V117.089C136.311 117.555 136.2 117.941 135.977 118.246C135.754 118.552 135.45 118.78 135.064 118.932C134.678 119.083 134.241 119.159 133.75 119.159ZM133.761 115.913C134.033 115.913 134.265 115.847 134.457 115.714C134.649 115.582 134.794 115.391 134.894 115.143C134.993 114.894 135.043 114.596 135.043 114.248C135.043 113.905 134.993 113.604 134.894 113.346C134.797 113.088 134.652 112.888 134.461 112.746C134.271 112.601 134.038 112.529 133.761 112.529C133.475 112.529 133.236 112.604 133.044 112.753C132.852 112.902 132.708 113.107 132.611 113.367C132.513 113.625 132.465 113.919 132.465 114.248C132.465 114.582 132.513 114.874 132.611 115.125C132.71 115.374 132.856 115.568 133.047 115.707C133.241 115.845 133.479 115.913 133.761 115.913ZM139.198 117.11C138.852 117.11 138.541 117.049 138.264 116.925C137.989 116.8 137.772 116.615 137.611 116.371C137.452 116.128 137.373 115.827 137.373 115.469C137.373 115.162 137.429 114.907 137.543 114.706C137.657 114.505 137.812 114.344 138.008 114.223C138.205 114.102 138.426 114.011 138.672 113.95C138.921 113.886 139.178 113.839 139.443 113.811C139.763 113.778 140.022 113.748 140.221 113.722C140.419 113.694 140.564 113.651 140.654 113.594C140.746 113.535 140.792 113.444 140.792 113.321V113.3C140.792 113.032 140.713 112.825 140.554 112.678C140.396 112.531 140.167 112.458 139.869 112.458C139.554 112.458 139.304 112.527 139.12 112.664C138.937 112.801 138.814 112.964 138.75 113.151L137.55 112.98C137.645 112.649 137.801 112.372 138.019 112.149C138.237 111.924 138.503 111.756 138.818 111.645C139.133 111.531 139.481 111.474 139.862 111.474C140.125 111.474 140.386 111.505 140.647 111.567C140.907 111.628 141.145 111.73 141.361 111.872C141.576 112.012 141.749 112.202 141.879 112.444C142.012 112.685 142.078 112.987 142.078 113.349V117H140.842V116.251H140.799C140.721 116.402 140.611 116.544 140.469 116.677C140.33 116.807 140.153 116.912 139.94 116.993C139.729 117.071 139.482 117.11 139.198 117.11ZM139.532 116.165C139.79 116.165 140.013 116.115 140.203 116.013C140.392 115.909 140.538 115.771 140.64 115.601C140.744 115.43 140.796 115.245 140.796 115.043V114.401C140.756 114.434 140.687 114.464 140.59 114.493C140.495 114.521 140.389 114.546 140.27 114.567C140.152 114.589 140.035 114.608 139.919 114.624C139.803 114.641 139.702 114.655 139.617 114.667C139.425 114.693 139.254 114.736 139.102 114.795C138.95 114.854 138.831 114.937 138.743 115.043C138.656 115.147 138.612 115.282 138.612 115.448C138.612 115.685 138.698 115.864 138.871 115.984C139.044 116.105 139.264 116.165 139.532 116.165ZM143.37 117V111.545H144.599V112.472H144.663C144.777 112.16 144.965 111.916 145.228 111.741C145.491 111.563 145.804 111.474 146.169 111.474C146.538 111.474 146.849 111.564 147.103 111.744C147.358 111.922 147.538 112.165 147.642 112.472H147.699C147.82 112.169 148.024 111.928 148.31 111.748C148.599 111.566 148.941 111.474 149.336 111.474C149.838 111.474 150.248 111.633 150.565 111.95C150.882 112.268 151.041 112.73 151.041 113.339V117H149.752V113.538C149.752 113.199 149.662 112.952 149.482 112.795C149.302 112.637 149.082 112.558 148.821 112.558C148.511 112.558 148.269 112.655 148.093 112.849C147.921 113.04 147.834 113.29 147.834 113.598V117H146.574V113.484C146.574 113.203 146.488 112.978 146.318 112.81C146.15 112.642 145.93 112.558 145.657 112.558C145.473 112.558 145.305 112.605 145.153 112.7C145.002 112.792 144.881 112.923 144.791 113.094C144.701 113.262 144.656 113.458 144.656 113.683V117H143.37ZM154.76 117.107C154.213 117.107 153.741 116.993 153.343 116.766C152.948 116.536 152.643 116.212 152.43 115.793C152.217 115.371 152.111 114.875 152.111 114.305C152.111 113.744 152.217 113.251 152.43 112.827C152.646 112.401 152.946 112.07 153.332 111.833C153.718 111.594 154.172 111.474 154.692 111.474C155.029 111.474 155.346 111.529 155.644 111.638C155.945 111.744 156.21 111.91 156.44 112.135C156.672 112.36 156.854 112.646 156.986 112.994C157.119 113.34 157.185 113.752 157.185 114.23V114.624H152.714V113.758H155.953C155.951 113.512 155.897 113.293 155.793 113.101C155.689 112.907 155.543 112.754 155.356 112.643C155.172 112.531 154.956 112.476 154.71 112.476C154.447 112.476 154.217 112.54 154.018 112.668C153.819 112.793 153.664 112.959 153.552 113.165C153.444 113.368 153.388 113.592 153.386 113.836V114.592C153.386 114.91 153.444 115.182 153.56 115.409C153.676 115.634 153.838 115.807 154.046 115.928C154.254 116.046 154.498 116.105 154.778 116.105C154.965 116.105 155.134 116.079 155.285 116.027C155.437 115.973 155.568 115.893 155.68 115.789C155.791 115.685 155.875 115.556 155.932 115.402L157.132 115.537C157.056 115.854 156.912 116.131 156.699 116.368C156.488 116.602 156.218 116.785 155.889 116.915C155.56 117.043 155.184 117.107 154.76 117.107Z" fill="#9C9EAB"/>
<rect x="107" y="0.109375" width="41" height="19" rx="9.5" fill="#DBE9F8"/>
<path d="M120.124 7.83594C120.091 7.5258 119.951 7.28433 119.705 7.11151C119.461 6.93868 119.144 6.85227 118.753 6.85227C118.478 6.85227 118.243 6.8937 118.046 6.97656C117.85 7.05942 117.7 7.17187 117.595 7.31392C117.491 7.45597 117.438 7.61813 117.436 7.80043C117.436 7.95194 117.47 8.08333 117.539 8.1946C117.61 8.30587 117.706 8.40057 117.826 8.47869C117.947 8.55445 118.081 8.61837 118.228 8.67045C118.374 8.72254 118.522 8.76634 118.671 8.80185L119.353 8.9723C119.628 9.03622 119.892 9.12263 120.145 9.23153C120.401 9.34044 120.629 9.47775 120.831 9.64347C121.034 9.80919 121.195 10.0092 121.313 10.2436C121.432 10.478 121.491 10.7526 121.491 11.0675C121.491 11.4936 121.382 11.8688 121.164 12.1932C120.947 12.5152 120.632 12.7673 120.22 12.9496C119.81 13.1295 119.314 13.2195 118.732 13.2195C118.166 13.2195 117.675 13.1319 117.258 12.9567C116.844 12.7815 116.519 12.5258 116.285 12.1896C116.053 11.8535 115.928 11.4439 115.909 10.9609H117.205C117.224 11.2143 117.302 11.425 117.439 11.593C117.576 11.7611 117.755 11.8866 117.975 11.9695C118.198 12.0523 118.447 12.0938 118.721 12.0938C119.008 12.0938 119.259 12.0511 119.474 11.9659C119.692 11.8783 119.862 11.7576 119.985 11.6037C120.108 11.4474 120.171 11.2652 120.174 11.0568C120.171 10.8674 120.116 10.7112 120.007 10.5881C119.898 10.4626 119.745 10.3584 119.549 10.2756C119.354 10.1903 119.127 10.1146 118.867 10.0483L118.039 9.83523C117.44 9.68134 116.967 9.44815 116.619 9.13565C116.273 8.82079 116.1 8.40294 116.1 7.8821C116.1 7.4536 116.216 7.07836 116.448 6.75639C116.683 6.43442 117.001 6.18466 117.404 6.0071C117.806 5.82718 118.262 5.73722 118.771 5.73722C119.287 5.73722 119.739 5.82718 120.127 6.0071C120.518 6.18466 120.825 6.43205 121.047 6.74929C121.27 7.06416 121.384 7.42637 121.392 7.83594H120.124ZM125.332 7.65483V8.64915H122.197V7.65483H125.332ZM122.971 6.34801H124.256V11.4688C124.256 11.6416 124.283 11.7741 124.335 11.8665C124.389 11.9564 124.46 12.018 124.548 12.0511C124.635 12.0843 124.732 12.1009 124.839 12.1009C124.919 12.1009 124.993 12.0949 125.059 12.0831C125.128 12.0713 125.18 12.0606 125.215 12.0511L125.432 13.0561C125.363 13.0798 125.265 13.1058 125.137 13.1342C125.012 13.1626 124.858 13.1792 124.676 13.1839C124.354 13.1934 124.064 13.1449 123.805 13.0384C123.547 12.9295 123.343 12.7614 123.191 12.5341C123.042 12.3068 122.969 12.0227 122.971 11.6818V6.34801ZM127.977 13.2195C127.632 13.2195 127.32 13.1579 127.043 13.0348C126.769 12.9093 126.551 12.7247 126.39 12.4808C126.231 12.237 126.152 11.9363 126.152 11.5788C126.152 11.2711 126.209 11.0166 126.322 10.8153C126.436 10.6141 126.591 10.4531 126.788 10.3324C126.984 10.2116 127.205 10.1205 127.452 10.0589C127.7 9.99503 127.957 9.94886 128.222 9.92045C128.542 9.88731 128.801 9.85772 129 9.83168C129.199 9.80327 129.343 9.76065 129.433 9.70384C129.525 9.64465 129.572 9.5535 129.572 9.4304V9.40909C129.572 9.14157 129.492 8.93442 129.334 8.78764C129.175 8.64086 128.947 8.56747 128.648 8.56747C128.333 8.56747 128.084 8.63613 127.899 8.77344C127.717 8.91075 127.594 9.07292 127.53 9.25994L126.329 9.08949C126.424 8.75805 126.58 8.48106 126.798 8.25852C127.016 8.03362 127.282 7.86553 127.597 7.75426C127.912 7.64062 128.26 7.58381 128.641 7.58381C128.904 7.58381 129.166 7.61458 129.426 7.67614C129.686 7.73769 129.924 7.83949 130.14 7.98153C130.355 8.12121 130.528 8.31179 130.658 8.55327C130.791 8.79474 130.857 9.09659 130.857 9.45881V13.1094H129.621V12.3601H129.579C129.501 12.5116 129.391 12.6536 129.248 12.7862C129.109 12.9164 128.932 13.0218 128.719 13.1023C128.509 13.1804 128.261 13.2195 127.977 13.2195ZM128.311 12.2749C128.569 12.2749 128.793 12.224 128.982 12.1222C129.172 12.018 129.317 11.8807 129.419 11.7102C129.523 11.5398 129.575 11.3539 129.575 11.1527V10.5099C129.535 10.5431 129.466 10.5739 129.369 10.6023C129.275 10.6307 129.168 10.6555 129.05 10.6768C128.931 10.6982 128.814 10.7171 128.698 10.7337C128.582 10.7502 128.481 10.7644 128.396 10.7763C128.204 10.8023 128.033 10.8449 127.881 10.9041C127.73 10.9633 127.61 11.0462 127.523 11.1527C127.435 11.2569 127.391 11.3918 127.391 11.5575C127.391 11.7943 127.478 11.973 127.65 12.0938C127.823 12.2145 128.043 12.2749 128.311 12.2749ZM132.15 13.1094V7.65483H133.396V8.56392H133.453C133.552 8.24905 133.723 8.00639 133.964 7.83594C134.208 7.66312 134.486 7.5767 134.799 7.5767C134.87 7.5767 134.949 7.58026 135.037 7.58736C135.127 7.59209 135.201 7.60038 135.261 7.61222V8.79474C135.206 8.7758 135.12 8.75923 135.001 8.74503C134.885 8.72846 134.773 8.72017 134.664 8.72017C134.43 8.72017 134.219 8.77107 134.032 8.87287C133.847 8.9723 133.702 9.1108 133.595 9.28835C133.489 9.46591 133.435 9.67069 133.435 9.9027V13.1094H132.15ZM139.131 7.65483V8.64915H135.996V7.65483H139.131ZM136.77 6.34801H138.055V11.4688C138.055 11.6416 138.081 11.7741 138.133 11.8665C138.188 11.9564 138.259 12.018 138.347 12.0511C138.434 12.0843 138.531 12.1009 138.638 12.1009C138.718 12.1009 138.792 12.0949 138.858 12.0831C138.927 12.0713 138.979 12.0606 139.014 12.0511L139.231 13.0561C139.162 13.0798 139.064 13.1058 138.936 13.1342C138.811 13.1626 138.657 13.1792 138.474 13.1839C138.152 13.1934 137.862 13.1449 137.604 13.0384C137.346 12.9295 137.141 12.7614 136.99 12.5341C136.841 12.3068 136.767 12.0227 136.77 11.6818V6.34801Z" fill="#8777DA"/>
<g clip-path="url(#clip1_305_9828)">
<path d="M117.892 178.83C114.998 178.626 113.798 179.391 113.56 179.799C113.175 180.458 113.051 180.783 113.051 182.449C113.051 185.344 113.968 186.169 114.478 186.22C122.971 186.237 140.182 186.158 141.079 185.71C142.2 185.149 141.793 183.417 141.895 181.378C141.976 179.748 140.638 179 139.958 178.83C133.809 178.915 120.787 179.034 117.892 178.83Z" fill="#DBE9F8"/>
<path d="M117.94 186.661C115.017 186.458 113.806 187.222 113.565 187.63C113.177 188.289 113.051 188.614 113.051 190.28C113.051 193.175 114.12 193.201 114.635 193.252C123.213 193.269 140.225 193.613 141.503 193.122C142.78 192.631 142.181 191.214 142.181 189.209C142.181 187.577 140.911 186.831 140.225 186.661C134.015 186.746 120.863 186.865 117.94 186.661Z" fill="#DBE9F8"/>
<path d="M117.088 193.293C114.662 193.293 113.674 193.954 113.476 194.434C113.155 195.211 113.051 195.593 113.051 197.555C113.051 200.966 115.938 201.928 116.363 201.988C123.445 202.008 135.849 202.081 136.597 201.553C137.532 200.893 137.017 198.696 137.102 196.295C137.17 194.374 136.052 193.197 135.485 192.997C130.358 193.097 119.494 193.293 117.088 193.293Z" fill="#DBE9F8"/>
<path d="M125.631 198.865C125.465 200.637 126.9 201.31 127.638 201.425H138.501C139.585 201.425 141.767 200.789 141.823 198.242C141.892 195.06 139.816 193.814 137.394 193.814C136.149 191.877 134.28 191.185 131.582 191.6C129.423 191.932 128.053 194.967 127.638 196.443C127.038 196.513 125.797 197.094 125.631 198.865Z" fill="#E3CEFC"/>
<path d="M114.145 179.283L118.643 172.848H136.91L140.785 179.283H114.145Z" fill="#DBE9F8"/>
<path d="M128.125 189.5H138.125C138.47 189.5 138.75 189.22 138.75 188.875C138.75 188.53 138.47 188.25 138.125 188.25H128.125C127.78 188.25 127.5 188.53 127.5 188.875C127.5 189.22 127.78 189.5 128.125 189.5Z" fill="#8777DA"/>
<path d="M142.5 183.875V181.375C142.5 180.771 142.32 180.212 142.023 179.734C142.015 179.719 142.014 179.701 142.005 179.688L138.14 173.475C137.566 172.552 136.574 172 135.486 172H119.515C118.426 172 117.435 172.552 116.861 173.475L112.996 179.688C112.989 179.7 112.989 179.714 112.981 179.728C112.681 180.206 112.5 180.769 112.5 181.375V183.875C112.5 184.9 113.004 185.805 113.77 186.375C113.004 186.945 112.5 187.849 112.5 188.875V191.375C112.5 192.4 113.004 193.305 113.77 193.875C113.004 194.445 112.5 195.349 112.5 196.375V198.875C112.5 200.597 113.903 202 115.625 202H123.82C123.902 202 123.983 201.984 124.059 201.953C124.135 201.921 124.204 201.875 124.262 201.817C124.32 201.759 124.366 201.69 124.398 201.614C124.429 201.538 124.445 201.457 124.445 201.375C124.445 201.03 124.165 200.75 123.82 200.75H115.625C114.591 200.75 113.75 199.909 113.75 198.875V196.375C113.75 195.34 114.591 194.5 115.625 194.5H126.08C126.425 194.5 126.705 194.22 126.705 193.875C126.705 193.53 126.425 193.25 126.08 193.25H115.625C114.591 193.25 113.75 192.409 113.75 191.375V188.875C113.75 187.84 114.591 187 115.625 187H139.375C140.409 187 141.25 187.841 141.25 188.875V191.375C141.25 191.65 141.182 191.926 141.052 192.193C140.901 192.503 141.029 192.876 141.339 193.029C141.65 193.181 142.024 193.054 142.175 192.743C142.391 192.303 142.5 191.844 142.5 191.375V188.875C142.5 187.85 141.996 186.945 141.23 186.375C141.996 185.804 142.5 184.9 142.5 183.875ZM117.923 174.135C118.266 173.581 118.861 173.25 119.514 173.25H135.485C136.137 173.25 136.733 173.581 137.077 174.135L139.656 178.279C139.563 178.269 139.471 178.25 139.375 178.25H115.625C115.529 178.25 115.437 178.269 115.344 178.277L117.923 174.135ZM141.25 183.875C141.25 184.909 140.409 185.75 139.375 185.75H115.625C114.591 185.75 113.75 184.909 113.75 183.875V181.375C113.75 180.34 114.591 179.5 115.625 179.5H139.375C140.409 179.5 141.25 180.34 141.25 181.375V183.875H141.25Z" fill="#8777DA"/>
<path d="M115 197.625C115 198.659 115.841 199.5 116.875 199.5C117.909 199.5 118.75 198.659 118.75 197.625C118.75 196.591 117.909 195.75 116.875 195.75C115.841 195.75 115 196.59 115 197.625ZM117.5 197.625C117.5 197.97 117.22 198.25 116.875 198.25C116.53 198.25 116.25 197.97 116.25 197.625C116.25 197.28 116.53 197 116.875 197C117.22 197 117.5 197.28 117.5 197.625ZM138.125 193.25C138.011 193.25 137.897 193.256 137.786 193.266C136.745 191.704 134.996 190.75 133.125 190.75C130.215 190.75 127.814 192.971 127.529 195.808C126.09 196.085 125 197.355 125 198.875C125 200.598 126.402 202 128.125 202H138.125C140.537 202 142.5 200.038 142.5 197.625C142.5 195.212 140.537 193.25 138.125 193.25ZM138.125 200.75H128.125C127.091 200.75 126.25 199.909 126.25 198.875C126.25 197.841 127.091 197 128.125 197C128.47 197 128.75 196.72 128.75 196.375C128.75 193.963 130.712 192 133.125 192C134.687 192 136.144 192.861 136.922 194.247C137.052 194.479 137.31 194.601 137.577 194.556C137.756 194.525 137.937 194.5 138.125 194.5C139.847 194.5 141.25 195.902 141.25 197.625C141.25 199.347 139.847 200.75 138.125 200.75ZM138.125 180.75H128.125C127.78 180.75 127.5 181.03 127.5 181.375C127.5 181.72 127.78 182 128.125 182H138.125C138.47 182 138.75 181.72 138.75 181.375C138.75 181.03 138.47 180.75 138.125 180.75ZM138.125 183.25H128.125C127.78 183.25 127.5 183.53 127.5 183.875C127.5 184.22 127.78 184.5 128.125 184.5H138.125C138.47 184.5 138.75 184.22 138.75 183.875C138.75 183.53 138.47 183.25 138.125 183.25ZM116.875 180.75C115.841 180.75 115 181.59 115 182.625C115 183.66 115.841 184.5 116.875 184.5C117.909 184.5 118.75 183.659 118.75 182.625C118.75 181.591 117.909 180.75 116.875 180.75ZM116.875 183.25C116.53 183.25 116.25 182.97 116.25 182.625C116.25 182.28 116.53 182 116.875 182C117.22 182 117.5 182.28 117.5 182.625C117.5 182.97 117.22 183.25 116.875 183.25ZM115 190.125C115 191.159 115.841 192 116.875 192C117.909 192 118.75 191.159 118.75 190.125C118.75 189.091 117.909 188.25 116.875 188.25C115.841 188.25 115 189.09 115 190.125ZM117.5 190.125C117.5 190.47 117.22 190.75 116.875 190.75C116.53 190.75 116.25 190.47 116.25 190.125C116.25 189.78 116.53 189.5 116.875 189.5C117.22 189.5 117.5 189.78 117.5 190.125Z" fill="#8777DA"/>
<circle cx="116.873" cy="182.623" r="0.623657" fill="#E3CEFC"/>
<circle cx="116.873" cy="190.124" r="0.623657" fill="#E3CEFC"/>
<circle cx="116.873" cy="197.631" r="0.623657" fill="#E3CEFC"/>
</g>
<path d="M116.159 209.727C116.126 209.416 115.986 209.175 115.74 209.002C115.496 208.829 115.179 208.743 114.788 208.743C114.514 208.743 114.278 208.784 114.082 208.867C113.885 208.95 113.735 209.062 113.631 209.205C113.526 209.347 113.473 209.509 113.471 209.691C113.471 209.843 113.505 209.974 113.574 210.085C113.645 210.196 113.741 210.291 113.861 210.369C113.982 210.445 114.116 210.509 114.263 210.561C114.409 210.613 114.557 210.657 114.707 210.692L115.388 210.863C115.663 210.927 115.927 211.013 116.18 211.122C116.436 211.231 116.664 211.368 116.866 211.534C117.069 211.7 117.23 211.9 117.349 212.134C117.467 212.369 117.526 212.643 117.526 212.958C117.526 213.384 117.417 213.759 117.199 214.084C116.982 214.406 116.667 214.658 116.255 214.84C115.845 215.02 115.349 215.11 114.767 215.11C114.201 215.11 113.71 215.022 113.293 214.847C112.879 214.672 112.555 214.416 112.32 214.08C112.088 213.744 111.963 213.335 111.944 212.852H113.24C113.259 213.105 113.337 213.316 113.474 213.484C113.612 213.652 113.79 213.777 114.011 213.86C114.233 213.943 114.482 213.984 114.756 213.984C115.043 213.984 115.294 213.942 115.509 213.857C115.727 213.769 115.897 213.648 116.021 213.494C116.144 213.338 116.206 213.156 116.209 212.947C116.206 212.758 116.151 212.602 116.042 212.479C115.933 212.353 115.78 212.249 115.584 212.166C115.39 212.081 115.162 212.005 114.902 211.939L114.074 211.726C113.476 211.572 113.002 211.339 112.654 211.026C112.308 210.711 112.136 210.294 112.136 209.773C112.136 209.344 112.252 208.969 112.484 208.647C112.718 208.325 113.036 208.075 113.439 207.898C113.841 207.718 114.297 207.628 114.806 207.628C115.322 207.628 115.774 207.718 116.163 207.898C116.553 208.075 116.86 208.323 117.082 208.64C117.305 208.955 117.42 209.317 117.427 209.727H116.159ZM121.059 215.107C120.512 215.107 120.04 214.993 119.642 214.766C119.246 214.536 118.942 214.212 118.729 213.793C118.516 213.371 118.41 212.875 118.41 212.305C118.41 211.744 118.516 211.251 118.729 210.827C118.945 210.401 119.245 210.07 119.631 209.833C120.017 209.594 120.47 209.474 120.991 209.474C121.327 209.474 121.645 209.529 121.943 209.638C122.244 209.744 122.509 209.91 122.738 210.135C122.97 210.36 123.153 210.646 123.285 210.994C123.418 211.34 123.484 211.752 123.484 212.23V212.624H119.013V211.758H122.252C122.249 211.512 122.196 211.293 122.092 211.101C121.988 210.907 121.842 210.754 121.655 210.643C121.471 210.531 121.255 210.476 121.009 210.476C120.746 210.476 120.515 210.54 120.316 210.668C120.118 210.793 119.963 210.959 119.851 211.165C119.742 211.368 119.687 211.592 119.684 211.836V212.592C119.684 212.91 119.742 213.182 119.858 213.409C119.974 213.634 120.137 213.807 120.345 213.928C120.553 214.046 120.797 214.105 121.076 214.105C121.263 214.105 121.433 214.079 121.584 214.027C121.736 213.973 121.867 213.893 121.978 213.789C122.09 213.685 122.174 213.556 122.231 213.402L123.431 213.537C123.355 213.854 123.211 214.131 122.998 214.368C122.787 214.602 122.517 214.785 122.188 214.915C121.859 215.043 121.482 215.107 121.059 215.107ZM124.572 215V209.545H125.818V210.455H125.875C125.974 210.14 126.145 209.897 126.386 209.727C126.63 209.554 126.908 209.467 127.221 209.467C127.292 209.467 127.371 209.471 127.459 209.478C127.549 209.483 127.623 209.491 127.682 209.503V210.685C127.628 210.666 127.542 210.65 127.423 210.636C127.307 210.619 127.195 210.611 127.086 210.611C126.851 210.611 126.641 210.662 126.454 210.763C126.269 210.863 126.123 211.001 126.017 211.179C125.91 211.357 125.857 211.561 125.857 211.793V215H124.572ZM133.575 209.545L131.632 215H130.212L128.269 209.545H129.64L130.894 213.597H130.95L132.207 209.545H133.575ZM136.693 215.107C136.147 215.107 135.674 214.993 135.277 214.766C134.881 214.536 134.577 214.212 134.364 213.793C134.151 213.371 134.044 212.875 134.044 212.305C134.044 211.744 134.151 211.251 134.364 210.827C134.579 210.401 134.88 210.07 135.266 209.833C135.652 209.594 136.105 209.474 136.626 209.474C136.962 209.474 137.279 209.529 137.578 209.638C137.878 209.744 138.143 209.91 138.373 210.135C138.605 210.36 138.787 210.646 138.92 210.994C139.053 211.34 139.119 211.752 139.119 212.23V212.624H134.648V211.758H137.887C137.884 211.512 137.831 211.293 137.727 211.101C137.623 210.907 137.477 210.754 137.29 210.643C137.105 210.531 136.89 210.476 136.644 210.476C136.381 210.476 136.15 210.54 135.951 210.668C135.752 210.793 135.597 210.959 135.486 211.165C135.377 211.368 135.322 211.592 135.319 211.836V212.592C135.319 212.91 135.377 213.182 135.493 213.409C135.609 213.634 135.771 213.807 135.98 213.928C136.188 214.046 136.432 214.105 136.711 214.105C136.898 214.105 137.068 214.079 137.219 214.027C137.371 213.973 137.502 213.893 137.613 213.789C137.724 213.685 137.809 213.556 137.865 213.402L139.066 213.537C138.99 213.854 138.845 214.131 138.632 214.368C138.422 214.602 138.152 214.785 137.823 214.915C137.494 215.043 137.117 215.107 136.693 215.107ZM140.206 215V209.545H141.453V210.455H141.51C141.609 210.14 141.78 209.897 142.021 209.727C142.265 209.554 142.543 209.467 142.856 209.467C142.927 209.467 143.006 209.471 143.093 209.478C143.183 209.483 143.258 209.491 143.317 209.503V210.685C143.263 210.666 143.176 210.65 143.058 210.636C142.942 210.619 142.83 210.611 142.721 210.611C142.486 210.611 142.276 210.662 142.089 210.763C141.904 210.863 141.758 211.001 141.652 211.179C141.545 211.357 141.492 211.561 141.492 211.793V215H140.206Z" fill="#8777DA"/>
<path d="M106.241 223.987L105.069 224.115C105.036 223.997 104.978 223.885 104.895 223.781C104.815 223.677 104.706 223.593 104.569 223.529C104.431 223.465 104.263 223.433 104.064 223.433C103.797 223.433 103.572 223.491 103.39 223.607C103.21 223.723 103.121 223.874 103.123 224.058C103.121 224.217 103.179 224.346 103.297 224.445C103.418 224.545 103.617 224.626 103.894 224.69L104.824 224.889C105.34 225 105.724 225.177 105.975 225.418C106.228 225.66 106.356 225.976 106.358 226.366C106.356 226.71 106.255 227.013 106.056 227.276C105.86 227.536 105.587 227.74 105.236 227.886C104.886 228.033 104.483 228.107 104.029 228.107C103.361 228.107 102.824 227.967 102.417 227.688C102.009 227.406 101.767 227.014 101.689 226.512L102.942 226.391C102.999 226.638 103.12 226.823 103.304 226.949C103.489 227.074 103.729 227.137 104.025 227.137C104.331 227.137 104.576 227.074 104.76 226.949C104.947 226.823 105.041 226.668 105.041 226.484C105.041 226.327 104.98 226.198 104.86 226.097C104.741 225.995 104.557 225.917 104.306 225.862L103.375 225.667C102.852 225.558 102.465 225.375 102.214 225.116C101.963 224.856 101.839 224.527 101.841 224.129C101.839 223.793 101.93 223.502 102.115 223.256C102.302 223.007 102.561 222.815 102.892 222.68C103.226 222.543 103.611 222.474 104.047 222.474C104.686 222.474 105.189 222.611 105.556 222.883C105.925 223.155 106.154 223.523 106.241 223.987ZM110.142 222.545V223.54H107.006V222.545H110.142ZM107.781 221.239H109.066V226.359C109.066 226.532 109.092 226.665 109.144 226.757C109.199 226.847 109.27 226.909 109.357 226.942C109.445 226.975 109.542 226.991 109.648 226.991C109.729 226.991 109.802 226.986 109.869 226.974C109.937 226.962 109.989 226.951 110.025 226.942L110.241 227.947C110.173 227.97 110.075 227.996 109.947 228.025C109.821 228.053 109.667 228.07 109.485 228.075C109.163 228.084 108.873 228.036 108.615 227.929C108.357 227.82 108.152 227.652 108.001 227.425C107.852 227.197 107.778 226.913 107.781 226.572V221.239ZM112.787 228.11C112.441 228.11 112.13 228.049 111.853 227.925C111.578 227.8 111.36 227.615 111.199 227.371C111.041 227.128 110.961 226.827 110.961 226.469C110.961 226.162 111.018 225.907 111.132 225.706C111.246 225.505 111.401 225.344 111.597 225.223C111.794 225.102 112.015 225.011 112.261 224.95C112.51 224.886 112.767 224.839 113.032 224.811C113.351 224.778 113.611 224.748 113.809 224.722C114.008 224.694 114.153 224.651 114.243 224.594C114.335 224.535 114.381 224.444 114.381 224.321V224.3C114.381 224.032 114.302 223.825 114.143 223.678C113.985 223.531 113.756 223.458 113.458 223.458C113.143 223.458 112.893 223.527 112.709 223.664C112.526 223.801 112.403 223.964 112.339 224.151L111.139 223.98C111.234 223.649 111.39 223.372 111.608 223.149C111.826 222.924 112.092 222.756 112.407 222.645C112.722 222.531 113.07 222.474 113.451 222.474C113.714 222.474 113.975 222.505 114.236 222.567C114.496 222.628 114.734 222.73 114.949 222.872C115.165 223.012 115.338 223.202 115.468 223.444C115.6 223.685 115.667 223.987 115.667 224.349V228H114.431V227.251H114.388C114.31 227.402 114.2 227.544 114.058 227.677C113.918 227.807 113.742 227.912 113.529 227.993C113.318 228.071 113.071 228.11 112.787 228.11ZM113.121 227.165C113.379 227.165 113.602 227.115 113.792 227.013C113.981 226.909 114.127 226.771 114.229 226.601C114.333 226.43 114.385 226.245 114.385 226.043V225.401C114.345 225.434 114.276 225.464 114.179 225.493C114.084 225.521 113.978 225.546 113.859 225.567C113.741 225.589 113.624 225.608 113.508 225.624C113.392 225.641 113.291 225.655 113.206 225.667C113.014 225.693 112.842 225.736 112.691 225.795C112.539 225.854 112.42 225.937 112.332 226.043C112.245 226.147 112.201 226.282 112.201 226.448C112.201 226.685 112.287 226.864 112.46 226.984C112.633 227.105 112.853 227.165 113.121 227.165ZM116.959 228V222.545H118.206V223.455H118.263C118.362 223.14 118.532 222.897 118.774 222.727C119.018 222.554 119.296 222.467 119.608 222.467C119.68 222.467 119.759 222.471 119.846 222.478C119.936 222.483 120.011 222.491 120.07 222.503V223.685C120.016 223.666 119.929 223.65 119.811 223.636C119.695 223.619 119.582 223.611 119.474 223.611C119.239 223.611 119.028 223.662 118.841 223.763C118.657 223.863 118.511 224.001 118.405 224.179C118.298 224.357 118.245 224.561 118.245 224.793V228H116.959ZM123.941 222.545V223.54H120.805V222.545H123.941ZM121.579 221.239H122.865V226.359C122.865 226.532 122.891 226.665 122.943 226.757C122.997 226.847 123.068 226.909 123.156 226.942C123.244 226.975 123.341 226.991 123.447 226.991C123.528 226.991 123.601 226.986 123.667 226.974C123.736 226.962 123.788 226.951 123.824 226.942L124.04 227.947C123.972 227.97 123.873 227.996 123.746 228.025C123.62 228.053 123.466 228.07 123.284 228.075C122.962 228.084 122.672 228.036 122.414 227.929C122.156 227.82 121.951 227.652 121.8 227.425C121.65 227.197 121.577 226.913 121.579 226.572V221.239ZM129.869 230.159C129.407 230.159 129.01 230.096 128.679 229.971C128.348 229.848 128.081 229.682 127.88 229.474C127.679 229.265 127.539 229.035 127.461 228.781L128.619 228.501C128.671 228.607 128.746 228.713 128.846 228.817C128.945 228.923 129.079 229.011 129.247 229.08C129.418 229.151 129.632 229.186 129.89 229.186C130.254 229.186 130.556 229.097 130.795 228.92C131.035 228.745 131.154 228.456 131.154 228.053V227.02H131.09C131.024 227.152 130.927 227.289 130.799 227.428C130.674 227.568 130.507 227.685 130.298 227.78C130.092 227.875 129.833 227.922 129.521 227.922C129.102 227.922 128.722 227.824 128.381 227.627C128.042 227.428 127.772 227.132 127.571 226.739C127.372 226.344 127.273 225.849 127.273 225.255C127.273 224.656 127.372 224.151 127.571 223.739C127.772 223.324 128.043 223.011 128.384 222.798C128.725 222.582 129.105 222.474 129.524 222.474C129.844 222.474 130.107 222.529 130.312 222.638C130.521 222.744 130.687 222.873 130.81 223.025C130.933 223.174 131.026 223.315 131.09 223.447H131.161V222.545H132.429V228.089C132.429 228.555 132.318 228.941 132.095 229.246C131.873 229.552 131.568 229.78 131.183 229.932C130.797 230.083 130.359 230.159 129.869 230.159ZM129.879 226.913C130.152 226.913 130.384 226.847 130.575 226.714C130.767 226.582 130.913 226.391 131.012 226.143C131.112 225.894 131.161 225.596 131.161 225.248C131.161 224.905 131.112 224.604 131.012 224.346C130.915 224.088 130.771 223.888 130.579 223.746C130.389 223.601 130.156 223.529 129.879 223.529C129.593 223.529 129.354 223.604 129.162 223.753C128.97 223.902 128.826 224.107 128.729 224.367C128.632 224.625 128.583 224.919 128.583 225.248C128.583 225.582 128.632 225.874 128.729 226.125C128.828 226.374 128.974 226.568 129.165 226.707C129.36 226.845 129.598 226.913 129.879 226.913ZM135.316 228.11C134.97 228.11 134.659 228.049 134.382 227.925C134.107 227.8 133.89 227.615 133.729 227.371C133.57 227.128 133.491 226.827 133.491 226.469C133.491 226.162 133.548 225.907 133.661 225.706C133.775 225.505 133.93 225.344 134.126 225.223C134.323 225.102 134.544 225.011 134.79 224.95C135.039 224.886 135.296 224.839 135.561 224.811C135.881 224.778 136.14 224.748 136.339 224.722C136.538 224.694 136.682 224.651 136.772 224.594C136.864 224.535 136.911 224.444 136.911 224.321V224.3C136.911 224.032 136.831 223.825 136.673 223.678C136.514 223.531 136.286 223.458 135.987 223.458C135.672 223.458 135.423 223.527 135.238 223.664C135.056 223.801 134.933 223.964 134.869 224.151L133.668 223.98C133.763 223.649 133.919 223.372 134.137 223.149C134.355 222.924 134.621 222.756 134.936 222.645C135.251 222.531 135.599 222.474 135.98 222.474C136.243 222.474 136.504 222.505 136.765 222.567C137.025 222.628 137.263 222.73 137.479 222.872C137.694 223.012 137.867 223.202 137.997 223.444C138.13 223.685 138.196 223.987 138.196 224.349V228H136.96V227.251H136.918C136.839 227.402 136.729 227.544 136.587 227.677C136.448 227.807 136.271 227.912 136.058 227.993C135.848 228.071 135.6 228.11 135.316 228.11ZM135.65 227.165C135.908 227.165 136.132 227.115 136.321 227.013C136.51 226.909 136.656 226.771 136.758 226.601C136.862 226.43 136.914 226.245 136.914 226.043V225.401C136.874 225.434 136.805 225.464 136.708 225.493C136.613 225.521 136.507 225.546 136.388 225.567C136.27 225.589 136.153 225.608 136.037 225.624C135.921 225.641 135.82 225.655 135.735 225.667C135.543 225.693 135.372 225.736 135.22 225.795C135.069 225.854 134.949 225.937 134.862 226.043C134.774 226.147 134.73 226.282 134.73 226.448C134.73 226.685 134.817 226.864 134.989 226.984C135.162 227.105 135.382 227.165 135.65 227.165ZM139.489 228V222.545H140.717V223.472H140.781C140.895 223.16 141.083 222.916 141.346 222.741C141.609 222.563 141.922 222.474 142.287 222.474C142.656 222.474 142.968 222.564 143.221 222.744C143.477 222.922 143.656 223.165 143.761 223.472H143.817C143.938 223.169 144.142 222.928 144.428 222.748C144.717 222.566 145.059 222.474 145.455 222.474C145.956 222.474 146.366 222.633 146.683 222.95C147 223.268 147.159 223.73 147.159 224.339V228H145.87V224.538C145.87 224.199 145.78 223.952 145.6 223.795C145.42 223.637 145.2 223.558 144.94 223.558C144.629 223.558 144.387 223.655 144.212 223.849C144.039 224.04 143.952 224.29 143.952 224.598V228H142.692V224.484C142.692 224.203 142.607 223.978 142.436 223.81C142.268 223.642 142.048 223.558 141.776 223.558C141.591 223.558 141.423 223.605 141.271 223.7C141.12 223.792 140.999 223.923 140.909 224.094C140.819 224.262 140.774 224.458 140.774 224.683V228H139.489ZM150.878 228.107C150.331 228.107 149.859 227.993 149.461 227.766C149.066 227.536 148.762 227.212 148.548 226.793C148.335 226.371 148.229 225.875 148.229 225.305C148.229 224.744 148.335 224.251 148.548 223.827C148.764 223.401 149.065 223.07 149.45 222.833C149.836 222.594 150.29 222.474 150.811 222.474C151.147 222.474 151.464 222.529 151.762 222.638C152.063 222.744 152.328 222.91 152.558 223.135C152.79 223.36 152.972 223.646 153.105 223.994C153.237 224.34 153.303 224.752 153.303 225.23V225.624H148.833V224.758H152.071C152.069 224.512 152.016 224.293 151.911 224.101C151.807 223.907 151.662 223.754 151.475 223.643C151.29 223.531 151.075 223.476 150.828 223.476C150.566 223.476 150.335 223.54 150.136 223.668C149.937 223.793 149.782 223.959 149.671 224.165C149.562 224.368 149.506 224.592 149.504 224.836V225.592C149.504 225.91 149.562 226.182 149.678 226.409C149.794 226.634 149.956 226.807 150.164 226.928C150.373 227.046 150.616 227.105 150.896 227.105C151.083 227.105 151.252 227.079 151.404 227.027C151.555 226.973 151.686 226.893 151.798 226.789C151.909 226.685 151.993 226.556 152.05 226.402L153.25 226.537C153.174 226.854 153.03 227.131 152.817 227.368C152.606 227.602 152.336 227.785 152.007 227.915C151.678 228.043 151.302 228.107 150.878 228.107Z" fill="#9C9EAB"/>
<g clip-path="url(#clip2_305_9828)">
<path d="M208.879 122.285C209.168 122.363 210.457 121.953 211.087 121.663C209.19 120.304 209.085 115.459 209.269 113.207C209.243 113.141 209.668 113.049 211.581 113.207C213.971 113.405 217.883 111.034 219.187 110.856C219.456 112.042 220.88 112.917 221.558 113.207C221.545 114.702 221.487 117.973 221.36 119.095C221.202 120.497 219.543 121.426 219.523 121.959C219.507 122.386 221.303 122.383 222.1 122.297C222.324 122.239 222.676 122.121 223.277 121.663C224.028 121.09 223.573 115.795 223.534 113.563C223.494 111.33 223.395 108.327 222.012 106.628C220.629 104.929 218.772 104.672 215.295 104.534C211.818 104.396 210.415 105.265 208.657 106.984C206.898 108.703 207.728 113.938 207.709 117.692C207.689 121.446 208.541 122.194 208.879 122.285Z" fill="#E3CEFC"/>
<path d="M211.146 113.259L209.365 113.1C209.047 114.821 209.433 118.264 209.605 119.542C209.935 122.008 212.375 122.814 212.601 123.267C212.783 123.63 212.492 124.368 212.024 125.123C210.957 126.131 210.746 126.402 210.782 126.493C210.983 126.991 212.903 128.64 214.136 128.825L217.892 128.15C218.544 127.756 218.804 127.31 219.115 126.943C219.221 126.818 219.861 126.429 220.186 125.901L219.427 125.304L218.779 124.453C218.673 124.271 218.217 123.985 218.479 122.662C219.77 122.141 220.64 120.949 221.365 119.613C222.09 118.276 221.721 116.452 221.699 113.1C220.489 112.111 219.574 111.591 219.115 110.701C216.697 111.729 214.208 112.621 212.973 113.1L211.146 113.259Z" fill="#F8E2DB"/>
<path d="M225.135 134H205.658C205.658 132.568 205.785 129.434 206.295 128.356C206.805 127.278 207.351 127.162 208.613 126.956C208.569 126.871 210.056 126.634 210.743 126.494C211.217 127.159 212.543 128.231 212.99 128.305H214.257C215.118 128.343 216.372 128.305 216.484 128.305C216.635 128.305 217.386 127.832 217.688 127.719C217.929 127.63 218.934 126.814 219.105 126.036C219.797 126.326 221.454 127.082 222.821 127.374C224.531 127.739 224.866 129.199 224.866 129.367C224.866 129.502 225.045 132.512 225.135 134Z" fill="#DBE9F8"/>
<path d="M223.03 126.503L220.33 125.575C219.792 125.39 219.321 125.051 218.975 124.6C218.936 124.548 218.886 124.504 218.829 124.471C218.772 124.438 218.709 124.416 218.644 124.408C218.578 124.399 218.512 124.403 218.449 124.42C218.385 124.437 218.325 124.466 218.273 124.506C218.221 124.546 218.177 124.596 218.144 124.652C218.111 124.709 218.089 124.772 218.081 124.837C218.072 124.902 218.076 124.968 218.093 125.032C218.11 125.095 218.139 125.155 218.179 125.207C218.42 125.521 218.707 125.797 219.032 126.025C217.893 127.994 215.341 128.661 213.38 127.467C213.144 127.323 212.836 127.397 212.691 127.633C212.622 127.746 212.601 127.882 212.632 128.011C212.663 128.14 212.745 128.251 212.858 128.32C215.309 129.813 218.509 128.973 219.919 126.489C220.048 126.537 222.483 127.372 222.697 127.447C223.861 127.851 224.646 128.943 224.646 130.173V133.5C224.646 133.633 224.698 133.76 224.792 133.853C224.886 133.947 225.014 134 225.147 134C225.28 134 225.407 133.947 225.501 133.853C225.595 133.76 225.648 133.633 225.648 133.5V130.173C225.648 128.519 224.596 127.045 223.03 126.503Z" fill="#8777DA"/>
<path d="M222.202 117.133V113C222.202 112.891 222.167 112.785 222.101 112.699C222.035 112.612 221.943 112.549 221.838 112.519C220.722 112.203 219.838 111.379 219.414 110.261C219.295 109.948 218.907 109.836 218.64 110.041C215.987 112.07 212.692 112.945 209.364 112.504C209.065 112.465 208.797 112.696 208.797 113V117.133C208.797 118.8 209.415 120.397 210.538 121.629C210.582 121.678 210.636 121.717 210.695 121.745C210.755 121.773 210.819 121.789 210.885 121.792C210.951 121.796 211.017 121.786 211.078 121.763C211.14 121.741 211.197 121.707 211.246 121.663C211.295 121.619 211.334 121.565 211.362 121.506C211.39 121.447 211.406 121.382 211.41 121.317C211.413 121.251 211.403 121.186 211.381 121.124C211.358 121.062 211.324 121.005 211.28 120.957C210.325 119.908 209.799 118.55 209.799 117.133V113.559C212.99 113.849 216.126 113.023 218.744 111.203C219.283 112.207 220.146 112.967 221.2 113.361V117.133C221.2 121.295 216.942 123.919 213.281 122.373C212.879 122.204 212.469 122.593 212.614 123C212.552 124.168 211.787 125.19 210.67 125.574L207.97 126.503C206.404 127.045 205.352 128.519 205.352 130.173V133.5C205.352 133.633 205.404 133.76 205.498 133.853C205.592 133.947 205.72 134 205.853 134C205.986 134 206.113 133.947 206.207 133.853C206.301 133.76 206.354 133.633 206.354 133.5V130.173C206.354 128.943 207.137 127.848 208.302 127.447L208.302 127.445C208.304 127.451 208.183 127.488 210.997 126.52C212.345 126.056 213.312 124.902 213.558 123.535C217.799 124.818 222.202 121.663 222.202 117.133Z" fill="#8777DA"/>
<path d="M208.875 122.295C208.941 122.304 209.007 122.301 209.071 122.285C209.134 122.269 209.194 122.24 209.247 122.201C209.3 122.162 209.345 122.112 209.378 122.056C209.412 122 209.434 121.937 209.444 121.872C209.453 121.807 209.45 121.741 209.434 121.677C209.418 121.614 209.389 121.554 209.35 121.501C209.311 121.449 209.261 121.404 209.205 121.37C209.148 121.337 209.086 121.315 209.021 121.305C208.536 121.234 208.17 120.809 208.171 120.317V110.719C208.171 107.566 210.742 105 213.902 105H217.097C220.258 105 222.829 107.566 222.829 110.719V120.317C222.829 120.809 222.464 121.234 221.979 121.305C221.849 121.326 221.732 121.397 221.654 121.503C221.576 121.609 221.543 121.741 221.562 121.871C221.581 122.001 221.651 122.119 221.756 122.198C221.861 122.277 221.993 122.312 222.124 122.295C223.097 122.152 223.831 121.302 223.831 120.317V110.719C223.831 107.014 220.81 104 217.097 104H213.902C210.189 104 207.168 107.014 207.168 110.719V120.317C207.168 121.302 207.902 122.152 208.875 122.295Z" fill="#8777DA"/>
<path d="M213.934 114.875C213.801 114.875 213.673 114.928 213.579 115.021C213.485 115.115 213.433 115.242 213.433 115.375V116.25C213.433 116.383 213.485 116.51 213.579 116.604C213.673 116.697 213.801 116.75 213.934 116.75C214.067 116.75 214.194 116.697 214.288 116.604C214.382 116.51 214.435 116.383 214.435 116.25V115.375C214.435 115.242 214.382 115.115 214.288 115.021C214.194 114.928 214.067 114.875 213.934 114.875ZM217.066 116.75C217.199 116.75 217.326 116.697 217.42 116.604C217.514 116.51 217.567 116.383 217.567 116.25V115.375C217.567 115.242 217.514 115.115 217.42 115.021C217.326 114.928 217.199 114.875 217.066 114.875C216.933 114.875 216.806 114.928 216.712 115.021C216.618 115.115 216.565 115.242 216.565 115.375V116.25C216.565 116.383 216.618 116.51 216.712 116.604C216.806 116.697 216.933 116.75 217.066 116.75Z" fill="#8777DA"/>
</g>
<path d="M197.902 147V139.727H200.629C201.188 139.727 201.657 139.831 202.035 140.04C202.417 140.248 202.704 140.535 202.898 140.899C203.095 141.261 203.193 141.673 203.193 142.135C203.193 142.601 203.095 143.016 202.898 143.378C202.702 143.74 202.412 144.025 202.028 144.234C201.645 144.44 201.172 144.543 200.611 144.543H198.804V143.46H200.434C200.761 143.46 201.028 143.403 201.236 143.289C201.445 143.175 201.599 143.019 201.698 142.82C201.8 142.621 201.851 142.393 201.851 142.135C201.851 141.877 201.8 141.65 201.698 141.453C201.599 141.257 201.444 141.104 201.233 140.995C201.025 140.884 200.756 140.828 200.427 140.828H199.219V147H197.902ZM205.566 139.727V147H204.281V139.727H205.566ZM208.458 147.11C208.112 147.11 207.801 147.049 207.524 146.925C207.249 146.8 207.031 146.615 206.87 146.371C206.712 146.128 206.632 145.827 206.632 145.469C206.632 145.162 206.689 144.907 206.803 144.706C206.916 144.505 207.072 144.344 207.268 144.223C207.465 144.102 207.686 144.011 207.932 143.95C208.181 143.886 208.438 143.839 208.703 143.811C209.022 143.778 209.282 143.748 209.48 143.722C209.679 143.694 209.824 143.651 209.914 143.594C210.006 143.535 210.052 143.444 210.052 143.321V143.3C210.052 143.032 209.973 142.825 209.814 142.678C209.656 142.531 209.427 142.458 209.129 142.458C208.814 142.458 208.564 142.527 208.38 142.664C208.197 142.801 208.074 142.964 208.01 143.151L206.81 142.98C206.905 142.649 207.061 142.372 207.279 142.149C207.496 141.924 207.763 141.756 208.078 141.645C208.393 141.531 208.741 141.474 209.122 141.474C209.384 141.474 209.646 141.505 209.907 141.567C210.167 141.628 210.405 141.73 210.62 141.872C210.836 142.012 211.009 142.202 211.139 142.444C211.271 142.685 211.338 142.987 211.338 143.349V147H210.102V146.251H210.059C209.981 146.402 209.871 146.544 209.729 146.677C209.589 146.807 209.413 146.912 209.2 146.993C208.989 147.071 208.742 147.11 208.458 147.11ZM208.791 146.165C209.05 146.165 209.273 146.115 209.463 146.013C209.652 145.909 209.798 145.771 209.899 145.601C210.004 145.43 210.056 145.245 210.056 145.043V144.401C210.015 144.434 209.947 144.464 209.85 144.493C209.755 144.521 209.648 144.546 209.53 144.567C209.412 144.589 209.295 144.608 209.179 144.624C209.063 144.641 208.962 144.655 208.877 144.667C208.685 144.693 208.513 144.736 208.362 144.795C208.21 144.854 208.091 144.937 208.003 145.043C207.916 145.147 207.872 145.282 207.872 145.448C207.872 145.685 207.958 145.864 208.131 145.984C208.304 146.105 208.524 146.165 208.791 146.165ZM213.234 149.045C213.059 149.045 212.897 149.031 212.747 149.003C212.601 148.977 212.483 148.946 212.396 148.911L212.694 147.909C212.881 147.964 213.048 147.99 213.195 147.987C213.342 147.985 213.471 147.939 213.582 147.849C213.696 147.761 213.791 147.614 213.87 147.408L213.98 147.114L212.002 141.545H213.365L214.622 145.665H214.679L215.94 141.545H217.307L215.123 147.661C215.021 147.949 214.886 148.197 214.718 148.403C214.55 148.611 214.344 148.77 214.1 148.879C213.859 148.99 213.57 149.045 213.234 149.045ZM220.426 147.107C219.879 147.107 219.407 146.993 219.009 146.766C218.614 146.536 218.309 146.212 218.096 145.793C217.883 145.371 217.777 144.875 217.777 144.305C217.777 143.744 217.883 143.251 218.096 142.827C218.312 142.401 218.612 142.07 218.998 141.833C219.384 141.594 219.838 141.474 220.358 141.474C220.695 141.474 221.012 141.529 221.31 141.638C221.611 141.744 221.876 141.91 222.106 142.135C222.338 142.36 222.52 142.646 222.652 142.994C222.785 143.34 222.851 143.752 222.851 144.23V144.624H218.38V143.758H221.619C221.617 143.512 221.563 143.293 221.459 143.101C221.355 142.907 221.209 142.754 221.022 142.643C220.838 142.531 220.622 142.476 220.376 142.476C220.113 142.476 219.883 142.54 219.684 142.668C219.485 142.793 219.33 142.959 219.218 143.165C219.11 143.368 219.054 143.592 219.052 143.836V144.592C219.052 144.91 219.11 145.182 219.226 145.409C219.342 145.634 219.504 145.807 219.712 145.928C219.92 146.046 220.164 146.105 220.444 146.105C220.631 146.105 220.8 146.079 220.951 146.027C221.103 145.973 221.234 145.893 221.346 145.789C221.457 145.685 221.541 145.556 221.598 145.402L222.798 145.537C222.722 145.854 222.578 146.131 222.365 146.368C222.154 146.602 221.884 146.785 221.555 146.915C221.226 147.043 220.85 147.107 220.426 147.107ZM223.939 147V141.545H225.185V142.455H225.242C225.342 142.14 225.512 141.897 225.753 141.727C225.997 141.554 226.275 141.467 226.588 141.467C226.659 141.467 226.738 141.471 226.826 141.478C226.916 141.483 226.99 141.491 227.05 141.503V142.685C226.995 142.666 226.909 142.65 226.79 142.636C226.674 142.619 226.562 142.611 226.453 142.611C226.219 142.611 226.008 142.662 225.821 142.763C225.636 142.863 225.491 143.001 225.384 143.179C225.278 143.357 225.224 143.561 225.224 143.793V147H223.939ZM227.96 147V139.727H230.745C231.27 139.727 231.707 139.81 232.055 139.976C232.405 140.139 232.667 140.363 232.84 140.647C233.015 140.931 233.103 141.253 233.103 141.613C233.103 141.909 233.046 142.162 232.932 142.373C232.818 142.581 232.666 142.75 232.474 142.881C232.282 143.011 232.068 143.104 231.831 143.161V143.232C232.089 143.246 232.337 143.326 232.573 143.47C232.813 143.612 233.008 143.813 233.159 144.074C233.311 144.334 233.387 144.649 233.387 145.018C233.387 145.395 233.295 145.733 233.113 146.034C232.931 146.332 232.656 146.568 232.289 146.741C231.922 146.914 231.461 147 230.904 147H227.96ZM229.278 145.899H230.695C231.173 145.899 231.518 145.808 231.728 145.626C231.941 145.441 232.048 145.204 232.048 144.915C232.048 144.7 231.995 144.506 231.888 144.333C231.782 144.158 231.63 144.021 231.434 143.921C231.237 143.819 231.003 143.768 230.73 143.768H229.278V145.899ZM229.278 142.82H230.581C230.809 142.82 231.013 142.779 231.196 142.696C231.378 142.611 231.521 142.491 231.625 142.337C231.732 142.181 231.785 141.996 231.785 141.783C231.785 141.502 231.686 141.27 231.487 141.087C231.29 140.905 230.998 140.814 230.61 140.814H229.278V142.82Z" fill="#8777DA"/>
<path d="M207.464 154.545H208.75V160.312C208.75 160.705 208.675 161.03 208.526 161.286C208.377 161.541 208.161 161.732 207.88 161.857C207.598 161.983 207.256 162.045 206.853 162.045C206.806 162.045 206.762 162.044 206.722 162.042C206.682 162.042 206.638 162.041 206.591 162.038V160.991C206.626 160.993 206.658 160.994 206.687 160.994C206.715 160.997 206.745 160.998 206.775 160.998C207.022 160.998 207.198 160.938 207.304 160.817C207.411 160.698 207.464 160.524 207.464 160.295V154.545ZM208.103 153.771C207.897 153.771 207.721 153.704 207.574 153.569C207.43 153.432 207.358 153.267 207.358 153.075C207.358 152.881 207.43 152.717 207.574 152.582C207.721 152.444 207.897 152.376 208.103 152.376C208.307 152.376 208.481 152.444 208.625 152.582C208.772 152.717 208.846 152.881 208.846 153.075C208.846 153.267 208.772 153.432 208.625 153.569C208.481 153.704 208.307 153.771 208.103 153.771ZM212.451 160.107C211.918 160.107 211.457 159.989 211.066 159.755C210.675 159.521 210.372 159.193 210.157 158.771C209.944 158.35 209.837 157.857 209.837 157.294C209.837 156.731 209.944 156.237 210.157 155.813C210.372 155.389 210.675 155.06 211.066 154.826C211.457 154.592 211.918 154.474 212.451 154.474C212.984 154.474 213.445 154.592 213.836 154.826C214.226 155.06 214.528 155.389 214.741 155.813C214.957 156.237 215.065 156.731 215.065 157.294C215.065 157.857 214.957 158.35 214.741 158.771C214.528 159.193 214.226 159.521 213.836 159.755C213.445 159.989 212.984 160.107 212.451 160.107ZM212.458 159.077C212.747 159.077 212.988 158.997 213.182 158.839C213.377 158.678 213.521 158.462 213.616 158.192C213.713 157.923 213.761 157.622 213.761 157.29C213.761 156.957 213.713 156.655 213.616 156.385C213.521 156.113 213.377 155.896 213.182 155.735C212.988 155.574 212.747 155.494 212.458 155.494C212.162 155.494 211.916 155.574 211.719 155.735C211.525 155.896 211.38 156.113 211.283 156.385C211.188 156.655 211.141 156.957 211.141 157.29C211.141 157.622 211.188 157.923 211.283 158.192C211.38 158.462 211.525 158.678 211.719 158.839C211.916 158.997 212.162 159.077 212.458 159.077ZM216.156 160V154.545H217.441V160H216.156ZM216.802 153.771C216.598 153.771 216.423 153.704 216.276 153.569C216.13 153.432 216.056 153.267 216.056 153.075C216.056 152.881 216.13 152.717 216.276 152.582C216.423 152.444 216.598 152.376 216.802 152.376C217.008 152.376 217.183 152.444 217.328 152.582C217.474 152.717 217.548 152.881 217.548 153.075C217.548 153.267 217.474 153.432 217.328 153.569C217.183 153.704 217.008 153.771 216.802 153.771ZM220.049 156.804V160H218.763V154.545H219.992V155.472H220.056C220.181 155.167 220.381 154.924 220.656 154.744C220.933 154.564 221.275 154.474 221.682 154.474C222.059 154.474 222.386 154.555 222.666 154.716C222.947 154.877 223.165 155.11 223.319 155.415C223.475 155.721 223.552 156.091 223.55 156.527V160H222.264V156.726C222.264 156.361 222.17 156.076 221.98 155.87C221.793 155.664 221.534 155.561 221.203 155.561C220.978 155.561 220.778 155.611 220.603 155.71C220.43 155.807 220.294 155.948 220.194 156.133C220.097 156.317 220.049 156.541 220.049 156.804Z" fill="#9C9EAB"/>
<g clip-path="url(#clip3_305_9828)">
<path d="M34.1754 112.588L32.4537 113.404C32.136 115.125 32.3623 118.276 32.6048 119.542C33.0489 121.862 35.3748 122.814 35.6013 123.267C35.7826 123.629 35.4924 124.368 35.0242 125.123C33.9566 126.131 33.7458 126.402 33.7823 126.493C33.9834 126.991 35.903 128.64 37.1362 128.825L40.8923 128.15C41.5437 127.755 41.8041 127.31 42.1148 126.943C42.2209 126.818 42.8611 126.429 43.1863 125.901L42.4275 125.304L41.7787 124.453C41.6729 124.271 41.2171 123.985 41.4789 122.662C42.7702 122.141 43.6403 120.949 44.3653 119.613C45.0903 118.276 44.8352 117.098 44.8125 113.745C40.7573 113.972 36.6223 112.226 36.0333 111.75C35.5621 111.369 35.2026 111.486 35.0818 111.591L34.1754 112.588Z" fill="#F8E2DB"/>
<path d="M48.1346 134H28.658C28.658 132.568 28.7854 129.435 29.2951 128.356C29.8047 127.278 30.3508 127.162 31.6134 126.956C31.5687 126.872 33.056 126.635 33.7434 126.494C34.2168 127.159 35.5426 128.231 35.9896 128.306H37.2574C38.1178 128.343 39.3724 128.306 39.4839 128.306C39.6347 128.306 40.3861 127.832 40.6878 127.72C40.9291 127.63 41.9342 126.814 42.1047 126.036C42.7975 126.327 44.4538 127.082 45.8215 127.374C47.5311 127.739 47.8664 129.199 47.8664 129.367C47.8664 129.502 48.0452 132.512 48.1346 134Z" fill="#E3CEFC"/>
<path d="M46.3097 115.402H44.5318C44.4828 115.148 44.3848 114.45 44.3848 113.684C39.0594 114.273 38.0287 112.85 34.8875 111.181C34.7109 112.241 33.0469 113.291 32.2369 113.684V117.12L30.6909 115.991V108.359L32.2369 107.451L35.1082 104.702C38.0204 104.759 43.8447 104.898 43.8447 104.996C43.8447 105.095 43.6648 106.264 43.5748 106.837L45.8816 108.138L46.3097 115.402Z" fill="#9ABAFB"/>
<path d="M36.934 114.562C36.8011 114.562 36.6737 114.615 36.5797 114.708C36.4857 114.802 36.4329 114.929 36.4329 115.062V115.937C36.4329 116.07 36.4857 116.197 36.5797 116.291C36.6737 116.384 36.8011 116.437 36.934 116.437C37.067 116.437 37.1944 116.384 37.2884 116.291C37.3824 116.197 37.4352 116.07 37.4352 115.937V115.062C37.4352 114.929 37.3824 114.802 37.2884 114.708C37.1944 114.615 37.067 114.562 36.934 114.562ZM40.0662 116.437C40.1991 116.437 40.3266 116.384 40.4205 116.291C40.5145 116.197 40.5673 116.07 40.5673 115.937V115.062C40.5673 114.929 40.5145 114.802 40.4205 114.708C40.3266 114.615 40.1991 114.562 40.0662 114.562C39.9333 114.562 39.8058 114.615 39.7118 114.708C39.6178 114.802 39.565 114.929 39.565 115.062V115.937C39.565 116.07 39.6178 116.197 39.7118 116.291C39.8058 116.384 39.9333 116.437 40.0662 116.437Z" fill="#8777DA"/>
<path d="M36.5585 123.535C40.828 124.827 45.2027 121.636 45.2027 117.132V113.624C45.2027 113.321 44.9344 113.089 44.6356 113.129C41.3074 113.569 38.013 112.694 35.3594 110.665C35.0929 110.461 34.7046 110.572 34.5857 110.885C34.1616 112.004 33.278 112.827 32.1613 113.143C32.0564 113.173 31.9641 113.236 31.8984 113.323C31.8326 113.41 31.7971 113.516 31.7971 113.624V116.312C31.4646 116.138 31.2375 115.794 31.2379 115.398V109.307C31.2383 108.658 31.7666 108.12 32.4313 108.12C32.5314 108.12 32.6292 108.09 32.7121 108.034C32.795 107.978 32.8593 107.899 32.8965 107.806C33.5814 106.101 35.2139 105 37.0565 105H43.0097C43.36 105 43.6027 105.351 43.478 105.679L43.1138 106.638C43.0102 106.91 43.1616 107.214 43.4425 107.295L44.3107 107.547C45.1686 107.796 45.7684 108.581 45.7714 109.455V115.376H46.7721L46.7753 109.453C46.7707 108.137 45.8723 106.959 44.5906 106.587L44.2434 106.486L44.4152 106.034C44.7876 105.054 44.0615 104.001 43.0102 104H37.0562C34.9075 104 32.9917 105.224 32.0914 107.146C31.0422 107.309 30.2364 108.215 30.2356 109.306V115.397C30.235 116.353 30.9039 117.158 31.8025 117.375C31.8558 118.833 32.3881 120.244 33.3165 121.372C33.3583 121.423 33.4096 121.465 33.4677 121.496C33.5257 121.527 33.5893 121.546 33.6548 121.553C33.7203 121.559 33.7864 121.553 33.8494 121.534C33.9124 121.515 33.971 121.483 34.0218 121.442C34.1246 121.358 34.1896 121.236 34.2026 121.104C34.2156 120.972 34.1756 120.84 34.0912 120.738C33.2582 119.725 32.7995 118.445 32.7995 117.132V113.986C33.8538 113.591 34.7163 112.831 35.2554 111.827C37.874 113.648 41.0092 114.474 44.2004 114.183V117.132C44.2004 121.185 40.0547 123.937 36.3154 122.387C35.9826 122.248 35.6156 122.492 35.6183 122.851C35.6168 124.08 34.8343 125.174 33.6701 125.574L30.9704 126.503C29.4039 127.044 28.3519 128.519 28.3519 130.173V133.5C28.3519 133.633 28.4047 133.76 28.4986 133.853C28.5926 133.947 28.7201 134 28.853 134C28.9859 134 29.1134 133.947 29.2074 133.853C29.3013 133.76 29.3541 133.633 29.3541 133.5V130.173C29.3541 128.943 30.1372 127.847 31.3026 127.446L31.3019 127.445C31.3041 127.451 31.9949 127.208 33.9968 126.52C35.3449 126.056 36.3123 124.902 36.5585 123.535Z" fill="#8777DA"/>
<path d="M46.0252 126.502L43.3299 125.574C42.7389 125.371 42.24 124.992 41.887 124.477C41.7307 124.249 41.4188 124.191 41.1904 124.347C41.0807 124.422 41.0054 124.537 40.9809 124.667C40.9564 124.798 40.9848 124.932 41.0599 125.042C41.3262 125.43 41.6543 125.761 42.0313 126.025C40.8618 128.05 38.1861 128.701 36.2069 127.355C36.097 127.283 35.9633 127.257 35.8344 127.282C35.7055 127.308 35.5918 127.383 35.5178 127.491C35.4438 127.599 35.4154 127.732 35.4387 127.861C35.462 127.99 35.5351 128.105 35.6424 128.181C38.1211 129.867 41.4748 129.039 42.92 126.489C43.0787 126.548 45.541 127.392 45.6975 127.447C46.8605 127.854 47.6459 128.943 47.6459 130.173V133.5C47.6459 133.633 47.6987 133.76 47.7926 133.854C47.8866 133.947 48.0141 134 48.147 134C48.2799 134 48.4074 133.947 48.5014 133.854C48.5954 133.76 48.6482 133.633 48.6482 133.5V130.173C48.6482 128.517 47.594 127.042 46.0252 126.502Z" fill="#8777DA"/>
</g>
<path d="M20.7701 147V139.727H23.4973C24.056 139.727 24.5248 139.831 24.9036 140.04C25.2847 140.248 25.5724 140.535 25.7665 140.899C25.963 141.261 26.0613 141.673 26.0613 142.135C26.0613 142.601 25.963 143.016 25.7665 143.378C25.57 143.74 25.28 144.025 24.8965 144.234C24.513 144.44 24.0407 144.543 23.4796 144.543H21.6721V143.46H23.302C23.6287 143.46 23.8962 143.403 24.1046 143.289C24.3129 143.175 24.4668 143.019 24.5662 142.82C24.668 142.621 24.7189 142.393 24.7189 142.135C24.7189 141.877 24.668 141.65 24.5662 141.453C24.4668 141.257 24.3117 141.104 24.101 140.995C23.8927 140.884 23.624 140.828 23.2949 140.828H22.0875V147H20.7701ZM28.4343 139.727V147H27.1488V139.727H28.4343ZM31.3258 147.11C30.9802 147.11 30.6689 147.049 30.3919 146.925C30.1172 146.8 29.8994 146.615 29.7385 146.371C29.5798 146.128 29.5005 145.827 29.5005 145.469C29.5005 145.162 29.5574 144.907 29.671 144.706C29.7846 144.505 29.9397 144.344 30.1362 144.223C30.3327 144.102 30.554 144.011 30.8002 143.95C31.0488 143.886 31.3057 143.839 31.5708 143.811C31.8904 143.778 32.1497 143.748 32.3485 143.722C32.5474 143.694 32.6918 143.651 32.7818 143.594C32.8741 143.535 32.9203 143.444 32.9203 143.321V143.3C32.9203 143.032 32.841 142.825 32.6824 142.678C32.5237 142.531 32.2953 142.458 31.997 142.458C31.6821 142.458 31.4324 142.527 31.2477 142.664C31.0654 142.801 30.9423 142.964 30.8784 143.151L29.6781 142.98C29.7728 142.649 29.929 142.372 30.1468 142.149C30.3646 141.924 30.631 141.756 30.9458 141.645C31.2607 141.531 31.6087 141.474 31.9899 141.474C32.2527 141.474 32.5143 141.505 32.7747 141.567C33.0351 141.628 33.273 141.73 33.4885 141.872C33.7039 142.012 33.8767 142.202 34.0069 142.444C34.1395 142.685 34.2058 142.987 34.2058 143.349V147H32.97V146.251H32.9274C32.8493 146.402 32.7392 146.544 32.5971 146.677C32.4574 146.807 32.2811 146.912 32.068 146.993C31.8573 147.071 31.6099 147.11 31.3258 147.11ZM31.6596 146.165C31.9177 146.165 32.1414 146.115 32.3308 146.013C32.5202 145.909 32.6658 145.771 32.7676 145.601C32.8717 145.43 32.9238 145.245 32.9238 145.043V144.401C32.8836 144.434 32.8149 144.464 32.7179 144.493C32.6232 144.521 32.5166 144.546 32.3983 144.567C32.2799 144.589 32.1627 144.608 32.0467 144.624C31.9307 144.641 31.8301 144.655 31.7449 144.667C31.5531 144.693 31.3815 144.736 31.2299 144.795C31.0784 144.854 30.9589 144.937 30.8713 145.043C30.7837 145.147 30.7399 145.282 30.7399 145.448C30.7399 145.685 30.8263 145.864 30.9991 145.984C31.1719 146.105 31.3921 146.165 31.6596 146.165ZM36.1021 149.045C35.9269 149.045 35.7647 149.031 35.6156 149.003C35.4688 148.977 35.3516 148.946 35.264 148.911L35.5623 147.909C35.7493 147.964 35.9163 147.99 36.063 147.987C36.2098 147.985 36.3388 147.939 36.4501 147.849C36.5637 147.761 36.6596 147.614 36.7377 147.408L36.8478 147.114L34.8699 141.545H36.2335L37.4906 145.665H37.5474L38.8081 141.545H40.1752L37.9913 147.661C37.8895 147.949 37.7546 148.197 37.5865 148.403C37.4184 148.611 37.2124 148.77 36.9686 148.879C36.7271 148.99 36.4383 149.045 36.1021 149.045ZM43.294 147.107C42.7472 147.107 42.2749 146.993 41.8771 146.766C41.4818 146.536 41.1776 146.212 40.9645 145.793C40.7514 145.371 40.6449 144.875 40.6449 144.305C40.6449 143.744 40.7514 143.251 40.9645 142.827C41.1799 142.401 41.4806 142.07 41.8665 141.833C42.2524 141.594 42.7057 141.474 43.2266 141.474C43.5627 141.474 43.88 141.529 44.1783 141.638C44.4789 141.744 44.7441 141.91 44.9737 142.135C45.2057 142.36 45.388 142.646 45.5206 142.994C45.6532 143.34 45.7195 143.752 45.7195 144.23V144.624H41.2486V143.758H44.4872C44.4848 143.512 44.4316 143.293 44.3274 143.101C44.2232 142.907 44.0777 142.754 43.8906 142.643C43.706 142.531 43.4905 142.476 43.2443 142.476C42.9815 142.476 42.7507 142.54 42.5518 142.668C42.353 142.793 42.1979 142.959 42.0866 143.165C41.9777 143.368 41.9221 143.592 41.9197 143.836V144.592C41.9197 144.91 41.9777 145.182 42.0938 145.409C42.2098 145.634 42.3719 145.807 42.5803 145.928C42.7886 146.046 43.0324 146.105 43.3118 146.105C43.4988 146.105 43.6681 146.079 43.8196 146.027C43.9711 145.973 44.1025 145.893 44.2138 145.789C44.325 145.685 44.4091 145.556 44.4659 145.402L45.6662 145.537C45.5904 145.854 45.446 146.131 45.233 146.368C45.0223 146.602 44.7524 146.785 44.4233 146.915C44.0942 147.043 43.7178 147.107 43.294 147.107ZM46.807 147V141.545H48.0534V142.455H48.1103C48.2097 142.14 48.3801 141.897 48.6216 141.727C48.8655 141.554 49.1436 141.467 49.4561 141.467C49.5272 141.467 49.6065 141.471 49.6941 141.478C49.784 141.483 49.8586 141.491 49.9178 141.503V142.685C49.8633 142.666 49.7769 142.65 49.6586 142.636C49.5426 142.619 49.4301 142.611 49.3212 142.611C49.0868 142.611 48.8761 142.662 48.6891 142.763C48.5044 142.863 48.3588 143.001 48.2523 143.179C48.1458 143.357 48.0925 143.561 48.0925 143.793V147H46.807ZM51.3622 147H49.956L52.5163 139.727H54.1428L56.7067 147H55.3004L53.358 141.219H53.3011L51.3622 147ZM51.4084 144.148H55.2436V145.207H51.4084V144.148Z" fill="#8777DA"/>
<path d="M30.4642 154.545H31.7497V160.312C31.7497 160.705 31.6752 161.03 31.526 161.286C31.3769 161.541 31.1614 161.732 30.8797 161.857C30.598 161.983 30.2559 162.045 29.8534 162.045C29.8061 162.045 29.7623 162.044 29.722 162.042C29.6818 162.042 29.638 162.041 29.5906 162.038V160.991C29.6262 160.993 29.6581 160.994 29.6865 160.994C29.7149 160.997 29.7445 160.998 29.7753 160.998C30.0215 160.998 30.1979 160.938 30.3044 160.817C30.411 160.698 30.4642 160.524 30.4642 160.295V154.545ZM31.1034 153.771C30.8975 153.771 30.7211 153.704 30.5743 153.569C30.4299 153.432 30.3577 153.267 30.3577 153.075C30.3577 152.881 30.4299 152.717 30.5743 152.582C30.7211 152.444 30.8975 152.376 31.1034 152.376C31.307 152.376 31.481 152.444 31.6254 152.582C31.7722 152.717 31.8456 152.881 31.8456 153.075C31.8456 153.267 31.7722 153.432 31.6254 153.569C31.481 153.704 31.307 153.771 31.1034 153.771ZM35.4509 160.107C34.9182 160.107 34.4566 159.989 34.066 159.755C33.6753 159.521 33.3723 159.193 33.1569 158.771C32.9438 158.35 32.8373 157.857 32.8373 157.294C32.8373 156.731 32.9438 156.237 33.1569 155.813C33.3723 155.389 33.6753 155.06 34.066 154.826C34.4566 154.592 34.9182 154.474 35.4509 154.474C35.9836 154.474 36.4452 154.592 36.8358 154.826C37.2265 155.06 37.5283 155.389 37.7414 155.813C37.9568 156.237 38.0645 156.731 38.0645 157.294C38.0645 157.857 37.9568 158.35 37.7414 158.771C37.5283 159.193 37.2265 159.521 36.8358 159.755C36.4452 159.989 35.9836 160.107 35.4509 160.107ZM35.458 159.077C35.7468 159.077 35.9883 158.997 36.1824 158.839C36.3766 158.678 36.521 158.462 36.6157 158.192C36.7127 157.923 36.7613 157.622 36.7613 157.29C36.7613 156.957 36.7127 156.655 36.6157 156.385C36.521 156.113 36.3766 155.896 36.1824 155.735C35.9883 155.574 35.7468 155.494 35.458 155.494C35.1621 155.494 34.9159 155.574 34.7194 155.735C34.5252 155.896 34.3796 156.113 34.2826 156.385C34.1879 156.655 34.1405 156.957 34.1405 157.29C34.1405 157.622 34.1879 157.923 34.2826 158.192C34.3796 158.462 34.5252 158.678 34.7194 158.839C34.9159 158.997 35.1621 159.077 35.458 159.077ZM39.1556 160V154.545H40.4411V160H39.1556ZM39.8019 153.771C39.5983 153.771 39.4231 153.704 39.2764 153.569C39.1296 153.432 39.0562 153.267 39.0562 153.075C39.0562 152.881 39.1296 152.717 39.2764 152.582C39.4231 152.444 39.5983 152.376 39.8019 152.376C40.0079 152.376 40.1831 152.444 40.3275 152.582C40.4743 152.717 40.5477 152.881 40.5477 153.075C40.5477 153.267 40.4743 153.432 40.3275 153.569C40.1831 153.704 40.0079 153.771 39.8019 153.771ZM43.0486 156.804V160H41.7631V154.545H42.9917V155.472H43.0557C43.1811 155.167 43.3812 154.924 43.6558 154.744C43.9328 154.564 44.2749 154.474 44.6821 154.474C45.0585 154.474 45.3864 154.555 45.6657 154.716C45.9475 154.877 46.1653 155.11 46.3192 155.415C46.4754 155.721 46.5523 156.091 46.55 156.527V160H45.2645V156.726C45.2645 156.361 45.1698 156.076 44.9804 155.87C44.7934 155.664 44.5341 155.561 44.2027 155.561C43.9778 155.561 43.7777 155.611 43.6025 155.71C43.4297 155.807 43.2936 155.948 43.1942 156.133C43.0971 156.317 43.0486 156.541 43.0486 156.804Z" fill="#9C9EAB"/>
<path d="M128.215 126C128.215 125.586 127.879 125.25 127.465 125.25C127.051 125.25 126.715 125.586 126.715 126L128.215 126ZM127.465 166L131.795 158.5L123.135 158.5L127.465 166ZM126.715 126L126.715 159.25L128.215 159.25L128.215 126L126.715 126Z" fill="#8777DA"/>
<path d="M128.215 25.1094C128.215 24.6952 127.879 24.3594 127.465 24.3594C127.051 24.3594 126.715 24.6952 126.715 25.1094L128.215 25.1094ZM127.465 55.1094L131.795 47.6094L123.135 47.6094L127.465 55.1094ZM126.715 25.1094L126.715 48.3594L128.215 48.3594L128.215 25.1094L126.715 25.1094Z" fill="#8777DA"/>
<path d="M196.475 129.691C196.857 129.53 197.035 129.09 196.874 128.708C196.713 128.327 196.273 128.148 195.891 128.309L196.475 129.691ZM138.75 142.053L146.415 146.083L146.073 137.429L138.75 142.053ZM195.891 128.309C186.703 132.191 165.026 139.553 145.437 141.038L145.551 142.534C165.363 141.032 187.207 133.607 196.475 129.691L195.891 128.309Z" fill="#9ABAFB"/>
<path d="M58.524 130.11C58.1425 129.949 57.9638 129.509 58.1251 129.127C58.2863 128.745 58.7263 128.567 59.1078 128.728L58.524 130.11ZM116.249 142.472L108.584 146.502L108.926 137.848L116.249 142.472ZM59.1078 128.728C68.296 132.61 89.9727 139.972 109.562 141.457L109.448 142.953C89.636 141.451 67.7919 134.026 58.524 130.11L59.1078 128.728Z" fill="#9ABAFB"/>
<defs>
<clipPath id="clip0_305_9828">
<rect width="30" height="30" fill="white" transform="translate(112.5 61)"/>
</clipPath>
<clipPath id="clip1_305_9828">
<rect width="30" height="30" fill="white" transform="translate(112.5 172)"/>
</clipPath>
<clipPath id="clip2_305_9828">
<rect width="30" height="30" fill="white" transform="translate(200.5 104)"/>
</clipPath>
<clipPath id="clip3_305_9828">
<rect width="30" height="30" fill="white" transform="translate(23.5 104)"/>
</clipPath>
</defs>
</svg>
